<?xml version="1.0" encoding="utf-8"?>
<!-- Generator: Adobe Illustrator 27.5.0, SVG Export Plug-In . SVG Version: 6.00 Build 0)  -->
<svg version="1.1" xmlns="http://www.w3.org/2000/svg" xmlns:xlink="http://www.w3.org/1999/xlink" x="0px" y="0px"
	 viewBox="0 0 500 500" style="enable-background:new 0 0 500 500;" xml:space="preserve">
<g id="BACKGROUND">
	<g>
		<g>
			<g>
				<rect style="fill:#F5DED0;" width="500" height="500"/>
			</g>
		</g>
	</g>
</g>
<g id="OBJECTS">
	<g>
		<path style="fill:#F0C8B2;" d="M415.793,355.355c-30.456,68.144-110.92,97.853-181.669,90.504
			c-68.388,0.704-145.04-75.834-85.843-137.149c20.984-19.283,52.819-26.122,69.866-49.778
			c17.758-28.172,10.664-69.644,46.324-85.744c20.614-10.64,42.519-9.853,63.887-4.671
			C412.677,188.967,447.442,285.365,415.793,355.355z"/>
	</g>
	<g>
		<g>
			<path style="fill:#7EA78B;" d="M412.298,223.854c0,0-3.931-15.061,2.14-36.039c6.072-20.978,21.053-23.023,26.47-15.431
				c5.417,7.592-0.932,16.509-5.198,21.69C431.446,199.256,417.878,209.889,412.298,223.854z"/>
		</g>
		<g>
			<path style="fill:#7EA78B;" d="M416.981,230.361c0,0,13.682-20.553,29.264-29.545c15.582-8.992,28.252,7.815,20.344,17.996
				S433.018,220.873,416.981,230.361z"/>
		</g>
		<g>
			<path style="fill:#473220;" d="M408.233,251.212c-0.002,0-0.004,0-0.007,0c-0.411-0.004-0.743-0.339-0.743-0.75
				c0-24.861,15.055-59.572,15.206-59.919c0.167-0.379,0.611-0.553,0.988-0.387c0.379,0.166,0.553,0.608,0.387,0.987
				c-0.134,0.305-11.83,27.276-14.529,50.488c3.51-9.2,13.006-23.099,38.67-29.09c0.404-0.093,0.807,0.157,0.901,0.56
				c0.094,0.403-0.156,0.807-0.56,0.901c-38.63,9.017-39.559,36.199-39.563,36.473C408.975,250.884,408.641,251.212,408.233,251.212
				z"/>
		</g>
	</g>
	<g>
		<g>
			<rect x="213.812" y="228.499" style="fill:#8DA6BC;" width="244.703" height="203.098"/>
		</g>
		<g>
			<rect x="229.82" y="241.482" style="fill:#7A93A5;" width="89.658" height="94.243"/>
		</g>
		<g>
			<rect x="236.605" y="244.886" style="fill:#B7CCDA;" width="3.429" height="87.435"/>
		</g>
		<g>
			<rect x="254.53" y="244.886" style="fill:#B7CCDA;" width="3.429" height="87.435"/>
		</g>
		<g>
			<rect x="272.455" y="244.886" style="fill:#B7CCDA;" width="3.429" height="87.435"/>
		</g>
		<g>
			<rect x="290.381" y="244.886" style="fill:#B7CCDA;" width="3.429" height="87.435"/>
		</g>
		<g>
			<rect x="308.306" y="244.886" style="fill:#B7CCDA;" width="3.429" height="87.435"/>
		</g>
		<g>
			<path style="fill:#B7CCDA;" d="M322.441,339.129h-95.586v-101.05h95.586V339.129z M232.784,332.321h83.729v-87.435h-83.729
				V332.321z"/>
		</g>
		<g>
			<rect x="222.993" y="234.811" style="fill:#F8E6E1;" width="37.448" height="17.41"/>
		</g>
		<g>
			<rect x="334.006" y="241.482" style="fill:#7A93A5;" width="89.658" height="94.243"/>
		</g>
		<g>
			<rect x="340.792" y="244.886" style="fill:#B7CCDA;" width="3.429" height="87.435"/>
		</g>
		<g>
			<rect x="358.717" y="244.886" style="fill:#B7CCDA;" width="3.429" height="87.435"/>
		</g>
		<g>
			<rect x="376.642" y="244.886" style="fill:#B7CCDA;" width="3.429" height="87.435"/>
		</g>
		<g>
			<rect x="394.567" y="244.886" style="fill:#B7CCDA;" width="3.429" height="87.435"/>
		</g>
		<g>
			<rect x="412.493" y="244.886" style="fill:#B7CCDA;" width="3.429" height="87.435"/>
		</g>
		<g>
			<path style="fill:#B7CCDA;" d="M426.628,339.129h-95.586v-101.05h95.586V339.129z M336.971,332.321h83.729v-87.435h-83.729
				V332.321z"/>
		</g>
		<g>
			<rect x="327.179" y="234.811" style="fill:#F8E6E1;" width="37.448" height="17.41"/>
		</g>
		<g>
			<rect x="432.845" y="228.499" style="fill:#B7CCDA;" width="25.67" height="203.098"/>
		</g>
		<g>
			<g>
				<rect x="231.272" y="352.086" style="fill:#7A93A5;" width="191.673" height="70.701"/>
			</g>
			<g>
				<g>
					<rect x="238.058" y="355.49" style="fill:#B7CCDA;" width="3.429" height="63.893"/>
				</g>
				<g>
					<rect x="253.85" y="355.49" style="fill:#B7CCDA;" width="3.429" height="63.893"/>
				</g>
				<g>
					<rect x="269.642" y="355.49" style="fill:#B7CCDA;" width="3.429" height="63.893"/>
				</g>
				<g>
					<rect x="285.435" y="355.49" style="fill:#B7CCDA;" width="3.429" height="63.893"/>
				</g>
				<g>
					<rect x="301.227" y="355.49" style="fill:#B7CCDA;" width="3.429" height="63.893"/>
				</g>
				<g>
					<rect x="317.02" y="355.49" style="fill:#B7CCDA;" width="3.429" height="63.893"/>
				</g>
				<g>
					<rect x="332.812" y="355.49" style="fill:#B7CCDA;" width="3.429" height="63.893"/>
				</g>
				<g>
					<rect x="348.604" y="355.49" style="fill:#B7CCDA;" width="3.429" height="63.893"/>
				</g>
				<g>
					<rect x="364.397" y="355.49" style="fill:#B7CCDA;" width="3.429" height="63.893"/>
				</g>
				<g>
					<rect x="380.189" y="355.49" style="fill:#B7CCDA;" width="3.429" height="63.893"/>
				</g>
				<g>
					<rect x="395.982" y="355.49" style="fill:#B7CCDA;" width="3.429" height="63.893"/>
				</g>
				<g>
					<rect x="411.774" y="355.49" style="fill:#B7CCDA;" width="3.429" height="63.893"/>
				</g>
			</g>
			<g>
				<path style="fill:#B7CCDA;" d="M425.91,426.19H228.308v-77.508H425.91V426.19z M234.237,419.383h185.744V355.49H234.237V419.383
					z"/>
			</g>
		</g>
		<g>
			<rect x="224.445" y="345.415" style="fill:#F8E6E1;" width="37.448" height="17.41"/>
		</g>
	</g>
	<g>
		<path style="fill:#BDC892;" d="M160.208,425.647c7.127-15.056,28.651-98.15,6.79-102.71c-10.44,1.945-16.222,23.971-19.984,33.041
			c0.138-15.087-9.868-83.57-31.807-76.64c-9.841,4.567-2.297,39.667-3.288,50.723c-6.483-11.588-32.392-43.024-46.561-31.715
			c-7.468,7.567,16.361,41.957,19.984,52.815c-35.894-36.038-89.27-8.983-11.531,33.95c-11.896-3.935-31.238-4.809-34.54,10.436
			c0.144,21.689,15.809,32.959,33.903,35.64h85.315L160.208,425.647z"/>
	</g>
	<g>
		<g>
			<path style="fill:#7EA78B;" d="M117.296,334.064c0,0,4.599-17.62-2.504-42.164c-7.103-24.543-24.63-26.935-30.969-18.053
				c-6.338,8.882,1.09,19.314,6.081,25.376C94.895,305.285,110.768,317.725,117.296,334.064z"/>
		</g>
		<g>
			<path style="fill:#7EA78B;" d="M94.779,349.793c0,0-4.992-28.452-17.455-45.413c-12.463-16.961-33.941-4.915-30.257,9.711
				C50.751,328.716,82.062,332.087,94.779,349.793z"/>
		</g>
		<g>
			<path style="fill:#473220;" d="M131.102,447.69c-0.362,0-0.676-0.261-0.738-0.621c-4.956-28.467-13.121-54.103-24.267-76.195
				c-12.626-25.025-29.742-46.551-49.5-62.25c-0.324-0.258-0.378-0.73-0.121-1.054c0.258-0.324,0.73-0.379,1.054-0.12
				c19.926,15.832,37.184,37.53,49.906,62.748c10.366,20.545,18.166,44.127,23.221,70.178
				c1.953-53.845-9.758-107.546-34.014-155.717c-0.186-0.369-0.037-0.82,0.333-1.007c0.372-0.188,0.821-0.036,1.007,0.333
				c25.354,50.35,37.065,106.714,33.869,162.998c-0.022,0.38-0.325,0.684-0.705,0.706C131.131,447.69,131.117,447.69,131.102,447.69
				z"/>
		</g>
	</g>
	<g>
		<path style="fill:#F0C8B2;" d="M73.173,431.186h389.224c0,0-39.253,48.187-194.612,48.187S73.173,431.186,73.173,431.186z"/>
	</g>
	<g>
		<g>
			<path style="fill:#473220;" d="M82.593,229.945c0.292,2.348-1.498,4.07-2.016,4.404c-0.512,0.334-2.93,0.583-4.53,1.889
				c-1.597,1.304-2.324,3.623-2.754,4.058c-0.431,0.44-2.476,1.85-4.719,1.094c-2.239-0.758-4.389-2.343-3.31-5.703
				c1.078-3.36,0.677-3.827-0.215-6.849c-0.891-3.021,1.158-4.653,1.158-4.653s2.011-1.684,4.793-0.206
				c2.782,1.478,3.157,1.967,6.667,1.58C81.176,225.177,82.299,227.6,82.593,229.945z"/>
		</g>
		<g>
			<path style="fill:#473220;" d="M61.704,229.855c2.321,1.115,3.021,2.986,2.282,4.525c-0.739,1.539-2.638,2.162-4.959,1.047
				c-2.321-1.114-3.603-3.265-2.864-4.804C56.903,229.084,59.383,228.74,61.704,229.855z"/>
		</g>
		<g>
			<path style="fill:#473220;" d="M61.823,220.319c2.386,1.697,2.81,3.929,1.685,5.511c-1.125,1.582-3.373,1.914-5.759,0.218
				c-2.386-1.697-3.408-4.354-2.283-5.936C56.591,218.529,59.438,218.622,61.823,220.319z"/>
		</g>
		<g>
			<path style="fill:#473220;" d="M72.406,221.117c0.628,2.497,2.321,3.557,3.977,3.141c1.656-0.416,2.646-2.152,2.018-4.649
				c-0.628-2.497-2.479-4.183-4.134-3.767C72.611,216.259,71.778,218.62,72.406,221.117z"/>
		</g>
		<g>
			<path style="fill:#473220;" d="M63.039,219.326c1.185,2.677,3.287,3.539,5.062,2.753c1.775-0.786,2.55-2.922,1.365-5.599
				c-1.185-2.677-3.584-4.21-5.359-3.424C62.332,213.842,61.854,216.649,63.039,219.326z"/>
		</g>
		<g>
			<g>
				<path style="fill:#473220;" d="M110.581,215.702c-1.742,0.928-3.618,0.048-4.033-0.255c-0.414-0.299-1.329-2.108-2.824-2.964
					c-1.492-0.855-3.516-0.728-3.983-0.934c-0.472-0.204-2.18-1.377-2.261-3.349c-0.078-1.971,0.515-4.118,3.454-4.281
					c2.939-0.163,3.183-0.616,5.271-2.212c2.087-1.596,3.97-0.487,3.97-0.487s1.912,1.064,1.592,3.672s-0.59,3.046,0.76,5.665
					C113.873,213.173,112.321,214.772,110.581,215.702z"/>
			</g>
			<g>
				<path style="fill:#473220;" d="M104.414,199.402c-0.175,2.14-1.424,3.245-2.843,3.129c-1.419-0.116-2.472-1.409-2.297-3.55
					c0.175-2.14,1.468-3.781,2.887-3.665C103.581,195.432,104.59,197.262,104.414,199.402z"/>
			</g>
			<g>
				<path style="fill:#473220;" d="M111.878,196.648c-0.609,2.365-2.221,3.362-3.79,2.958c-1.568-0.404-2.498-2.056-1.889-4.421
					c0.609-2.365,2.374-3.955,3.942-3.551C111.71,192.038,112.487,194.283,111.878,196.648z"/>
			</g>
			<g>
				<path style="fill:#473220;" d="M114.416,205.13c-1.757,1.234-2.078,2.87-1.259,4.036c0.819,1.165,2.466,1.419,4.224,0.184
					c1.757-1.235,2.518-3.18,1.7-4.345C118.262,203.839,116.174,203.895,114.416,205.13z"/>
			</g>
			<g>
				<path style="fill:#473220;" d="M113.014,197.298c-1.731,1.722-1.775,3.618-0.633,4.766c1.142,1.148,3.037,1.114,4.769-0.608
					c1.731-1.722,2.209-4.049,1.067-5.197C117.075,195.111,114.746,195.576,113.014,197.298z"/>
			</g>
		</g>
		<g>
			<g>
				<path style="fill:#473220;" d="M70.751,185.962c-0.642,1.687-2.464,2.209-2.932,2.249c-0.465,0.042-2.183-0.653-3.728-0.344
					c-1.542,0.309-2.86,1.613-3.306,1.752c-0.448,0.143-2.33,0.363-3.572-0.947c-1.239-1.311-2.122-3.147-0.195-5.026
					c1.927-1.88,1.823-2.338,2.301-4.693c0.478-2.355,2.442-2.723,2.442-2.723s1.957-0.417,3.305,1.573
					c1.348,1.99,1.425,2.454,3.93,3.446C71.499,182.241,71.39,184.275,70.751,185.962z"/>
			</g>
			<g>
				<path style="fill:#473220;" d="M56.702,178.441c1.166,1.58,0.97,3.092-0.077,3.865c-1.048,0.773-2.55,0.516-3.717-1.064
					c-1.166-1.58-1.263-3.488-0.215-4.261C53.74,176.207,55.535,176.861,56.702,178.441z"/>
			</g>
			<g>
				<path style="fill:#473220;" d="M60.188,172.056c1.002,1.995,0.491,3.652-0.832,4.317c-1.323,0.665-2.957,0.086-3.96-1.91
					c-1.002-1.996-0.742-4.152,0.581-4.817C57.3,168.981,59.185,170.06,60.188,172.056z"/>
			</g>
			<g>
				<path style="fill:#473220;" d="M67.037,176.373c-0.468,1.907,0.295,3.227,1.559,3.538c1.265,0.311,2.552-0.506,3.021-2.413
					c0.468-1.907-0.177-3.705-1.442-4.016C68.91,173.171,67.505,174.465,67.037,176.373z"/>
			</g>
			<g>
				<path style="fill:#473220;" d="M61.362,171.821c-0.157,2.228,0.952,3.56,2.429,3.664c1.477,0.104,2.763-1.059,2.92-3.287
					c0.157-2.228-0.913-4.118-2.39-4.222C62.843,167.872,61.519,169.593,61.362,171.821z"/>
			</g>
		</g>
	</g>
	<g>
		<g>
			<path style="fill:#F0C8B8;" d="M436.129,433.057c0.032,0.826-1.555,2.37-2.777,3.431c-7.141-6.54-18.667-15.301-26.655-21.187
				l0.268-0.375c0,0,1.576-1.791,3.549-4.868C417.397,415.923,436.086,431.963,436.129,433.057z"/>
		</g>
		<g>
			<path style="fill:#F5DED0;" d="M433.352,436.488c2.295,2.08,4.128,3.946,5.265,5.415c0,0,0.386,4.214-4.707,5.372
				c-1.319-2.166-2.252-5.565-2.252-5.565s-4.922-4.321-16.394-13.51c-11.473-9.189-21.82-17.595-21.82-17.595
				c2.434-1.029,4.332-1.791,4.332-1.791s3.71,2.638,8.921,6.487C414.684,421.188,426.211,429.948,433.352,436.488z"/>
		</g>
		<g>
			<path style="fill:#B23F21;" d="M431.658,441.71c0,0,0.933,3.399,2.252,5.565c-0.654,0.161-1.405,0.257-2.252,0.289
				c-7.452,0.3-13.263-4.911-23.642-5.157c-8.063-0.204-18.946,0.086-23.407,0.225c-0.064-4.675-0.654-16.437-4.911-20.104
				c0,0,2.187-6.659,6.551-8.739c2.123-1.019,4.9-2.22,7.195-3.185c0,0,10.347,8.406,21.82,17.595
				C426.736,437.389,431.658,441.71,431.658,441.71z"/>
		</g>
		<g>
			<path style="fill:#61809B;" d="M417.397,393.17c-1.287,7.034-4.385,12.995-6.884,16.887c-1.973,3.077-3.549,4.868-3.549,4.868
				l-0.268,0.375c-5.211-3.849-8.921-6.487-8.921-6.487s-1.898,0.761-4.332,1.79c-2.295,0.965-5.072,2.166-7.195,3.185
				c-4.364,2.08-6.551,8.739-6.551,8.739c4.257,3.667,4.846,15.429,4.911,20.104c0.021,1.212,0,1.952,0,1.952
				c-0.815,0.375-20.705,1.244-20.705,1.244s-44.572,4.053-61.149,0.997c-16.576-3.056-14.646-21.466-14.646-21.466
				c-4.021-8.792-0.74-12.738,4.846-19.664c5.586-6.937,55.327-29.068,55.327-29.068c0,3.013-0.032,7.002-0.032,7.002
				s29.647-3.367,38.793-4.117c0.011-0.064,0.032-0.139,0.043-0.204l0.654,0.15c0,0,16.212-5.125,23.868-11.162
				C413.355,371.243,419.381,382.373,417.397,393.17z"/>
		</g>
		<g>
			<path style="fill:#473220;" d="M314.239,279.655c0.247,2.048,0.783,10.047-4.868,14.979c-2.691-2.563-5.543-4.493-5.694-4.589
				C308.47,287.868,314.593,283.879,314.239,279.655z"/>
		</g>
		<g>
			<path style="fill:#473220;" d="M309.371,294.634c1.061,0.997,2.101,2.101,2.938,3.238l-0.504,0.107
				c-1.19,0.89-2.841,0.826-4.289,0.504c-1.458-0.332-2.884-0.879-4.364-0.847c-3.463,0.064-6.262,3.238-9.714,3.399
				c-1.791,0.086-3.506-0.654-5.082-1.48c-1.587-0.836-3.142-1.78-4.889-2.166c-1.737-0.397-3.763-0.118-4.964,1.201
				c-1.34-1.544-1.351-3.817-1.072-5.844c0.279-2.016,0.75-4.107,0.15-6.058c-0.654-2.155-2.595-4.01-2.316-6.24
				c0.279-2.294,2.766-3.742,3.324-5.972c0.214-0.858,0.118-1.769-0.096-2.616c-0.697-2.809-2.681-5.425-2.273-8.288
				c0.397-2.745,2.82-4.653,4.728-6.658c2.713-2.852,4.632-6.433,5.522-10.272c0.397-1.705,0.708-3.667,2.155-4.664
				c0.89-0.611,2.037-0.708,3.12-0.783c2.091-0.15,4.16-0.3,6.24-0.45c2.659-0.611,5.329-1.233,7.988-1.844
				c1.372-0.3,2.798-0.611,4.182-0.311c1.716,0.375,3.088,1.63,4.621,2.498c1.78,1.008,3.828,1.512,5.865,1.447
				c1.716-0.054,3.506-0.493,5.115,0.107c1.962,0.729,3.088,2.766,3.892,4.707c0.815,1.93,1.576,4.042,3.27,5.275
				c1.909,1.405,4.761,1.469,6.165,3.378c1.19,1.63,0.804,3.882,0.633,5.897c-0.172,1.919-0.096,3.871,0.225,5.779
				c0.118,0.718,0.289,1.458,0.697,2.069c0.772,1.136,2.23,1.576,3.206,2.541c2.67,2.605,0.815,7.516,2.445,10.712h0.011
				c-0.011,0.011,0,0.011,0,0.011c-2.97,1.308-5.447,3.914-8.674,4.16c-1.415,0.107-2.777-0.257-4.128-0.729
				c-1.791-0.633-3.57-1.458-5.447-1.63c-3.067-0.268-5.951,1.233-8.61,2.863c-0.515-0.901-0.933-1.833-1.061-2.863
				c-0.118-1.083,0.096-2.166,0.139-3.249c0.064-1.716-0.322-3.442-1.126-4.954c2.048-2.005,4.16-5.05,3.206-8.503
				c-1.598-5.769-6.369-7.28-9.242-3.999c-1.587-0.182-3.045-1.008-4.224-2.091c-1.18-1.083-2.112-2.413-3.013-3.731
				c-0.418-0.611-0.847-1.244-1.49-1.608c-0.6-0.354-1.319-0.429-2.016-0.407c-2.177,0.064-4.471,0.954-6.466,0.064
				c-0.976-0.44-1.726-1.265-2.455-2.059c-0.643-0.718-1.297-1.437-1.941-2.155c-0.193,0.375-3.335,6.455-3.302,8.792
				c0.032,2.413,0.515,4.696,0.418,5.383c-0.096,0.686-4.793,7.484-4.643,8.085c0.139,0.611,2.241,2.906,4.482,2.337
				c0,0,1.383,12.341,2.638,14.432c1.244,2.102,7.752,1.555,12.813-0.461c0.482-0.193,0.997-0.407,1.522-0.643
				C303.827,290.141,306.68,292.071,309.371,294.634z"/>
		</g>
		<g>
			<path style="fill:#D5826D;" d="M369.126,384.636c1.48-13.392,2.895-26.484,2.82-27.234c-0.118-1.255-15.772-17.327-21.959-23.642
				c3.699-1.748,15.14-7.473,20.672-13.896c4.782,6.38,21.83,29.272,22.152,32.027c0.161,1.415-2.595,13.896-5.726,27.417
				c-3.989,17.188-8.588,36.069-8.588,36.069c0.193,2.241-0.215,4.535-0.954,6.744c-2.209,6.583-7.409,12.384-8.878,13.671
				c-1.973,1.716-3.721,4.064-4.021,7.087c-0.086,0.826-0.365,1.866-0.74,2.949c-0.965,2.863-2.541,5.983-2.541,5.983
				c-1.673,0.472-2.466-1.555-2.466-1.555s-1.115,1.93-2.23,1.49c-1.115-0.45-1.49-8.052-1.49-8.052s-0.74,2.906-1.49,5.361
				c-0.74,2.466-3.388,2.616-3.796,1.641c-0.408-0.965,0-3.721,0-3.721c-1.49,1.716-4.589,1.791-3.957-0.6
				c0.633-2.38,3.474-14.936,3.806-16.909c0.332-1.984,16.094-15.579,16.094-15.579S367.517,399.089,369.126,384.636z"/>
		</g>
		<g>
			<path style="fill:#D5826D;" d="M196.155,344.384c1.308-0.043,12.03,0.751,12.03,0.751s-12.738-2.38-14.035-3.506
				c-1.308-1.126-0.558-2.209,0.29-2.455c0.858-0.247,13.07,1.212,13.07,1.212s-10.829-1.748-12.266-2.852
				c-1.447-1.104-1.083-2.745,0.118-3.109c1.212-0.354,8.524,1.469,11.698,1.372c3.185-0.107,8.846-0.343,8.846-0.343
				s-4.042-3.571-4.696-5.029c-0.654-1.447-1.008-3.763,0.225-4.728c1.233-0.965,2.327,0.354,4.096,2.23
				c1.769,1.887,5.94,2.616,7.27,3.839c1.319,1.233,7.709,7.827,7.709,7.827c1.565,1.565,35.169,12.148,35.169,12.148l23.428-23.428
				c1.029,2.884,2.852,7.195,5.265,10.09c3.067,3.688,10.272,6.948,13.242,8.181c-6.787,4.964-37.828,27.567-40.144,27.363
				c-2.605-0.225-10.872-5.436-15.054-7.752c-4.171-2.305-19.665-10.583-19.665-10.583s-1.587-1.222-3.613-1.448
				c-2.037-0.225-9.521,1.158-15.579-0.3c-6.058-1.458-13.51-1.394-14.218-1.576c-0.708-0.182-3.999-2.423,1.458-2.809
				c5.468-0.386,7.656-0.643,7.656-0.643c-8.546-0.761-13.328-1.533-13.607-2.53C194.558,345.296,194.858,344.438,196.155,344.384z"
				/>
		</g>
		<g>
			<path style="fill:#D5826D;" d="M319.439,287.675c2.659-1.63,5.543-3.131,8.61-2.863c1.876,0.171,3.656,0.997,5.447,1.63
				c-9.446,7.495-6.112,19.547-6.112,19.547c-0.118,7.967-8.127,12.223-8.127,12.223s-2.552-8.792-4.396-14.572
				c-0.354-1.126-0.686-2.134-0.965-2.949c-0.322-0.933-0.879-1.887-1.587-2.82c-0.836-1.137-1.876-2.241-2.938-3.238
				c5.651-4.932,5.114-12.931,4.868-14.979c0-0.011,0-0.022,0-0.032c0-0.086-0.011-0.161-0.032-0.247
				c-0.021-0.139-0.032-0.214-0.032-0.214s1.587-0.954,3.217-2.552c0.804,1.512,1.19,3.238,1.126,4.954
				c-0.043,1.083-0.257,2.166-0.139,3.249C318.506,285.841,318.924,286.774,319.439,287.675z"/>
		</g>
		<g>
			<path style="fill:#D5826D;" d="M317.391,276.609c-1.63,1.598-3.217,2.552-3.217,2.552s0.011,0.075,0.032,0.214
				c0.011,0.064,0.021,0.15,0.032,0.247c0,0.011,0,0.021,0,0.032c0.354,4.224-5.769,8.213-10.561,10.39
				c-0.525,0.236-1.04,0.45-1.522,0.643c-5.061,2.016-11.569,2.563-12.813,0.461c-1.255-2.091-2.638-14.432-2.638-14.432
				l0.161-10.422c0.096-0.686-0.386-2.97-0.418-5.383c-0.032-2.337,3.109-8.417,3.302-8.792c0.643,0.718,1.297,1.437,1.941,2.155
				c0.729,0.793,1.48,1.619,2.455,2.059c1.994,0.89,4.289,0,6.466-0.064c0.697-0.022,1.415,0.054,2.016,0.407
				c0.643,0.365,1.072,0.997,1.49,1.608c0.901,1.319,1.833,2.648,3.013,3.731c1.179,1.083,2.638,1.909,4.224,2.091
				c2.874-3.281,7.645-1.769,9.242,3.999C321.551,271.559,319.439,274.604,317.391,276.609z"/>
		</g>
		<g>
			<path style="fill:#E69560;" d="M307.612,346.582c-2.97-1.233-10.175-4.493-13.242-8.181c-2.412-2.895-4.235-7.205-5.265-10.09
				c-0.654-1.791-0.997-3.024-0.997-3.024l23.696-27.309l0.504-0.107c0.708,0.933,1.265,1.887,1.587,2.82
				c0.279,0.815,0.611,1.823,0.965,2.949c0,0-0.89,24.586,0.858,35.716l-6.798,7.763
				C308.921,347.119,308.427,346.936,307.612,346.582z"/>
		</g>
		<g>
			<path style="fill:#E69560;" d="M315.718,339.356c-1.748-11.13-0.858-35.716-0.858-35.716c1.844,5.779,4.396,14.572,4.396,14.572
				s8.009-4.257,8.127-12.223c0,0-3.335-12.052,6.112-19.547c1.351,0.472,2.713,0.836,4.128,0.729
				c3.227-0.247,5.704-2.852,8.674-4.16c0,0,0.011-0.011,0.021-0.011h0.011c2.466,0,18.699,8.846,32.767,24.029
				c14.164,15.279,35.469,58.275,35.469,58.275c-0.686,1.008-1.705,2.016-2.959,2.992c-7.656,6.037-23.868,11.162-23.868,11.162
				l-0.654-0.15c3.131-13.521,5.886-26.001,5.726-27.417c-0.322-2.756-17.37-25.648-22.152-32.027
				c-5.533,6.423-16.973,12.148-20.672,13.896c6.187,6.315,21.841,22.388,21.959,23.642c0.075,0.751-1.34,13.842-2.82,27.234
				c-8.224,0.622-20.876-1.008-20.876-1.008s0.032-3.989,0.032-7.002c0-1.48-0.011-2.713-0.032-3.131
				c-0.075-1.265-3.581-12.212-3.581-12.212s-24.886-10.883-27.931-17.885C316.33,342.465,315.997,341.071,315.718,339.356z"/>
		</g>
		<g>
			<ellipse style="fill:#473220;" cx="292.509" cy="268.221" rx="2.126" ry="2.444"/>
		</g>
		<g>
			<path style="fill:#473220;" d="M290.24,260.622c1.84,0.154,3.578,0.621,5.25,1.404c0.301,0.141,0.559,0.528,0.644,0.837
				c0.092,0.335,0.051,0.782-0.141,1.079c-0.193,0.299-0.48,0.563-0.837,0.644c-0.386,0.088-0.722,0.026-1.08-0.141
				c-0.09-0.042-0.181-0.081-0.272-0.121c-1.018-0.415-2.08-0.702-3.168-0.859c-0.132-0.015-0.264-0.031-0.396-0.042
				c-0.377-0.032-0.715-0.135-0.991-0.41c-0.243-0.243-0.426-0.642-0.41-0.991C288.87,261.316,289.457,260.556,290.24,260.622z"/>
		</g>
		<g>
			<path style="fill:#BE4E36;" d="M305.028,274.178c0,1.451-2.035,2.628-4.546,2.628c-2.51,0-4.546-1.177-4.546-2.628
				c0-1.451,2.035-2.628,4.546-2.628C302.993,271.551,305.028,272.727,305.028,274.178z"/>
		</g>
		<g>
			<path style="fill:#BE4E36;" d="M286.704,276.717c-2.241,0.568-4.342-1.726-4.482-2.337c-0.15-0.6,4.546-7.398,4.643-8.085
				L286.704,276.717z"/>
		</g>
		<g>
			<path style="fill:#473220;" d="M288.559,281.847c-0.41,0-0.743-0.329-0.749-0.74c-0.006-0.413,0.325-0.753,0.739-0.76
				c0.028,0,2.918-0.066,4.2-1.913c0.236-0.341,0.705-0.425,1.044-0.188c0.341,0.236,0.425,0.704,0.189,1.044
				c-1.729,2.487-5.265,2.556-5.414,2.558C288.565,281.847,288.562,281.847,288.559,281.847z"/>
		</g>
		<g>
			<path style="fill:#473220;" d="M314.634,273.501c-0.403,0-0.736-0.319-0.75-0.725c-0.122-3.624,1.771-8.241,1.852-8.436
				c0.159-0.383,0.595-0.561,0.98-0.406c0.382,0.159,0.564,0.598,0.406,0.98c-0.019,0.044-1.85,4.516-1.738,7.812
				c0.014,0.414-0.311,0.761-0.725,0.775C314.65,273.501,314.641,273.501,314.634,273.501z"/>
		</g>
		<g>
			<path style="fill:#473220;" d="M313.164,283.892c-0.175,0-0.35-0.061-0.491-0.184c-0.314-0.271-0.347-0.745-0.075-1.058
				c1.393-1.607,0.871-3.235,0.866-3.252c-0.127-0.378,0.065-0.788,0.436-0.935c1.568-0.62,2.887-2.298,2.899-2.314
				c0.255-0.328,0.726-0.387,1.053-0.132c0.326,0.253,0.387,0.724,0.133,1.051c-0.057,0.074-1.288,1.648-2.961,2.526
				c0.107,0.879,0.053,2.487-1.293,4.038C313.582,283.804,313.374,283.892,313.164,283.892z"/>
		</g>
		<g>
			<path style="fill:#473220;" d="M315.718,340.105c-0.371,0-0.693-0.275-0.743-0.653c-1.595-12.228-0.871-35.602-0.864-35.836
				c0.014-0.414,0.364-0.716,0.773-0.727c0.414,0.014,0.739,0.36,0.727,0.773c-0.008,0.234-0.728,23.488,0.853,35.596
				c0.053,0.41-0.236,0.787-0.648,0.841C315.783,340.104,315.75,340.105,315.718,340.105z"/>
		</g>
		<g>
			<path style="fill:#473220;" d="M314.687,334.639c-0.299,0-0.581-0.18-0.697-0.475l-5.316-13.447
				c-0.152-0.385,0.036-0.82,0.422-0.973c0.384-0.153,0.82,0.036,0.973,0.422l5.316,13.447c0.152,0.385-0.036,0.82-0.422,0.973
				C314.873,334.622,314.779,334.639,314.687,334.639z"/>
		</g>
		<g>
			<path style="fill:#473220;" d="M264.79,355.917c-0.016,0-0.03,0-0.046-0.001c-0.413-0.025-0.728-0.38-0.704-0.794
				c0.119-1.992,0.932-3.646,0.966-3.716c0.185-0.37,0.635-0.519,1.005-0.338c0.37,0.184,0.522,0.634,0.339,1.005
				c-0.007,0.015-0.712,1.46-0.811,3.139C265.513,355.61,265.184,355.917,264.79,355.917z"/>
		</g>
		<g>
			<path style="fill:#473220;" d="M347.503,335.449c-0.16,0-0.319-0.052-0.451-0.15c-0.217-0.164-5.388-4.106-11.694-13.379
				c-6.289-9.248-8.582-15.416-8.677-15.674c-0.142-0.389,0.057-0.819,0.446-0.962c0.386-0.142,0.819,0.058,0.962,0.446
				c0.023,0.062,2.335,6.268,8.509,15.346c5.278,7.761,9.802,11.748,11.029,12.762c2.695-1.125,18.175-7.844,22.958-15.641
				l-11.122-20.429c-0.198-0.363-0.065-0.819,0.3-1.017c0.363-0.199,0.819-0.064,1.017,0.3l11.325,20.802
				c0.125,0.227,0.122,0.504-0.006,0.729c-5.188,9.12-23.541,16.503-24.319,16.814C347.69,335.432,347.596,335.449,347.503,335.449z
				"/>
		</g>
		<g>
			<path style="fill:#473220;" d="M345.849,360.984c-0.407,0-0.741-0.325-0.75-0.733c-0.009-0.414,0.319-0.758,0.733-0.767
				l18.246-0.397c0.006,0,0.012,0,0.017,0c0.407,0,0.741,0.325,0.75,0.733c0.009,0.414-0.319,0.758-0.733,0.767l-18.246,0.397
				C345.86,360.984,345.854,360.984,345.849,360.984z"/>
		</g>
		<g>
			<path style="fill:#473220;" d="M350.186,373.701c-0.246,0-0.486-0.12-0.63-0.342c-0.226-0.348-0.127-0.811,0.221-1.037
				l13.314-8.643c0.348-0.227,0.813-0.127,1.037,0.221c0.226,0.348,0.127,0.811-0.221,1.037l-13.314,8.644
				C350.468,373.662,350.326,373.701,350.186,373.701z"/>
		</g>
		<g>
			<path style="fill:#473220;" d="M288.108,426.105c-0.089,0-0.179-0.016-0.267-0.05c-0.385-0.146-0.579-0.574-0.435-0.96
				c0.089-0.237,2.344-5.925,17.058-15.663c14.529-9.616,43.12-26.285,43.407-26.453c0.361-0.205,0.817-0.085,1.026,0.27
				c0.208,0.358,0.087,0.817-0.271,1.026c-0.287,0.167-28.842,16.815-43.335,26.406c-14.184,9.388-16.462,14.89-16.483,14.944
				C288.693,425.923,288.409,426.105,288.108,426.105z"/>
		</g>
		<g>
			<path style="fill:#473220;" d="M312.03,424.022c-0.231,0-0.459-0.106-0.606-0.308c-0.244-0.334-0.172-0.803,0.162-1.047
				c0.375-0.275,9.287-6.708,20.182-5.803c10.65,0.888,25.555,3.841,25.704,3.871c0.406,0.081,0.67,0.476,0.589,0.882
				c-0.081,0.406-0.474,0.67-0.882,0.589c-0.148-0.029-14.972-2.967-25.536-3.848c-10.317-0.856-19.083,5.455-19.17,5.519
				C312.339,423.976,312.184,424.022,312.03,424.022z"/>
		</g>
		<g>
			<path style="fill:#473220;" d="M379.699,423.277c-0.046,0-0.093-0.004-0.141-0.013l-2.155-0.407
				c-0.406-0.077-0.674-0.47-0.598-0.877c0.077-0.406,0.459-0.675,0.877-0.598l2.155,0.407c0.406,0.077,0.674,0.47,0.598,0.877
				C380.367,423.026,380.053,423.277,379.699,423.277z"/>
		</g>
		<g>
			<path style="fill:#473220;" d="M358.896,451.005c-0.406,0-0.739-0.323-0.75-0.732c-0.006-0.235-0.14-5.789,0.085-8.19
				c0.234-2.493,2.939-8.024,3.055-8.259c0.182-0.369,0.631-0.527,1.004-0.342c0.371,0.183,0.524,0.632,0.342,1.004
				c-0.75,1.527-2.733,5.895-2.906,7.737c-0.218,2.314-0.081,7.956-0.079,8.013c0.01,0.414-0.317,0.758-0.731,0.769
				C358.909,451.005,358.902,451.005,358.896,451.005z"/>
		</g>
		<g>
			<path style="fill:#473220;" d="M355.177,444.443c-0.043,0-0.086-0.004-0.129-0.011c-0.408-0.071-0.682-0.459-0.611-0.867
				c0.004-0.021,0.37-2.141,0.466-3.502c0.104-1.494,2.379-7.012,2.639-7.636c0.158-0.383,0.599-0.564,0.979-0.405
				c0.383,0.158,0.564,0.598,0.405,0.98c-0.942,2.27-2.462,6.225-2.527,7.166c-0.101,1.439-0.468,3.564-0.483,3.653
				C355.851,444.187,355.534,444.443,355.177,444.443z"/>
		</g>
		<g>
			<path style="fill:#473220;" d="M349.891,447.725c-0.014,0-0.027,0-0.04-0.001c-0.414-0.021-0.731-0.375-0.71-0.788
				c0.003-0.047,0.245-4.686,0.294-6.737c0.054-2.229,3.996-7.225,4.786-8.203c0.261-0.323,0.733-0.371,1.055-0.113
				c0.322,0.261,0.373,0.732,0.113,1.055c-1.705,2.113-4.423,5.964-4.454,7.297c-0.05,2.074-0.294,6.733-0.296,6.78
				C350.618,447.414,350.287,447.725,349.891,447.725z"/>
		</g>
		<g>
			<path style="fill:#473220;" d="M433.35,437.238c-0.163,0-0.328-0.053-0.466-0.163l-26.655-21.188
				c-0.324-0.258-0.378-0.729-0.12-1.054c0.256-0.324,0.729-0.381,1.054-0.12l26.655,21.188c0.324,0.258,0.378,0.729,0.12,1.054
				C433.791,437.142,433.572,437.238,433.35,437.238z"/>
		</g>
	</g>
	<g>
		<g>
			<path style="fill:#D1684A;" d="M243.46,138.876c0,0-0.197,0.647-0.855,1.655c-1.271,1.962-9.052,10.86-25.03,14.641
				c2.4,20.383,8.296,77.38,8.296,77.38s-0.734,0.296-2.06,0.789c-7.485,2.794-33.643,12.142-49.577,12.011
				c-15.561-0.132-36.909-6.345-43.703-8.449c-1.392-0.427-2.17-0.69-2.17-0.69s2.531-11.956,2.082-17.446
				c-0.296-3.485,5.063-42.564,7.704-60.251c-6.279,1.523-12.614,2.148-15.901,2.378c-1.458,0.11-2.312,0.143-2.312,0.143
				s-3.54-21.403-3.123-32.898c0.416-11.496,0.756-16.372,2.663-21.293c1.907-4.92,24.909-12.372,27.649-12.723
				c2.619-0.351,4.526-0.033,4.69,0c-0.844,0.263-1.447,0.427-1.447,0.427s12.241,12.033,21.523,12.285
				c1.808,0.044,3.682-0.395,5.523-1.162c7.551-3.101,14.542-11.375,14.542-11.375s-0.986-0.186-2.181-0.515V93.77
				c0,0,3.923-1.929,6.849-1.962c2.071-0.033,12.712,1.622,20.427,3.923c3.222,0.964,5.94,2.038,7.299,3.156
				C228.95,102.657,241.367,134.536,243.46,138.876z"/>
		</g>
		<g>
			<path style="fill:#F0C8B2;" d="M205.932,155.892c-2.248-3.903-8.299-0.381-6.044,3.533c5.625,9.766,7.91,21.235,5.896,32.388
				c-0.918,5.086-2.521,10.722-6.066,14.641c-4.085,4.515-11.703,6.229-14.781-0.242c-1.934-4.066-7.971-0.518-6.044,3.533
				c2.944,6.19,10.025,9.083,16.59,7.349c7.075-1.869,11.765-7.833,14.418-14.332C216.093,187.599,214.005,169.908,205.932,155.892z
				"/>
		</g>
		<g>
			<path style="fill:#E1977C;" d="M158.409,80.751c-1.074-1.414-1.896-2.773-2.192-3.901c-0.208-0.778-0.395-3.967-0.559-5.271
				c-0.548-0.241-1.293-0.581-1.534-0.701c-0.537-0.252-1.052-0.57-1.523-0.942c-1.775-1.37-3.014-3.419-3.408-5.633
				c-0.263-1.49-0.132-3.09,0.526-4.471c0-0.011,0.011-0.022,0.011-0.033c0.296-0.625,0.701-1.184,1.205-1.666
				c0.164-0.241,0.373-0.405,0.592-0.504c0.471-0.362,1.008-0.636,1.578-0.8c0.504-0.143,1.041-0.197,1.556-0.175h0.011
				c0,0,5.49-5.03,6.005-8.712c0,0,0.526,1.523-0.23,3.496c0,0,7.233-2.027,8.964-5.534c1.721-3.496,5.71-8.931,9.742-8.274
				c4.044,0.658,7.463,4.416,8.405,8.866c1.096,3.847,1.436,8.537,1.545,10.159c0.077,0,0.153,0,0.219,0
				c0.46,0,0.91,0.055,1.337,0.175c0.57,0.164,1.107,0.438,1.589,0.8c0.219,0.099,0.416,0.263,0.592,0.504
				c0.493,0.482,0.899,1.041,1.194,1.666c0.679,1.392,0.811,3.003,0.537,4.504c-0.383,2.214-1.622,4.263-3.397,5.633
				c-0.482,0.373-0.986,0.69-1.534,0.942c-0.219,0.12-0.942,0.416-1.523,0.646c-0.164,1.326-0.351,4.537-0.559,5.326
				c-0.417,1.578-1.874,3.627-3.605,5.6c-2.674,3.047-6.005,5.907-7.09,6.575c-1.786,1.107-4.975,1.195-4.975,1.195
				s-3.189-0.088-4.986-1.195C165.62,88.225,161.181,84.356,158.409,80.751z"/>
		</g>
		<g>
			<path style="fill:#D1684A;" d="M173.349,56.902c0,0-1.6,5.481-1.463,9.213c0.137,3.732,0.727,5.027,0.727,5.027
				s5.078-1.599,4.606-3.398C176.748,65.945,173.349,56.902,173.349,56.902z"/>
		</g>
		<g>
			<path style="fill:#F5DED0;" d="M238.824,437.425c0,0-5.304,3.583-13.72,3.737c-8.416,0.154-15.638-3.375-15.638-3.375
				c0.088-0.756,0.197-1.545,0.318-2.345c0,0,13.808-9.71,28.504-0.438c0.219,0.833,0.406,1.644,0.548,2.422H238.824z"/>
		</g>
		<g>
			<path style="fill:#F5DED0;" d="M238.835,437.425c0.526,2.926,0.438,5.293-1.085,5.94c-4.34,1.83-28.098,2.137-28.482-1.063
				c-0.12-1.03-0.022-2.663,0.197-4.515c0,0,7.222,3.529,15.638,3.375c8.416-0.153,13.72-3.737,13.72-3.737H238.835z"/>
		</g>
		<g>
			<path style="fill:#F5DED0;" d="M130.113,444.789c-6.761,0-16.559,0-16.559,0s-0.942-1.425-1.688-3.342
				c0,0,6.181,0.8,18.038-0.482c0,0,2.148-0.438,5.403-1.151c7.277-1.6,20.087-4.635,26.663-7.43
				c-0.099,1.611-0.175,2.652-0.175,2.652C156.71,438.444,130.113,444.789,130.113,444.789z"/>
		</g>
		<g>
			<path style="fill:#F5DED0;" d="M135.308,439.814c-3.255,0.712-5.403,1.151-5.403,1.151c-11.857,1.282-18.038,0.482-18.038,0.482
				c-0.406-1.063-0.756-2.268-0.844-3.463c-0.197-2.499,6.487-4.734,12.592-7.211C125.861,430.97,133.171,432.231,135.308,439.814z"
				/>
		</g>
		<g>
			<path style="fill:#B23F21;" d="M234.704,422.806c0.044,1.644,2.312,7.233,3.583,12.197c-14.696-9.271-28.504,0.438-28.504,0.438
				c0.515-3.353,1.271-6.882,1.764-8.679c0.592-2.115,0.745-5.874,0.767-8.274c4.548,0.592,11.583,1.074,15.835-0.712
				c2.619-1.107,4.658-2.367,6.17-3.496C234.441,416.527,234.649,420.702,234.704,422.806z"/>
		</g>
		<g>
			<path style="fill:#B23F21;" d="M162.047,418.708c0.384,3.792,0.121,10.104-0.077,13.676c-6.575,2.794-19.386,5.83-26.663,7.43
				c-2.137-7.583-9.447-8.844-11.693-9.041c2.093-0.844,4.12-1.721,5.786-2.641c4.153-2.301,7.814-7.145,9.907-10.334
				c2.499,1.216,6.784,2.827,12.23,2.871C155.658,420.702,159.318,419.749,162.047,418.708z"/>
		</g>
		<g>
			<path style="fill:#61809B;" d="M212.315,418.488c-2.619-0.34-4.416-0.712-4.416-0.712l-12.8-82.41l-17.063-76.919l-9.468,78.377
				l-1.49,79.429c0,0-1.907,1.282-5.03,2.455c-2.729,1.041-6.389,1.994-10.509,1.962c-5.446-0.044-9.731-1.655-12.23-2.871
				c-1.545-0.778-2.4-1.392-2.4-1.392c-1.063-9.907-6.236-81.489-6.236-81.489s-2.29-27.046-2.312-49.358
				c-0.022-18.98,1.666-42.158,2.17-48.657c6.795,2.104,28.142,8.318,43.704,8.449c15.934,0.132,42.093-9.216,49.577-12.011
				c1.096,11.485,7.342,77.796,7.693,85.654c0.373,8.614,6.246,92.075,6.246,92.075s-1.074,1.447-3.43,3.211
				c-1.512,1.129-3.551,2.389-6.17,3.496C223.898,419.562,216.863,419.08,212.315,418.488z"/>
		</g>
		<g>
			<path style="fill:#473220;" d="M184.107,83.348c0,0-3.386,14.575-13.26,11.583c-7.529-2.29-11.299-8.756-12.657-11.693
				c0.088-0.91,0.164-1.764,0.219-2.488c2.773,3.605,7.211,7.474,8.493,8.274c1.797,1.107,4.986,1.195,4.986,1.195
				s3.189-0.088,4.975-1.195c1.085-0.668,4.416-3.529,7.09-6.575C183.997,82.679,184.052,82.986,184.107,83.348z"/>
		</g>
		<g>
			<path style="fill:#473220;" d="M194.288,50.362c-0.274,2.729-1.446,7.77-1.446,7.77c-0.175-0.241-0.373-0.405-0.592-0.504
				c-0.482-0.362-1.019-0.636-1.589-0.8c-0.427-0.121-0.877-0.175-1.337-0.175c-0.066,0-0.142,0-0.219,0
				c-0.11-1.622-0.449-6.312-1.545-10.159c-0.943-4.449-4.362-8.208-8.405-8.866c-4.033-0.658-8.022,4.778-9.742,8.274
				c-1.731,3.507-8.964,5.534-8.964,5.534c0.756-1.973,0.23-3.496,0.23-3.496c-0.515,3.682-6.005,8.712-6.005,8.712h-0.011
				c-0.515-0.022-1.052,0.033-1.556,0.175c-0.57,0.164-1.107,0.438-1.578,0.8c-0.219,0.099-0.427,0.263-0.592,0.504
				c-0.504,0.482-0.91,1.041-1.205,1.666c0,0.011-0.011,0.022-0.011,0.033c-0.997-2.137-2.488-5.764-2.192-7.836
				c0.427-3.068,1.271-11.419,5.994-16.701c4.712-5.282,14.214-7.551,18.575-7.551c4.372,0,12.515,4.197,12.515,4.197
				s4.493,0.592,7.036,2.795C194.189,36.949,194.562,47.623,194.288,50.362z"/>
		</g>
		<g>
			<path style="fill:#E1977C;" d="M189.773,93.781c1.195,0.329,2.181,0.515,2.181,0.515s-6.992,8.274-14.542,11.375
				c-1.841,0.767-3.715,1.206-5.523,1.162c-9.282-0.252-21.523-12.285-21.523-12.285s0.603-0.164,1.447-0.427
				c0.011,0,0.011,0,0.011,0c1.808-0.57,4.723-1.556,5.151-2.214c0.373-0.57,0.866-5.052,1.216-8.668
				c1.359,2.937,5.129,9.403,12.657,11.693c9.874,2.992,13.26-11.583,13.26-11.583c0.406,2.433,1.271,7.31,1.699,8.405
				C186.145,92.608,188.151,93.321,189.773,93.781z"/>
		</g>
		<g>
			<path style="fill:#E1977C;" d="M223.834,159.721c0.495-2.256,0.54-0.994,1.404-6.947c9.866-3.935,15.657-10.05,17.368-12.243
				c0,0,4.34,25.86,4.226,27.786c-0.125,1.925-1.85,5.91-5.541,9.613c-2.475,2.5-13.605,4.857-25.744,6.047
				c-5.871,0.585-11.98,0.885-17.464,0.811c-16.798-0.252-21.328-1.409-24.652-1.392c-3.312,0.007-14.367,0.005-15.578-1.367
				c-1.199-1.381-2.618-6.148-2.618-6.148l-2.428-2.545c5.122-4.094,11.781-9.648,18.555-15.38c1.522,1.333,4.176,3.689,5.103,4.903
				c0,0,3.316,1.578,6.507,2.826c1.52,0.606,3.026,1.123,4.126,1.374L223.834,159.721z"/>
		</g>
		<g>
			<path style="fill:#F0C8B2;" d="M227.636,155.285c2.174-3.812,2.317-8.052,2.204-12.33c-0.011-0.413-2.297-15.468-6.813-21.735
				c-0.176-0.245-0.213-0.485-0.161-0.699c-0.127-0.132-0.247-0.263-0.361-0.391c-0.6,1.16-1.76,2.62-3.35,4.06
				c-0.56,0.51-1.16,1-1.82,1.48c-3.6,2.64-13.02,10.54-14.93,12.29c-0.67,0.63-12.818,12.917-21.538,21.817
				c0.32,0.83,0.68,1.74,1.06,2.67c2.18,5.29,12.388,3.733,18.088,4.073c2.64,0.15,5.7,0.19,8.94-0.07
				c5.457-0.434,10.089-2.598,13.088-4.395C223.956,159.833,226.174,157.849,227.636,155.285z"/>
		</g>
		<g>
			<path style="fill:#E1977C;" d="M222.975,111.149c-0.22,1.85-0.76,2.85-0.76,2.85s0.61,3.19,0.76,4.52
				c0.04,0.39-0.12,0.95-0.47,1.61c-0.6,1.16-1.76,2.62-3.35,4.06c-0.56,0.51-1.16,1-1.82,1.48c-3.6,2.64-13.02,10.54-14.93,12.29
				c-0.67,0.63-7.61,7.8-16.33,16.7c-1.24,1.27-2.53,2.57-3.83,3.9c-2.76,2.83-5.64,5.74-8.49,8.62
				c-6.25,6.3-12.4,12.42-17.14,16.95c-4.74,4.52-8.08,7.47-8.74,7.45c-2.41-0.07-10-0.13-13.25-2.74
				c-0.45-0.35-0.81-0.76-1.06-1.22c-1.79-3.19-9.02-21.02-11.32-26.73c5.23-0.37,18.16-1.72,26.32-6.1c0,0,16.42-10.94,28.18-18.97
				c6.31-4.33,11.29-7.8,11.66-8.32c1.06-1.48,4.92-12.38,5.38-15.38c0.08-0.49,0.32-0.99,0.68-1.49c1.85-2.58,6.94-5.17,9.06-5.88
				c2.54-0.83,4.22-0.5,4.22-0.5s4.44-3.4,5.17-4.47c0.49-0.68,2.38-0.98,3.96-0.88c0.89,0.05,1.68,0.25,2.04,0.57
				c1.02,0.9-0.2,3.31-0.2,3.31s3.17,1.34,3.7,2.94s-0.4,2.03-0.4,2.03S223.205,109.299,222.975,111.149z"/>
		</g>
		<g>
			<path style="fill:#F0C8B2;" d="M188.394,101.777l14.444,4.197c-0.362,0.504-0.603,1.008-0.679,1.49
				c-0.46,3.003-4.318,13.907-5.381,15.386c-0.373,0.515-5.348,3.989-11.66,8.318c0,0-3.879-5.852-4.186-13.139
				c-0.274-6.619,6.104-14.619,7.277-16.033C188.329,101.854,188.394,101.777,188.394,101.777z"/>
		</g>
		<g>
			<path style="fill:#473220;" d="M171.122,72.389c-0.372,0-0.694-0.276-0.743-0.654c-0.053-0.411,0.237-0.787,0.647-0.84
				c1.816-0.235,3.556-0.955,5.032-2.084c0.532-0.407,0.681-1.181,0.354-1.84c-1.773-3.585-3.17-7.366-4.152-11.235
				c-0.102-0.401,0.141-0.81,0.543-0.912c0.403-0.101,0.809,0.141,0.912,0.542c0.956,3.767,2.316,7.448,4.043,10.939
				c0.644,1.3,0.313,2.855-0.788,3.697c-1.685,1.289-3.673,2.111-5.751,2.379C171.187,72.387,171.155,72.389,171.122,72.389z"/>
		</g>
		<g>
			<path style="fill:#473220;" d="M167.378,59.139c0,1.559-1.099,2.822-2.456,2.822c-1.356,0-2.456-1.264-2.456-2.822
				c0-1.559,1.1-2.823,2.456-2.823C166.279,56.317,167.378,57.581,167.378,59.139z"/>
		</g>
		<g>
			<path style="fill:#473220;" d="M182.83,59.139c0,1.559-1.099,2.822-2.456,2.822c-1.356,0-2.456-1.264-2.456-2.822
				c0-1.559,1.1-2.823,2.456-2.823C181.73,56.317,182.83,57.581,182.83,59.139z"/>
		</g>
		<g>
			<path style="fill:#473220;" d="M166.019,50.362c-2.125,0.178-4.133,0.717-6.064,1.622c-0.348,0.163-0.645,0.61-0.744,0.967
				c-0.107,0.387-0.058,0.903,0.163,1.247c0.223,0.346,0.555,0.65,0.967,0.744c0.446,0.102,0.834,0.03,1.247-0.163
				c0.104-0.049,0.209-0.093,0.314-0.14c1.175-0.48,2.402-0.811,3.659-0.992c0.152-0.017,0.305-0.036,0.457-0.049
				c0.436-0.037,0.826-0.156,1.144-0.474c0.28-0.281,0.492-0.741,0.474-1.144C167.6,51.164,166.922,50.286,166.019,50.362z"/>
		</g>
		<g>
			<path style="fill:#473220;" d="M177.752,50.362c2.126,0.178,4.133,0.717,6.064,1.622c0.348,0.163,0.645,0.61,0.744,0.967
				c0.107,0.387,0.059,0.903-0.163,1.247c-0.223,0.346-0.554,0.65-0.967,0.744c-0.446,0.102-0.834,0.03-1.247-0.163
				c-0.104-0.049-0.209-0.093-0.314-0.14c-1.176-0.48-2.402-0.811-3.659-0.992c-0.152-0.017-0.305-0.036-0.458-0.049
				c-0.436-0.037-0.826-0.156-1.144-0.474c-0.281-0.281-0.492-0.741-0.474-1.144C176.171,51.164,176.849,50.286,177.752,50.362z"/>
		</g>
		<g>
			<path style="fill:#FFFFFF;" d="M177.138,77.669c-0.712,1.32-2.511,3.689-6.071,3.094c-3.249-0.531-4.052-3.534-4.233-5.087
				c-0.065-0.479,0.362-0.867,0.828-0.777l8.984,1.773C177.112,76.763,177.358,77.268,177.138,77.669z"/>
		</g>
		<g>
			<path style="fill:#473220;" d="M154.182,69.342c-0.01,0-0.019,0-0.029-0.001c-0.414-0.016-0.737-0.364-0.721-0.778
				c0.145-3.829-2.232-7.843-2.256-7.883c-0.213-0.355-0.098-0.816,0.257-1.029c0.354-0.214,0.815-0.098,1.029,0.257
				c0.108,0.179,2.631,4.44,2.469,8.711C154.916,69.024,154.583,69.342,154.182,69.342z"/>
		</g>
		<g>
			<path style="fill:#473220;" d="M189.586,68.494c-0.401,0-0.733-0.317-0.749-0.722c-0.162-4.271,2.361-8.532,2.469-8.711
				c0.212-0.355,0.671-0.472,1.028-0.257c0.355,0.212,0.471,0.673,0.258,1.028c-0.024,0.04-2.402,4.065-2.257,7.884
				c0.016,0.414-0.307,0.762-0.721,0.778C189.605,68.494,189.596,68.494,189.586,68.494z"/>
		</g>
		<g>
			<g>
				<path style="fill:#F0C8B2;" d="M214.313,103.351c-0.105,0.189-0.243,0.382-0.413,0.573c-0.047,0.051-0.093,0.102-0.146,0.152
					c-0.075,0.082-0.163,0.167-0.256,0.243c-0.107,0.105-0.23,0.199-0.355,0.299c-0.015,0.008-0.023,0.013-0.032,0.023
					c-0.148,0.113-0.301,0.224-0.461,0.333c-0.111,0.072-0.229,0.148-0.345,0.218c-0.149,0.093-0.302,0.179-0.462,0.269
					c-0.13,0.073-0.258,0.14-0.396,0.217c-0.09,0.045-0.188,0.095-0.29,0.137c-1.502,0.735-3.401,1.371-5.47,1.785
					c-0.239,0.048-0.476,0.091-0.721,0.138c-0.243,0.041-0.487,0.082-0.734,0.115c-0.249,0.039-0.495,0.066-0.743,0.099
					l-1.336,0.125c-0.276,0.019-0.552,0.037-0.83,0.043c-0.021,0.007-0.035,0.01-0.053,0.004c-0.247,0.008-0.5,0.014-0.745,0.015
					c-0.008,0.004-0.02,0.001-0.031-0.002c-0.129,0.002-0.265,0.002-0.393-0.001c-0.422-0.01-0.845-0.02-1.26-0.053
					c-0.069-0.007-0.14-0.007-0.209-0.014c-0.528-0.046-1.051-0.11-1.567-0.198c-0.03-0.008-0.067-0.012-0.097-0.021
					c-0.265-0.043-0.526-0.097-0.786-0.158c-0.273-0.058-0.544-0.128-0.806-0.202c-0.262-0.074-0.529-0.156-0.792-0.25
					c-0.253-0.084-0.505-0.175-0.753-0.277c-0.03-0.008-0.058-0.023-0.094-0.033c-0.486-0.195-0.965-0.414-1.439-0.651
					c-0.061-0.036-0.123-0.067-0.185-0.097c-0.37-0.195-0.737-0.401-1.102-0.614c-0.111-0.064-0.226-0.135-0.335-0.204
					c-0.22-0.133-0.438-0.272-0.655-0.417c-0.016-0.011-0.026-0.02-0.043-0.031c-0.235-0.15-0.46-0.31-0.685-0.47l-1.074-0.805
					c-0.194-0.158-0.389-0.31-0.581-0.473c-0.194-0.158-0.38-0.32-0.566-0.482c-0.184-0.168-0.365-0.328-0.543-0.495
					c-1.54-1.433-2.828-2.962-3.728-4.382c-0.065-0.089-0.122-0.183-0.175-0.268c-0.079-0.132-0.152-0.262-0.224-0.392
					c-0.09-0.161-0.176-0.313-0.254-0.471c-0.063-0.121-0.123-0.247-0.18-0.366c-0.087-0.192-0.165-0.375-0.234-0.562
					c-0.054-0.151-0.11-0.295-0.146-0.441c-0.039-0.114-0.07-0.232-0.09-0.341c-0.019-0.07-0.032-0.138-0.045-0.206
					c-0.045-0.251-0.062-0.488-0.052-0.704c0.164-3.431,5.9-13.617,5.9-13.617s0.111-0.529,0.299-1.332
					c0.035-0.145,0.072-0.302,0.112-0.464c0.055-0.242,0.118-0.508,0.187-0.778c0.382-1.535,0.909-3.447,1.465-4.822l-0.006-0.002
					c0.044-0.11,0.088-0.22,0.134-0.316c0.01-0.036,0.026-0.07,0.041-0.098c0.057-0.132,0.117-0.257,0.177-0.375
					c0,0,0,0,0.002-0.006c0.058-0.113,0.115-0.225,0.175-0.324c0.016-0.034,0.031-0.062,0.053-0.095
					c0.073-0.121,0.147-0.223,0.217-0.312l0.008-0.004c0.081-0.106,0.162-0.186,0.248-0.239l0.006,0.002
					c1.378-0.841,7.9,6.166,7.9,6.166s3.039,0.62,5.198,1.229c2.159,0.61,5.073,1.671,5.073,1.671s9.247-2.573,9.958-1.123
					l0.006,0.002c0.045,0.09,0.072,0.201,0.086,0.333c0,0-0.002,0.006,0.004,0.008c0.013,0.113,0.023,0.238,0.022,0.38
					c-0.003,0.032-0.001,0.071-0.005,0.108c-0.001,0.116-0.01,0.242-0.02,0.368c-0.002,0.006-0.002,0.006-0.002,0.006
					c-0.012,0.132-0.025,0.27-0.046,0.412c-0.003,0.032-0.013,0.067-0.017,0.105c-0.011,0.106-0.031,0.223-0.051,0.34l-0.006-0.002
					c-0.246,1.463-0.797,3.369-1.274,4.876c-0.082,0.267-0.166,0.52-0.247,0.761c-0.051,0.159-0.101,0.313-0.148,0.454
					c-0.26,0.783-0.442,1.292-0.442,1.292S215.962,100.339,214.313,103.351z"/>
			</g>
			<g>
				<path style="fill:#F5DED0;" d="M207.331,101.46c1.579,2.689-3.754,6.17-3.754,6.17l0.039,0.313
					c-0.487,0.061-0.969,0.108-1.462,0.136c-2.314,0.166-4.664,0.011-6.778-0.586c-2.527-0.713-5.004-2.137-7.155-3.842
					c0,0-2.723-5.764,0.029-7.229c2.745-1.468,6.537-3.069,7.055-3.495c0.525-0.424,2.599-8.922,6.4-7.848
					c3.801,1.073,1.217,9.068,1.443,9.705C203.365,95.425,205.76,98.773,207.331,101.46z M198.059,97.625
					c1.436,0.406,3.18-1.488,3.18-1.488c-1.609-1.568-5.112-1.444-5.112-1.444S196.623,97.219,198.059,97.625z"/>
			</g>
			<g>
				<path style="fill:#473220;" d="M207.901,91.329c0.847,0.239,1.267,1.344,0.951,2.464c-0.316,1.12-1.25,1.834-2.097,1.595
					c-0.84-0.237-1.262-1.335-0.945-2.454C206.126,91.814,207.062,91.092,207.901,91.329z"/>
			</g>
			<g>
				<path style="fill:#473220;" d="M201.239,96.137c0,0-1.744,1.894-3.18,1.488c-1.436-0.406-1.932-2.932-1.932-2.932
					S199.63,94.569,201.239,96.137z"/>
			</g>
			<g>
				<path style="fill:#473220;" d="M192.636,86.693c0.84,0.237,1.262,1.334,0.943,2.461c-0.316,1.12-1.25,1.834-2.089,1.597
					c-0.847-0.239-1.269-1.337-0.953-2.456C190.855,87.168,191.789,86.453,192.636,86.693z"/>
			</g>
			<g>
				<path style="fill:#D1684A;" d="M194.04,78.34c-2.795,0.07-5.461,1.679-5.461,1.679s1.764-7.233,2.568-7.093
					C191.95,73.066,194.04,78.34,194.04,78.34z"/>
			</g>
			<g>
				<path style="fill:#473220;" d="M199.592,102.054c-0.112,0-0.215-0.014-0.309-0.042c-0.539-0.164-1.068-0.849-1.58-2.041
					c-0.656,0.522-1.539,1.013-2.305,0.72c-0.983-0.374-2.241-2.139-2.604-2.671c-0.233-0.342-0.145-0.809,0.198-1.042
					c0.343-0.231,0.809-0.144,1.042,0.197c0.606,0.889,1.535,1.976,1.898,2.114c0.001,0,0.002,0,0.003,0
					c0.229,0,0.979-0.545,1.517-1.134c0.179-0.196,0.447-0.284,0.707-0.228c0.259,0.054,0.471,0.24,0.557,0.491
					c0.302,0.881,0.753,1.82,1.008,2.121c0.408-0.122,1.39-0.716,2.24-1.365c0.328-0.251,0.8-0.189,1.051,0.14
					c0.251,0.329,0.189,0.799-0.14,1.051C201.407,101.487,200.305,102.054,199.592,102.054z"/>
			</g>
			<g>
				<path style="fill:#D1684A;" d="M211.799,83.355c2.346,1.521,3.776,4.287,3.776,4.287s2.279-7.087,1.522-7.388
					C216.339,79.953,211.799,83.355,211.799,83.355z"/>
			</g>
		</g>
		<g>
			<path style="fill:#D1684A;" d="M164.922,66.744c0,1.271-1.637,2.301-3.656,2.301s-3.656-1.03-3.656-2.301
				c0-1.271,1.637-2.301,3.656-2.301S164.922,65.474,164.922,66.744z"/>
		</g>
		<g>
			<path style="fill:#D1684A;" d="M186.485,66.744c0,1.271-1.637,2.301-3.656,2.301c-2.019,0-3.656-1.03-3.656-2.301
				c0-1.271,1.637-2.301,3.656-2.301C184.849,64.443,186.485,65.474,186.485,66.744z"/>
		</g>
		<g>
			<path style="fill:#473220;" d="M176.112,257.065c-0.047,0-0.096-0.004-0.144-0.014l-32.496-6.296
				c-0.407-0.079-0.672-0.473-0.594-0.879c0.079-0.407,0.468-0.679,0.879-0.594l32.496,6.296c0.407,0.079,0.672,0.473,0.594,0.879
				C176.778,256.815,176.464,257.065,176.112,257.065z"/>
		</g>
		<g>
			<path style="fill:#473220;" d="M170.119,258.486h-15.334c-0.414,0-0.75-0.336-0.75-0.75c0-0.414,0.336-0.75,0.75-0.75h15.334
				c0.414,0,0.75,0.336,0.75,0.75C170.869,258.151,170.534,258.486,170.119,258.486z"/>
		</g>
		<g>
			<path style="fill:#473220;" d="M180.117,257.065c-0.325,0-0.625-0.213-0.72-0.542c-0.115-0.397,0.114-0.813,0.512-0.929
				l27.372-7.921c0.396-0.111,0.814,0.113,0.929,0.513c0.115,0.398-0.114,0.814-0.512,0.929l-27.372,7.921
				C180.256,257.055,180.186,257.065,180.117,257.065z"/>
		</g>
		<g>
			<path style="fill:#473220;" d="M154.845,151.344c-0.357,0-0.674-0.257-0.738-0.621l-3.027-17.355
				c-0.071-0.408,0.202-0.796,0.61-0.868c0.408-0.071,0.797,0.202,0.868,0.61l3.027,17.355c0.071,0.408-0.202,0.796-0.61,0.868
				C154.931,151.34,154.888,151.344,154.845,151.344z"/>
		</g>
		<g>
			<path style="fill:#473220;" d="M138.538,162.422c-0.226,0-0.45-0.102-0.598-0.296c-0.25-0.33-0.186-0.801,0.144-1.051
				l7.485-5.681c0.33-0.249,0.8-0.186,1.051,0.144c0.25,0.33,0.186,0.801-0.144,1.051l-7.485,5.681
				C138.856,162.372,138.697,162.422,138.538,162.422z"/>
		</g>
		<g>
			<path style="fill:#473220;" d="M217.643,105.961c-0.101,0-0.203-0.021-0.302-0.063c-0.379-0.167-0.551-0.609-0.384-0.989
				l1.071-2.433c0.166-0.379,0.605-0.551,0.989-0.384c0.379,0.167,0.551,0.609,0.384,0.989l-1.071,2.433
				C218.207,105.794,217.932,105.961,217.643,105.961z"/>
		</g>
		<g>
			<path style="fill:#473220;" d="M220.842,110.836c-0.113,0-0.228-0.025-0.336-0.08c-0.37-0.186-0.52-0.637-0.334-1.007
				l1.171-2.332c0.187-0.371,0.638-0.52,1.007-0.334c0.37,0.186,0.52,0.637,0.334,1.007l-1.171,2.332
				C221.381,110.684,221.117,110.836,220.842,110.836z"/>
		</g>
		<g>
			<path style="fill:#473220;" d="M220.233,117.538c-0.15,0-0.302-0.045-0.434-0.138c-0.338-0.24-0.417-0.708-0.178-1.046
				l1.978-2.788c0.241-0.338,0.708-0.416,1.046-0.178c0.338,0.24,0.417,0.708,0.178,1.046l-1.978,2.788
				C220.699,117.428,220.468,117.538,220.233,117.538z"/>
		</g>
		<g>
			<path style="fill:#F0C8B2;" d="M183.47,119.541c0,0-6.169,5.848-6.245,7.727c-0.076,1.879,0.642,5.993,2.784,7.376
				c2.141,1.383,4.375,2.221,6.609,1.51c2.234-0.711,4.443-5.863,3.402-8.365C190.02,127.789,190.172,114.911,183.47,119.541z"/>
		</g>
		<g>
			<path style="fill:#F0C8B2;" d="M205.049,121.962c0,3.66-2.773,6.626-6.195,6.626s-6.194-2.966-6.194-6.626
				c0-3.659,2.773-6.626,6.194-6.626S205.049,118.303,205.049,121.962z"/>
		</g>
		<g>
			<path style="fill:#473220;" d="M177.224,128.018c-0.387,0-0.716-0.298-0.747-0.691c-0.186-2.371,3.421-5.463,4.306-6.183
				c1.105-2.61,2.222-8.354,2.233-8.412c0.079-0.407,0.474-0.673,0.878-0.594c0.407,0.079,0.673,0.472,0.594,0.878
				c-0.049,0.253-1.209,6.22-2.407,8.902c-0.049,0.111-0.124,0.208-0.219,0.283c-1.675,1.325-3.988,3.754-3.89,5.009
				c0.033,0.413-0.276,0.774-0.689,0.806C177.263,128.017,177.244,128.018,177.224,128.018z"/>
		</g>
		<g>
			<path style="fill:#473220;" d="M190.02,128.538c-0.283,0-0.554-0.161-0.682-0.435c-0.01-0.021-1.004-2.124-3.084-3.277
				c-0.362-0.201-0.493-0.657-0.292-1.02c0.201-0.363,0.658-0.494,1.02-0.292c2.522,1.398,3.672,3.857,3.72,3.961
				c0.172,0.376,0.008,0.82-0.368,0.993C190.232,128.516,190.125,128.538,190.02,128.538z"/>
		</g>
		<g>
			<path style="fill:#473220;" d="M193.414,125.881c-0.354,0-0.668-0.251-0.736-0.612c-0.057-0.304-1.355-7.477,2.354-9.459
				c3.428-1.831,4.859-1.322,5.112-1.202c0.374,0.179,0.532,0.627,0.353,1c-0.178,0.374-0.626,0.531-1,0.353
				c0.008,0.007-0.071-0.018-0.247-0.018c-0.45,0-1.545,0.139-3.511,1.189c-2.276,1.216-1.917,6.085-1.586,7.859
				c0.076,0.407-0.192,0.799-0.6,0.875C193.506,125.877,193.46,125.881,193.414,125.881z"/>
		</g>
		<g>
			<path style="fill:#473220;" d="M202.837,167.387c-0.062,0-0.126-0.008-0.189-0.024c-0.233-0.061-5.728-1.628-7.123-13.758
				c-1.396-12.138,11.852-18.954,11.985-19.021c0.37-0.186,0.82-0.038,1.007,0.333c0.187,0.37,0.038,0.82-0.332,1.007
				c-0.124,0.063-12.445,6.419-11.17,17.511c1.263,10.985,5.972,12.466,6.02,12.48c0.395,0.114,0.629,0.524,0.52,0.92
				C203.465,167.167,203.166,167.387,202.837,167.387z"/>
		</g>
		<g>
			<path style="fill:#473220;" d="M119.806,442.648c-4.517,0-7.774-0.423-8.039-0.458c-0.41-0.055-0.699-0.432-0.643-0.843
				c0.055-0.411,0.433-0.704,0.843-0.643c0.126,0.015,12.81,1.657,23.115-1.604c0.394-0.13,0.816,0.094,0.941,0.488
				c0.125,0.395-0.094,0.816-0.489,0.941C130.197,442.219,124.361,442.648,119.806,442.648z"/>
		</g>
		<g>
			<path style="fill:#473220;" d="M225.104,441.912c-8.656,0-15.667-3.308-15.962-3.448c-0.374-0.179-0.531-0.627-0.353-1
				c0.178-0.373,0.626-0.532,1-0.353c0.069,0.033,7.012,3.302,15.315,3.302c8.213,0,13.241-3.559,13.291-3.595
				c0.335-0.242,0.804-0.167,1.047,0.168c0.243,0.335,0.168,0.803-0.166,1.046C239.057,438.19,233.831,441.912,225.104,441.912z"/>
		</g>
		<g>
			<path style="fill:#F5DED0;" d="M137.095,429.654c-0.298-0.554-0.612-1.102-1.061-1.549c-0.391-0.39-0.861-0.707-1.359-0.946
				c-1.008-0.483-2.101-0.709-3.194-0.903c-0.291-0.052-0.59,0.079-0.674,0.383c-0.073,0.265,0.09,0.622,0.383,0.674
				c0.963,0.171,1.967,0.344,2.861,0.759c0.418,0.194,0.818,0.433,1.152,0.753c0.411,0.394,0.679,0.885,0.946,1.382
				C136.483,430.829,137.429,430.276,137.095,429.654z"/>
		</g>
		<g>
			<path style="fill:#F5DED0;" d="M140.752,426.936c-1.375-1.824-3.189-3.205-5.426-3.772c-0.684-0.173-0.976,0.883-0.291,1.057
				c1.945,0.493,3.57,1.675,4.771,3.269c0.178,0.236,0.473,0.358,0.75,0.197C140.788,427.55,140.931,427.174,140.752,426.936z"/>
		</g>
		<g>
			<path style="fill:#F5DED0;" d="M147.931,418.683c-1.216-1.273-3.458-0.863-4.913-0.319c-1.361,0.508-2.553,1.327-3.512,2.387
				c-0.246-1.611-0.634-3.209-1.631-4.534c-0.754-1.001-2.947-2.889-4.238-1.699c-1.228,1.133,0.072,3.271,0.793,4.29
				c1.133,1.601,2.645,2.861,4.156,4.089c0.083,0.068,0.172,0.099,0.261,0.115c0.055,0.219,0.217,0.414,0.499,0.44
				c2.263,0.207,4.769,0.072,6.913-0.743c0.873-0.332,1.661-0.875,2.028-1.763C148.6,420.186,148.514,419.293,147.931,418.683z
				 M136.176,419.243c-0.478-0.529-0.91-1.095-1.268-1.713c-0.305-0.526-0.713-1.204-0.652-1.841
				c0.078-0.805,1.205-0.166,1.607,0.095c0.58,0.377,1.054,0.91,1.416,1.495c0.765,1.236,1.032,2.696,1.225,4.126
				C137.689,420.727,136.888,420.031,136.176,419.243z M146.863,421.123c-0.56,0.53-1.399,0.717-2.126,0.888
				c-1.681,0.394-3.402,0.493-5.12,0.361c0.803-1.209,1.925-2.16,3.244-2.766c1.099-0.505,2.867-1.046,4.006-0.376
				C147.624,419.675,147.421,420.596,146.863,421.123z"/>
		</g>
		<g>
			<path style="fill:#F5DED0;" d="M228.791,427.144c-2.785-1.333-5.948-1.666-8.946-0.916c-0.684,0.171-0.394,1.228,0.291,1.057
				c2.699-0.675,5.59-0.397,8.101,0.805C228.871,428.393,229.427,427.448,228.791,427.144z"/>
		</g>
		<g>
			<path style="fill:#F5DED0;" d="M227.861,422.455c-2.479-0.594-5.089-0.497-7.511,0.302c-0.667,0.22-0.381,1.279,0.291,1.057
				c2.239-0.739,4.633-0.852,6.928-0.302C228.255,423.676,228.548,422.62,227.861,422.455z"/>
		</g>
		<g>
			<path style="fill:#F5DED0;" d="M232.25,412.567c-0.743-0.332-1.494,0.005-2.155,0.367c-0.75,0.41-1.461,0.889-2.135,1.415
				c-1.429,1.115-2.644,2.459-3.639,3.973c-0.033-0.033-0.06-0.059-0.096-0.094c-1.906-1.868-4.703-2.69-7.328-2.335
				c-1.285,0.174-2.733,0.619-3.717,1.501c-0.463,0.415-0.811,1.009-0.669,1.651c0.152,0.687,0.786,1.128,1.359,1.454
				c3.281,1.87,7.176,0.899,10.301-0.788c0.019-0.01,0.028-0.026,0.045-0.038c0.196,0.122,0.407,0.218,0.664,0.228
				c0.697,0.029,1.456-0.197,2.123-0.377c0.84-0.227,1.658-0.54,2.441-0.917c1.31-0.631,2.913-1.532,3.64-2.851
				C233.673,414.683,233.466,413.111,232.25,412.567z M218.429,420.416c-0.806,0.042-1.613-0.022-2.396-0.223
				c-0.662-0.17-1.943-0.542-2.339-1.173c-0.746-1.192,2.93-2.018,3.633-2.083c1.399-0.129,2.839,0.097,4.116,0.691
				c0.621,0.289,1.211,0.659,1.725,1.112c0.057,0.051,0.111,0.108,0.166,0.163C221.809,419.699,220.162,420.326,218.429,420.416z
				 M228.996,417.609c-0.766,0.378-1.572,0.671-2.399,0.887c-0.406,0.106-0.83,0.219-1.248,0.264c0.887-1.323,1.963-2.509,3.212-3.5
				c0.596-0.473,1.233-0.896,1.894-1.272c0.325-0.185,0.804-0.521,1.195-0.468c0.385,0.053,0.616,0.48,0.667,0.827
				C232.542,415.879,230.098,417.065,228.996,417.609z"/>
		</g>
		<g>
			<path style="fill:#473220;" d="M157.852,182.779c-0.198,0-0.396-0.078-0.544-0.233c-0.285-0.3-0.273-0.775,0.027-1.061
				l19.732-18.739c0.3-0.286,0.774-0.274,1.061,0.027c0.285,0.3,0.273,0.775-0.027,1.061l-19.732,18.739
				C158.223,182.71,158.037,182.779,157.852,182.779z"/>
		</g>
		<g>
			<path style="fill:#473220;" d="M188.446,171.782c-0.35,0-0.663-0.247-0.734-0.603c-0.586-2.933-1.111-3.554-1.133-3.58
				c-0.33-0.251-0.362-0.693-0.111-1.022c0.25-0.33,0.753-0.366,1.083-0.115c0.265,0.202,0.955,1.036,1.632,4.423
				c0.081,0.406-0.182,0.801-0.588,0.882C188.544,171.777,188.494,171.782,188.446,171.782z"/>
		</g>
		<g>
			<path style="fill:#473220;" d="M190.02,167.388c-0.2,0-0.399-0.08-0.547-0.237c-7.604-8.104-4.142-12.759-3.99-12.953
				c0.254-0.327,0.725-0.384,1.053-0.131c0.325,0.253,0.385,0.72,0.135,1.046c-0.125,0.17-2.75,3.928,3.896,11.011
				c0.284,0.302,0.269,0.777-0.034,1.06C190.388,167.321,190.204,167.388,190.02,167.388z"/>
		</g>
	</g>
	<g>
		<g>
			<path style="fill:#AC5F43;" d="M234.06,453.281c-0.075,0.348-0.405,0.706-1.045,1.073c-5.499,3.089-15.904,1.017-17.382,0
				c-1.187-0.819-1.507-5.48-1.582-9.209c-0.019-0.913-0.028-1.78-0.028-2.514c0-3.71-4.604-5.847-4.991-7.439
				c-0.386-1.591,3.484-14.661,3.682-21.572c0.028-1.356-1.375-8.87-2.307-13.569l6.384-3.55c0.857-0.367,1.676-0.781,2.448-1.233
				c7.749-4.623,11.318-14.058,12.881-23.785l0.009-0.009c-3.992,24.387-7.9,36.402-8.126,42.4
				c-0.292,7.749-0.358,13.954-0.038,19.143c0.217,3.757,0.64,6.977,1.299,9.868C226.631,448.799,234.55,451.162,234.06,453.281z"/>
		</g>
		<g>
			<path style="fill:#AC5F43;" d="M265.67,310.469c0,0,0.763,4.567-3.813,5.452c-4.557,0.895-15.48,0.706-19.03,2.928
				c-3.55,2.213-9.576,17.062-9.896,22.834c-0.179,3.173,1.309,16.751-0.81,29.802c-1.563,9.727-5.132,19.161-12.881,23.785
				c-0.772,0.452-1.591,0.866-2.448,1.233l-6.384,3.55l-10.358,5.753c-1.761,0.96-5.019,2.834-8.521,5.348
				c0.038,0.292,0.057,0.593,0.066,0.904c0.424,10.188-5.395,15.442-10.725,18.691c-1.733,2.957-4.152,5.15-6.619,6.836v0.009
				c5.866,1.949,23.964,2.448,23.964,7.636c0,0.104,0,0.207-0.019,0.311c0,0-0.066,3.305-6.855,2.043c0,0-1.723,0.763-5.339,0.292
				c-1.073-0.151-4.284-0.198-8.408-0.235c6.469,1.092,12.768,2.589,12.326,5.819c0,0-0.057,3.305-6.855,2.034
				c0,0-1.704,0.772-5.32,0.292c-3.616-0.48-31.28,0.15-36.92-1.563c-5.65-1.714,2.335-6.346,3.333-9.849
				c-4.783-1.431-11.205-3.738-12.598-6.139c-0.405-0.687-0.659-2.345-0.8-4.661c-6.761-7.241-11.412-16.431-13.182-26.177
				c-1.968-10.781-0.405-22.184,4.388-32.033c1.337-2.74,2.947-5.405,5.103-7.57c2.166-2.156,4.934-3.804,7.956-4.237
				c-5.791,5.424-10.075,12.457-12.222,20.113c-2.137,7.636-2.137,15.866,0.019,23.521c0.819,2.947,1.977,5.828,3.757,8.324
				c1.186,1.676,2.683,3.173,4.425,4.284c0.132-2.109,0.311-4.284,0.518-6.441c0.923-9.359,2.523-18.521,4.604-21.817
				c0.697-1.102,1.987-2.74,3.729-4.764c1.733-2.034,3.917-4.444,6.422-7.1c11.318-12.034,29.001-29.048,40.093-37.513
				c4.077-3.107,7.599-7.071,10.593-11.243c8.766-12.231,13.004-26.336,13.004-26.336c-1.62-3.635-2.919-7.316-2.957-8.7
				c-0.085-3.173,10.998-10.245,13.879-8.625c0,0,1.987,0.744,3.701,2.279c0.282,0,2.448-0.019,5.207-0.038
				c4.256-0.028,9.924-0.038,12.278,0.038c2.693,0.085,4.877,2.072,7.25,3.813c1.158,0.848,2.354,1.657,3.653,2.147
				c2.561,0.979,8.757-0.132,12.994-0.509c-0.226,0.113-3.343,1.855-2.034,2.75c1.346,0.932,6.732,1.685,6.732,1.685
				C270.849,303.52,270.237,309.282,265.67,310.469z"/>
		</g>
		<g>
			<path style="fill:#F5DED0;" d="M194.168,385.471c0.238,3.082,0.591,6.158,0.91,9.205c0.377,3.616,0.81,7.232,1.441,10.81
				c0.33,1.845,0.669,3.738,1.215,5.546c0.198,1.205,0.452,2.401,0.838,3.55c0.81,2.41,2.42,4.623,5.009,5.273
				c2.637,0.659,5.48-0.367,7.495-2.09c2.326-1.977,3.587-4.934,4.491-7.778c1.064-3.352,1.893-6.798,2.702-10.226
				c0.838-3.569,1.601-7.156,2.316-10.753c0.468-2.34,0.913-4.685,1.35-7.031C212.535,380.669,202.961,382.472,194.168,385.471z"/>
		</g>
		<g>
			<path style="fill:#AC5F43;" d="M221.936,381.977c0.249-1.335,0.498-2.67,0.74-4.005c0.593-3.211,1.554-6.544,0.122-9.661
				c-1.271-2.768-3.842-4.633-6.601-5.753c-3.183-1.28-6.761-1.761-10.179-1.544c-1.667,0.113-3.343,0.367-4.953,0.828
				c-1.403,0.405-2.787,1.026-3.795,2.109c-1.017,1.102-1.601,2.514-2.006,3.936c-0.471,1.657-0.782,3.352-0.998,5.056
				c-0.531,4.148-0.424,8.343-0.1,12.527C202.961,382.472,212.535,380.669,221.936,381.977z"/>
		</g>
		<g>
			<path style="fill:#AC5F43;" d="M121.963,375.365c-4.792,9.849-6.353,21.25-4.391,32.031c1.771,9.74,6.426,18.932,13.19,26.171
				c-0.201-3.478-0.1-8.444,0.237-13.774c-1.734-1.105-3.231-2.602-4.418-4.281c-1.78-2.492-2.939-5.376-3.761-8.325
				c-2.154-7.649-2.154-15.883-0.018-23.523c2.145-7.649,6.426-14.687,12.223-20.109c-3.021,0.429-5.796,2.081-7.96,4.236
				C124.911,369.952,123.304,372.618,121.963,375.365z"/>
		</g>
		<g>
			<path style="fill:#AC5F43;" d="M164.162,444.073c-0.256,1.743,6.682,2.437,13.428,3.569c4.126,0.036,7.339,0.082,8.416,0.228
				c3.615,0.475,5.331-0.292,5.331-0.292c6.791,1.269,6.855-2.036,6.855-2.036c0.739-5.486-17.955-5.97-23.943-7.951v-0.009
				C169.42,440.905,164.418,442.348,164.162,444.073z"/>
		</g>
		<g>
			<path style="fill:#AC5F43;" d="M183.203,418.295c0.055,0.548,0.091,1.104,0.119,1.671c0.183,4.454-0.822,7.969-2.456,10.78
				c5.331-3.25,11.155-8.498,10.726-18.695c-0.009-0.31-0.027-0.612-0.064-0.904C188.708,413.165,185.714,415.593,183.203,418.295z"
				/>
		</g>
		<g>
			<path style="fill:#473220;" d="M265.969,294.983c-0.219,0.119-3.341,1.862-2.036,2.757c1.351,0.931,6.737,1.68,6.737,1.68
				c-0.082-1.816-0.319-3.304-0.429-3.925C270.103,294.764,268.342,294.754,265.969,294.983z"/>
		</g>
		<g>
			<path style="fill:none;stroke:#473220;stroke-width:1.5;stroke-linecap:round;stroke-linejoin:round;stroke-miterlimit:10;" d="
				M195.759,367.564"/>
		</g>
		<g>
			<path style="fill:#473220;" d="M219.24,396.019c-0.089,0-0.179-0.016-0.267-0.049c-0.387-0.147-0.581-0.581-0.434-0.969
				c2.405-6.311,3.162-11.743,4.119-18.621l0.271-1.942c1.911-13.553-10.829-17.044-11.373-17.187
				c-0.069-0.018-5.055-1.409-9.32,1.16c-2.876,1.732-4.809,4.862-5.744,9.307c-0.085,0.406-0.484,0.664-0.888,0.58
				c-0.405-0.086-0.665-0.483-0.58-0.889c1.025-4.876,3.196-8.339,6.453-10.293c4.836-2.901,10.249-1.378,10.478-1.311
				c0.125,0.031,14.559,3.949,12.459,18.841l-0.271,1.94c-0.971,6.972-1.737,12.478-4.203,18.949
				C219.826,395.835,219.542,396.019,219.24,396.019z"/>
		</g>
		<g>
			<path style="fill:#473220;" d="M164.801,446.597c-0.184,0-0.367-0.066-0.512-0.202c-0.674-0.63-1.272-1.26-1.183-2.046
				c0.107-0.953,1.023-1.486,3.236-2.774c1.178-0.686,2.791-1.625,4.815-2.94c7.925-5.15,15.323-12.248,10.109-25.837
				c-5.335-13.903-16.554-17.201-16.667-17.232c-0.398-0.112-0.631-0.526-0.52-0.925c0.112-0.398,0.526-0.63,0.923-0.521
				c0.489,0.136,12.047,3.501,17.664,18.141c5.63,14.673-2.757,22.475-10.692,27.632c-2.056,1.336-3.687,2.285-4.878,2.979
				c-1.226,0.714-2.384,1.388-2.506,1.673c0.03-0.005,0.113,0.186,0.724,0.756c0.302,0.282,0.319,0.757,0.036,1.06
				C165.201,446.517,165.001,446.597,164.801,446.597z"/>
		</g>
		<g>
			<path style="fill:#473220;" d="M183.072,456.24c-0.285,0-0.557-0.163-0.683-0.439c-0.02-0.042-1.195-2.527-3.413-2.631
				c-0.414-0.02-0.734-0.37-0.714-0.784c0.019-0.413,0.382-0.751,0.784-0.714c3.151,0.146,4.647,3.371,4.709,3.508
				c0.171,0.377,0.004,0.822-0.374,0.993C183.28,456.219,183.175,456.24,183.072,456.24z"/>
		</g>
		<g>
			<path style="fill:#473220;" d="M189.077,455.669c-0.372,0-0.695-0.277-0.743-0.655c-0.004-0.031-0.437-3.054-2.15-3.156
				c-0.414-0.025-0.729-0.381-0.704-0.794c0.025-0.413,0.394-0.718,0.793-0.704c2.984,0.181,3.527,4.294,3.549,4.469
				c0.051,0.41-0.24,0.784-0.651,0.835C189.139,455.667,189.108,455.669,189.077,455.669z"/>
		</g>
		<g>
			<path style="fill:#473220;" d="M228.285,456.24c-0.068,0-0.138-0.009-0.207-0.029c-0.398-0.113-0.627-0.527-0.515-0.925
				c0.069-0.253,0.597-2.457-1.679-3.495c-0.377-0.172-0.543-0.617-0.371-0.994c0.172-0.376,0.618-0.542,0.994-0.371
				c2.804,1.28,2.86,4.008,2.498,5.271C228.91,456.026,228.611,456.24,228.285,456.24z"/>
		</g>
		<g>
			<path style="fill:#473220;" d="M233.008,455.098c-0.027,0-0.055-0.001-0.083-0.005c-0.412-0.045-0.709-0.415-0.664-0.827
				c0.23-2.097-1.665-2.387-1.882-2.413c-0.411-0.049-0.705-0.423-0.655-0.834c0.049-0.412,0.432-0.71,0.834-0.654
				c1.242,0.149,3.508,1.192,3.193,4.066C233.711,454.814,233.386,455.098,233.008,455.098z"/>
		</g>
		<g>
			<path style="fill:#473220;" d="M144.154,445.129c-0.078,0-0.157-0.012-0.235-0.038c-0.393-0.129-0.607-0.554-0.477-0.947
				c1.65-5.004,0.717-7.2-1.538-12.506c-0.679-1.599-1.449-3.41-2.294-5.645c-3.745-9.906-0.449-16.23-0.307-16.495
				c0.196-0.365,0.653-0.502,1.016-0.305c0.364,0.195,0.502,0.648,0.307,1.014l0,0c-0.031,0.059-3.1,6.028,0.388,15.255
				c0.834,2.207,1.598,4.004,2.271,5.589c2.27,5.342,3.409,8.022,1.582,13.563C144.762,444.929,144.469,445.129,144.154,445.129z"/>
		</g>
		<g>
			<path style="fill:#473220;" d="M215.764,314.258c-2.61,0.001-5.814-7.334-7.553-11.889c-0.147-0.387,0.046-0.82,0.433-0.969
				c0.387-0.146,0.82,0.047,0.968,0.434c2.217,5.808,5.118,11.031,6.107,10.932c1.464-0.536,1.816-1.552,2.71-4.679
				c0.227-0.792,0.483-1.69,0.804-2.708c0.796-2.522,2.333-3.836,3.689-4.995c1.488-1.273,2.773-2.37,3.237-4.874
				c0.845-4.559-2.864-6.128-3.022-6.192c-0.382-0.155-0.568-0.592-0.414-0.975c0.154-0.384,0.588-0.573,0.972-0.417
				c0.05,0.02,5.013,2.067,3.939,7.857c-0.561,3.025-2.175,4.405-3.737,5.74c-1.32,1.129-2.566,2.194-3.233,4.307
				c-0.316,1.004-0.569,1.889-0.792,2.669c-0.894,3.128-1.386,4.851-3.641,5.676C216.079,314.232,215.923,314.258,215.764,314.258z"
				/>
		</g>
		<g>
			<ellipse style="fill:#473220;" cx="239.785" cy="297.912" rx="2.242" ry="3.157"/>
		</g>
		<g>
			<path style="fill:#473220;" d="M260.738,312.353c-0.76,0-1.574-0.074-2.425-0.259c-1.088,0.122-7.907,0.718-8.672-3.578
				c-0.073-0.408,0.199-0.798,0.607-0.87c0.404-0.07,0.797,0.198,0.87,0.606c0.555,3.116,7.07,2.348,7.135,2.339
				c0.09-0.013,0.179-0.008,0.266,0.012c3.716,0.853,6.757-0.779,6.787-0.796c0.365-0.198,0.818-0.065,1.018,0.296
				c0.199,0.362,0.068,0.817-0.293,1.018C265.917,311.183,263.759,312.353,260.738,312.353z"/>
		</g>
		<g>
			<path style="fill:#473220;" d="M195.334,396.978c-0.312,0-0.603-0.195-0.71-0.506c-0.134-0.392,0.074-0.818,0.466-0.953
				c5.612-1.93,11.441-3.287,17.324-4.037c2.362-0.3,5.106-0.564,7.773,0.125c0.401,0.104,0.642,0.514,0.539,0.914
				c-0.104,0.4-0.515,0.639-0.914,0.539c-2.167-0.561-4.449-0.44-7.208-0.09c-5.782,0.736-11.51,2.071-17.026,3.967
				C195.497,396.965,195.414,396.978,195.334,396.978z"/>
		</g>
		<g>
			<path style="fill:#473220;" d="M216.221,408.275c-0.116,0-0.233-0.026-0.343-0.083c-4.726-2.438-11.222-3.156-16.953-3.791
				c-1.121-0.124-2.213-0.245-3.259-0.375c-0.411-0.051-0.703-0.426-0.652-0.837c0.051-0.41,0.422-0.707,0.836-0.651
				c1.04,0.129,2.125,0.249,3.239,0.372c5.86,0.649,12.502,1.385,17.475,3.948c0.368,0.19,0.513,0.643,0.323,1.011
				C216.755,408.126,216.492,408.275,216.221,408.275z"/>
		</g>
		<g>
			<path style="fill:#473220;" d="M198.381,414.743c-0.391,0-0.72-0.303-0.747-0.698c-0.028-0.414,0.284-0.772,0.697-0.8
				c5.167-0.355,10.426-0.534,15.628-0.534c0.448,0.007,0.793,0.322,0.793,0.75c0,0.414-0.336,0.75-0.75,0.75l0,0
				c-0.014,0-0.028,0-0.042,0c-5.169,0-10.393,0.179-15.526,0.53C198.416,414.742,198.399,414.743,198.381,414.743z"/>
		</g>
		<g>
			<path style="fill:#473220;" d="M194.575,386.498c-0.387,0-0.716-0.298-0.747-0.691c-0.24-3.049-0.387-6.149-0.435-9.214
				c-0.006-0.414,0.324-0.755,0.738-0.762c0.389,0.011,0.755,0.323,0.762,0.738c0.048,3.033,0.193,6.102,0.43,9.12
				c0.033,0.413-0.276,0.773-0.688,0.807C194.615,386.497,194.595,386.498,194.575,386.498z"/>
		</g>
	</g>
	<g>
		<g>
			<path style="fill:#473220;" d="M365.298,166.152c-0.297,2.392,1.526,4.146,2.053,4.486c0.522,0.341,2.984,0.594,4.614,1.924
				c1.626,1.328,2.367,3.69,2.805,4.133c0.439,0.448,2.522,1.884,4.806,1.114c2.281-0.772,4.47-2.386,3.372-5.808
				c-1.098-3.422-0.689-3.898,0.219-6.975c0.908-3.077-1.179-4.739-1.179-4.739s-2.048-1.715-4.882-0.21
				c-2.834,1.505-3.215,2.004-6.791,1.61C366.741,161.295,365.598,163.763,365.298,166.152z"/>
		</g>
		<g>
			<path style="fill:#473220;" d="M386.574,166.059c-2.364,1.135-3.077,3.042-2.324,4.609c0.753,1.567,2.687,2.202,5.05,1.067
				c2.364-1.135,3.67-3.326,2.917-4.893C391.464,165.275,388.938,164.924,386.574,166.059z"/>
		</g>
		<g>
			<path style="fill:#473220;" d="M386.453,156.347c-2.43,1.728-2.862,4.002-1.716,5.613c1.146,1.611,3.435,1.95,5.865,0.222
				s3.471-4.435,2.325-6.046C391.781,154.524,388.883,154.619,386.453,156.347z"/>
		</g>
		<g>
			<path style="fill:#473220;" d="M375.674,157.16c-0.639,2.543-2.364,3.623-4.051,3.199c-1.686-0.424-2.695-2.192-2.056-4.735
				c0.639-2.543,2.525-4.261,4.211-3.837C375.465,152.212,376.313,154.617,375.674,157.16z"/>
		</g>
		<g>
			<path style="fill:#473220;" d="M385.214,155.336c-1.207,2.726-3.348,3.605-5.156,2.804c-1.808-0.8-2.598-2.976-1.391-5.702
				c1.207-2.726,3.651-4.288,5.459-3.488C385.934,149.75,386.421,152.609,385.214,155.336z"/>
		</g>
		<g>
			<g>
				<path style="fill:#473220;" d="M336.791,151.644c1.774,0.946,3.685,0.049,4.108-0.26c0.421-0.305,1.354-2.148,2.876-3.019
					c1.52-0.87,3.581-0.742,4.057-0.951c0.48-0.208,2.221-1.402,2.303-3.411c0.08-2.007-0.524-4.195-3.517-4.361
					c-2.993-0.166-3.242-0.627-5.368-2.253c-2.126-1.626-4.044-0.496-4.044-0.496s-1.948,1.084-1.621,3.74
					c0.326,2.657,0.601,3.103-0.774,5.77C333.439,149.069,335.02,150.697,336.791,151.644z"/>
			</g>
			<g>
				<path style="fill:#473220;" d="M343.073,135.043c0.178,2.18,1.45,3.305,2.896,3.187c1.446-0.118,2.518-1.435,2.339-3.615
					c-0.178-2.18-1.495-3.852-2.941-3.733C343.921,130.999,342.894,132.863,343.073,135.043z"/>
			</g>
			<g>
				<path style="fill:#473220;" d="M335.471,132.238c0.62,2.409,2.263,3.424,3.86,3.013c1.597-0.411,2.545-2.094,1.924-4.503
					c-0.62-2.409-2.418-4.028-4.015-3.616C335.642,127.543,334.85,129.829,335.471,132.238z"/>
			</g>
			<g>
				<path style="fill:#473220;" d="M332.885,140.876c1.79,1.257,2.116,2.924,1.283,4.111c-0.834,1.187-2.512,1.445-4.302,0.188
					c-1.79-1.257-2.565-3.239-1.731-4.426C328.968,139.562,331.095,139.619,332.885,140.876z"/>
			</g>
			<g>
				<path style="fill:#473220;" d="M334.313,132.9c1.763,1.754,1.808,3.685,0.645,4.854c-1.163,1.169-3.094,1.135-4.857-0.62
					c-1.763-1.754-2.25-4.124-1.087-5.294C330.177,130.672,332.55,131.146,334.313,132.9z"/>
			</g>
		</g>
		<g>
			<g>
				<path style="fill:#473220;" d="M377.359,121.354c0.654,1.718,2.509,2.25,2.986,2.291c0.473,0.043,2.224-0.666,3.797-0.351
					c1.57,0.314,2.913,1.642,3.367,1.785c0.456,0.146,2.373,0.369,3.638-0.965c1.262-1.335,2.161-3.205,0.199-5.119
					c-1.962-1.915-1.857-2.382-2.344-4.78c-0.487-2.399-2.487-2.773-2.487-2.773s-1.993-0.425-3.366,1.602
					c-1.373,2.026-1.452,2.499-4.003,3.51C376.598,117.564,376.708,119.636,377.359,121.354z"/>
			</g>
			<g>
				<path style="fill:#473220;" d="M391.669,113.693c-1.188,1.609-0.988,3.149,0.079,3.937c1.067,0.788,2.598,0.525,3.785-1.084
					c1.188-1.609,1.286-3.552,0.219-4.34C394.685,111.418,392.857,112.084,391.669,113.693z"/>
			</g>
			<g>
				<path style="fill:#473220;" d="M388.119,107.19c-1.021,2.033-0.5,3.72,0.847,4.397c1.348,0.677,3.012,0.087,4.033-1.945
					c1.021-2.032,0.756-4.229-0.592-4.906C391.06,104.058,389.14,105.157,388.119,107.19z"/>
			</g>
			<g>
				<path style="fill:#473220;" d="M381.143,111.587c0.477,1.942-0.3,3.287-1.588,3.603c-1.288,0.316-2.599-0.515-3.077-2.458
					c-0.477-1.943,0.18-3.774,1.469-4.09C379.235,108.326,380.666,109.644,381.143,111.587z"/>
			</g>
			<g>
				<path style="fill:#473220;" d="M386.923,106.95c0.16,2.269-0.97,3.626-2.475,3.732c-1.504,0.106-2.814-1.079-2.974-3.347
					c-0.16-2.269,0.93-4.194,2.434-4.3C385.414,102.928,386.763,104.681,386.923,106.95z"/>
			</g>
		</g>
	</g>
</g>
</svg>
