<?xml version="1.0" encoding="utf-8"?>
<!-- Generator: Adobe Illustrator 27.5.0, SVG Export Plug-In . SVG Version: 6.00 Build 0)  -->
<svg version="1.1" xmlns="http://www.w3.org/2000/svg" xmlns:xlink="http://www.w3.org/1999/xlink" x="0px" y="0px"
	 viewBox="0 0 750 500" style="enable-background:new 0 0 750 500;" xml:space="preserve">
<g id="BACKGROUND">
	<rect style="fill:#F9F7F2;" width="750" height="500"/>
</g>
<g id="OBJECTS">
	<g>
		<path style="fill:#2E7D83;" d="M566.072,216.715l-9.014,54.405l0,0c-3.747,0.542-7.401,1.644-10.793,3.325
			c-8.038,3.984-13.067,9.021-15.974,12.775c-1.46-14.482,7.57-39.038,9.566-44.622
			C545.282,227.468,553.558,217.939,566.072,216.715z"/>
		<g>
			<polygon style="fill:#F26188;" points="638.022,343.477 556.942,345.822 556.942,363.412 638.582,363.412 			"/>
			<g>
				<path style="fill:#2E7D83;" d="M645.241,253.501c0,0-8.81,44.979-6.177,76.816c0.127,1.534,1.327,14.445,0.405,14.995
					c-36.96,22.024-83.739-0.183-83.739-0.183c0.561-7.324,2.237-37.3,2.26-44.384c0-1.774-0.847-16.228-0.87-16.48
					c-1.283-11.277-3.452-22.558-3.031-33.955c0.397-10.754,3.879-21.196,8.604-30.775c0.847-1.694,1.396-2.644,1.408-2.644
					l4.452-0.401c0,0,0.399-0.041,0.443-0.045c11.969-1.228,23.983-2.322,36.028-2.176c11.255,0.136,23.895,0.756,34.703,4.178
					c0.046,0.011,0.08,0.023,0.114,0.035C644.761,227.558,645.241,253.501,645.241,253.501z"/>
				<path style="fill:#2E7D83;" d="M639.726,218.448l-4.308,39.781c7.848,19.239,16.708,51.895,16.708,51.895l17.467-1.266
					C673.625,269.721,648.52,218.18,639.726,218.448z"/>
			</g>
		</g>
		<g>
			<path style="fill:#F6BAB9;" d="M610.528,219.462v0.069c0.011,1.156-0.149,2.804-0.481,4.692
				c-0.996,5.802-3.513,8.057-6.741,8.847c-7.244,1.762-14.168-4.006-14.26-11.456l-0.286-25.99
				c-0.046-4.246,3.342-7.714,7.576-7.771l6.157-0.069c2.049-0.023,3.914,0.756,5.299,2.049c1.499,1.385,2.438,3.353,2.461,5.551
				L610.528,219.462z"/>
			<path style="opacity:0.5;fill:#F6BAB9;" d="M610.528,219.462c-0.286,0-0.561,0-0.835-0.011
				c-9.648-0.504-17.075-8.801-17.178-18.46l-0.057-4.887c-0.034-3.445,3.365-6.271,7.599-6.317l6.157-0.069
				c0.538-0.011,1.064,0.035,1.579,0.115c1.499,1.385,2.438,3.353,2.461,5.551L610.528,219.462z"/>
			<path style="fill:#F6BAB9;" d="M629.913,183.302c-1.165,5.328-5.116,7.089-8.834,8.204c-0.049,0.009-0.088,0.028-0.136,0.037
				c-1.685,3.575-4.088,7.083-6.87,10.024c-2.907,3.511-6.684,6.129-11.014,7.235c-0.126,0.027-0.263,0.065-0.389,0.092
				c-0.253,0.055-0.497,0.139-0.749,0.184c-0.175,0.036-0.35,0.034-0.515,0.061c-0.155,0.018-0.291,0.026-0.437,0.043
				c-0.34,0.034-0.68,0.059-1.019,0.064c-0.33,0.005-0.669-0.018-1.008-0.042c-0.145-0.011-0.29-0.023-0.436-0.035
				c-0.174-0.022-0.349-0.014-0.523-0.046c-0.252-0.042-0.503-0.114-0.754-0.175c-0.126-0.021-0.261-0.052-0.387-0.083
				c-4.351-1.007-8.177-3.54-11.167-6.982c-2.852-2.879-5.328-6.344-7.095-9.877c-0.125-0.031-0.261-0.072-0.386-0.112
				c-3.661-1.037-7.518-2.745-8.759-7.93c-1.021-4.231,0.071-9.842,3.605-10.183c1.048-0.103,2.256,0.272,3.44,0.956
				c1.469-7.108,5.118-14.702,9.667-19.937c1.905-2.603,4.1-4.31,6.509-5.345c1.298-0.652,2.613-1.091,3.933-1.219
				c0.913-0.095,1.805-0.131,2.697-0.129c0.883-0.027,1.785-0.006,2.695,0.064c1.317,0.105,2.65,0.52,3.961,1.138
				c2.43,0.982,4.668,2.64,6.623,5.197c4.665,5.143,8.474,12.649,10.108,19.72c1.163-0.702,2.361-1.113,3.417-1.031
				C629.624,173.465,630.841,179.047,629.913,183.302z"/>
			<g>
				<path style="fill:#0E0900;" d="M587.664,177.17c-0.003-0.001-0.007-0.005-0.011-0.007c-0.059-0.026-0.13-0.028-0.199-0.033
					c0.874-2.355,3.009-4.235,5.486-4.712c0.391-0.075,0.805-0.117,1.18,0.018c0.375,0.135,0.694,0.492,0.67,0.89
					c-0.027,0.441-0.437,0.753-0.833,0.95c-0.82,0.408-1.728,0.593-2.62,0.798c-0.892,0.205-1.795,0.443-2.565,0.938
					C588.318,176.304,587.933,176.708,587.664,177.17z"/>
			</g>
			<g>
				<path style="fill:#0E0900;" d="M607.345,171.752c0.369-0.149,0.784-0.122,1.178-0.061c2.609,0.406,4.885,2.366,5.763,4.847
					c-0.226-0.344-0.481-0.666-0.809-0.92c-0.02-0.015-0.04-0.022-0.06-0.036c-0.186-0.169-0.385-0.322-0.599-0.449
					c-0.787-0.467-1.699-0.672-2.597-0.845c-0.899-0.173-1.813-0.325-2.647-0.703c-0.402-0.183-0.824-0.48-0.867-0.92
					C606.669,172.269,606.976,171.9,607.345,171.752z"/>
			</g>
			<path style="opacity:0.5;fill:#F6BAB9;" d="M594.314,193.379c2.448,2.119,5.93,2.833,9.027,1.936
				c0.887-0.258,1.245,1.13,0.361,1.386c-3.611,1.047-7.582,0.129-10.415-2.323C592.59,193.773,593.622,192.779,594.314,193.379z"/>
			<path style="opacity:0.5;fill:#F6BAB9;" d="M601.16,189.796c0.801,0.146,1.623,0.122,2.401-0.134
				c0.372-0.122,0.763-0.29,1.082-0.521c0.055-0.04,0.181-0.129,0.204-0.2c-0.02,0.062-0.018-0.002-0.022-0.033
				c-0.021-0.206-0.184-0.454-0.267-0.641c-0.75-1.697-1.64-3.332-2.668-4.876c-0.214-0.322-0.223-0.744,0.097-1.008
				c0.275-0.227,0.793-0.227,1.008,0.097c0.648,0.973,1.254,1.974,1.804,3.006c0.26,0.489,0.508,0.985,0.744,1.486
				c0.243,0.519,0.544,1.066,0.676,1.625c0.291,1.234-0.955,1.961-1.936,2.322c-1.042,0.385-2.165,0.502-3.26,0.302
				c-0.38-0.07-0.684-0.372-0.644-0.781C600.413,190.08,600.777,189.726,601.16,189.796z"/>
			<path style="fill:#0E0900;" d="M591.257,181.094c0.082,1.322,0.883,2.362,1.789,2.326c0.907-0.037,1.576-1.138,1.494-2.46
				c-0.082-1.321-0.882-2.363-1.789-2.326C591.844,178.671,591.175,179.772,591.257,181.094z"/>
			<path style="fill:#0E0900;" d="M607.588,181.094c0.081,1.322,0.882,2.362,1.789,2.326c0.907-0.037,1.576-1.137,1.494-2.46
				c-0.082-1.321-0.883-2.363-1.789-2.326C608.175,178.671,607.506,179.772,607.588,181.094z"/>
			<g>
				<g>
					<path style="fill:#0E0900;" d="M569.342,179.087c-0.107-0.368-0.194-0.74-0.285-1.111
						C569.007,178.363,569.083,178.752,569.342,179.087z"/>
				</g>
				<g>
					<path style="fill:#F26188;" d="M624.616,185.329c-0.005-2.321,0.677-4.579,1.235-6.832c1.596-6.453,2.187-13.318,0.371-19.712
						c-1.816-6.395-6.326-12.251-12.579-14.506c1.542-0.274,2.87-1.507,3.259-3.025c-2.937,2.195-7.162,1.191-10.383-0.561
						c-3.221-1.752-6.21-4.195-9.828-4.784c-3.999-0.651-8.037,1.128-11.273,3.567c-1.544,1.163-3.003,2.529-3.833,4.274
						c-0.362,0.76-0.574,1.604-0.622,2.447c-2.551,1.773-4.836,3.922-6.713,6.4c-5.39,7.119-7.324,16.715-5.19,25.378
						c0.134-1.027,1.188-2.038,2.31-1.981c1.545,0.079,2.726,1.49,3.198,2.963s0.434,3.056,0.696,4.581
						c0.604,3.52,2.909,6.708,6.063,8.385c-0.536-1.931-0.669-3.972-0.389-5.956c0.454,1.561,2.275,2.575,3.841,2.14
						c-2.634-2.871-2.551-7.458-0.876-10.977c1.675-3.519,4.631-6.229,7.473-8.895c2.842-2.666,5.719-5.497,7.154-9.12
						c-0.349,3.506,1.129,7.144,3.826,9.412c-0.043-3.117,0.405-6.24,1.322-9.219c0.655,3.171,2.845,5.787,5.11,8.101
						c2.265,2.315,4.728,4.543,6.185,7.435c1.457,2.892,1.662,6.703-0.473,9.138c1.361,0.192,2.717-1.132,2.557-2.497
						c0.738,2.189,1.485,4.428,1.471,6.739c-0.013,2.31-0.927,4.746-2.871,5.996c2.819,0.864,6.167-1.063,6.837-3.934
						c1.451,0.85,3.153,1.264,4.832,1.175C625.438,190.108,624.621,187.649,624.616,185.329z"/>
				</g>
			</g>
		</g>
		<g>
			<g>
				<path style="fill:#EFE9D6;" d="M552.006,206.231c0.193,0,0.193-0.3,0-0.3C551.813,205.931,551.812,206.231,552.006,206.231
					L552.006,206.231z"/>
			</g>
		</g>
		<g>
			<path style="fill:#0E0900;" d="M544.53,212.621c-6.556-4.159-14.904-5.289-22.373-3.238c-0.62,0.17-1.169,0.456-1.644,0.82
				c-0.188-0.055-0.401-0.012-0.532,0.204c-0.158,0.26-0.293,0.532-0.442,0.797c-0.221,0.308-0.404,0.64-0.548,0.99
				c-2.178,4.305-3.198,9.187-2.882,14.008c0.082,1.254,0.135,2.728,0.591,3.912c0.439,1.141,1.666,1.468,2.754,1.073
				c1.135-0.412,2.168-1.321,3.081-2.09c0.969-0.817,1.867-1.716,2.685-2.683c0.351-0.415,0.672-0.852,0.993-1.289
				c3.193,2.304,7.019,3.731,10.948,4.014L544.53,212.621z"/>
			<path style="fill:#0E0900;" d="M575.34,204.752c-1.132-2.567-2.451-5.069-4.102-7.342c-1.785-2.456-3.95-4.618-6.565-6.184
				c-0.231-0.138-0.444-0.056-0.572,0.103c-0.586-0.045-1.19,0.079-1.733,0.4c-5.626,3.323-9.656,9.321-10.442,15.825l16.152,9.205
				c1.241-2.98,1.888-6.182,1.983-9.404c0.983,0.695,2.056,1.276,3.248,1.693c1.031,0.361,2.468,0.408,2.861-0.869
				C576.523,207.032,575.788,205.767,575.34,204.752z"/>
			<path style="fill:#0E0900;" d="M678.328,310.761c0,0-8.173,4.416-14.595,3.258c-2.326-0.414-4.698,0.443-6.309,2.175
				c-18.267,19.698-38.888,28.398-65.544,17.598c0,0-36.458-21.515-53.671-60.243c0,0-5.696-7.721,0.631-22.787l40.78-13.041
				c0,0,4.407-6.073,17.824,8.738c0,0,0.697,0.169,1.714,0.057c1.921-0.188,4.953-1.337,6.516-6.384c0,0,7.975-16.327,19.867,0.753
				c0,0,12.9,16.101,11.243,24.971c-0.508,2.74-3.286,4.539-6.036,4.058c-3.795-0.668-9.981-4.058-15.706-17.504
				c0,0,0.81,9.84-5.32,11.393c-1.516,0.386-3.456,0.264-5.941-0.631c0.461,0.311,15.338,10.452,17.203,23.408
				c0,0,18.107-21.007,38.991,10.132c0,0,5.819,8.408,20.884,1.29c0,0,22.532-16.355,26.703-7.241
				C707.564,290.762,710.982,303.162,678.328,310.761z"/>
			<g>
				<path style="fill:#FFFFFF;" d="M618.425,284.679c-3.738-7.071-6.243-15.706-13.323-19.415c-2.674-1.403-5.772-1.93-8.314-3.55
					c-3.361-2.136-5.244-5.791-7.299-9.292c-0.418,2.915-1.579,5.692-3.267,8.136c-0.167,0.242-0.563,0.366-0.785,0.101
					c-1.769-2.111-3.787-3.85-6.101-5.276c0.623,2.071,0.617,4.329-0.413,6.28c-0.1,0.189-0.362,0.294-0.565,0.23
					c-3.372-1.065-6.755-2.077-10.259-2.468c0.462,0.259,0.895,0.553,1.234,0.969c0.208,0.255,0.191,0.773-0.221,0.836
					c-2.264,0.344-4.482,0.931-6.742,1.294c-1.608,0.259-3.243,0.375-4.869,0.461c-0.472,0.025-0.945,0.042-1.419,0.052
					c10.465,3.465,19.891,11.619,30.905,10.945c2.109-0.122,4.246-0.584,6.318-0.179c2.071,0.414,4.133,2.053,4.087,4.171
					c-0.047,2.26-2.307,3.747-4.294,4.821c-3.013,1.629-6.026,3.258-9.039,4.887c-2.57,1.384-5.508,3.418-5.536,6.233
					c0,0.151,0,0.311,0.019,0.471c0.019,0.16,0.038,0.311,0.075,0.461c8.832-0.612,17.627-1.648,26.355-3.088
					c1.733,4.971,3.851,9.811,6.365,14.444c2.297,4.237,4.934,8.644,9.152,11.233c1.469,0.904,3.089,1.554,4.783,1.836
					c0.358-0.254,0.716-0.527,1.055-0.81c0,0,0,0,0.01,0c2.429-1.958,4.51-4.425,6.808-6.572c3.201-2.994,7.486-5.546,11.77-4.604
					C633.66,303.445,623.99,295.187,618.425,284.679z"/>
			</g>
			<path style="fill:#FFFFFF;" d="M625.542,240.886c-11.892-17.08-19.867-0.753-19.867-0.753c-1.563,5.047-4.595,6.196-6.516,6.384
				c0.16,3.936,1.883,7.777,4.275,10.904c1.827,2.373,3.992,4.444,6.29,6.384c6.13-1.554,5.32-11.393,5.32-11.393
				c5.725,13.446,11.911,16.836,15.706,17.504c0.706,0.122,1.422,0.094,2.09-0.066c0.301-0.066,0.603-0.16,0.885-0.292
				c0.734-0.301,1.384-0.772,1.902-1.356c0.273-0.301,0.499-0.621,0.687-0.979c0.217-0.424,0.377-0.876,0.471-1.365
				C638.442,256.987,625.542,240.886,625.542,240.886z"/>
			<g>
				<g>
					<path style="fill:#FFFFFF;" d="M633.725,269.557c-0.282,0.132-0.584,0.226-0.885,0.292c-1.808-4.51-4.284-8.747-7.363-12.514
						c-0.386-0.471,0.282-1.139,0.659-0.669C629.309,260.556,631.87,264.896,633.725,269.557z"/>
					<path style="fill:#FFFFFF;" d="M636.314,267.222c-0.188,0.358-0.414,0.678-0.687,0.979c-1.092-3.719-2.9-7.222-5.358-10.244
						c-0.386-0.471,0.282-1.139,0.659-0.669C633.329,260.245,635.156,263.616,636.314,267.222z"/>
				</g>
			</g>
			<g>
				<path style="fill:#FFFFFF;" d="M682.767,315.188c-0.595-4.64-4.196-8.6-8.58-10.232c-4.385-1.631-9.387-1.119-13.667,0.771
					c-4.28,1.89-7.892,5.063-10.899,8.647l4.928,3.442c2.787-2.901,6.727-4.663,10.747-4.805c2.209-0.078,4.524,0.357,6.264,1.721
					c1.833,1.435,2.816,3.74,3.144,6.044c0.51,3.573-0.438,7.332-2.581,10.235c3.058-1.48,5.896-3.529,7.915-6.261
					C682.056,322.018,683.198,318.557,682.767,315.188z"/>
			</g>
			<path style="fill:#0E0900;" d="M574.527,245.575c0,0-9.614,15.696-29.867,10.499c0,0-5.716-0.188-7.655-7.448
				c-0.622-2.345-1.535-4.586-2.486-6.817c-0.301-0.715-0.64-1.525-0.96-2.448c0.235,0.283,0.697,0.358,0.894-0.066
				c0.678-1.431,1.554-3.201,3.305-3.465c1.836-0.273,2.344,1.638,2.797,3.004c0.932,2.844,2.947,5.188,5.668,6.441
				c0.725,3.672,1.827,7.881,5.565,9.557c1.516,0.678,3.201,0.706,4.68-0.075c1.055-0.555,1.883-1.478,2.25-2.58
				c2.891,2.015,6.864,0.885,8.832-1.958c2.429-3.493,1.601-7.938-0.283-11.469c1.62-2.185,2.458-4.765,2.448-7.504
				c-0.009-1.375-0.151-3.041,1.073-3.973c1.29-0.989,3.051-0.706,4.539-0.405c0.009,0.038,0.028,0.066,0.047,0.104
				c0.621,1.281,1.393,2.495,2.222,3.653C579.49,233.259,582.305,239.304,574.527,245.575z"/>
			<path style="fill:#FFFFFF;" d="M575.328,226.865c-1.488-0.301-3.248-0.584-4.539,0.405c-1.224,0.932-1.083,2.599-1.073,3.973
				c0.009,2.74-0.829,5.32-2.448,7.504c1.883,3.531,2.712,7.975,0.283,11.469c-1.968,2.843-5.941,3.973-8.832,1.958
				c-0.367,1.102-1.196,2.025-2.25,2.58c-1.478,0.782-3.164,0.753-4.68,0.075c-3.738-1.676-4.84-5.885-5.565-9.557
				c-2.721-1.252-4.736-3.597-5.668-6.441c-0.452-1.365-0.96-3.277-2.797-3.004c-1.751,0.264-2.627,2.034-3.305,3.465
				c-0.198,0.424-0.659,0.348-0.894,0.066c-0.047-0.151-0.094-0.301-0.151-0.452c-1.422-4.426-2.326-11.214,1.893-21.44
				c0,0,3.182-7.825,13.691-10.527c4.03-1.036,8.267-0.395,11.77,1.836c3.955,2.523,9.115,7.41,13.926,16.817
				C574.904,226.009,575.111,226.432,575.328,226.865z"/>
			<path style="fill:#FFFFFF;" d="M627.699,318.604c-11.544,3.484-22.024-26.835-22.024-26.835l-15.828,1.902
				c-3.258,0.678-6.732,0.716-10.282,0.301c-0.518-0.433-1.017-0.885-1.497-1.365c3.474-0.047,6.94-0.932,10.009-2.552
				c-2.684-0.687-5.179-2.119-7.137-4.096c2.09,0.179,4.228-0.367,5.979-1.516c-0.17-0.791-0.951-1.281-1.714-1.554
				c-0.763-0.264-1.591-0.414-2.222-0.923c-0.621-0.508-0.913-1.563-0.32-2.109c0.33-0.311,0.81-0.358,1.252-0.396
				c3.051-0.264,6.102-0.518,9.152-0.772c-1.996-1.215-4.002-2.429-5.998-3.644c1.676-0.179,3.343-0.509,4.962-0.989l11.487,0.377
				c7.344-0.508,9.623,3.286,9.623,3.286l15.696,24.679C637.821,317.465,627.699,318.604,627.699,318.604z"/>
			<path style="fill:#0E0900;" d="M683.608,276.839c-2.14,1.071-3.085,3.331-3.477,4.717c-0.181,0.638-0.234,1.305-0.194,1.967
				c0.354,5.874-1.388,7.267-1.388,7.267c-8.354-10.537-23.543,5.981-23.638,6.265l1.139,12.309
				c6.289,2.079,14.197-0.5,20.021-3.228c5.786-2.71,10.553-7.265,13.289-13.037c2.7-5.695,2.791-9.666,2.133-12.273
				C690.617,277.349,686.815,275.234,683.608,276.839z"/>
			<path style="fill:#0E0900;" d="M562.683,243.124c0.857,2.199-0.492,6.231-3.619,7.449c-3.127,1.218-6.847-0.84-7.704-3.039
				c-0.857-2.199,1.475-3.708,4.602-4.925S561.826,240.924,562.683,243.124z"/>
			<path style="fill:#0E0900;" d="M546.699,231.5c0.132-0.448,0.039-0.995-0.068-1.419c-0.152-0.604-0.424-1.183-0.761-1.704
				c-0.203-0.314-0.42-0.641-0.745-0.843c-0.339-0.21-0.787-0.263-1.147-0.076c-0.379,0.197-0.574,0.598-0.608,1.01
				c-0.028,0.336,0.06,0.691,0.127,1.019c0.121,0.598,0.301,1.209,0.629,1.728c0.382,0.605,1.04,1.272,1.828,1.063
				C546.337,232.178,546.622,231.872,546.699,231.5z"/>
			<path style="fill:#0E0900;" d="M560.938,227.004c0.133-0.448,0.039-0.994-0.067-1.419c-0.152-0.604-0.424-1.183-0.761-1.704
				c-0.203-0.314-0.42-0.641-0.745-0.843c-0.339-0.21-0.787-0.263-1.147-0.076c-0.379,0.197-0.574,0.598-0.608,1.01
				c-0.027,0.336,0.06,0.691,0.127,1.019c0.121,0.598,0.301,1.209,0.629,1.728c0.382,0.605,1.04,1.272,1.828,1.063
				C560.577,227.682,560.861,227.376,560.938,227.004z"/>
			<g>
				<path style="fill:#0E0900;" d="M588.077,290.055c-3.07,1.62-6.535,2.505-10.009,2.552c0.48,0.48,0.979,0.932,1.497,1.365
					c-12.109-1.394-25.056-8.079-32.805-12.702c-5.744-3.437-9.312-9.792-8.653-16.45c0.574-5.857,4.124-8.644,10.659-8.333
					c4.435,0.207,8.644,1.958,12.137,4.689l15.781,12.372l15.348,0.508c-1.62,0.48-3.286,0.81-4.962,0.989
					c1.996,1.215,4.002,2.429,5.998,3.644c-3.051,0.254-6.102,0.509-9.152,0.772c-0.443,0.038-0.923,0.085-1.252,0.396
					c-0.593,0.546-0.301,1.601,0.32,2.109c0.631,0.508,1.459,0.659,2.222,0.923c0.763,0.273,1.544,0.763,1.714,1.554
					c-1.751,1.149-3.889,1.695-5.979,1.516C582.898,287.937,585.393,289.368,588.077,290.055z"/>
			</g>
			<path style="fill:#0E0900;" d="M561.484,218.611c-1.035-1.103-2.588-1.613-4.075-1.348c-1.39,0.247-2.632,1.241-3.213,2.521
				c-0.112,0.248-0.069,0.535,0.179,0.684c0.214,0.128,0.573,0.066,0.684-0.179c0.474-1.042,1.393-1.812,2.522-2.043
				c1.165-0.239,2.394,0.219,3.196,1.073C561.219,219.788,561.925,219.08,561.484,218.611z"/>
			<path style="fill:#0E0900;" d="M544.927,223.83c-1.052-0.775-2.566-0.655-3.636,0.02c-1.154,0.727-1.828,1.987-2.218,3.257
				c-0.19,0.617,0.775,0.88,0.964,0.266c0.304-0.99,0.807-2.025,1.695-2.618c0.805-0.538,1.886-0.654,2.691-0.061
				c0.217,0.16,0.558,0.036,0.684-0.179C545.255,224.26,545.145,223.991,544.927,223.83z"/>
			<path style="fill:#0E0900;" d="M564.928,240.129c-0.533-0.363-1.034,0.503-0.505,0.864c1.955,1.333,3.197,3.626,3.184,6.001
				c-0.013,2.376-1.285,4.652-3.254,5.963c-0.533,0.355-0.033,1.221,0.505,0.863c2.266-1.509,3.731-4.086,3.749-6.826
				C568.625,244.253,567.173,241.66,564.928,240.129z"/>
		</g>
		<g>
			<path style="fill:#F6BAB9;" d="M666.239,315.631L666.239,315.631c-3.399-2.571-8.306-1.989-10.847,1.432
				c-1.326,1.784-3.051,3.503-5.227,4.58c-0.566-6.203-6.445-10.935-15.002-14.927c-0.461-0.215-1.021-0.151-1.395,0.195
				c-0.976,0.903-1.451,3.421,7.727,9.859c-1.475,1.903-9.911-0.542-22.657-9.177c0,0-3.228-2.089-4.81,0.316
				c0,0-5.19-1.519-4.304,1.456c0,0-4.683-1.709-3.481,0.759l14.556,14.936l-3.627-0.675c-1.082-0.201-2.115-0.602-3.034-1.207
				c-1.807-1.189-5.265-3.08-7.89-2.186c-0.712,0.243-0.771,1.233-0.092,1.558l13.304,6.369c1.19,0.57,2.433,1.016,3.715,1.327
				c5.108,1.239,18.663,4.205,24.459,2.324C651.746,331.389,659.541,323.083,666.239,315.631z"/>
			<g>
				<path style="fill:#F6BAB9;" d="M624.25,323.562c-0.116,0-0.233-0.042-0.324-0.129L609.4,309.708
					c-0.189-0.178-0.197-0.476-0.018-0.666c0.179-0.188,0.476-0.199,0.666-0.018l14.527,13.726c0.188,0.178,0.197,0.476,0.018,0.666
					C624.5,323.512,624.376,323.562,624.25,323.562z"/>
			</g>
			<g>
				<path style="fill:#F6BAB9;" d="M628.268,321.963c-0.116,0-0.233-0.042-0.324-0.129l-14.526-13.726
					c-0.189-0.178-0.197-0.476-0.018-0.666c0.178-0.188,0.476-0.198,0.666-0.018l14.526,13.726c0.189,0.178,0.197,0.476,0.018,0.666
					C628.517,321.913,628.393,321.963,628.268,321.963z"/>
			</g>
		</g>
		<path style="fill:#F6BAB9;" d="M618.933,271.516c-2.09,7.41-22.975,7.128-23.257,7.128c-0.282,0-7.504,1.139-7.504,1.139
			l-14.802,9.303c-6.742,4.454-28.295,8.069-28.295,8.069c-8.794,2.571-12.928-0.904-14.34-7.165
			c-0.198-0.866-0.348-1.798-0.443-2.768c3.616-4.67,10.517-11.327,22.41-15.47l-2.947,1.365c3.531-1.403,7.373-2.599,11.243-3.616
			c0.009,0,0.009,0,0.019,0c15.414-4.03,31.44-5.216,31.44-5.216l10.339-10.329h9.303c3.324,0,2.844,5.414,2.844,5.414
			c2.947,0.565,2.382,6.073,2.382,6.073c0.659,1.996,0.565,5.132,0.565,5.132L618.933,271.516z"/>
	</g>
	<g>
		<g>
			<path style="fill:#5A9FA4;" d="M451.524,235.401c0,0,17.448-10.954,34.626,18.702l30.333,42.387
				c2.768,3.868,4.854,8.197,6.013,12.811c0.354,1.408,0.563,2.576,0.468,3.074c-1.004,5.242-5.127,9.315-10.27,10.741
				c-3.836,1.064-7.846,1.198-9.603-1.063l-49.838-67.464L451.524,235.401z"/>
			<g>
				<path style="fill:#CE684B;" d="M383.42,202.592c-4.649,7.667-3.585,18.352,2.485,24.951c1.812,1.97,4.112,3.781,4.651,6.403
					c0.617,3.004-1.35,5.941-3.616,8.007c-2.266,2.066-4.975,3.742-6.637,6.319c-1.188,1.844-1.705,4.387-0.444,6.181
					c2.231,3.172,8.261,2.004,9.815,5.557c0.971,2.222-0.715,4.799-2.816,6.011c-2.1,1.212-4.586,1.583-6.763,2.65
					c-3.367,1.65-5.827,5.029-6.363,8.74c-0.536,3.711,0.867,7.648,3.629,10.183c2.108,1.935,4.974,3.14,6.425,5.606
					c1.674,2.844,0.684,6.938-2.105,8.702c-2.789,1.764-6.912,0.906-8.765-1.825c6.203,9.255,16.738,15.86,27.879,15.959
					c11.141,0.099,22.363-7.031,25.758-17.643c0.15,2.067,1.769,3.805,3.66,4.652c1.891,0.848,4.023,0.957,6.095,0.954
					c10.308-0.017,20.603-2.542,29.749-7.297c-4.49-1.584-6.429-7.138-5.764-11.852c0.666-4.714,3.232-8.903,5.222-13.228
					s3.437-9.333,1.765-13.791c-1.059-2.824-3.236-5.053-5.003-7.498c-5.83-8.064-7.166-18.399-9.141-28.151
					c-1.975-9.753-5.279-20.11-13.413-25.843"/>
			</g>
			<path style="fill:#5A9FA4;" d="M470.768,257.124c0,0-11.402-19.069-13.626-21.564c-0.054-0.066-0.114-0.118-0.163-0.173
				c-0.206-0.244-0.503-0.373-0.813-0.382c-0.063,0.001-0.116-0.002-0.179-0.001c-0.052-0.003-0.105-0.007-0.157-0.01
				c-0.63-0.523-4.259,0.15-9.179,1.448c-0.642,0.171-1.31,0.339-1.98,0.534c-8.151,2.248-18.867,5.815-25.615,8.577
				c-1.522,0.62-2.853,1.211-3.884,1.725c-1.628,0.793-2.593,1.432-2.602,1.831c-0.603,0.562-1.12,1.177-1.588,1.847
				c0,0-0.011,0.005-0.006,0.015c-0.895,1.285-1.554,2.738-1.914,4.294c-0.244,1.047-0.513,2.246-0.818,3.51
				c-0.728,3.153-2.136,11.313-3.488,19.424c-0.874,5.332-0.714,10.697,0.423,15.838c0.001,0.063,0.013,0.122,0.041,0.187
				c1.622,7.218,5.152,13.971,10.378,19.494l0.771,0.814l3.258,48.881h64.831l-3.116-54.529l0,0
				c3.356-5.736,4.67-12.451,3.642-19.016C483.137,278.062,477.157,265.122,470.768,257.124z"/>
			<path style="fill:#5A9FA4;" d="M416.865,316.255c-0.869,0.54-1.737,1.103-2.606,1.69l-6.304,3.792
				c1.96-1.15,3.897-2.301,5.787-3.451c-9.274,6.222-14.239,12.103-19.768,17.35c-7.419-17.409-5.2-46.616-5.2-46.616
				c-1.362-34.665,26.401-41.744,26.401-41.744C421.795,265.906,421.725,289.361,416.865,316.255z"/>
			<g>
				<path style="fill:#9BC3FF;" d="M453.566,238.014c-2.322-3.54-6.724-5.158-10.936-5.588c-6.734-0.688-13.536,1.095-19.656,3.985
					c-4.969,2.347-9.553,5.406-14.046,8.585c-6.623,0.967-12.907,4.665-16.959,10.053c-5.694,7.572-7.08,17.964-4.394,27.049
					c4.364-4.984,4.247-12.571,7.911-18.09c2.858-4.306,7.854-6.926,12.98-7.584c5.126-0.659,10.36,0.488,15.114,2.514
					c5.39,2.297,10.697,5.801,16.535,5.305c3.62-0.307,7.003-2.205,9.474-4.867c2.471-2.662,4.079-6.044,5.012-9.555
					C455.647,245.887,455.799,241.419,453.566,238.014z"/>
			</g>
			<g>
				<path style="fill:#CE684B;" d="M414.259,317.945c-0.176,0.106-0.34,0.223-0.517,0.34c-1.89,1.151-3.827,2.301-5.787,3.451
					L414.259,317.945z"/>
			</g>
			<g>
				<g>
					<path style="fill:#F6BAB9;" d="M422.94,246.612c0,0,0.023,0.042,0.035,0.102c0.052,0.193,0.149,0.627,0.263,1.152
						c0.755,3.352,3.01,6.175,6.177,7.314c2.465,0.88,4.873,0.718,7.232-0.537c4.141-2.183,6.228-7.109,5.43-11.682l-0.645-3.678
						l-2.732-19.975l-18.909,3.376l0.485,3.732l1.617,12.23L422.94,246.612z"/>
					<path style="opacity:0.5;fill:#F6BAB9;" d="M422.94,246.612c0,0,0.023,0.042,0.035,0.102
						c19.044-4.228,13.114-26.58,13.114-26.58l-15.814,6.282l1.617,12.23L422.94,246.612z"/>
				</g>
				<g>
					<path style="fill:#F6BAB9;" d="M441.669,202.872c-1.568-2.732-3.118-5.456-4.482-8.294c-1.956-4.069-6.139-7.252-10.02-9.755
						c-2.471-1.593-5.173-2.825-8.041-3.456c-7.639-1.682-16.724,1.171-22.195,6.656c-7.659,7.677-4.756,17.415,1.218,24.779
						c-7.145-0.498-4.293,7.197-4.293,7.197c2.852,7.695,10.249,4.618,10.249,4.618c5.139,6.356,11.892,8.743,11.892,8.743
						c6.353,2.328,11.384,3.006,15.299,2.839c7.797-0.333,14.042-6.051,15.317-13.495c1.049-6.126-0.47-11.98-3.508-17.325
						C442.627,204.54,442.148,203.705,441.669,202.872z"/>
					<path style="opacity:0.5;fill:#F6BAB9;" d="M436.151,213.786c-0.513-0.46-1.175-0.727-1.776-1.053
						c-0.682-0.369-1.323-0.81-1.923-1.297c-1.208-0.979-2.197-2.162-2.98-3.48c-0.215-0.361-0.776-0.402-1.089-0.192
						c-0.37,0.249-0.37,0.692-0.158,1.049c1.314,2.211,3.247,4.043,5.543,5.286c0.884,0.478,2.041,0.898,1.659,2.071
						c-0.382,1.173-1.799,1.582-2.878,1.938c-0.938,0.31-0.371,1.734,0.566,1.424c1.404-0.464,2.875-1.035,3.59-2.375
						C437.297,216.048,437.146,214.68,436.151,213.786z"/>
					<path style="fill:#0E0900;" d="M417.199,212.804c-0.02-0.14,0.018-0.317,0.108-0.429c0.096-0.12,0.233-0.219,0.391-0.235
						c0.162-0.016,0.288,0.028,0.429,0.107c-0.185-0.104,0.011,0.001,0.064,0.021c0.031,0.012,0.062,0.023,0.094,0.033
						c0.096,0.019,0.192,0.027,0.289,0.031c0.086-0.005,0.17-0.019,0.254-0.036c-0.113-0.74,0.097-1.39,0.625-1.69
						c0.838-0.474,2.153,0.11,2.937,1.305c0.785,1.196,0.741,2.55-0.096,3.024c-0.837,0.475-2.151-0.109-2.936-1.305
						c-0.052-0.079-0.091-0.16-0.135-0.241c-0.109,0.032-0.216,0.082-0.326,0.098c-0.226,0.032-0.466,0.033-0.691-0.007
						c-0.284-0.051-0.521-0.147-0.771-0.286C417.311,213.125,417.218,212.937,417.199,212.804z"/>
					<path style="fill:#0E0900;" d="M433.087,204.023c0.508-0.288,1.19-0.181,1.824,0.21c0.011-0.028,0.024-0.055,0.033-0.084
						c0.01-0.052,0.015-0.105,0.018-0.158c-0.004-0.046-0.01-0.093-0.02-0.138c-0.022-0.061-0.043-0.122-0.076-0.177
						c0.022,0.036,0.044,0.073,0.066,0.11c0-0.001,0-0.002,0-0.003c-0.048-0.059-0.082-0.123-0.096-0.197
						c-0.028-0.073-0.036-0.149-0.023-0.228c0.017-0.14,0.098-0.302,0.214-0.387c0.124-0.091,0.282-0.152,0.438-0.126
						c0.14,0.023,0.31,0.087,0.387,0.214c0.064,0.104,0.13,0.205,0.172,0.321c0.04,0.108,0.072,0.221,0.092,0.334
						c0.033,0.186,0.034,0.387,0,0.574c-0.049,0.269-0.171,0.512-0.328,0.733c0.081,0.1,0.162,0.199,0.235,0.31
						c0.785,1.196,0.742,2.55-0.096,3.024c-0.838,0.475-2.151-0.109-2.936-1.305C432.207,205.852,432.25,204.498,433.087,204.023z"
						/>
					<g>
						<path style="fill:#0E0900;" d="M429.166,197.727c0.235-0.291,0.549-0.431,0.856-0.529c2.036-0.647,4.228,0.343,5.521,2.395
							c-0.257-0.243-0.529-0.454-0.838-0.568c-0.019-0.007-0.035-0.005-0.053-0.011c-0.181-0.09-0.369-0.158-0.56-0.196
							c-0.703-0.138-1.431,0.027-2.141,0.218c-0.71,0.191-1.426,0.408-2.14,0.374c-0.345-0.016-0.734-0.136-0.88-0.545
							C428.8,198.497,428.932,198.018,429.166,197.727z"/>
					</g>
					<g>
						<path style="fill:#0E0900;" d="M417.072,202.824c-0.382-0.083-0.719-0.002-1.021,0.107c-2.007,0.721-2.999,2.789-2.567,5.132
							c0.028-0.339,0.09-0.663,0.248-0.935c0.01-0.016,0.023-0.025,0.033-0.04c0.077-0.177,0.173-0.341,0.293-0.484
							c0.443-0.526,1.114-0.834,1.789-1.112c0.675-0.278,1.374-0.54,1.898-0.993c0.253-0.219,0.467-0.543,0.295-0.943
							C417.886,203.195,417.454,202.907,417.072,202.824z"/>
					</g>
					<path style="opacity:0.5;fill:#F6BAB9;" d="M424.16,223.412c3.258,1.398,7.088,1.066,9.959-0.775
						c0.823-0.527,1.675,0.764,0.856,1.29c-3.348,2.147-7.753,2.421-11.522,0.803C422.524,224.331,423.238,223.016,424.16,223.412z"
						/>
				</g>
			</g>
			<path style="fill:#CE684B;" d="M484.686,291.552c-0.724-6.511-3.242-12.629-6.339-18.35c-1.849-3.415-3.907-6.711-5.965-10.002
				c-0.329-0.526-1.165-0.042-0.834,0.488c6.674,10.67,13.913,22.517,12.122,35.665c-0.455,3.339-1.537,6.571-3.309,9.443
				c-0.327,0.53,0.508,1.016,0.834,0.487C484.449,304.009,485.363,297.643,484.686,291.552z"/>
			<path style="fill:#5A9FA4;" d="M414.74,291.401c-0.371-2.491-0.742-4.982-1.113-7.473c-0.091-0.613-1.022-0.352-0.931,0.257
				c1.301,8.738,2.602,17.477,3.904,26.215c0.371,2.491,0.742,4.982,1.113,7.473c0.091,0.613,1.022,0.352,0.931-0.257
				C417.342,308.878,416.041,300.139,414.74,291.401z"/>
			<g>
				<path style="fill:#CE684B;" d="M450.139,207.041c-0.495-1.869-0.201-3.855-0.462-5.771c-0.438-3.211-2.4-6.007-4.58-8.405
					c-2.179-2.398-4.648-4.56-6.471-7.239c-1.457-2.142-2.479-4.585-4.171-6.548c-2.66-3.086-6.689-4.648-10.675-5.494
					c-8.343-1.771-17.326-0.819-24.882,3.137c-7.556,3.956-13.554,10.986-15.781,19.218c-2.227,8.233-0.481,17.552,4.966,24.114
					c1.959,2.359,4.374,4.391,5.813,7.098c1.439,2.708,1.582,6.477-0.742,8.478c3.979-0.537,7.315-4.158,7.524-8.168
					c0.532,3.945,1.306,7.973,3.425,11.343c2.119,3.37,5.862,5.98,9.834,5.707s7.623-4.191,6.729-8.07
					c-1.68,0.504-3.405,1.012-5.156,0.895c-1.75-0.117-3.56-0.994-4.292-2.589c-0.993-2.164,0.26-4.616,0.902-6.908
					c1.419-5.064-0.508-10.898-4.664-14.121c2.211,0.839,4.421,1.677,6.632,2.516c-2.793-1.215-4.409-4.395-4.335-7.439
					c0.074-3.044,1.602-5.909,3.645-8.167c1.371-1.515,2.973-2.788,4.634-3.985c3.504-0.268,4.334,2.355,3.935,4.335
					c6.701-1.219,7.427-6.736,6.203-13.436c9.273,6.923,15.72,17.105,18.584,28.318c3.006-0.771,6.013-2.849,7.501-5.573
					C452.368,210.711,450.635,208.91,450.139,207.041z"/>
			</g>
			<g>
				<path style="fill:#9BC3FF;" d="M417.299,314.168c-10.461-0.441-20.57,6.582-24.688,16.209c-0.849,1.986-1.48,4.162-1.122,6.293
					c0.387,2.298,1.898,4.285,3.733,5.721c1.835,1.437,12.924,3.168,11.61,1.747c-1.795-5.223-5.403-9.552-2.019-13.916
					c3.384-4.364,8.089-7.477,12.705-10.508L417.299,314.168z"/>
			</g>
			<circle style="fill:#9BC3FF;" cx="509.419" cy="311.584" r="17.005"/>
		</g>
		<g>
			<g>
				<path style="fill:#0E0900;" d="M449.594,302.402c-2.064-0.572-4.248-1.146-6.317-0.592c-2.069,0.554-3.878,2.686-3.274,4.741
					c0.564,1.918,2.75,2.757,4.639,3.41c5.952,2.057,11.639,4.882,16.874,8.383c1.7,1.137,3.383,2.36,5.321,3.012
					s4.228,0.642,5.871-0.575c1.643-1.217,2.251-3.85,0.894-5.379c4.064,1.038,28.743-10.405,15.304-24.134
					c-2.934-2.997-6.435-5.391-10.342-6.918c-3.237-1.265-18.979-5.825-27.739,8.174c-1.844,2.946-3.642,6.282-2.517,9.571"/>
			</g>
			<g>
				<g>
					<path style="fill:#0E0900;" d="M475.214,192.371c-1.817-2.266-4.332-4.054-7.182-4.615c-0.778-0.153-1.608-0.21-2.343,0.088
						c-0.652,0.264-1.165,0.78-1.637,1.301c-4.492,4.955-6.992,11.668-6.836,18.354l21.822-7.357
						C478.202,197.359,477.031,194.637,475.214,192.371z"/>
				</g>
				<g>
					<path style="fill:#F6BAB9;" d="M471.317,194.2c-1.177-1.468-2.806-2.626-4.653-2.989c-0.504-0.099-1.042-0.136-1.518,0.057
						c-0.422,0.171-0.755,0.505-1.061,0.843c-2.91,3.21-4.53,7.558-4.428,11.89l14.136-4.766
						C473.253,197.432,472.494,195.668,471.317,194.2z"/>
				</g>
				<path style="fill:#FFFFFF;" d="M474.681,200.892c-1.502-4.549-3.799-10.165-9.203-10.971c-0.739-0.11-1.058,1.021-0.312,1.132
					c4.982,0.743,7.003,5.971,8.384,10.151C473.785,201.918,474.919,201.613,474.681,200.892z"/>
			</g>
			<g>
				<g>
					<path style="fill:#0E0900;" d="M488.983,194.163c2.52-1.445,5.514-2.191,8.372-1.671c0.78,0.142,1.573,0.393,2.148,0.938
						c0.51,0.484,0.799,1.152,1.049,1.809c2.371,6.254,1.94,14.542-0.649,20.709L482.584,200
						C484.377,197.715,486.463,195.609,488.983,194.163z"/>
				</g>
				<g>
					<path style="fill:#F6BAB9;" d="M492.236,197.622c1.708-0.98,3.737-1.485,5.674-1.132c0.529,0.096,1.066,0.266,1.456,0.636
						c0.346,0.328,0.542,0.781,0.711,1.226c1.607,4.239,0.954,10.681-0.801,14.861l-11.377-11.635
						C489.114,200.029,490.528,198.601,492.236,197.622z"/>
				</g>
				<path style="fill:#FFFFFF;" d="M486.836,202.475c3.061-3.686,7.251-8.074,12.576-6.849c0.728,0.168,0.612,1.337-0.123,1.168
					c-4.909-1.129-8.7,2.998-11.513,6.385C487.295,203.758,486.351,203.059,486.836,202.475z"/>
			</g>
			<g>
				<path style="fill:#0E0900;" d="M505.031,307.252c-5.438,5.186-13.261,7.137-20.775,7.369c-3.255,0.106-6.548-0.087-9.755-0.657
					c-3.4-0.589-6.703-1.603-9.794-3.129c-10.257-5.09-17.134-15.444-20.466-26.396c-0.444-1.458-0.811-3.12-1.12-4.906
					c-1.999-11.609-1.314-28.405-1.314-28.405c-0.811-8.161-1.478-17.027,2.936-23.943c1.043-1.642,2.337-3.12,3.303-4.8
					c1.497-2.617,2.115-5.621,3.197-8.432c3.187-8.325,10.759-14.883,19.49-16.67c8.741-1.777,18.36,1.352,24.233,8.065
					c5.872,6.712,7.688,16.776,4.346,25.044c-0.618,1.526-1.401,3.023-1.516,4.655c-0.135,1.729,0.493,3.409,0.918,5.1
					c1.333,5.293,0.608,11.078-1.98,15.888c5.022,1.285,9.175,5.032,11.764,9.513c2.589,4.481,3.747,9.668,4.24,14.816
					C513.675,289.973,512.024,300.587,505.031,307.252z"/>
			</g>
			<g>
				<path style="fill:#4C4C4C;" d="M485.83,308.478c-2.868,3.178-7.07,4.81-11.329,5.486c-3.4-0.589-6.703-1.603-9.794-3.129
					c-10.257-5.09-17.134-15.444-20.466-26.396c-0.444-1.458-0.811-3.12-1.12-4.906c-0.164-2.202-0.212-3.651-0.212-3.651
					c-0.918-5.148-1.767-10.75,0.695-15.366c0.579-1.091,1.333-2.086,1.864-3.207c0.821-1.738,1.072-3.68,1.623-5.515
					c1.623-5.447,6.104-9.987,11.58-11.542c5.467-1.565,11.735-0.039,15.791,3.941c4.066,3.979,5.698,10.286,3.979,15.704
					c-0.309,0.995-0.734,1.99-0.734,3.033c0,1.101,0.483,2.144,0.831,3.197c1.111,3.303,0.927,7.012-0.473,10.199
					c3.245,0.57,6.065,2.743,7.929,5.467c1.864,2.724,2.859,5.959,3.429,9.214C490.486,297.072,489.945,303.9,485.83,308.478z"/>
			</g>
			<g>
				<path style="fill:#0E0900;" d="M465.083,304.525c-2.064-0.572-4.248-1.146-6.317-0.592c-2.069,0.554-3.878,2.686-3.274,4.741
					c0.564,1.918,2.75,2.757,4.639,3.41c5.952,2.057,11.639,4.882,16.874,8.383c1.7,1.137,3.383,2.36,5.321,3.012
					c1.938,0.652,4.228,0.642,5.871-0.575c1.643-1.217,2.251-3.85,0.895-5.379c4.064,1.038,28.743-10.405,15.304-24.134
					c-2.934-2.998-6.042-3.637-9.949-5.164c-3.237-1.265-19.372-7.579-28.132,6.421c-1.844,2.946-3.642,6.282-2.517,9.571"/>
			</g>
			<path style="fill:#FFFFFF;" d="M481.25,285.651c-3.831-0.029-7.647,1.214-10.716,3.513c-3.063,2.295-5.274,5.565-6.31,9.248
				c-0.499,1.774-0.699,3.62-0.625,5.459c-2.206-1.042-4.818-1.601-6.99-0.204c-1.015,0.653-1.786,1.728-1.969,2.933
				c-0.19,1.255,0.308,2.449,1.163,3.357c1.105,1.174,2.668,1.723,4.159,2.224c0.53,0.178,0.783-0.55,0.406-0.845
				c-0.195-1.82,0.546-3.626,1.984-4.769c0.204-0.162,0.17-0.513,0-0.683c-0.202-0.202-0.478-0.163-0.683,0
				c-1.506,1.197-2.369,3.145-2.291,5.065c-0.156-0.057-0.311-0.106-0.466-0.167c0.054-0.151,0.04-0.325-0.108-0.473
				c-0.723-0.72-1.108-1.768-0.957-2.787c0.143-0.961,0.731-1.819,1.557-2.322c0.53-0.322,0.046-1.158-0.488-0.834
				c-1.078,0.655-1.843,1.773-2.019,3.027c-0.128,0.913,0.064,1.836,0.503,2.631c-0.389-0.254-0.751-0.548-1.06-0.911
				c-0.901-1.061-1.019-2.439-0.254-3.611c0.788-1.207,2.242-1.715,3.634-1.703c1.409,0.012,2.737,0.536,3.966,1.191
				c0.102,0.274,0.406,0.381,0.643,0.31c0.453,0.05,0.773-0.627,0.297-0.896c-0.013-0.007-0.027-0.014-0.04-0.022
				c-0.494-7.228,3.796-14.132,10.634-16.694c1.931-0.724,3.966-1.088,6.028-1.072C481.872,286.622,481.872,285.656,481.25,285.651z
				"/>
			<path style="fill:#F6BAB9;" d="M483.966,221.724c-0.51-0.43-1.252,0.305-0.738,0.738c0.615,0.518,0.922,1.349,0.662,2.136
				c-0.3,0.91-1.295,1.417-2.139,1.709c-0.946,0.327-2.027,0.438-2.916-0.111c-0.638-0.394-1.042-1.179-0.842-1.885
				c0.093,0.029,0.186,0.065,0.277,0.089c0.829,0.22,1.732,0.187,2.409-0.393c0.605-0.519,1.636-2.526-0.496-3.971
				c-0.8-0.543-1.819-0.736-2.803-0.596c-0.757,0.108-1.534,0.568-1.869,1.278c-0.403,0.851-0.12,1.81,0.515,2.465
				c0.25,0.258,0.557,0.473,0.883,0.659c-0.897,0.992-2.249,1.757-3.487,0.896c-1.408-0.98-1.154-3.102,0.18-4.001
				c0.554-0.373,0.033-1.277-0.527-0.901c-1.884,1.269-2.28,4.099-0.431,5.614c1.405,1.151,3.043,0.733,4.307-0.245
				c0.085,0.462,0.291,0.907,0.622,1.284c1.004,1.143,2.642,1.326,4.041,0.953c1.268-0.339,2.688-1.063,3.201-2.349
				C485.28,223.925,484.922,222.529,483.966,221.724z"/>
			<path style="fill:#FFFFFF;" d="M472.638,214.307c-0.141,1.351,0.493,2.539,1.417,2.656c0.923,0.116,1.787-0.884,1.928-2.235
				c0.141-1.35-0.492-2.54-1.416-2.656C473.643,211.955,472.779,212.956,472.638,214.307z"/>
			<path style="fill:#FFFFFF;" d="M483.602,216.566c-0.141,1.351,0.493,2.539,1.417,2.656c0.924,0.116,1.787-0.884,1.928-2.235
				c0.141-1.35-0.492-2.54-1.416-2.656C484.606,214.215,483.743,215.215,483.602,216.566z"/>
			<path style="fill:#0E0900;" d="M489.46,241.515c0,0-16.164-13.697-22.331-10.192c0,0-15.58,8.439-12.594,19.085
				c0,0,0.714,6.362,11.815-2.856c0,0,12.334,18.891,22.331,9.478C488.681,257.03,496.211,248.785,489.46,241.515z"/>
			<path style="fill:#0E0900;" d="M442.201,249.343c0,0-20.773,26.512-11.23,34.042c0,0,5.842,4.479,13.113-9.802
				c0,0,10.729-10.556,10.071-32.596L442.201,249.343z"/>
			<path style="fill:#0E0900;" d="M493.205,310.987c-2.137-2.849-4.894-5.179-7.637-7.419c-1.365-1.115-4.531-2.95-4.531-2.95
				s-2.656,1.407-2.792,1.657c1.022,0.691,2.003,1.442,2.898,2.29c4.421,4.187,7.151,10.163,7.276,16.263
				c0.127,6.161-2.435,12.295-6.757,16.663c-9.938,10.042-25.427,6.762-37.344,12.485c-1.448,0.695-2.844,1.52-4.111,2.509
				c-1.277,0.995-2.701,2.219-3.175,3.828c-0.564,1.916,1.069,3.062,2.763,3.346c1.711,0.286,3.453-0.242,4.995-0.954
				c1.571-0.725,3.035-1.653,4.532-2.516c1.577-0.908,3.216-1.696,4.897-2.392c3.415-1.414,6.98-2.423,10.557-3.336
				c7.151-1.825,14.584-3.286,21.056-7.001c5.495-3.155,10.231-8.012,11.634-14.359C498.85,322.841,497.014,316.064,493.205,310.987
				z"/>
			<g>
				<path style="fill:#FFFFFF;" d="M498.857,222.745c-3.648-0.894-7.424-1.164-11.161-0.779c-0.744,0.077-0.752,1.251,0,1.174
					c3.637-0.375,7.298-0.133,10.849,0.737C499.279,224.057,499.592,222.925,498.857,222.745z"/>
				<path style="fill:#FFFFFF;" d="M494.13,224.47c-1.928-0.659-3.963-0.988-6-0.977c-0.755,0.004-0.757,1.178,0,1.174
					c1.941-0.01,3.852,0.307,5.688,0.935c0.3,0.103,0.642-0.118,0.722-0.41C494.628,224.87,494.431,224.573,494.13,224.47z"/>
				<path style="fill:#FFFFFF;" d="M496.047,230.115c-2.451-1.878-5.094-3.492-7.884-4.814c-0.679-0.322-1.275,0.69-0.592,1.014
					c2.791,1.323,5.433,2.936,7.884,4.814c0.254,0.194,0.655,0.037,0.803-0.211C496.438,230.617,496.298,230.306,496.047,230.115z"
					/>
			</g>
			<g>
				<path style="fill:#FFFFFF;" d="M458.581,216.324c3.753,0.161,7.454,0.956,10.935,2.37c0.693,0.282,0.372,1.412-0.328,1.127
					c-3.387-1.376-6.97-2.167-10.623-2.324C457.81,217.465,457.826,216.291,458.581,216.324z"/>
				<path style="fill:#FFFFFF;" d="M462.638,219.301c2.035-0.094,4.081,0.159,6.034,0.739c0.724,0.215,0.398,1.342-0.328,1.127
					c-1.861-0.552-3.784-0.782-5.723-0.692c-0.317,0.015-0.583-0.292-0.579-0.595C462.048,219.546,462.32,219.316,462.638,219.301z"
					/>
				<path style="fill:#FFFFFF;" d="M459.22,224.184c2.878-1.118,5.866-1.93,8.915-2.42c0.742-0.119,1.032,1.019,0.286,1.139
					c-3.049,0.49-6.037,1.301-8.915,2.42c-0.298,0.116-0.639-0.147-0.712-0.426C458.705,224.558,458.926,224.299,459.22,224.184z"/>
			</g>
			<path style="fill:#FFFFFF;" d="M491.317,242.243c-3.416-4.44-8.735-7.064-13.68-9.439c-2.628-1.262-5.475-2.35-8.441-2.191
				c-2.767,0.148-5.362,1.351-7.527,3.034c-2.647,2.059-4.633,4.811-6.47,7.583c-0.344,0.52,0.492,1.004,0.834,0.488
				c2.948-4.447,6.746-9.33,12.426-10.071c2.85-0.372,5.649,0.573,8.199,1.76c2.428,1.13,4.834,2.385,7.137,3.752
				c2.506,1.487,4.897,3.245,6.687,5.572C490.857,243.217,491.696,242.736,491.317,242.243z"/>
			<path style="fill:#FFFFFF;" d="M453.831,241.151c-0.048-0.616-1.014-0.621-0.966,0c0.703,8.953-1.196,18.05-5.403,25.985
				c-1.171,2.209-2.519,4.319-4.023,6.316c-0.374,0.496,0.464,0.978,0.834,0.487c5.468-7.255,8.772-16.051,9.539-25.097
				C454.029,246.283,454.032,243.71,453.831,241.151z"/>
			<path style="fill:#FFFFFF;" d="M462.324,244.9c-2.604,1.734-4.705,4.172-6.001,7.023c-0.255,0.562,0.577,1.053,0.834,0.488
				c1.228-2.701,3.183-5.03,5.655-6.676C463.326,245.391,462.843,244.554,462.324,244.9z"/>
			<path style="fill:#FFFFFF;" d="M457.934,242.623c-1.737,2.429-2.926,5.23-3.469,8.167c-0.112,0.608,0.818,0.868,0.931,0.257
				c0.53-2.866,1.676-5.565,3.372-7.936C459.13,242.604,458.292,242.121,457.934,242.623z"/>
			<path style="fill:#FFFFFF;" d="M496.348,253.901c-2.336,2.906-5.722,4.892-9.423,5.422c-3.909,0.56-7.938-0.585-11.054-2.981
				c-0.492-0.379-0.974,0.46-0.487,0.834c3.27,2.515,7.519,3.665,11.61,3.104c3.917-0.537,7.563-2.617,10.038-5.697
				C497.417,254.104,496.738,253.416,496.348,253.901z"/>
		</g>
		<g>
			<path style="fill:#F6BAB9;" d="M467.26,262.338c0,0-1.855-3.604-7.889,7.302c0,0-5.165,8.088-5.552,9.063l-3.017-0.199
				c0,0,0.775-9.344,4.766-13.148c0,0,4.39-4.883,4.942-8.793c0.176-1.186-1.092-2.031-2.125-1.432
				c-1.702,0.974-4.578,3.663-9.145,10.718c0,0-3.897,5.94-4.672,12.749l0.587-11.387c0,0,6.985-9.896,7.994-14.204
				c0.282-1.162-0.963-2.113-2.007-1.538c-1.679,0.927-4.707,3.733-9.931,11.586c-0.869,1.303-1.444,2.782-1.69,4.32l-0.986,5.964
				l-0.129-3.404c-0.106-2.806,0.798-5.552,2.547-7.748c1.667-2.101,3.698-4.731,4.919-6.515c0.611-0.892-0.27-2.043-1.291-1.702
				c-2.172,0.716-5.682,3.099-9.849,10.413c-0.704,1.233-1.056,2.641-1.033,4.062l0.094,6.644c0.047,2.958,1.139,5.811,3.087,8.03
				l7.501,8.534c-3.275,7.466-12.15,14.756-23.22,21.975c-0.035,0.023-0.059,0.035-0.082,0.059
				c-0.258,0.176-0.528,0.352-0.798,0.517c0,0-0.012,0-0.012,0.012c-1.115,0.716-2.254,1.432-3.404,2.16v-0.117
				c-0.869,0.54-1.737,1.103-2.606,1.69l2.348-1.42c-0.939,0.587-1.89,1.174-2.864,1.761c-5.512,3.698-9.502,7.276-12.993,10.672
				c-5.534,5.383-3.587,14.955,3.761,17.326c0.335,0.108,0.677,0.206,1.027,0.293c2.923,0.728,6.01,0.387,8.781-0.81
				c9.121-3.933,28.514-16.235,45.935-47.613c0,0,2.336-7.525-1.949-14.369c0,0-1.315-1.902,3.85-8.581
				c1.679-2.172,3.111-4.543,4.12-7.09C467.119,266.012,467.73,263.746,467.26,262.338z"/>
			<g style="opacity:0.5;">
				<path style="fill:#F6BAB9;" d="M446.66,285.448c-1.299,0.71-2.911,0.493-3.979-0.531c-0.545-0.523-1.377,0.306-0.83,0.83
					c1.453,1.393,3.635,1.679,5.401,0.714C447.916,286.099,447.324,285.085,446.66,285.448z"/>
				<path style="fill:#F6BAB9;" d="M453.82,286.149c-0.964,1.032-2.587,1.231-3.717,0.314c-0.246-0.199-0.589-0.241-0.83,0
					c-0.206,0.206-0.247,0.629,0,0.83c0.782,0.634,1.771,1.005,2.787,0.923c0.985-0.079,1.914-0.513,2.59-1.237
					C455.165,286.427,454.337,285.595,453.82,286.149z"/>
			</g>
		</g>
		<g>
			<path style="fill:#F6BAB9;" d="M518.343,317.849c-1.978,3.913-5.033,5.458-8.07,5.857c-5.128,0.685-10.117-2.031-12.66-6.534
				l-21.45-38.031c-6.742-2.083-12.816-8.955-15.601-12.512c-0.946-1.197-1.536-2.629-1.727-4.139
				c-0.026-0.156-0.043-0.312-0.052-0.477c-0.035-0.043-0.069-0.078-0.096-0.121c-0.868-1.172-0.13-2.1,0.399-2.542
				c0.226-0.208,0.417-0.312,0.417-0.312c-0.13-0.061-0.252-0.122-0.364-0.182c-0.356-0.182-0.651-0.347-0.885-0.495
				c-1.076-0.677-0.824-2.343,0.417-2.646c0.33-0.081,0.681-0.13,1.017-0.157c0.838-0.068,1.658,0.159,2.415,0.524
				c2.332,1.123,8.264,1.568,8.264,1.568l-0.79-3.818c3.384-0.859,7.41,3.098,7.41,3.098c5.545,5.111,9.484,1.449,9.484,1.449
				c1.709,5.345,2.178,14.777,2.178,14.777l27.168,28.79C519.853,306.214,520.999,312.6,518.343,317.849z"/>
			<g style="opacity:0.5;">
				<path style="fill:#F6BAB9;" d="M466.932,268.061c-2.655-1.935-5.354-3.792-8.096-5.571c-0.026-0.156-0.043-0.312-0.052-0.477
					c-0.035-0.043-0.069-0.078-0.096-0.121c0.104-0.2,0.33-0.313,0.573-0.156c2.751,1.787,5.449,3.644,8.104,5.571
					C467.817,267.636,467.383,268.382,466.932,268.061z"/>
				<path style="fill:#F6BAB9;" d="M468.207,262.227c-2.777-1.403-5.666-2.576-8.636-3.5c-0.534-0.166-0.763,0.671-0.231,0.837
					c2.9,0.903,5.718,2.043,8.429,3.413C468.266,263.228,468.706,262.479,468.207,262.227z"/>
				<path style="fill:#F6BAB9;" d="M471.844,263.289c-0.079-0.244-0.293-0.341-0.534-0.303c-0.018,0.003-0.035,0.005-0.053,0.008
					c-0.003,0-0.015,0.001-0.04,0.005c-0.042,0.004-0.083,0.008-0.125,0.011c-0.098,0.007-0.195,0.011-0.293,0.011
					c-0.098,0-0.196-0.004-0.293-0.011c-0.049-0.004-0.097-0.008-0.146-0.014c-0.011-0.001-0.021-0.003-0.032-0.004
					c-0.003-0.001-0.015-0.002-0.04-0.006c-0.193-0.035-0.383-0.076-0.571-0.135c-0.093-0.03-0.185-0.063-0.276-0.099
					c-0.016-0.006-0.02-0.008-0.024-0.009c-0.004-0.002-0.009-0.005-0.027-0.013c-0.051-0.024-0.101-0.048-0.151-0.073
					c-0.203-0.102-0.479-0.061-0.594,0.156c-0.104,0.197-0.061,0.485,0.156,0.594c0.855,0.428,1.796,0.565,2.74,0.416
					C471.766,263.787,471.91,263.495,471.844,263.289z"/>
				<path style="fill:#F6BAB9;" d="M475.237,259.155c-0.249-0.116-0.488-0.254-0.711-0.414c-0.03-0.022-0.06-0.044-0.09-0.067
					c0.076,0.056-0.023-0.018-0.03-0.025c-0.048-0.039-0.096-0.08-0.143-0.121c-0.108-0.095-0.211-0.195-0.309-0.3
					c-0.047-0.05-0.093-0.101-0.137-0.154c-0.02-0.024-0.04-0.048-0.06-0.072c-0.008-0.01-0.078-0.099-0.047-0.059
					c0.033,0.044-0.027-0.038-0.034-0.046c-0.022-0.03-0.044-0.061-0.065-0.092c-0.039-0.056-0.077-0.114-0.113-0.172
					c-0.073-0.116-0.14-0.236-0.202-0.359c-0.031-0.061-0.06-0.124-0.088-0.186c-0.006-0.013-0.005-0.012-0.008-0.017
					c-0.002-0.006-0.001-0.004-0.006-0.017c-0.014-0.035-0.027-0.07-0.04-0.105c-0.08-0.212-0.297-0.38-0.534-0.303
					c-0.207,0.067-0.389,0.306-0.303,0.534c0.445,1.184,1.331,2.187,2.484,2.724c0.205,0.096,0.477,0.065,0.594-0.156
					C475.494,259.557,475.457,259.257,475.237,259.155z"/>
			</g>
		</g>
	</g>
	<g>
		<g>
			<g>
				<path style="fill:#2E7D83;" d="M296.861,231.872c-1.382-4.951-2.764-9.902-4.145-14.853l-22.11,4.552
					c2.106,4.442,4.856,8.531,7.353,12.766c3.362,5.7,7.093,5.97,7.093,5.97s-1.677-2.096-2.215-3.007
					c2.107,2.574,4.811,4.089,4.811,4.089s-1.078-2.557-1.407-3.259c1.16,1.827,2.51,3.533,4.025,5.08
					c0.41,0.419,1.015,0.857,1.527,0.571c0.522-0.291,0.452-1.055,0.289-1.63c-0.501-1.777-1.198-3.498-2.075-5.123
					c0.485,1.156,1.207,2.211,2.108,3.083c0.31,0.3,0.679,0.594,1.111,0.605c0.779,0.02,1.264-0.855,1.388-1.625
					c0.295-1.833-0.39-3.667-1.064-5.398c0.391,1.088,0.896,2.134,1.506,3.116c0.203,0.327,0.446,0.669,0.815,0.78
					c0.39,0.117,0.824-0.073,1.088-0.383c0.264-0.309,0.385-0.716,0.449-1.118C297.633,234.677,297.245,233.248,296.861,231.872z"/>
			</g>
			<g>
				<path style="fill:#FFFFFF;" d="M305.543,254.084c-0.929-2.185-1.897-4.353-2.866-6.521c-1.992-4.459-3.985-8.918-5.977-13.377
					l-6.835,7.758c3.613,6.258,7.396,12.417,11.345,18.469c0.209,0.321,0.504,0.683,0.884,0.631c0.292-0.04,0.497-0.332,0.534-0.624
					c0.037-0.292-0.056-0.583-0.152-0.861c-0.638-1.833-1.505-3.586-2.574-5.206c0.522,0.684,1.044,1.368,1.566,2.052
					c0.185,0.242,0.453,0.513,0.743,0.421c0.384-0.122,0.321-0.681,0.178-1.058c-0.59-1.561-1.18-3.122-1.77-4.683
					c0.788,1.566,1.816,3.012,3.037,4.27c0.487,0.502,1.265,0.998,1.823,0.576C306.01,255.529,305.804,254.698,305.543,254.084z"/>
			</g>
			<g>
				<path style="fill:#2E7D83;" d="M280.891,234.775c-3.479-8.244-6.957-16.488-10.436-24.732l-3.729-17.945
					c-0.151-0.402-0.643-0.598-1.067-0.528c-0.424,0.069-0.786,0.345-1.091,0.648c-1.788,1.784-2.055,4.557-2.049,7.082
					c0.014,6.242,1.048,12.431,2.079,18.587c0.217,1.298,0.437,2.603,0.866,3.847c0.204,0.593,0.473,1.193,0.959,1.589
					c0.486,0.396,1.242,0.523,1.736,0.136c0.167-0.131,0.25-0.329,0.293-0.538c1.223,6.082,3.05,4.235,3.139,4.013
					c2.235,3.407,5.038,6.44,8.26,8.935c0.248,0.192,0.557,0.392,0.854,0.29C281.203,235.989,281.096,235.259,280.891,234.775z"/>
			</g>
			<g>
				<path style="fill:#F26188;" d="M291.224,234.577c-3.299,1.526-7.289,1.108-10.523-0.535c-0.052-0.026-0.104-0.052-0.143-0.078
					c-3.182-1.643-5.724-4.329-7.772-7.276c-4.251-6.102-6.102-13.013-6.872-20.302c-0.026-0.169-0.039-0.326-0.052-0.495
					c-0.469-4.707-0.496-9.571,0.378-14.239c0.078-0.443,0.169-0.874,0.274-1.304c0.417-1.904,1.004-3.755,1.773-5.555
					c0.274-0.626,0.561-1.239,0.874-1.852c2.856-5.529,8.019-10.888,14.774-10.145c2.217,0.235,4.381,1.434,5.45,3.39l-0.3,0.822
					c0,0.769-0.665,1.904-0.874,2.66c-0.274,0.965-0.482,1.943-0.652,2.934c-0.326,1.943-0.469,3.925-0.443,5.894
					c0,0.508,0,1.03-0.013,1.552c-0.026,1.343-0.091,2.725-0.117,4.107c-0.039,2.269,0.013,4.538,0.535,6.65
					c1.069,4.355,2.517,8.606,3.899,12.87c1.043,3.195,2.282,6.559,2.986,9.923c0.183,0.874,0.339,1.747,0.43,2.621
					C295.279,229.975,294.706,232.961,291.224,234.577z"/>
			</g>
			<g>
				<path style="fill:#F26188;" d="M279.391,173.291c-8.356,3.453-16.487,7.456-24.307,11.994c-0.399,0.232-0.812,0.485-1.185,0.774
					c-0.776,0.601-0.207,1.83,0.761,1.67c3.722-0.615,7.209-2.471,10.562-4.289c-2.933,1.753-5.866,3.505-8.798,5.258
					c-0.523,0.312-1.125,0.814-0.946,1.396c0.112,0.365,0.517,0.575,0.899,0.583c0.382,0.008,0.747-0.142,1.099-0.289
					c2.881-1.204,5.761-2.409,8.642-3.613c-1.906,1.471-7.381,6.121-2.231,3.895c4.542-1.962,9.107-3.884,13.454-6.245"/>
			</g>
			<g>
				<path style="fill:#FFFFFF;" d="M289.396,234.732c-2.7,1.28-6.06,0.93-8.82-0.45c-0.05-0.02-0.09-0.05-0.12-0.07
					c-2.73-1.38-4.95-3.63-6.77-6.11c-3.77-5.12-5.57-10.93-6.48-17.05c-0.02-0.14-0.04-0.27-0.06-0.41
					c-0.56-3.95-0.75-8.04-0.19-11.96c0.05-0.37,0.11-0.73,0.18-1.09c0.28-1.6,0.71-3.16,1.29-4.67c0.01-0.02,0.01-0.03,0.02-0.05
					c0.19-0.5,0.41-1.01,0.64-1.5c0.51-1.09,1.13-2.16,1.84-3.17c0.25,0.22,0.52,0.42,0.79,0.61c2.41,1.65,5.39,2.32,8.31,2.31
					c1.51-0.01,3.02-0.19,4.51-0.48c-0.02,0.15-0.04,0.29-0.06,0.44c-0.17,1.41-0.23,2.86-0.19,4.29c0.01,0.22,0.02,0.44,0.03,0.66
					c0.02,0.43,0.04,0.87,0.04,1.3c0.03,1.13,0.02,2.29,0.05,3.45c0.05,1.91,0.18,3.81,0.69,5.59c1.05,3.65,2.41,7.22,3.72,10.8
					c0.99,2.69,2.15,5.51,2.85,8.34c0.19,0.73,0.35,1.46,0.46,2.2C292.626,230.862,292.256,233.372,289.396,234.732z"/>
			</g>
			<g>
				<g>
					<path style="fill:#F7D049;" d="M292.158,184.086c-1.561-0.103-3.109-0.395-4.601-0.868c-0.767-0.243-1.603-0.615-1.88-1.37
						c-0.388,2.29-0.151,4.683,0.68,6.852l0.062,0.097c1.4,0.515,3.064,0.234,4.218-0.713
						C291.791,187.137,292.391,185.56,292.158,184.086z"/>
				</g>
				<g>
					<path style="fill:#F7D049;" d="M294.543,179.565c-1.359-2.055-3.765-3.375-6.228-3.419l-2.052,3.726
						c-0.478,0.792-0.755,1.714-0.73,2.639c0.025,0.925,0.365,1.848,0.992,2.529c0.586,0.636,1.415,1.043,2.277,1.119
						c0.826,0.072,1.648-0.149,2.477-0.193c0.828-0.044,1.754,0.144,2.241,0.816c0.184,0.254,0.316,0.583,0.609,0.695
						c0.243,0.093,0.528-0.005,0.719-0.181c0.191-0.177,0.306-0.42,0.404-0.661C296.175,184.351,295.902,181.62,294.543,179.565z"/>
				</g>
				<path style="fill:#F7D049;" d="M294.638,186.817c-0.76-1.689-2.848-1.617-4.392-1.541c-0.912,0.045-1.809,0.001-2.566-0.565
					c-0.627-0.468-1.085-1.203-1.178-1.985c-0.076-0.631-1.077-0.639-1,0c0.207,1.723,1.494,3.204,3.236,3.493
					c1.04,0.172,2.077-0.06,3.119,0.013c0.771,0.054,1.583,0.344,1.918,1.089C294.039,187.907,294.901,187.399,294.638,186.817z"/>
			</g>
			<path style="fill:#0E0900;" d="M281.37,179.791c-0.041,0.838,0.39,1.55,0.964,1.59c0.574,0.04,1.072-0.606,1.114-1.445
				c0.041-0.838-0.391-1.55-0.965-1.591C281.91,178.306,281.411,178.952,281.37,179.791z"/>
			<g>
				<path style="fill:#F7D049;" d="M287.106,190.052c-0.03,1.34-0.09,2.72-0.12,4.1c-0.01,0.02-0.04,0.02-0.05,0.03
					c-0.86,0.45-1.74,0.85-2.65,1.19c-2.23,0.82-4.59,1.27-6.96,1.17c-3.27-0.14-6.54-1.38-8.88-3.67
					c-0.04-0.04-0.09-0.08-0.13-0.12c-0.71-0.72-1.31-1.53-1.8-2.4c0.42-1.91,1-3.76,1.77-5.56c0.61,1.31,1.53,2.48,2.64,3.41
					c0.25,0.22,0.52,0.42,0.79,0.61c2.41,1.65,5.39,2.32,8.31,2.31c1.51-0.01,3.02-0.19,4.51-0.48
					C285.396,190.472,286.256,190.272,287.106,190.052z"/>
			</g>
			<g>
				<path style="fill:#2E7D83;" d="M298.557,217.86c-0.619-4.659-1.368-9.3-2.052-13.95c-0.423-2.878-1.162-5.716-2.385-8.356
					c-0.389-0.84-0.864-1.636-1.496-2.307c-0.937-0.996-2.273-1.691-3.636-1.585c-1.363,0.105-2.677,1.157-2.821,2.516l-0.033,1.624
					c0.262,7.074,1.673,14.104,4.163,20.73c0.352,0.936,0.733,1.877,1.224,2.746c0.412,0.729,1.53,0.465,1.578-0.371
					c0.126-2.183-1.483-8.751-1.033-6.576c0.692,3.348,3.292,9.573,3.905,9.089c0,0,1.154-1.041,0.19-4.466
					C297.004,221.595,299.599,225.703,298.557,217.86z"/>
			</g>
		</g>
		<g>
			<g>
				<path style="fill:#CE684B;" d="M327.134,223.09l-11.096,18.111l-0.039,0.065l-12.974-12.413c0,0,2.66-6.611,8.215-12.896
					c2.086-2.36,4.59-4.681,7.511-6.572L327.134,223.09z"/>
				<path style="opacity:0.45;fill:#CE684B;" d="M327.134,223.09l-11.096,18.111c-4.446-3.638-7.302-9.232-7.302-15.504
					c0-3.534,0.913-6.859,2.503-9.74c2.086-2.36,4.59-4.681,7.511-6.572L327.134,223.09z"/>
			</g>
			<g>
				<path style="fill:#CE684B;" d="M313.204,200.408c0,0,5.289-6.215,8.513-0.004c-0.444-0.855,1.829-4.667,2.205-5.397
					c4.035-7.827,12.242-10.292,20.326-7.442c8.226,2.901,14.011,9.948,15.209,18.598c0.049,0.357,0.091,0.714,0.125,1.073
					c0.479,4.982-0.269,13.002-3.884,16.829c0,0-2.67,2.825-4.508,7.2c-5.274,12.55-24.101,21.818-33.832,8.27
					c-3.027-4.215-4.52-9.406-4.836-14.546c-0.156-2.539-0.026-5.099,0.4-7.607c0.125-0.737,1.883-5.836,1.485-6.121
					C314.406,211.262,307.916,206.623,313.204,200.408z"/>
				<path style="opacity:0.45;fill:#CE684B;" d="M328.913,226.646c-1.212,3.487,0.593,7.322,4.025,8.658
					c0.837,0.326,0.328,1.623-0.507,1.298c-2.08-0.809-3.809-2.445-4.67-4.513c-0.786-1.888-0.814-4.025-0.145-5.95
					C327.911,225.29,329.207,225.801,328.913,226.646z"/>
				<g>
					<path style="fill:#0E0900;" d="M330.888,212.082c-0.003-0.004-0.004-0.008-0.006-0.012c-0.038-0.054-0.1-0.094-0.158-0.135
						c2.032-1.609,4.921-2.122,7.361-1.215c0.385,0.143,0.772,0.328,1.03,0.648c0.258,0.32,0.348,0.806,0.114,1.143
						c-0.26,0.375-0.789,0.43-1.244,0.392c-0.941-0.079-1.841-0.403-2.737-0.7c-0.896-0.297-1.82-0.572-2.764-0.548
						C331.929,211.669,331.373,211.819,330.888,212.082z"/>
				</g>
				<g>
					<path style="fill:#0E0900;" d="M348.79,216.07c0.406,0.063,0.76,0.305,1.077,0.566c2.101,1.735,3.087,4.672,2.559,7.335
						c-0.02-0.424-0.076-0.844-0.233-1.242c-0.01-0.024-0.024-0.041-0.034-0.063c-0.076-0.248-0.172-0.489-0.295-0.714
						c-0.452-0.829-1.153-1.49-1.859-2.117c-0.706-0.627-1.437-1.243-1.977-2.018c-0.261-0.374-0.478-0.86-0.284-1.272
						C347.919,216.172,348.385,216.008,348.79,216.07z"/>
				</g>
				<path style="opacity:0.45;fill:#CE684B;" d="M336.023,230.443c0.628,0.558,1.365,0.977,2.188,1.169
					c0.394,0.091,0.828,0.153,1.232,0.12c0.07-0.006,0.229-0.016,0.287-0.067c-0.051,0.044-0.016-0.011-0.002-0.041
					c0.092-0.192,0.081-0.498,0.108-0.708c0.248-1.897,0.339-3.815,0.26-5.728c-0.016-0.398,0.202-0.776,0.625-0.837
					c0.364-0.053,0.82,0.225,0.837,0.625c0.05,1.205,0.048,2.412-0.021,3.616c-0.032,0.571-0.08,1.14-0.14,1.709
					c-0.063,0.587-0.091,1.231-0.275,1.795c-0.404,1.243-1.892,1.217-2.95,1.01c-1.124-0.219-2.178-0.717-3.035-1.48
					c-0.298-0.265-0.403-0.695-0.15-1.034C335.212,230.293,335.723,230.176,336.023,230.443z"/>
				<path style="fill:#0E0900;" d="M330.648,216.456c-0.636,1.209-0.488,2.555,0.332,3.009c0.819,0.454,1.999-0.159,2.635-1.368
					c0.636-1.208,0.487-2.556-0.332-3.009C332.464,214.635,331.285,215.248,330.648,216.456z"/>
				<path style="fill:#0E0900;" d="M343.169,223.857c-0.636,1.209-0.488,2.555,0.332,3.009c0.819,0.453,1.999-0.159,2.635-1.368
					c0.636-1.208,0.488-2.556-0.332-3.009C344.985,222.036,343.806,222.648,343.169,223.857z"/>
			</g>
			<path style="fill:#F7D049;" d="M300.861,227.015c-96.622-6.026-113.063,136.397-113.063,136.397h97.199
				c-2.093-5.652,3.106-22.549,6.115-31.39c1.108-3.254,2.372-6.449,3.776-9.587l31.137-69.576c1.432-3.2,1.839-6.831,0.808-10.181
				C322.794,229.55,300.861,227.015,300.861,227.015z"/>
			<g>
				<g>
					<path style="fill:#0E0900;" d="M281.165,228.003c-0.154-0.819-0.517-1.585-0.944-2.3c-0.18-0.303-0.47-0.641-0.812-0.555
						c-0.203,0.051-0.343,0.249-0.388,0.454c-0.045,0.205-0.014,0.418,0.018,0.625c-0.159-0.318-0.375-0.677-0.729-0.711
						c-0.322-0.031-0.608,0.247-0.7,0.557c-0.076,0.255-0.047,0.523-0.005,0.788c-0.109-0.216-0.226-0.438-0.422-0.579
						c-0.201-0.145-0.511-0.172-0.681,0.009c-0.121,0.129-0.139,0.32-0.142,0.496c-0.013,0.772,0.163,1.547,0.507,2.238
						c0.142,0.285,0.318,0.562,0.573,0.751c0.256,0.189,0.605,0.276,0.899,0.156c0.294-0.12,0.49-0.481,0.368-0.775
						c-0.004,0.356,0.407,0.632,0.75,0.537c0.344-0.095,0.557-0.486,0.502-0.838c-0.09,0.293,0.206,0.607,0.512,0.601
						c0.307-0.006,0.569-0.256,0.672-0.545C281.249,228.623,281.222,228.304,281.165,228.003z"/>
				</g>
				<g>
					<path style="fill:#0E0900;" d="M292.607,227.701c0.148-0.82,0.082-1.665-0.061-2.485c-0.061-0.347-0.21-0.766-0.56-0.808
						c-0.208-0.025-0.409,0.11-0.525,0.285c-0.115,0.175-0.162,0.385-0.206,0.59c-0.035-0.353-0.109-0.766-0.428-0.924
						c-0.289-0.144-0.656,0.014-0.852,0.271c-0.161,0.211-0.23,0.472-0.286,0.734c-0.025-0.241-0.055-0.49-0.188-0.691
						c-0.137-0.207-0.417-0.343-0.64-0.234c-0.158,0.077-0.244,0.249-0.31,0.413c-0.287,0.717-0.399,1.503-0.324,2.272
						c0.031,0.316,0.096,0.638,0.268,0.906c0.171,0.268,0.467,0.473,0.785,0.466c0.318-0.007,0.629-0.275,0.62-0.593
						c-0.13,0.332,0.155,0.735,0.51,0.769c0.355,0.034,0.693-0.255,0.768-0.604c-0.189,0.242-0.024,0.64,0.264,0.744
						c0.289,0.104,0.623-0.036,0.822-0.269C292.464,228.311,292.552,228.003,292.607,227.701z"/>
				</g>
			</g>
			<g>
				<g>
					<path style="fill:#CE684B;" d="M318.966,254.712l-27.89,62.56l-6.94,15.56c0,0-1.46,22.13-6.07,30.58h-24.38
						c0,0,2.76-21.91,5.64-28.98l1.16-16.59c0,0,0.21-2.86,0.93-7.56c2.47-16.13,10.89-53.97,36.97-72.65
						c4.97-3.55,11.74-3.26,16.53,0.54C319.886,242.112,321.556,248.922,318.966,254.712z"/>
				</g>
				<path style="fill:#F7D049;" d="M320.609,255.439l-29.533,61.833l-29.66-6.99c2.47-16.13,9.911-55.515,35.991-74.195
					c4.97-3.55,14.191-3.7,18.981,0.1C321.358,240.128,323.199,249.649,320.609,255.439z"/>
				<g>
					<path style="fill:#F7D049;" d="M294.375,234.143c-9.971,3.52-16.185,12.886-20.904,21.82
						c-5.573,10.551-9.754,21.84-12.413,33.472c-1.449,6.34-2.431,12.783-2.969,19.264c-0.232-0.068-0.466-0.13-0.698-0.198
						c-0.618-0.183-0.883,0.782-0.266,0.964c0.335,0.099,0.673,0.189,1.008,0.287c0.109,0.114,0.278,0.153,0.443,0.126
						c8.73,2.541,17.549,4.776,26.443,6.67c2.653,0.565,5.313,1.1,7.977,1.608c0.629,0.12,0.898-0.844,0.266-0.964
						c-9.426-1.795-18.783-3.951-28.043-6.469c-2.059-0.56-4.109-1.152-6.158-1.748c0.94-11.588,3.37-23.045,7.211-34.018
						c1.95-5.571,4.261-11.014,6.921-16.283c2.367-4.688,4.955-9.329,8.232-13.45c3.497-4.399,7.85-8.223,13.215-10.117
						C295.243,234.895,294.984,233.928,294.375,234.143z"/>
					<path style="fill:#F7D049;" d="M319.662,239.418c-2.531-3.566-6.857-5.893-11.275-5.183c-0.634,0.102-0.365,1.066,0.266,0.964
						c3.848-0.619,7.706,1.461,9.98,4.496c2.583,3.448,3.111,8.046,2.489,12.206c-0.681,4.555-2.708,8.763-4.867,12.781
						c-2.337,4.348-4.747,8.659-7.124,12.985l-8.134,14.808c-0.31,0.564,0.553,1.07,0.863,0.505
						c5.069-9.228,10.213-18.421,15.204-27.692c2.253-4.185,4.375-8.579,5.053-13.332
						C322.725,247.691,322.214,243.013,319.662,239.418z"/>
				</g>
			</g>
			<g>
				<g>
					<path style="fill:#0E0900;" d="M369.482,196.694c-0.748-4.097-3.322-7.825-6.885-9.972c-0.461-4.467-3.494-8.576-7.623-10.328
						s-9.186-1.077-12.713,1.697c-5.613-1.929-11.948-1.66-17.377,0.739c-2.079,0.918-4.289,2.613-4.11,4.882
						c-3.425,0.616-6.777,1.985-9.349,4.332s-4.287,5.742-4.187,9.224c-3.764,3.859-3.539,10.871,0.464,14.48
						c-1.322,0.849-2.295,2.299-2.378,3.869c-0.083,1.57,0.823,3.199,2.28,3.784c1.953,0.784,4.247-0.461,5.356-2.251
						c1.109-1.791,1.325-3.976,1.512-6.075c2.16,0.051,4.319-0.627,6.092-1.859c-0.022,0.447,0.03,0.897,0.169,1.33
						c0.732,2.275,3.668,3.525,5.812,2.474c2.635-1.292,3.165-4.858,2.691-7.757c4.631,1.076,9.843-1.522,11.777-5.871
						c-1.073,1.642,0.187,4.022,2.022,4.709c1.836,0.686,3.9,0.13,5.687-0.675c-0.633,1.828-0.027,4.018,1.455,5.259
						c1.482,1.241,3.743,1.45,5.427,0.502c-1.146,0.93-1.74,2.497-1.498,3.954c0.241,1.457,1.308,2.748,2.693,3.259
						c-0.83,1.184-0.609,2.984,0.484,3.931c-2.887,3.236-5.074,7.094-6.368,11.236c2.92,0.186,5.445-1.882,7.632-3.827
						c2.829-2.515,5.715-5.1,7.533-8.422c1.819-3.322,2.393-7.584,0.486-10.856C369.14,205.19,370.23,200.791,369.482,196.694z"/>
				</g>
			</g>
		</g>
	</g>
	<g>
		<g>
			<path style="fill:#0E0900;" d="M172.906,208.794c-0.815-3.691-3.863-6.793-7.538-7.673c-1.839-0.441-3.78-0.363-5.597-0.885
				c-1.817-0.523-3.612-1.928-3.682-3.817c-0.068-1.822,1.424-3.261,2.372-4.819c2.652-4.356,0.907-10.35-2.781-13.872
				c-3.688-3.521-8.826-5.053-13.837-5.999c-20.342-3.841-42.727,0.684-58.201,14.434c-2.376,2.111-4.679,4.605-5.286,7.725
				c-0.618,3.178,0.679,6.488,2.711,9.008c1.654,2.051,3.758,3.669,5.922,5.188c0.088,1.643-1.231,3.19-2.448,4.423
				c-3.204,3.249-6.421,6.815-7.475,11.255c-1.054,4.439,0.892,9.919,5.254,11.257c1.483,0.455,3.452,0.699,3.827,2.205
				c0.218,0.874-0.27,1.749-0.467,2.628c-0.584,2.608,1.646,5.24,4.251,5.837c2.605,0.598,5.336-0.391,7.586-1.833
				c2.25-1.442,4.183-3.331,6.397-4.828c7.03-4.757,16.853-4.98,24.092-0.548c3.846,2.355,7.007,5.891,11.238,7.453
				c5.374,1.984,11.358,0.398,16.766-1.491c1.951-0.681,3.942-1.432,5.467-2.827c1.525-1.394,2.494-3.591,1.874-5.563
				c-0.807-2.564-3.902-3.889-4.679-6.462c-0.787-2.605,1.182-5.289,3.48-6.749c2.297-1.459,5.014-2.225,7.148-3.914
				C172.263,216.581,173.721,212.484,172.906,208.794z"/>
		</g>
		<path style="fill:#F26188;" d="M153.174,345.105c-3.382-12.282,1.579-22.265,5.21-33.957c4.001-12.926,2.326-25.202-0.501-38.073
			c-0.942-4.328-1.394-21.133-6.788-22.427c-0.821-0.195-10.922-4.092-25.62-3.897c-13.858,0.184-24.061,2.479-24.061,2.479
			s-28.308,38.38-10.848,65.17c5.632,8.642,1.425,26.475-1.283,39c-0.823,3.854-1.674,7.305-2.353,9.985l0.242,0.003l36.005,0.004
			l34.83,0.02l0.789-0.006c-0.5-1.166-1.752-5.16-2.94-9.136C154.576,349.986,153.343,345.735,153.174,345.105z"/>
		<g>
			<g>
				<path style="fill:#F6BAB9;" d="M129.465,262.111L129.465,262.111c-3.61,6.14-12.976,3.99-13.548-3.109l-0.057-0.708
					c-0.579-2.389-0.723-4.859-0.414-7.302l0.313-2.562l0.021-0.437l0.542-8.309l17.25-0.983l-0.603,6.856
					c-0.111,1.245-0.236,2.536-0.418,3.791c-0.028,0.298-0.106,1.707-0.187,3.286c-0.012,0.355-0.044,0.72-0.102,1.059
					C131.968,256.669,131.011,259.536,129.465,262.111z"/>
				<path style="opacity:0.5;fill:#F6BAB9;" d="M131.579,253.755c-2.552,0.193-5.191-0.111-7.774-0.943
					c-0.031-0.01-0.063-0.02-0.094-0.031c-4.83-1.58-7.824-6.428-7.493-11.499l0.104-1.6l17.25-0.983l-0.603,6.856
					c-0.111,1.245-0.236,2.536-0.418,3.791c-0.029,0.318-0.116,1.901-0.204,3.605C132.067,253.244,131.858,253.462,131.579,253.755z
					"/>
			</g>
			<path style="fill:#F6BAB9;" d="M95.836,212.908c1.052-0.266,2.33-0.069,3.634,0.443c0.401-7.434,2.936-15.69,6.738-21.703
				c1.531-2.928,3.499-4.993,5.778-6.413c1.217-0.86,2.486-1.512,3.806-1.847c0.906-0.229,1.81-0.409,2.709-0.542
				c0.895-0.158,1.809-0.274,2.742-0.344c1.358-0.102,2.768,0.114,4.195,0.545c2.612,0.624,5.134,1.958,7.514,4.249
				c5.513,4.497,10.537,11.521,13.274,18.445c1.075-0.899,2.225-1.491,3.307-1.572c3.625-0.272,5.714,5.203,5.43,9.657
				c-0.361,5.648-4.194,8.023-7.829,9.728c-1.159,3.887-3.056,7.817-5.427,11.232c-2.412,4.001-5.838,7.236-10.056,9.016
				c-0.124,0.054-0.249,0.104-0.374,0.155c-0.246,0.098-0.481,0.217-0.733,0.305c-0.169,0.059-0.347,0.087-0.518,0.138
				c-0.145,0.042-0.29,0.077-0.436,0.115c-0.335,0.084-0.672,0.161-1.015,0.215c-0.343,0.058-0.686,0.091-1.031,0.118
				c-0.15,0.01-0.299,0.023-0.449,0.029c-0.179,0.006-0.357,0.036-0.536,0.033c-0.266-0.004-0.527-0.041-0.793-0.056
				c-0.133-0.009-0.268-0.016-0.402-0.029c-4.566-0.35-8.842-2.332-12.4-5.363c-3.33-2.486-6.374-5.61-8.706-8.927
				c-3.988-0.464-8.377-1.501-10.51-6.742C92.066,219.656,92.312,213.801,95.836,212.908z"/>
			<g>
				<g>
					<path style="fill:#F7D049;" d="M100.789,225.807c-0.221-0.599-1.188-0.34-0.964,0.266c1.954,5.299,2.123,11.169,0.475,16.573
						c-0.384,1.259-2.192,7.224-4.393,5.172c-1.052-0.98-0.829-2.952-0.834-4.255c-0.007-1.567,0.069-3.135,0.225-4.695
						c0.346-3.467,1.111-6.884,2.237-10.18c0.208-0.61-0.757-0.872-0.964-0.266c-1.13,3.309-1.884,6.734-2.249,10.212
						c-0.18,1.715-0.263,3.44-0.247,5.164c0.013,1.473-0.097,3.267,0.899,4.476c0.833,1.012,2.179,1.217,3.247,0.445
						c1.085-0.785,1.637-2.112,2.139-3.306c1.228-2.924,1.912-6.063,2.047-9.231C102.556,232.66,102.009,229.115,100.789,225.807z"
						/>
				</g>
				<g>
					<path style="fill:#F7D049;" d="M155.131,231.314c-0.798-3.542-2.135-6.952-3.922-10.111c-0.317-0.56-1.181-0.057-0.864,0.505
						c1.415,2.501,2.536,5.153,3.323,7.918c0.378,1.328,0.693,2.681,0.903,4.047c0.212,1.378,0.305,2.94-0.374,4.211
						c-0.561,1.051-1.715,1.96-2.967,1.726c-1.168-0.218-1.944-1.31-2.45-2.299c-1.243-2.433-1.647-5.311-1.712-8.011
						c-0.076-3.202,0.345-6.39,0.788-9.553c0.088-0.629-0.875-0.902-0.964-0.266c-0.45,3.215-0.893,6.454-0.826,9.708
						c0.061,2.964,0.511,6.144,1.935,8.787c0.581,1.079,1.436,2.105,2.631,2.507c1.19,0.4,2.445,0.007,3.373-0.786
						C156.434,237.625,155.745,234.04,155.131,231.314z"/>
					<path style="fill:#F7D049;" d="M151.771,206.885c-0.023-0.057-0.044-0.117-0.076-0.17c-0.032-0.054-0.074-0.103-0.113-0.151
						c-0.057-0.069-0.133-0.125-0.207-0.174c-0.023-0.015-0.046-0.028-0.071-0.04c-0.059-0.027-0.119-0.055-0.182-0.074
						c-0.064-0.019-0.132-0.024-0.198-0.032c-0.025-0.003-0.05-0.005-0.075-0.004c-0.067,0.003-0.137,0.012-0.202,0.028
						c-0.065,0.016-0.127,0.047-0.187,0.074c-0.026,0.014-0.041,0.039-0.063,0.057c-0.038,0.022-0.082,0.035-0.115,0.067
						c-0.064,0.05-0.115,0.122-0.159,0.187c-0.011,0.017-0.021,0.035-0.03,0.053c-0.026,0.055-0.053,0.113-0.071,0.172
						c-0.006,0.02-0.011,0.04-0.014,0.06c-0.01,0.063-0.021,0.126-0.024,0.19c-0.004,0.084,0.011,0.17,0.027,0.252
						c0.032,0.161,0.122,0.31,0.231,0.43c0.055,0.061,0.124,0.115,0.197,0.154c0.053,0.028,0.11,0.052,0.166,0.071
						c0.022,0.008,0.044,0.013,0.068,0.017c0.061,0.01,0.125,0.022,0.188,0.022c0.066,0,0.133-0.012,0.198-0.023
						c0.085-0.014,0.164-0.051,0.241-0.086c0.078-0.035,0.145-0.091,0.21-0.145c0.065-0.054,0.117-0.124,0.165-0.193
						c0.048-0.069,0.081-0.151,0.106-0.231c0.007-0.021,0.011-0.042,0.014-0.064c0.01-0.064,0.023-0.13,0.02-0.195
						C151.813,207.056,151.803,206.965,151.771,206.885z"/>
					<path style="fill:#F7D049;" d="M153.453,210.535c-0.006-0.061-0.012-0.125-0.027-0.185c-0.015-0.06-0.044-0.117-0.068-0.173
						c-0.009-0.021-0.019-0.041-0.032-0.061c-0.044-0.069-0.095-0.14-0.158-0.193c-0.046-0.039-0.095-0.079-0.147-0.112
						c-0.052-0.033-0.113-0.054-0.169-0.076c-0.021-0.008-0.042-0.015-0.065-0.019c-0.063-0.011-0.129-0.023-0.193-0.022
						c-0.05,0.001-0.1,0.015-0.149,0.031c-0.031,0.003-0.062-0.004-0.091,0.007c-0.055,0.02-0.11,0.041-0.161,0.069
						c-0.034,0.018-0.064,0.044-0.094,0.067c-0.029,0.023-0.06,0.044-0.086,0.071c-0.04,0.042-0.075,0.091-0.109,0.138
						c-0.045,0.061-0.073,0.139-0.099,0.208c-0.028,0.074-0.034,0.154-0.043,0.232c-0.009,0.077,0.007,0.154,0.018,0.23
						c0.011,0.076,0.045,0.147,0.077,0.216c0.007,0.016,0.015,0.031,0.025,0.045c0.032,0.049,0.069,0.097,0.109,0.14
						c0.051,0.055,0.114,0.103,0.181,0.138c0.066,0.035,0.138,0.068,0.213,0.083c0.057,0.011,0.116,0.019,0.174,0.023
						c0.018,0.002,0.037,0.002,0.055,0.001c0.059-0.003,0.12-0.013,0.178-0.023c0.018-0.003,0.036-0.007,0.054-0.013
						c0.055-0.017,0.109-0.042,0.162-0.066c0.017-0.008,0.033-0.016,0.049-0.025c0.048-0.03,0.091-0.067,0.135-0.102
						c0.015-0.012,0.029-0.025,0.042-0.04c0.038-0.043,0.074-0.089,0.105-0.136c0.01-0.016,0.019-0.032,0.026-0.049
						c0.023-0.052,0.051-0.106,0.065-0.163c0.015-0.06,0.022-0.123,0.026-0.185C153.455,210.573,153.455,210.554,153.453,210.535z"
						/>
					<path style="fill:#F7D049;" d="M153.936,214.671c-0.024-0.063-0.051-0.132-0.086-0.192c-0.034-0.058-0.079-0.111-0.121-0.164
						c-0.063-0.078-0.146-0.141-0.229-0.196c-0.081-0.054-0.177-0.095-0.271-0.118c-0.067-0.016-0.138-0.025-0.206-0.029
						c-0.074-0.005-0.147,0.012-0.22,0.021c-0.037,0.009-0.065,0.033-0.097,0.051c-0.069,0.006-0.137,0.025-0.197,0.063
						c-0.143,0.089-0.275,0.218-0.347,0.373c-0.036,0.077-0.074,0.159-0.089,0.244c-0.015,0.085-0.031,0.176-0.025,0.264
						c0.011,0.172,0.05,0.347,0.146,0.493c0.046,0.071,0.1,0.143,0.165,0.197c0.109,0.091,0.192,0.139,0.326,0.189
						c0.082,0.031,0.174,0.04,0.26,0.046c0.088,0.007,0.18-0.01,0.265-0.025c0.086-0.016,0.168-0.054,0.246-0.09
						c0.08-0.036,0.147-0.091,0.215-0.146c0.066-0.054,0.116-0.122,0.166-0.191c0.05-0.07,0.084-0.155,0.111-0.235
						c0.008-0.025,0.013-0.05,0.017-0.076c0.01-0.066,0.024-0.134,0.021-0.202C153.981,214.858,153.968,214.758,153.936,214.671z"/>
				</g>
			</g>
			<g>
				<path style="opacity:0.5;fill:#F6BAB9;" d="M117.534,226.108c0.159-0.743,0.577-1.412,0.902-2.092
					c0.369-0.773,0.655-1.582,0.875-2.407c0.443-1.658,0.558-3.356,0.402-5.04c-0.043-0.462,0.432-0.862,0.848-0.877
					c0.492-0.019,0.78,0.378,0.822,0.834c0.262,2.826-0.275,5.717-1.517,8.317c-0.479,1.001-1.239,2.127-0.137,2.926
					c1.102,0.799,2.633,0.244,3.827-0.138c1.039-0.332,1.457,1.307,0.42,1.639c-1.555,0.498-3.239,0.942-4.747,0.21
					C117.98,228.872,117.226,227.552,117.534,226.108z"/>
				<path style="fill:#0E0900;" d="M133.637,212.434c-0.305-0.084-0.583,0.07-0.696,0.358c-0.004,0.009-0.007,0.019-0.012,0.028
					c-0.022,0.039-0.044,0.079-0.069,0.117c-0.012,0.018-0.024,0.036-0.037,0.053c-0.002,0.003-0.007,0.009-0.012,0.015
					c0,0-0.001,0.001-0.001,0.001c-0.015,0.016-0.03,0.032-0.045,0.047c-0.035,0.034-0.071,0.067-0.109,0.097
					c-0.005,0.003-0.009,0.007-0.014,0.01c-0.003,0.001,0.002-0.002-0.001,0c-0.037,0.022-0.074,0.045-0.113,0.064
					c-0.019,0.01-0.039,0.019-0.059,0.028c-0.001,0.001-0.005,0.002-0.007,0.003c-0.025,0.007-0.074,0.023-0.09,0.027
					c-0.042,0.01-0.085,0.018-0.129,0.024c-0.011,0.001-0.022,0.001-0.029,0.001c-0.051,0.001-0.103-0.001-0.154-0.006
					c-0.017-0.002-0.034-0.004-0.05-0.006c-0.036-0.012-0.076-0.018-0.11-0.029c-0.014-0.005-0.028-0.01-0.042-0.015
					c-0.379-0.558-0.906-0.886-1.48-0.821c-1.056,0.12-1.85,1.495-1.774,3.071c0.076,1.577,0.993,2.758,2.048,2.638
					c1.056-0.12,1.85-1.494,1.774-3.07c-0.011-0.235-0.047-0.457-0.093-0.672c0.167-0.015,0.333-0.045,0.494-0.104
					c0.546-0.2,0.955-0.625,1.167-1.163C134.101,212.861,133.912,212.51,133.637,212.434z"/>
				<path style="fill:#0E0900;" d="M113.933,215.403c-0.631,0.072-1.164,0.597-1.478,1.34c-0.013-0.001-0.027-0.001-0.041-0.002
					c-0.037-0.01-0.073-0.022-0.109-0.035c-0.034-0.019-0.066-0.04-0.098-0.062c-0.035-0.034-0.068-0.069-0.099-0.107
					c-0.018-0.031-0.038-0.061-0.053-0.094c-0.12-0.264-0.501-0.375-0.748-0.23c-0.272,0.159-0.359,0.466-0.23,0.748
					c0.109,0.24,0.288,0.434,0.494,0.594c0.18,0.139,0.392,0.214,0.612,0.261c-0.023,0.214-0.035,0.434-0.024,0.659
					c0.075,1.577,0.993,2.758,2.048,2.638c1.056-0.12,1.85-1.494,1.774-3.071C115.905,216.465,114.988,215.284,113.933,215.403z"/>
				<g>
					<path style="fill:#0E0900;" d="M113.347,207.238c-0.399-0.108-0.77-0.028-1.107,0.084c-2.238,0.743-3.552,3.05-3.375,5.721
						c0.072-0.383,0.178-0.748,0.379-1.051c0.012-0.018,0.028-0.028,0.04-0.044c0.104-0.198,0.226-0.381,0.373-0.538
						c0.538-0.58,1.295-0.905,2.052-1.195c0.757-0.29,1.538-0.561,2.154-1.055c0.297-0.239,0.567-0.598,0.432-1.058
						C114.173,207.687,113.745,207.346,113.347,207.238z"/>
				</g>
				<g>
					<path style="fill:#0E0900;" d="M127.452,203.938c0.287-0.321,0.64-0.468,0.981-0.568c2.26-0.659,4.487,0.544,5.622,2.916
						c-0.245-0.285-0.511-0.533-0.828-0.674c-0.019-0.008-0.037-0.008-0.056-0.015c-0.183-0.108-0.376-0.193-0.576-0.242
						c-0.737-0.183-1.536-0.022-2.319,0.168c-0.784,0.19-1.577,0.41-2.339,0.346c-0.368-0.031-0.77-0.181-0.876-0.65
						C126.966,204.797,127.165,204.259,127.452,203.938z"/>
				</g>
				<path style="opacity:0.5;fill:#F6BAB9;" d="M131.678,228.84c-2.132,2.786-5.669,4.308-9.151,4.035
					c-0.998-0.078-1.074,1.472-0.079,1.55c4.061,0.318,8.073-1.528,10.539-4.751C133.595,228.88,132.282,228.052,131.678,228.84z"/>
			</g>
		</g>
		<path style="fill:#F26188;" d="M69.644,265.365c-0.575,1.59-0.883,2.571-0.883,2.571h48.087v-23.614l-14.065-0.789
			C88.133,242.712,74.635,251.568,69.644,265.365z"/>
		<g>
			<g>
				<path style="fill:#0E0900;" d="M100.488,319.196c3.232,1.424,5.894,3.981,7.762,6.979c1.868,2.997,2.978,6.421,3.593,9.899
					c1.157,6.541,0.61,13.249,0.06,19.869c-0.134,1.607-0.368,3.408-1.646,4.392c-1.64,1.263-4.216,0.352-5.359-1.374
					c-1.143-1.726-1.204-3.938-1.058-6.003c0.4-5.671,2.036-11.53,0.187-16.905c-1.41-4.101-4.654-7.266-7.841-10.207
					c-3.188-2.941-6.525-5.956-8.229-9.944L100.488,319.196z"/>
			</g>
			<g>
				<g>
					<path style="fill:#0E0900;" d="M99.47,268.175c0.393,2.119,2.048,3.954,4.114,4.57c1.033,0.308,2.158,0.326,3.145,0.773
						c1.754,0.78,2.679,2.665,3.73,4.283c0.853,1.317,1.925,2.576,3.365,3.206c0.72,0.309,1.544,0.433,2.308,0.325
						c0.405-0.06,0.787-0.166,1.146-0.353c0.139-0.07,0.277-0.152,0.405-0.245c0.185-0.128,0.346-0.28,0.496-0.443
						c0.403-0.454,0.644-1.023,0.757-1.615c0.079-0.406,0.089-0.835,0.052-1.252c-0.109-1.02-0.508-1.98-0.988-2.893
						c-1.533-2.96-3.863-5.499-6.665-7.34c-1.105-0.713-1.979-1.718-2.599-2.885c-0.105-0.197-0.21-0.382-0.339-0.566
						c-0.747-1.156-1.899-2.112-3.268-2.326c-1.218-0.18-2.491,0.255-3.473,1.014C99.958,263.745,99.077,266.055,99.47,268.175z"/>
				</g>
				<path style="fill:#FFFFFF;" d="M117.458,277.651c0.433,0.948,0.508,2.049,0.223,3.082c0.185-0.128,0.346-0.28,0.496-0.443
					c0.403-0.454,0.644-1.023,0.757-1.615c-0.072-0.556-0.237-1.1-0.483-1.62c-0.129-0.289-0.547-0.345-0.789-0.205
					C117.374,277.026,117.33,277.362,117.458,277.651z"/>
				<path style="fill:#FFFFFF;" d="M115.455,278.055c0.469,1.029,0.683,2.153,0.676,3.277c0.405-0.06,0.787-0.166,1.146-0.353
					c-0.041-1.217-0.325-2.409-0.817-3.52c-0.129-0.289-0.546-0.345-0.801-0.205C115.371,277.429,115.338,277.766,115.455,278.055z"
					/>
			</g>
			<g>
				<path style="fill:#FFFFFF;" d="M86.113,260.539c3.083-9.959,9.269-19.304,18.395-24.343c3.47-1.916,7.472-3.193,11.386-2.568
					c3.914,0.625,7.63,3.522,8.298,7.429c0.548,3.2-1.352,6.479-4.129,8.073c-3.245,1.862-5.971,4.502-7.525,7.906
					c-1.933,4.235-3.879,9.59-3.645,13.6c0.452,7.749,3.023,15.198,5.598,22.521c2.574,7.323,5.199,14.745,5.765,22.487
					c0.242,3.309,0.053,6.816-1.682,9.644c-2.819,4.595-9.072,6.084-14.333,4.904c-7.733-1.734-13.783-8.143-16.952-15.408
					c-3.169-7.264-3.868-15.344-4.158-23.264C82.75,281.101,83.03,270.497,86.113,260.539z"/>
			</g>
			<g>
				<g>
					<path style="fill:#FFFFFF;" d="M106.021,245.811c0.446,1.215,1.378,2.23,2.471,2.932c1.093,0.713,2.347,1.125,3.623,1.397
						c3.33,0.703,6.875,0.373,10.01-0.941c1.296-0.528,2.556-1.264,3.408-2.358c0.864-1.105,1.262-2.637,0.746-3.945
						c0,0-1.322-2.567-2.758-4.577c-0.467-0.647-0.945-1.236-1.399-1.662c-1.362-1.303-3.048-2.304-4.859-2.817
						c-0.638-0.182-1.3-0.295-1.961-0.35c-2.551-0.185-5.213,0.709-6.966,2.572c-1.499,1.595-2.265,3.778-2.568,5.947
						C105.591,243.275,105.563,244.608,106.021,245.811z"/>
				</g>
				<g>
					<path style="fill:#0E0900;" d="M112.377,244.285c0.711,0.912,1.862,1.579,2.985,1.342c0.811-0.166,1.468-0.761,1.999-1.401
						c1.014-1.21,1.761-2.628,2.787-3.827c0.876-1.024,2.066-1.911,3.375-2.079c-0.467-0.647-0.945-1.236-1.399-1.662
						c-1.362-1.303-3.048-2.304-4.859-2.817c-0.451,0.118-0.891,0.294-1.307,0.482c-1.839,0.867-3.443,2.323-4.222,4.193
						C110.967,240.397,111.129,242.692,112.377,244.285z"/>
				</g>
				<g>
					<path style="fill:#FFFFFF;" d="M117.516,240.847c-0.039-0.208-0.15-0.397-0.27-0.568c-0.267-0.38-0.589-0.7-0.972-0.962
						c-0.34-0.233-0.782-0.474-1.208-0.444c-0.3,0.021-0.58,0.159-0.728,0.432c-0.163,0.301-0.105,0.631,0.025,0.929
						c0.164,0.376,0.453,0.717,0.773,0.97c0.105,0.083,0.224,0.146,0.337,0.216c0.378,0.317,0.835,0.513,1.331,0.563
						c0.213,0.021,0.411-0.159,0.473-0.363C117.495,241.429,117.57,241.133,117.516,240.847z"/>
					<path style="fill:#FFFFFF;" d="M121.432,237.252c-0.039-0.208-0.15-0.397-0.27-0.568c-0.267-0.38-0.589-0.7-0.972-0.962
						c-0.34-0.233-0.782-0.474-1.208-0.444c-0.3,0.021-0.58,0.159-0.728,0.432c-0.163,0.301-0.105,0.631,0.025,0.929
						c0.164,0.376,0.453,0.717,0.773,0.97c0.105,0.083,0.224,0.146,0.337,0.216c0.378,0.317,0.835,0.513,1.331,0.563
						c0.213,0.021,0.411-0.159,0.473-0.363C121.41,237.834,121.486,237.538,121.432,237.252z"/>
				</g>
				<g>
					<path style="fill:#0E0900;" d="M123.665,242.122c0.829-0.478,1.94-0.514,2.711,0.051c0.414,0.303,0.719,0.805,0.649,1.313
						c-0.047,0.345-0.291,0.633-0.596,0.796c-0.286,0.389-0.783,0.634-1.276,0.642c-0.667,0.011-1.299-0.336-1.782-0.797
						c-0.239-0.229-0.46-0.51-0.488-0.841C122.841,242.794,123.237,242.368,123.665,242.122z"/>
				</g>
				<g>
					<g>
						<path style="fill:#0E0900;" d="M102.517,237.296c0.263-1.06,0.926-2.07,1.927-2.508c0.652-0.285,1.407-0.306,2.09-0.105
							c0.683,0.201,1.295,0.615,1.773,1.142c0.326,0.358,0.604,0.808,0.573,1.291l0.41,0.728c-0.212,0.935-0.663,1.827-1.355,2.491
							c-0.692,0.663-1.633,1.084-2.591,1.073c-0.959-0.011-1.919-0.479-2.453-1.275C102.343,239.316,102.28,238.249,102.517,237.296
							z"/>
					</g>
					<g>
						<path style="fill:#EFA691;" d="M104.251,237.414c0.141-0.569,0.497-1.111,1.034-1.346c0.35-0.153,0.755-0.164,1.122-0.057
							c0.367,0.108,0.695,0.33,0.952,0.613c0.175,0.192,0.324,0.434,0.308,0.693l0.22,0.391c-0.114,0.502-0.356,0.98-0.727,1.337
							c-0.371,0.356-0.876,0.582-1.39,0.576c-0.515-0.006-1.03-0.257-1.317-0.684C104.158,238.498,104.124,237.925,104.251,237.414z
							"/>
					</g>
				</g>
			</g>
			<g>
				<path style="fill:#0E0900;" d="M106.778,309.231c0.692-1.216,4.956-6.817,6.545-8.257c1.137-1.031,2.71-2.015,4.259-1.592
					c0.893,0.244,1.548,0.907,2.154,1.54c2.377,2.483,4.753,4.966,7.13,7.448c1.654,1.728,3.308,3.456,4.9,5.229
					c1.165,1.298,2.364,2.898,1.85,4.497c-0.461,1.434-2.249,2.292-3.922,2.25c-1.673-0.042-3.22-0.804-4.547-1.711
					c-2.88-1.97-5.064-4.736-6.172-7.818c0.047,1.697-0.771,3.386-2.135,4.574c-1.364,1.187-3.245,1.872-5.149,1.947
					c-2.154,0.085-4.484-0.726-5.488-2.425C105.17,313.165,105.774,310.996,106.778,309.231z"/>
			</g>
			<path style="fill:#0E0900;" d="M125.49,244.066c-0.021-0.269-0.215-0.5-0.5-0.5c-0.254,0-0.521,0.229-0.5,0.5
				c0.072,0.913-0.305,1.848-1.051,2.4c-0.768,0.568-1.858,0.67-2.718,0.254c-0.243-0.118-0.54-0.066-0.684,0.179
				c-0.128,0.219-0.065,0.566,0.179,0.684c1.174,0.569,2.65,0.521,3.728-0.254C124.972,246.59,125.59,245.338,125.49,244.066z"/>
		</g>
		<g>
			<path style="fill:#F6BAB9;" d="M143.533,323.212c0,0.02-0.01,0.05-0.02,0.07l-19.56-7.22l-13.15-4.86l-6.85-2.53
				c-3.65-11.17-10.4-14.69-13.13-15.68c-0.79-0.29-1.51-0.77-2.06-1.41c-0.91-1.05-1.66-1.74-2.28-2.2
				c-1.4-1.02-3.98,0.81-2.71,1.99c2.34,2.17,7.42,7.47,6.92,8.41l-7.9-6.71c-0.48-0.36-0.82-0.87-0.95-1.46
				c-1.28-5.51-3.7-4.82-3.7-4.82c-1.01,1.01-0.71,3.12-0.71,3.12l-0.6,1.92c-0.71,3.93,5.14,8.67,5.14,8.67
				c4.03,7.46,16.03,15.42,16.03,15.42c2.23,2.96,5.05,6.09,8.25,9.26c4.15,4.13,8.93,8.32,13.85,12.3
				c14.69,11.87,26.43,11.37,35.34,4.71C153.763,334.552,149.463,327.892,143.533,323.212z"/>
			<path style="fill:#F6BAB9;" d="M84.999,299.725c-3.155-2.296-5.653-5.492-7.112-9.112c-0.289-0.716-1.465-0.403-1.172,0.323
				c1.589,3.94,4.235,7.338,7.671,9.838C85.019,301.236,85.626,300.182,84.999,299.725z"/>
			<path style="fill:#F26188;" d="M176.643,286.082c0,15.3-3.66,30.6-9.93,42.21c-3.05,5.66-6.8,10.56-11.27,13.9
				c-1.68-7.64-5.98-14.3-11.91-18.98c7.59-22.54,7.8-44.84,5.61-73.18C149.143,250.032,174.823,251.802,176.643,286.082z"/>
			<path style="fill:#F26188;" d="M149.442,279.439c-0.015,11.775-1.222,23.54-3.623,35.069c-0.672,3.227-1.438,6.434-2.291,9.617
				c-0.167,0.622,0.798,0.888,0.964,0.266c3.05-11.381,4.948-23.067,5.646-34.829c0.2-3.371,0.299-6.746,0.303-10.123
				C150.443,278.795,149.443,278.794,149.442,279.439z"/>
		</g>
		<g>
			<path style="fill:#F6BAB9;" d="M68.368,270.767c0.002,0.811,0.053,1.658,0.165,2.535c0.581,4.544,3.99,8.232,8.448,9.289
				c10.418,2.47,33.009,5.389,56.591-7.193l1.895-9.684l-57.227-5.641l0,0C72.728,260.647,68.354,265.225,68.368,270.767z"/>
			<g>
				<path style="fill:#F6BAB9;" d="M141.152,288.504c0,0-5.525,0.36-7.722,2.425c-1.079,1.014-0.242,2.777,1.231,2.617
					c1.04-0.113,2.546-0.508,4.677-1.514L141.152,288.504z"/>
				<path style="fill:#F6BAB9;" d="M141.633,291.532c-0.19,0.23-0.38,0.45-0.58,0.67c-1.35,1.51-2.84,2.86-4.44,3.86
					c0,0-0.02,0-0.06-0.01c-0.48-0.08-3.93-0.87,0.77-5.84l1.56-1.73C139.423,289.602,140.273,290.702,141.633,291.532z"/>
				<path style="fill:#F6BAB9;" d="M149.623,277.922l-0.01,0.04c-0.24,0.59-3.22,7.96-7.98,13.57c-1.36-0.83-2.21-1.93-2.75-3.05
					l3.37-3.72c0,0-0.3-3.82,0.71-5.63c0,0-5.7-2.61-6.85-6.72l-1.84-0.57h-0.01l1.2-6.13
					C135.463,265.712,144.783,266.422,149.623,277.922z"/>
				<path style="opacity:0.74;fill:#F6BAB9;" d="M133.573,275.402l0.7-3.56l1.84,0.57c1.15,4.11,6.85,6.72,6.85,6.72
					c-1.01,1.81-0.71,5.63-0.71,5.63l-3.37,3.72c-1.24-2.6-0.76-5.32-0.76-5.32C135.103,282.652,133.573,275.402,133.573,275.402z"
					/>
				<path style="fill:#F6BAB9;" d="M149.613,277.962l-2.72,13.87c-0.5,2.22-6.84,4.8-9.3,5.04c-0.56,0.06-0.98-0.35-1.04-0.82
					c-0.03-0.23,0.03-0.47,0.2-0.68c1.02-1.25,3.11-2.51,4.3-3.17c0.54-0.29,0.89-0.47,0.89-0.47c-0.11-0.06-0.21-0.12-0.31-0.2
					C146.393,285.922,149.373,278.552,149.613,277.962z"/>
			</g>
		</g>
		<g>
			<g>
				<path style="fill:#0E0900;" d="M136.737,184.978c-1.702-1.632-3.63-3.005-5.723-4.019c-5.729-2.775-12.45-2.521-18.207,0.17
					c-7.11,3.322-12.176,10.542-13.952,18.072c-0.232,0.983-0.411,1.978-0.536,2.979c-0.017,0.14-0.034,0.281-0.049,0.421
					c-0.247,2.251-0.241,4.534,0.059,6.78c0.081,0.61,0.183,1.217,0.307,1.82c0.195,0.949,0.437,1.887,0.727,2.811
					c0.117,0.371,1.155,2.479,1.014,2.721c4.186-7.219,11.502-12.548,19.657-14.318c8.154-1.771,17.022,0.045,23.825,4.877
					c-0.104-0.074,0.479-3.421,0.496-3.846c0.062-1.473-0.021-2.951-0.239-4.409C143.332,193.794,140.627,188.709,136.737,184.978z"
					/>
			</g>
		</g>
		<g>
			<g>
				<path style="fill:#0E0900;" d="M92.663,264.739c0.393,2.119,2.048,3.954,4.114,4.57c1.033,0.308,2.157,0.326,3.145,0.773
					c1.754,0.78,2.679,2.665,3.73,4.283c0.853,1.317,1.925,2.576,3.365,3.206c0.72,0.309,1.544,0.433,2.308,0.325
					c0.406-0.06,0.787-0.166,1.146-0.353c0.139-0.07,0.277-0.152,0.404-0.245c0.185-0.128,0.346-0.28,0.496-0.443
					c0.404-0.454,0.644-1.023,0.757-1.615c0.079-0.406,0.089-0.835,0.052-1.252c-0.109-1.02-0.508-1.98-0.988-2.893
					c-1.533-2.96-3.863-5.499-6.665-7.34c-1.105-0.713-1.979-1.718-2.599-2.885c-0.105-0.197-0.21-0.382-0.339-0.566
					c-0.747-1.156-1.9-2.112-3.268-2.326c-1.218-0.18-2.491,0.255-3.473,1.014C93.152,260.309,92.271,262.62,92.663,264.739z"/>
			</g>
			<path style="fill:#FFFFFF;" d="M110.652,274.216c0.433,0.948,0.508,2.049,0.223,3.082c0.185-0.128,0.346-0.28,0.496-0.443
				c0.404-0.454,0.644-1.023,0.757-1.615c-0.072-0.556-0.237-1.1-0.483-1.62c-0.129-0.289-0.546-0.345-0.789-0.205
				C110.568,273.59,110.523,273.927,110.652,274.216z"/>
			<path style="fill:#FFFFFF;" d="M108.649,274.62c0.469,1.029,0.683,2.153,0.676,3.277c0.406-0.06,0.788-0.166,1.146-0.353
				c-0.016-1.113-0.298-2.296-0.817-3.52c-0.124-0.292-0.546-0.345-0.801-0.205C108.565,273.994,108.532,274.33,108.649,274.62z"/>
		</g>
	</g>
	<rect x="36.127" y="362.597" style="fill:#0E0900;" width="677.746" height="1.63"/>
</g>
</svg>
