<?xml version="1.0" encoding="utf-8"?>
<!-- Generator: Adobe Illustrator 27.5.0, SVG Export Plug-In . SVG Version: 6.00 Build 0)  -->
<svg version="1.1" xmlns="http://www.w3.org/2000/svg" xmlns:xlink="http://www.w3.org/1999/xlink" x="0px" y="0px"
	 viewBox="0 0 750 500" style="enable-background:new 0 0 750 500;" xml:space="preserve">
<g id="BACKGROUND">
	<rect style="fill:#CDDBF3;" width="750" height="500"/>
</g>
<g id="OBJECTS">
	<g>
		<g>
			<g>
				<path style="fill:#B1C6E5;" d="M358.337,94.563c0-3.158-0.051-5.956,0.013-8.752c0.073-3.19,0.247-3.293,3.752-2.777
					c0,3.682,0,7.414,0,11.438c1.061,0,1.857,0,2.652,0c13.02-0.001,26.04-0.002,39.06-0.002c2.914,0,2.826,0.004,2.964,2.861
					c0.278,5.747,0.634,11.492,1.008,17.234c0.596,9.159,1.233,18.315,1.85,27.472c0.032,0.478-0.102,1.037,0.099,1.424
					c1.344,2.594-0.507,2.295-2.029,2.294c-9.313-0.002-18.626-0.041-27.938,0.025c-1.142,0.008-2.274,0.586-3.421,0.856
					c-0.718,0.169-1.452,0.328-2.186,0.367c-3.869,0.207-7.741,0.375-11.838,0.567c-0.035,0.75-0.097,1.471-0.098,2.191
					c-0.029,29.877-0.127,59.754-0.057,89.631c0.074,31.708,0.308,63.415,0.472,95.123c2.069,14.923,0.582,29.92,0.862,44.88
					c0.281,15.002,0.059,30.014,0.062,45.021c0,0.536,0.052,1.072,0.093,1.866c0.806,0,1.535,0,2.263,0
					c8.566,0.001,17.132,0.009,25.698-0.006c1.151-0.002,2.171,0.004,1.784,1.017c-1.1,0.901-1.701,1.499-2.405,1.93
					c-0.425,0.259-1.009,0.358-1.522,0.358c-19.389,0-38.778-0.017-58.168-0.041c-1.521-0.002-3.841-1.833-3.87-3.181
					c9.768,0,19.534,0,29.54,0c0.043-0.89,0.108-1.61,0.108-2.329c0.004-12.195-0.005-24.391,0-36.586
					c0.007-16.301-0.577-32.63,0.168-48.897c1.283-28.025,0.328-56.039,0.584-84.055c0.32-34.921,0.328-69.844,0.471-104.767
					c0.003-0.669,0-1.339,0-2.246c-1.387,0-2.601,0.032-3.812-0.009c-1.145-0.039-2.493,0.466-3.011-1.313
					c-0.091-0.311-1.336-0.398-2.048-0.399c-12.198-0.023-24.396-0.016-36.593-0.017c-2.509,0-2.361,0.019-2.047-2.424
					c0.411-3.188,0.598-6.408,0.812-9.619c0.767-11.481,1.516-22.964,2.241-34.448c0.094-1.483,0.013-2.976,0.013-4.686
					C328.63,94.563,343.319,94.563,358.337,94.563z"/>
			</g>
			<g>
				<g>
					<rect x="423.989" y="60.505" style="fill:#B1C6E5;" width="270.692" height="5.471"/>
				</g>
				<g>
					<rect x="423.989" y="88.002" style="fill:#B1C6E5;" width="270.692" height="6.321"/>
				</g>
				<g>
					<rect x="423.989" y="102.175" style="fill:#B1C6E5;" width="270.692" height="6.321"/>
				</g>
				<g>
					<rect x="423.989" y="73.829" style="fill:#B1C6E5;" width="270.692" height="6.321"/>
				</g>
				<g>
					<rect x="423.989" y="116.349" style="fill:#B1C6E5;" width="270.692" height="6.321"/>
				</g>
				<g>
					<rect x="423.989" y="130.522" style="fill:#B1C6E5;" width="270.692" height="200.676"/>
				</g>
			</g>
			<g>
				<g>
					<path style="fill:#B1C6E5;" d="M87.922,256.905c-9.334-10.146-18.615-20.339-27.856-30.57c-0.853,0.804-1.547,1.742-2.055,2.81
						c-0.094,0.196,0.023,0.363,0.179,0.424c-1.248,2.889-2.423,5.872-2.777,9.008c-0.4,3.543,0.484,6.854,2.603,9.724
						c2.293,3.104,5.421,5.443,7.973,8.313c1.861,2.094,3.075,4.381,3.638,6.935c11.821,4.454,23.776,8.562,35.834,12.329
						C99.602,269.565,93.753,263.243,87.922,256.905z"/>
				</g>
				<g>
					<path style="fill:#B1C6E5;" d="M87.339,253.897c-0.119-2.207-0.3-4.411-0.576-6.604c-0.564-4.487-1.438-8.931-2.46-13.335
						c-1.737-2.6-3.728-5.057-6.18-7.001c-4.727-3.747-11.867-5.186-17.025-1.464c0.024,0.025,0.047,0.051,0.071,0.077
						C69.941,234.966,78.621,244.449,87.339,253.897z"/>
				</g>
				<g>
					<path style="fill:#B1C6E5;" d="M88.907,255.594c1.339,1.45,2.676,2.902,4.019,4.349c9.457,10.197,18.933,20.376,28.436,30.53
						c-0.271-2.98-0.452-5.969-0.684-8.951c-0.496-6.382-1.124-12.755-1.854-19.115c-0.184-1.6-0.4-3.197-0.6-4.795
						c-1.263-0.72-2.565-1.372-3.887-1.967c-3.486-1.57-7.122-2.695-10.753-3.872c-3.811-1.235-7.711-2.664-10.763-5.35
						c-2.577-2.268-4.249-5.278-5.937-8.237c1.138,5.703,1.932,11.466,2.042,17.296C88.928,255.524,88.912,255.555,88.907,255.594z"
						/>
				</g>
				<g>
					<path style="fill:#B1C6E5;" d="M155.304,326.505c0.599,0.631,1.195,1.265,1.794,1.897c7.841,8.266,15.708,16.507,23.588,24.736
						c0.129-0.009,0.258-0.02,0.386-0.029c0.639-0.045,0.842,0.624,0.591,1.048c2.587,2.701,5.169,5.406,7.761,8.103
						c0.273,0.284,0.547,0.567,0.82,0.851c-0.653-1.855-1.303-3.732-1.488-5.7c-0.18-1.918,0.103-3.83,0.405-5.721
						c0.554-3.459,0.962-6.824-0.35-10.175c-2.853-7.284-10.394-11.468-13.334-18.728c-1.508-3.722-1.951-7.752-3.043-11.596
						c-1.032-3.636-2.813-6.878-5.462-9.587c-3.187-3.26-7.113-5.566-11.221-7.534c0.316,5.349,0.635,10.698,0.931,16.048
						C156.984,315.552,157.714,321.418,155.304,326.505z"/>
				</g>
				<g>
					<path style="fill:#B1C6E5;" d="M122.738,291.946c0.749,0.8,1.494,1.602,2.244,2.401c9.735,10.384,19.502,20.737,29.292,31.068
						c0.983-2.646,1.178-5.501,1.12-8.306c-0.061-2.926-0.317-5.851-0.507-8.77c-0.207-3.195-0.404-6.391-0.6-9.587
						c-0.113-1.841-0.226-3.681-0.338-5.522c-2.388-1.083-4.809-2.085-7.159-3.118c-3.914-1.72-7.704-3.743-10.316-7.236
						c-2.562-3.425-3.979-7.513-5.733-11.371c-1.629-3.581-3.629-6.881-6.533-9.575c-1.278-1.186-2.67-2.235-4.129-3.184
						c0.582,4.751,1.091,9.51,1.51,14.278C122.141,279.302,122.74,285.639,122.738,291.946z"/>
				</g>
				<g>
					<path style="fill:#B1C6E5;" d="M178.432,353.304c-8.944-9.35-17.869-18.717-26.763-28.115
						c-4.402-4.651-8.793-9.313-13.181-13.976c-4.75-0.268-9.491-0.739-14.217-1.272c-8.655-0.975-17.282-2.168-25.878-3.569
						c1.284,1.145,2.455,2.409,3.432,3.84c2.452,3.591,3.127,7.852,4.016,12.015c0.738,3.456,1.795,6.773,3.804,9.712
						c1.633,2.389,3.725,4.434,6.019,6.184c8.934,6.813,20.571,9.543,29.292,16.605c5.758,0.093,11.519-0.01,17.271-0.302
						C167.636,354.151,173.033,353.707,178.432,353.304z"/>
				</g>
				<g>
					<path style="fill:#B1C6E5;" d="M137.148,309.793c-5.809-6.177-11.608-12.362-17.395-18.559
						c-4.201-4.499-8.392-9.008-12.582-13.519c-0.079,0.01-0.166,0.006-0.262-0.022c-4.113-1.208-8.217-2.449-12.299-3.759
						c-7.248-2.327-14.447-4.8-21.595-7.419c-1.038-0.38-2.065-0.785-3.101-1.171c0.052,0.542,0.083,1.092,0.079,1.658
						c-0.023,3.475-0.776,6.897-0.899,10.366c-0.13,3.687,0.697,7.2,2.771,10.286c4.723,7.027,13.018,10.117,20.055,14.187
						c1.253,0.724,2.494,1.501,3.689,2.342c5.825,0.987,11.666,1.888,17.52,2.69C121.123,307.967,129.142,308.815,137.148,309.793z"
						/>
				</g>
				<g>
					<path style="fill:#B1C6E5;" d="M179.711,354.642c-3.101,0.341-6.206,0.646-9.316,0.891c-6.238,0.492-12.487,0.846-18.745,0.919
						c-1.571,0.019-3.142,0.022-4.713,0.01c0.262,0.248,0.532,0.483,0.787,0.741c1.088,1.102,2.077,2.3,2.937,3.588
						c1.068,1.6,1.802,3.368,2.755,5.032c1.863,3.252,4.877,4.709,8.439,5.433c3.786,0.77,7.527,1.149,11.146,2.611
						c3.683,1.488,7.054,3.66,9.962,6.363c1.272,1.182,2.439,2.479,3.527,3.834c-0.018,0.095,0.002,0.197,0.093,0.283
						c0.348,0.33,0.684,0.67,1.027,1.005c0.293,0.287,0.575,0.607,0.924,0.828c0.339,0.214,0.751,0.269,1.114,0.078
						c0.376-0.197,0.563-0.579,0.679-0.971c0.119-0.403,0.166-0.834,0.236-1.248c0.067-0.404,0.121-0.809,0.166-1.216
						c0.979-2.778,1.521-5.714,1.586-8.656c0.056-2.51-0.297-4.926-0.909-7.304c-2.484-2.593-4.966-5.186-7.45-7.778
						C182.539,357.607,181.127,356.122,179.711,354.642z"/>
				</g>
			</g>
			<g>
				<g>
					<path style="fill:#B1C6E5;" d="M305.378,212.755c5.181-12.776,10.427-25.524,15.724-38.252
						c-1.091-0.428-2.236-0.654-3.419-0.657c-0.217-0.001-0.318,0.176-0.307,0.343c-3.145,0.107-6.345,0.32-9.33,1.341
						c-3.374,1.153-5.989,3.368-7.677,6.51c-1.825,3.4-2.603,7.228-4.106,10.762c-1.097,2.578-2.645,4.653-4.713,6.254
						c1.028,12.591,2.426,25.154,4.177,37.665C298.928,228.727,302.142,220.736,305.378,212.755z"/>
				</g>
				<g>
					<path style="fill:#B1C6E5;" d="M307.848,210.943c1.944-1.051,3.86-2.157,5.724-3.344c3.815-2.429,7.458-5.119,11.003-7.926
						c1.608-2.682,2.977-5.533,3.686-8.58c1.366-5.875-0.386-12.944-5.956-16.016c-0.013,0.033-0.026,0.064-0.039,0.097
						C317.523,187.121,312.661,199.022,307.848,210.943z"/>
				</g>
				<g>
					<path style="fill:#B1C6E5;" d="M306.985,213.085c-0.738,1.831-1.479,3.66-2.214,5.493
						c-5.174,12.909-10.324,25.827-15.44,38.759c2.578-1.518,5.203-2.96,7.799-4.445c5.557-3.178,11.05-6.47,16.487-9.849
						c1.368-0.85,2.719-1.728,4.078-2.592c0.111-1.45,0.143-2.906,0.116-4.355c-0.071-3.823-0.609-7.591-1.098-11.376
						c-0.513-3.973-0.889-8.109,0.234-12.017c0.948-3.3,2.954-6.098,4.908-8.889c-4.668,3.467-9.539,6.648-14.762,9.241
						C307.056,213.074,307.022,213.073,306.985,213.085z"/>
				</g>
				<g>
					<path style="fill:#B1C6E5;" d="M271.272,303.427c-0.315,0.811-0.633,1.621-0.947,2.433c-4.119,10.623-8.205,21.258-12.274,31.9
						c0.063,0.112,0.128,0.224,0.191,0.337c0.314,0.558-0.204,1.027-0.695,0.982c-1.335,3.494-2.677,6.985-4.007,10.48
						c-0.14,0.368-0.279,0.737-0.419,1.105c1.398-1.384,2.817-2.774,4.517-3.783c1.657-0.983,3.507-1.544,5.345-2.08
						c3.364-0.979,6.58-2.048,9.048-4.667c5.365-5.694,5.923-14.299,11.228-20.061c2.72-2.954,6.173-5.079,9.181-7.709
						c2.845-2.487,5.014-5.484,6.331-9.037c1.584-4.275,1.99-8.809,2.013-13.365c-4.7,2.573-9.399,5.148-14.109,7.703
						C281.892,300.262,276.901,303.43,271.272,303.427z"/>
				</g>
				<g>
					<path style="fill:#B1C6E5;" d="M288.589,259.211c-0.403,1.019-0.809,2.036-1.212,3.055
						c-5.224,13.24-10.407,26.496-15.56,39.763c2.812-0.242,5.477-1.288,7.987-2.539c2.619-1.306,5.153-2.789,7.712-4.208
						c2.8-1.553,5.605-3.098,8.41-4.641c1.616-0.889,3.231-1.778,4.847-2.667c-0.042-2.621-0.172-5.238-0.243-7.805
						c-0.119-4.273,0.089-8.564,2.13-12.42c2.001-3.78,5.09-6.809,7.827-10.045c2.541-3.004,4.669-6.223,5.863-9.999
						c0.525-1.662,0.879-3.369,1.113-5.094c-4.046,2.557-8.131,5.052-12.261,7.47C299.763,253.265,294.291,256.516,288.589,259.211z
						"/>
				</g>
				<g>
					<path style="fill:#B1C6E5;" d="M256.935,335.793c4.628-12.083,9.28-24.156,13.972-36.214c2.322-5.968,4.659-11.93,6.998-17.891
						c-1.789-4.408-3.39-8.896-4.93-13.396c-2.819-8.24-5.429-16.549-7.839-24.919c-0.486,1.65-1.128,3.249-2.004,4.745
						c-2.197,3.752-5.76,6.184-9.144,8.768c-2.809,2.145-5.355,4.519-7.153,7.591c-1.461,2.498-2.415,5.263-3.016,8.085
						c-2.339,10.99,0.17,22.676-2.485,33.579c2.378,5.245,4.934,10.409,7.658,15.483
						C251.553,326.395,254.263,331.084,256.935,335.793z"/>
				</g>
				<g>
					<path style="fill:#B1C6E5;" d="M278.616,279.869c3.1-7.892,6.211-15.779,9.339-23.66c2.271-5.722,4.555-11.438,6.841-17.154
						c-0.043-0.067-0.076-0.147-0.092-0.246c-0.667-4.234-1.299-8.475-1.86-12.725c-0.995-7.547-1.839-15.112-2.527-22.693
						c-0.1-1.101-0.174-2.203-0.268-3.304c-0.467,0.278-0.952,0.542-1.465,0.781c-3.151,1.465-6.566,2.247-9.755,3.62
						c-3.388,1.458-6.211,3.708-8.113,6.903c-4.333,7.275-3.58,16.094-4.25,24.195c-0.119,1.442-0.291,2.896-0.54,4.336
						c1.599,5.688,3.281,11.353,5.06,16.987C273.415,264.602,276.078,272.213,278.616,279.869z"/>
				</g>
				<g>
					<path style="fill:#B1C6E5;" d="M256.272,337.521c-1.635-2.658-3.237-5.334-4.789-8.04c-3.112-5.428-6.104-10.926-8.846-16.552
						c-0.688-1.412-1.363-2.831-2.024-4.256c-0.112,0.343-0.209,0.687-0.333,1.028c-0.531,1.455-1.191,2.861-1.988,4.189
						c-0.989,1.65-2.274,3.07-3.371,4.643c-2.144,3.074-2.171,6.422-1.303,9.952c0.922,3.752,2.18,7.295,2.405,11.193
						c0.23,3.966-0.292,7.941-1.492,11.726c-0.525,1.655-1.198,3.265-1.958,4.827c-0.093,0.024-0.177,0.086-0.216,0.205
						c-0.149,0.455-0.313,0.905-0.469,1.358c-0.134,0.388-0.303,0.78-0.353,1.19c-0.048,0.397,0.078,0.794,0.406,1.041
						c0.339,0.256,0.764,0.261,1.168,0.199c0.415-0.065,0.825-0.206,1.229-0.321c0.394-0.112,0.783-0.237,1.17-0.37
						c2.93-0.302,5.816-1.068,8.503-2.267c2.293-1.023,4.326-2.375,6.214-3.945c1.282-3.354,2.565-6.707,3.845-10.06
						C254.802,341.345,255.54,339.434,256.272,337.521z"/>
				</g>
			</g>
			<path style="fill:#B1C6E5;" d="M183.592,69.886c-0.595-1.237-1.224-2.457-1.912-3.642c-0.815-1.405-1.687-2.777-2.612-4.112
				c-0.829-1.195-1.681-2.427-2.767-3.407c-2.002-1.807-5.238-2.721-7.421-0.664c-1.067,1.004-1.72,2.493-2.414,3.758
				c-0.788,1.435-1.547,2.886-2.271,4.355c-0.604,1.224-1.173,2.465-1.729,3.712h-43.93v63.756h119.862V69.886H183.592z
				 M164.889,68.74c1.26-2.682,2.604-5.326,4.063-7.905c0.614-1.087,1.291-2.13,2.637-2.285c1.253-0.145,2.467,0.399,3.408,1.192
				c1.012,0.853,1.797,1.94,2.558,3.013c0.831,1.171,1.619,2.373,2.363,3.6c0.701,1.156,1.359,2.336,1.991,3.531h-17.53
				C164.552,69.506,164.712,69.119,164.889,68.74z"/>
			<g>
				<path style="fill:#B1C6E5;" d="M719.441,433.589H30.559c-0.553,0-1-0.447-1-1s0.447-1,1-1h688.882c0.553,0,1,0.447,1,1
					S719.994,433.589,719.441,433.589z"/>
			</g>
		</g>
	</g>
	<g>
		<g>
			<path style="fill:#1A1A1A;" d="M715.979,298.319c-0.213-6.333-0.867-12.644-1.503-18.945c-0.602-5.962-1.282-11.933-2.547-17.796
				c-1.228-5.691-3.046-11.262-5.771-16.42c-2.472-4.679-5.628-8.979-9.181-12.893c-7.277-8.015-16.167-14.415-25.267-20.192
				c-9.604-6.097-19.583-11.614-28.819-18.279c-4.643-3.35-9.084-6.998-13.095-11.091c-4.31-4.399-7.948-9.348-11.537-14.337
				c-6.539-9.09-13.443-18.02-23.081-24.029c-8.599-5.361-18.996-7.794-28.939-5.135c-3.422,0.915-6.622,2.462-9.398,4.611
				c-0.202,0.044-1.634,2.671-1.454,2.509c-4.338,10.213-5.811,21.482-4.292,32.486c1.547,11.199,5.992,21.805,11.693,31.498
				c2.914,4.954,6.17,9.701,9.635,14.285c3.438,4.548,7.727,8.936,9.664,14.401c3.66,10.327-3.102,20.414-7.656,29.238
				c-2.542,4.925-4.743,9.986-5.592,15.502c-0.912,5.925-0.538,11.934,0.401,17.83c0.97,6.093,2.512,12.096,4.102,18.052
				c1.494,5.595,3.189,11.147,5.49,16.47c2.273,5.26,5.2,10.201,8.938,14.556c3.672,4.279,7.995,7.951,12.549,11.257
				c4.694,3.407,9.644,6.597,14.762,9.33c5.049,2.696,10.638,4.922,16.456,4.79c15.599-0.353,23.69-16.548,31.929-27.372
				c4.208-5.527,9.26-11.134,16.112-13.236c4.761-1.461,9.688-0.741,14.558-0.42c5.046,0.333,10.355,0.021,14.217-3.655
				c3.863-3.677,5.39-9.32,6.383-14.381C715.937,310.823,716.188,304.549,715.979,298.319z"/>
			<g>
				<g>
					<path style="fill:#E08C54;" d="M548.3,187.817c0,0-8.438-2.824-6.975,6.305c1.463,9.129,12.75,5.133,12.75,5.133L548.3,187.817
						z"/>
					<path style="fill:#1A1A1A;" d="M548.459,191.512c0.001,0,0.002,0,0.002,0c-0.009-0.012-0.023-0.018-0.033-0.03
						c-0.012-0.01-0.017-0.021-0.031-0.03c-0.171-0.111-0.26-0.47-0.357-0.647c-0.105-0.189-0.222-0.374-0.35-0.549
						c-0.248-0.337-0.552-0.648-0.906-0.874c-0.697-0.444-1.541-0.522-2.303-0.195c-0.841,0.361-1.462,1.112-1.801,1.947
						c-0.362,0.894-0.573,2.068-0.38,3.022c0.026,0.129,0.232,0.174,0.274,0.028c0.228-0.793,0.17-1.642,0.406-2.44
						c0.235-0.798,0.687-1.537,1.416-1.971c0.709-0.422,1.534-0.401,2.212,0.07c0.298,0.207,0.546,0.473,0.758,0.766
						c0.061,0.083,0.202,0.269,0.323,0.464c-0.723-0.126-1.539,0.324-1.675,1.117c-0.175,1.017,0.631,1.658,1.488,2.093
						c-0.283,0.291-0.43,0.748-0.291,1.177c0.415,1.285,2.108,1.421,3.008,2.222c0.148,0.132,0.382-0.075,0.295-0.242
						c-0.354-0.686-1.084-0.898-1.752-1.165c-0.42-0.168-0.881-0.4-1.059-0.847c-0.131-0.331,0.068-0.889,0.429-0.857
						c0.098,0.041,0.198,0.082,0.289,0.118c0.317,0.125,0.563-0.33,0.281-0.526c-0.023-0.016-0.046-0.019-0.07-0.033
						c0.001-0.001,0.001-0.002,0.002-0.003c-0.016-0.006-0.035-0.014-0.052-0.02c-0.085-0.045-0.17-0.083-0.253-0.1
						c-0.628-0.251-1.477-0.636-1.638-1.245c-0.083-0.315,0.08-0.699,0.368-0.863c0.323-0.184,0.651-0.065,0.942,0.11
						C548.345,192.214,548.702,191.771,548.459,191.512z"/>
				</g>
				<g>
					<path style="fill:#E08C54;" d="M601.975,170.353c0,0,5.161-7.248,9.35,0.994c4.189,8.242-7.289,11.652-7.289,11.652
						L601.975,170.353z"/>
					<path style="fill:#1A1A1A;" d="M604.02,173.435c-0.001,0-0.001,0.001-0.001,0.001c0-0.015,0.007-0.028,0.009-0.044
						c0.004-0.015,0.001-0.027,0.007-0.043c0.073-0.19-0.067-0.533-0.092-0.734c-0.026-0.215-0.041-0.433-0.04-0.65
						c0.002-0.418,0.064-0.849,0.218-1.239c0.302-0.769,0.939-1.329,1.748-1.513c0.893-0.203,1.837,0.039,2.602,0.515
						c0.819,0.509,1.68,1.335,2.086,2.219c0.055,0.12-0.085,0.278-0.205,0.184c-0.651-0.508-1.104-1.227-1.764-1.734
						c-0.66-0.507-1.46-0.839-2.305-0.761c-0.821,0.076-1.476,0.578-1.748,1.358c-0.119,0.342-0.163,0.704-0.163,1.065
						c0,0.103-0.005,0.337,0.012,0.565c0.51-0.527,1.435-0.643,2.011-0.082c0.74,0.72,0.466,1.712,0.028,2.568
						c0.4,0.069,0.788,0.352,0.928,0.781c0.42,1.283-0.868,2.39-1.125,3.567c-0.042,0.193-0.353,0.164-0.381-0.023
						c-0.117-0.763,0.349-1.364,0.731-1.973c0.241-0.383,0.478-0.842,0.358-1.308c-0.089-0.345-0.578-0.679-0.851-0.44
						c-0.055,0.09-0.112,0.182-0.164,0.265c-0.183,0.287-0.65,0.064-0.537-0.26c0.009-0.027,0.026-0.043,0.037-0.068
						c0,0-0.002-0.001-0.003-0.002c0.009-0.014,0.021-0.032,0.03-0.047c0.043-0.086,0.088-0.167,0.146-0.23
						c0.361-0.572,0.82-1.384,0.592-1.971c-0.118-0.304-0.477-0.518-0.805-0.481c-0.37,0.042-0.564,0.331-0.697,0.644
						C604.526,173.935,603.976,173.787,604.02,173.435z"/>
				</g>
			</g>
			<path style="fill:#E08C54;" d="M617.807,233.188l-6.529,3.769c-3.506,2.025-8.032,0.812-10.056-2.695l-22.532-39.026
				c-2.025-3.506-0.812-8.032,2.695-10.056l6.529-3.769c3.507-2.024,8.032-0.812,10.056,2.695l22.532,39.026
				C622.526,226.638,621.313,231.163,617.807,233.188z"/>
			<path style="fill:#FFBC8C;" d="M605.726,185.674c-1.223-6.677-3.249-15.771-4.043-19.283c-0.239-1.587-0.604-3.174-1.117-4.75
				c-5.028-15.454-21.632-23.906-37.086-18.878c-15.454,5.028-23.906,21.632-18.878,37.086c0.345,1.062,0.75,2.087,1.201,3.08
				l-0.077,0.084c0,0,9.643,22.615,12.118,25.755c1.656,2.101,7.538,6.059,15.756,7.921c4.36,0.987,8.24-1.221,11.881-3.814
				c0.163-0.116,11.47-9.398,17.51-15.386C604.641,195.557,606.918,191.668,605.726,185.674z"/>
			<g>
				<defs>
					<path id="SVGID_1_" d="M544.602,179.849c-5.028-15.454,3.424-32.058,18.878-37.086c15.454-5.028,32.058,3.424,37.086,18.878
						c0.513,1.576,0.878,3.164,1.117,4.75c1.191,5.265,5.152,23.084,5.022,26.481c-0.103,2.683-21.002,19.845-21.224,20.003
						c-3.64,2.594-7.521,4.801-11.88,3.814c-8.219-1.861-14.101-5.82-15.757-7.921c-2.475-3.14-12.118-25.755-12.118-25.755
						l0.077-0.084C545.352,181.936,544.947,180.91,544.602,179.849z"/>
				</defs>
				<clipPath id="SVGID_00000062891586050298871100000015595745112138554808_">
					<use xlink:href="#SVGID_1_"  style="overflow:visible;"/>
				</clipPath>
				<g style="clip-path:url(#SVGID_00000062891586050298871100000015595745112138554808_);">
					
						<linearGradient id="SVGID_00000160902564415570270700000014616644850855632797_" gradientUnits="userSpaceOnUse" x1="-138.1726" y1="968.2534" x2="-138.4689" y2="993.7283" gradientTransform="matrix(-0.951 0.3094 0.3094 0.951 134.4174 -697.7107)">
						<stop  offset="7.000000e-08" style="stop-color:#FFBC8C"/>
						<stop  offset="1" style="stop-color:#D83A35"/>
					</linearGradient>
					<path style="fill:url(#SVGID_00000160902564415570270700000014616644850855632797_);" d="M565.605,179.636l10.301,18.055
						c0,0-4.212,5.248-8.467,2.415l-2.834-20.104C564.496,179.405,565.302,179.11,565.605,179.636z"/>
					
						<linearGradient id="SVGID_00000141417215284644062950000015203152484140058783_" gradientUnits="userSpaceOnUse" x1="-163.9165" y1="985.8242" x2="-148.8853" y2="985.8242" gradientTransform="matrix(-0.951 0.3094 0.3094 0.951 134.4174 -697.7107)">
						<stop  offset="7.000000e-08" style="stop-color:#FFBC8C"/>
						<stop  offset="1" style="stop-color:#D83A35"/>
					</linearGradient>
					<path style="fill:url(#SVGID_00000141417215284644062950000015203152484140058783_);" d="M581.021,193.743
						c1.284,3.947,5.525,6.106,9.473,4.822c3.947-1.284,6.106-5.525,4.822-9.473c-1.284-3.947-5.525-6.106-9.473-4.822
						C581.896,185.555,579.737,189.796,581.021,193.743z"/>
					
						<linearGradient id="SVGID_00000070107140543005198650000006393662826683110020_" gradientUnits="userSpaceOnUse" x1="-129.523" y1="985.8247" x2="-114.4918" y2="985.8247" gradientTransform="matrix(-0.951 0.3094 0.3094 0.951 134.4174 -697.7107)">
						<stop  offset="7.000000e-08" style="stop-color:#FFBC8C"/>
						<stop  offset="1" style="stop-color:#D83A35"/>
					</linearGradient>
					<path style="fill:url(#SVGID_00000070107140543005198650000006393662826683110020_);" d="M548.313,204.385
						c1.284,3.947,5.525,6.106,9.473,4.822c3.947-1.284,6.106-5.525,4.822-9.473c-1.284-3.947-5.525-6.106-9.473-4.822
						C549.188,196.197,547.029,200.438,548.313,204.385z"/>
					<path style="fill:#FEFEFE;" d="M567.334,205.571c0,0,7.98,3.617,12.303-4.003"/>
					<path style="fill:#1A1A1A;" d="M575.933,175.247c0.312-0.7,0.714-1.349,1.189-1.951c0.959-1.216,2.288-2.178,3.727-2.748
						c2.731-1.081,6.591-0.814,8.742,1.367c0.232,0.236-0.018,0.573-0.314,0.46c-1.353-0.513-2.647-0.992-4.103-1.104
						c-1.438-0.11-2.853,0.114-4.193,0.639c-1.311,0.514-2.502,1.375-3.461,2.403c-0.494,0.528-0.947,1.114-1.294,1.749
						c-0.04,0.073-0.374,0.855-0.593,0.632C575.295,176.351,575.778,175.595,575.933,175.247z"/>
					<path style="fill:#1A1A1A;" d="M555.783,181.803c-0.664-0.382-1.371-0.671-2.109-0.878c-1.491-0.419-3.132-0.415-4.631-0.029
						c-2.844,0.733-5.808,3.22-6.264,6.25c-0.049,0.327,0.352,0.452,0.525,0.187c0.792-1.211,1.556-2.359,2.668-3.307
						c1.098-0.936,2.374-1.586,3.766-1.95c1.363-0.356,2.832-0.36,4.212-0.094c0.71,0.137,1.421,0.343,2.076,0.653
						c0.075,0.036,0.805,0.471,0.851,0.162C556.949,182.32,556.113,181.993,555.783,181.803z"/>
					<path style="fill:#1A1A1A;" d="M578.617,181.822c1.219,2.081,3.813,2.827,5.793,1.667c1.98-1.16,2.597-3.788,1.378-5.869
						c-1.219-2.081-3.813-2.827-5.793-1.667C578.015,177.113,577.398,179.741,578.617,181.822z"/>
					<path style="fill:#1A1A1A;" d="M548.784,191.791c1.219,2.081,3.813,2.827,5.793,1.667c1.98-1.16,2.597-3.788,1.378-5.869
						c-1.219-2.081-3.813-2.827-5.793-1.667C548.182,187.083,547.565,189.71,548.784,191.791z"/>
				</g>
			</g>
			<path style="fill:#1A1A1A;" d="M544.251,179.871c-5.041-15.586,3.588-32.382,19.274-37.516
				c15.686-5.133,32.488,3.34,37.53,18.926c0.514,1.589,0.879,3.191,1.115,4.792c0.133,0.595,0.302,1.357,0.495,2.233
				c0.262,0.195,0.424,0.579,0.278,0.921c-0.112,0.261-0.258,0.487-0.431,0.682l-0.06,0.165c-0.038,0.005-0.075,0.007-0.113,0.011
				c-0.765,0.708-1.925,0.935-2.968,0.984c-1.473,0.07-2.998-0.091-4.46-0.249c-2.991-0.322-5.735-1.144-8.289-2.738
				c-3.007-1.877-5.737-4.207-8.124-6.842c0.157,9.018-4.438,10.102-4.438,10.102l-22.2,6.352c-2.715,1.128-5.282,1.945-7.488,2.531
				C544.332,180.107,544.29,179.99,544.251,179.871z"/>
		</g>
		<path style="fill:#EDA06B;" d="M600.362,239.825c-0.797-5.022,0.517-10.232,3.885-14.041c4.743-5.364,19.108-9.62,29.889,5.269
			c21.774,30.069,7.359,112.95,0.342,117.399c-7.017,4.45-114.661-45.865-114.661-45.865l-15.402-19.852l15.744,11.295
			c0,0-0.856-9.413,1.027-6.503c1.883,2.909,4.45,11.637,4.45,11.637l86.595,15.402L600.362,239.825z"/>
		<path style="fill:#D34018;" d="M592.817,365.369c0,0-91.526-58.939-99.177-53.272c-7.651,5.667-80.475,86.709-80.475,86.709
			l32.303-5.667l48.171-34.003l20.969,23.802c0,0,75.374-9.918,75.374-11.335C589.983,370.186,592.817,365.369,592.817,365.369z"/>
		<g>
			<polygon style="fill:#FFBC8C;" points="349.357,409.834 318.55,413.3 300.452,387.5 310.464,429.088 350.127,426.008 			"/>
			<path style="fill:#E85625;" d="M349.692,403.621l240.291-36.27l2.834-6.234c0,0,41.938,20.402,82.742,19.269
				c0,0-7.934,45.338-44.771,52.705l-281.095-1.133V403.621z"/>
			<g>
				<path style="fill:#260B01;" d="M351.225,420.952l-0.053-0.998c1.962-0.104,196.596-10.358,228.177-11.563
					c31.313-1.192,50.512-32.302,50.702-32.615l0.855,0.517c-0.193,0.319-19.674,31.884-51.519,33.098
					C547.813,410.594,353.187,420.848,351.225,420.952z"/>
			</g>
		</g>
		<g>
			
				<ellipse transform="matrix(0.7071 -0.7071 0.7071 0.7071 -69.5271 428.2872)" style="fill:#FFB3B3;" cx="482.225" cy="298.07" rx="33.586" ry="33.586"/>
			<g>
				<path style="fill:#F05959;" d="M500.576,278.402c-8.152,6.102-13.9,14.934-18.952,23.626c-0.705,1.213-1.4,2.432-2.084,3.657
					c-0.695,1.245-1.465,2.506-1.892,3.873c-0.118,0.376,0.414,0.709,0.681,0.397c0.827-0.965,1.434-2.111,2.055-3.215
					c0.608-1.081,1.219-2.161,1.836-3.238c1.261-2.201,2.555-4.383,3.911-6.527c2.661-4.206,5.566-8.277,8.919-11.963
					c1.899-2.088,3.93-4.065,6.062-5.915C501.489,278.774,500.982,278.099,500.576,278.402z"/>
				<path style="fill:#F05959;" d="M503.893,285.645c-3.925,2.886-7.37,6.406-10.487,10.141c-3.096,3.711-5.861,7.7-8.232,11.912
					c-0.678,1.203-1.323,2.425-1.935,3.663c-0.306,0.62-0.596,1.247-0.876,1.879c-0.281,0.636-0.46,1.277-0.68,1.934
					c-0.157,0.47,0.566,0.773,0.8,0.337c0.278-0.517,0.599-0.991,0.853-1.519c0.276-0.574,0.559-1.144,0.838-1.716
					c0.513-1.05,1.05-2.088,1.609-3.114c1.145-2.098,2.387-4.143,3.719-6.128c2.666-3.972,5.706-7.681,9.04-11.11
					c1.885-1.938,3.874-3.783,5.857-5.62C504.744,285.987,504.283,285.358,503.893,285.645z"/>
				<path style="fill:#F05959;" d="M508.111,291.786c-3.23,3.273-6.081,6.919-8.858,10.577c-2.757,3.631-5.381,7.363-7.876,11.178
					c-1.423,2.176-2.865,4.362-4.113,6.643c-0.332,0.606,0.546,1.111,0.921,0.539c1.266-1.931,2.444-3.919,3.699-5.858
					c1.223-1.889,2.477-3.757,3.762-5.603c2.612-3.753,5.363-7.399,8.194-10.99c1.598-2.028,3.238-4.022,4.803-6.076
					C508.879,291.886,508.375,291.519,508.111,291.786z"/>
				<path style="fill:#F05959;" d="M512.758,302.279c-1.412-0.023-2.89,0.582-4.155,1.161c-1.39,0.637-2.697,1.438-4.079,2.092
					c-1.359,0.643-2.759,1.197-4.17,1.713c-0.702,0.257-1.408,0.5-2.114,0.744c-0.566,0.196-1.542,0.389-1.855,0.943
					c-0.086,0.152-0.052,0.411,0.128,0.488c0.622,0.264,1.423-0.128,2.029-0.333c0.68-0.23,1.356-0.47,2.029-0.716
					c1.419-0.519,2.822-1.082,4.187-1.73c1.354-0.643,2.632-1.422,3.964-2.107c0.681-0.35,1.38-0.663,2.098-0.93
					c0.698-0.259,1.418-0.49,2.06-0.873C513.089,302.608,512.999,302.283,512.758,302.279z"/>
				<path style="fill:#F05959;" d="M512.561,311.072c-0.688,0-1.396,0.155-2.074,0.261c-0.69,0.108-1.379,0.221-2.068,0.336
					c-1.406,0.236-2.806,0.5-4.21,0.747c-1.372,0.242-2.746,0.473-4.119,0.708c-0.686,0.118-1.373,0.234-2.06,0.348
					c-0.374,0.062-0.748,0.127-1.122,0.195c-0.393,0.071-0.707,0.214-1.076,0.359c-0.412,0.162-0.367,0.764,0.107,0.789
					c0.373,0.02,0.719,0.058,1.091,0.003c0.345-0.051,0.689-0.103,1.033-0.162c0.686-0.116,1.372-0.235,2.058-0.354
					c1.402-0.245,2.801-0.506,4.2-0.771c1.367-0.259,2.733-0.525,4.095-0.809c0.68-0.142,1.36-0.293,2.035-0.455
					c0.727-0.175,1.502-0.311,2.192-0.601C512.936,311.543,512.932,311.072,512.561,311.072z"/>
				<path style="fill:#F05959;" d="M489.121,289.858c-0.453-1.641-1.028-3.243-1.505-4.879c-0.477-1.636-0.88-3.294-1.207-4.967
					c-0.329-1.685-0.59-3.394-0.581-5.115c0.004-0.859,0.069-1.724,0.189-2.575c0.119-0.846,0.358-1.659,0.528-2.493
					c0.09-0.441-0.564-0.793-0.778-0.328c-0.731,1.591-1.015,3.477-1.076,5.214c-0.062,1.766,0.157,3.526,0.475,5.261
					c0.318,1.737,0.72,3.459,1.201,5.158c0.495,1.748,1.048,3.474,1.874,5.095C488.49,290.723,489.265,290.379,489.121,289.858z"/>
				<path style="fill:#F05959;" d="M477.061,301.484c-0.2-0.489-0.398-0.979-0.596-1.47c-0.384-0.952-0.763-1.905-1.138-2.86
					c-0.74-1.881-1.468-3.767-2.177-5.661c-1.43-3.816-2.774-7.661-4.09-11.518c-0.744-2.181-1.451-4.373-2.258-6.532
					c-0.189-0.505-0.958-0.314-0.821,0.226c1.006,3.974,2.379,7.861,3.734,11.728c1.357,3.874,2.782,7.724,4.275,11.547
					c0.407,1.043,0.822,2.083,1.241,3.121c0.21,0.519,0.42,1.038,0.632,1.556c0.218,0.534,0.348,1.078,0.854,1.405
					c0.214,0.138,0.544,0.007,0.599-0.244C477.425,302.287,477.247,301.938,477.061,301.484z"/>
				<path style="fill:#F05959;" d="M472.199,304.959c-0.232-0.454-0.461-0.911-0.693-1.365c-0.465-0.908-0.925-1.819-1.375-2.734
					c-0.9-1.831-1.766-3.679-2.599-5.541c-1.678-3.756-3.224-7.574-4.629-11.44c-0.789-2.171-1.478-4.392-2.357-6.528
					c-0.231-0.562-1.069-0.366-0.931,0.257c0.447,2.013,1.143,3.986,1.826,5.93c0.686,1.953,1.409,3.893,2.167,5.818
					c1.516,3.849,3.187,7.638,4.99,11.361c0.497,1.026,1.004,2.047,1.522,3.063c0.272,0.535,0.552,1.065,0.837,1.593
					c0.273,0.508,0.492,1.028,1.019,1.311c0.301,0.161,0.606-0.046,0.636-0.365C472.663,305.804,472.428,305.405,472.199,304.959z"
					/>
				<path style="fill:#F05959;" d="M480.223,319.585c-0.148-0.348-0.462-0.575-0.733-0.829c-0.302-0.283-0.602-0.566-0.914-0.837
					c-0.65-0.563-1.304-1.122-1.961-1.677c-1.266-1.071-2.543-2.129-3.818-3.188c-2.33-1.934-4.639-3.932-7.165-5.609
					c-0.694-0.461-1.406-0.899-2.143-1.287c-0.693-0.365-1.498-0.839-2.278-0.955c-0.55-0.082-0.869,0.573-0.383,0.909
					c0.581,0.402,1.302,0.638,1.929,0.97c0.638,0.339,1.262,0.7,1.872,1.088c1.231,0.784,2.402,1.659,3.545,2.566
					c2.49,1.975,4.927,4.016,7.417,5.991c0.727,0.577,1.454,1.152,2.187,1.72c0.333,0.258,0.667,0.509,1.01,0.754
					c0.365,0.26,0.736,0.623,1.183,0.714C480.176,319.957,480.3,319.765,480.223,319.585z"/>
				<path style="fill:#F05959;" d="M474.417,322.332c-0.506-0.677-1.157-1.24-1.778-1.809c-0.631-0.578-1.275-1.143-1.924-1.703
					c-1.346-1.161-2.705-2.309-4.057-3.464c-2.657-2.269-5.332-4.518-7.999-6.775c-0.752-0.636-1.505-1.271-2.258-1.905
					c-0.653-0.55-1.433-1.441-2.324-1.528c-0.238-0.023-0.403,0.248-0.347,0.455c0.208,0.769,1.087,1.318,1.667,1.808
					c0.655,0.554,1.31,1.108,1.967,1.659c1.338,1.124,2.677,2.248,4.015,3.372c2.677,2.248,5.36,4.49,8.047,6.727
					c0.733,0.61,1.467,1.223,2.218,1.811c0.768,0.6,1.54,1.269,2.412,1.712C474.268,322.8,474.589,322.56,474.417,322.332z"/>
			</g>
			<path style="fill:#CA6831;" d="M542.558,255.198c0,0,16.143,0.543,19.534,13.023c0,0,12.752-6.918,16.55-0.814
				c3.798,6.104-11.666,16.007-11.666,16.007s19.263,52.362-0.271,77.323c-19.534,24.96-54.533,30.251-86.818,18.72
				c0,0-22.034-0.487-22.034,4.367c0,0.134-36.297,23.171-43.894,17.338c-7.597-5.833-5.155-20.755,13.294-26.046
				c18.449-5.29,40.696-2.713,40.696-2.713s-9.089-17.635-10.038-31.472c-0.95-13.837-7.597-17.635-7.597-17.635l0,0
				c1.267-2.787,4.896-3.489,7.116-1.382c4.889,4.638,12.856,10.81,18.658,8.436c0,0,5.019-18.72,11.395-17.635
				s4.612,13.837,4.612,13.837s13.631-7.727,17.635-15.736c0.136-0.271-18.72-1.085-18.72-1.085s-5.74-9.105,4.421-14.128
				c3.216-1.59,6.849-2.136,10.421-1.796l7.677,0.731l-0.814-9.496c0,0-20.891-7.325-26.046-7.054
				c-4.253,0.224-2.689-9.339,6.596-12.084c3.282-0.97,6.805-0.727,10.023,0.438l12.682,4.592c0,0,5.291-10.581,12.48-12.48
				c0,0-1.628-9.225,2.984-13.837C536.047,240.005,542.558,255.198,542.558,255.198z"/>
			<g>
				<path style="fill:#FFCF8F;" d="M551.001,354.319c-2.87,1.259-5.032,3.738-6.652,6.354c-1.863,3.01-3.201,6.396-4.259,9.763
					c-1.088,3.46-1.774,7.042-2.131,10.652c11.206-3.925,21.148-10.644,28.745-20.351c1.09-1.392,2.052-2.874,2.91-4.422
					c-2.488-1.049-5.106-1.809-7.75-2.293C558.323,353.372,554.401,352.826,551.001,354.319z"/>
				<path style="fill:#FFCF8F;" d="M501.787,346.576c-2.044-1.406-4.511-1.557-6.717-0.431c-2.463,1.257-3.921,3.8-4.407,6.453
					c-0.46,2.513-0.391,5.428,1.023,7.632c1.987,3.603,6.62,5.402,10.526,3.986c2.31-0.837,4.03-2.63,4.575-5.05
					c0.524-2.331,0.214-4.87-0.682-7.07C505.213,349.905,503.747,347.925,501.787,346.576z"/>
				<path style="fill:#FFCF8F;" d="M558.083,295.015c-3.078,5.529-2.264,12.379,0.741,17.751c2.953,5.279,9.272,10.976,15.722,8.048
					c0.188-0.085,0.351-0.202,0.527-0.302c-1.186-14.032-4.825-26.987-6.795-33.213
					C564.031,288.295,560.164,291.276,558.083,295.015z"/>
			</g>
			<g>
				<path style="fill:#633B28;" d="M537.109,264.518c-0.243-0.397-0.569-0.746-0.888-1.075c-0.328-0.338-0.677-0.669-1.055-0.944
					c-0.719-0.523-1.696-0.741-2.409-0.098c-0.374,0.337-0.472,0.787-0.401,1.23c-0.001,0.025-0.008,0.048-0.007,0.074
					c0.001,0.024,0.006,0.046,0.008,0.069c-0.032,0.153,0.013,0.327,0.139,0.438c0.168,0.345,0.475,0.643,0.789,0.858
					c0.6,0.485,1.351,0.814,2.039,1.059c0.421,0.15,0.913,0.335,1.36,0.339c0.511,0.004,0.965-0.304,0.902-0.89
					c-0.016-0.15-0.128-0.259-0.259-0.318C537.326,265.001,537.243,264.737,537.109,264.518z"/>
				<path style="fill:#633B28;" d="M549.849,276.802c0.38,0.267,0.706,0.613,1.012,0.952c0.315,0.348,0.621,0.716,0.869,1.11
					c0.472,0.75,0.622,1.737-0.069,2.408c-0.362,0.352-0.819,0.422-1.256,0.324c-0.025-0.001-0.049,0.005-0.075,0.003
					c-0.024-0.002-0.046-0.008-0.069-0.012c-0.155,0.022-0.326-0.033-0.427-0.166c-0.333-0.189-0.609-0.514-0.802-0.84
					c-0.443-0.628-0.719-1.397-0.916-2.099c-0.121-0.429-0.272-0.932-0.245-1.377c0.031-0.51,0.371-0.944,0.951-0.844
					c0.149,0.026,0.25,0.144,0.299,0.278C549.381,276.555,549.639,276.655,549.849,276.802z"/>
				<path style="fill:#260B01;" d="M538.108,278.835c-0.133,0.047-0.284,0.098-0.425,0.102c-0.075,0.002-0.151-0.01-0.226-0.009
					c-0.065,0.001-0.128-0.002-0.192-0.009c-0.224-0.024-0.417-0.083-0.607-0.162c0.082-0.343,0.139-0.69,0.15-1.041
					c0.006-0.168-0.156-0.298-0.315-0.285c-0.174,0.014-0.296,0.165-0.301,0.333c-0.013,0.379-0.063,0.751-0.157,1.123
					c-0.032,0.129,0.034,0.263,0.146,0.32c0.32,0.16,0.664,0.236,1.029,0.23c0.176-0.003,0.335-0.03,0.503-0.086
					c0.167-0.056,0.332-0.095,0.494-0.171C538.418,279.08,538.337,278.755,538.108,278.835z"/>
				<path style="fill:#260B01;" d="M524.201,270.115c-0.435-1.285-0.875-2.58-1.528-3.764c-0.639-1.158-1.518-2.151-2.581-2.928
					c-2.093-1.53-4.683-2.186-7.299-2.317c-0.731-0.037-1.461-0.032-2.196,0.007c-0.772,0.041-1.514,0.144-2.279,0.265
					c-0.227,0.036-0.225,0.37,0.008,0.359c0.628-0.031,1.254-0.04,1.883-0.066c0.627-0.026,1.255-0.031,1.88-0.02
					c1.261,0.023,2.518,0.16,3.73,0.458c2.488,0.612,4.779,1.969,6.165,4.136c0.79,1.235,1.295,2.63,1.793,4.015
					C523.872,270.521,524.29,270.38,524.201,270.115z"/>
				<path style="fill:#260B01;" d="M522.891,270.351c-3.169-2.177-7.23-3.171-11.171-2.589c-1.122,0.166-2.195,0.492-3.255,0.919
					c-0.203,0.082-0.118,0.377,0.092,0.316c3.662-1.064,7.656-1.007,11.094,0.368c0.982,0.393,1.923,0.887,2.791,1.481
					C522.774,271.075,523.228,270.582,522.891,270.351z"/>
				<path style="fill:#260B01;" d="M546.224,288.215c1.368,0.057,2.747,0.117,4.077,0.411c1.301,0.287,2.509,0.848,3.557,1.643
					c2.065,1.567,3.42,3.848,4.272,6.3c0.238,0.685,0.437,1.381,0.602,2.091c0.174,0.746,0.28,1.479,0.374,2.241
					c0.028,0.226-0.297,0.317-0.35,0.092c-0.144-0.606-0.309-1.204-0.458-1.809c-0.148-0.603-0.317-1.202-0.502-1.794
					c-0.372-1.193-0.853-2.35-1.479-3.42c-1.284-2.197-3.236-3.999-5.723-4.717c-1.418-0.409-2.912-0.503-4.394-0.593
					C545.921,288.64,545.941,288.203,546.224,288.215z"/>
				<path style="fill:#260B01;" d="M546.357,289.526c2.991,2.411,5.082,5.997,5.608,9.906c0.15,1.113,0.131,2.223,0.01,3.35
					c-0.023,0.216-0.334,0.216-0.333,0c0.018-3.777-1.144-7.561-3.431-10.449c-0.654-0.825-1.394-1.583-2.211-2.244
					C545.688,289.837,546.04,289.27,546.357,289.526z"/>
				<path style="fill:#F05959;" d="M527.186,273.983c-1.102,1.219-2.931,1.361-4.085,0.318c-1.154-1.043-1.195-2.877-0.093-4.096
					c1.102-1.219,2.931-1.361,4.085-0.318C528.247,270.931,528.288,272.764,527.186,273.983z"/>
				<path style="fill:#F05959;" d="M545.824,290.84c-1.102,1.219-2.931,1.361-4.084,0.318c-1.154-1.043-1.195-2.877-0.093-4.096
					c1.102-1.219,2.931-1.361,4.085-0.318C546.885,287.788,546.927,289.621,545.824,290.84z"/>
				<path style="fill:#260B01;" d="M539.017,284.803c-0.33-0.134-0.715-0.008-1.065-0.099c-0.366-0.096-0.689-0.31-0.953-0.571
					c-0.64-0.631-0.854-1.591-0.987-2.47c-0.063-0.414-0.048-0.964-0.232-1.338c-0.178-0.361-0.569-0.406-0.939-0.336
					c-0.468,0.088-0.897,0.171-1.368,0.101c-0.452-0.067-0.886-0.233-1.252-0.498c-0.83-0.601-1.303-1.655-1.234-2.706
					c0.007-0.115-0.179-0.124-0.199-0.01c-0.162,0.921,0.009,1.894,0.578,2.608c0.571,0.717,1.446,1.152,2.378,1.207
					c0.227,0.013,0.454,0.007,0.682-0.026c0.199-0.029,0.52-0.171,0.71-0.113c0.174,0.052,0.143,0.551,0.159,0.722
					c0.025,0.273,0.058,0.544,0.099,0.814c0.143,0.959,0.426,1.906,1.112,2.592c0.342,0.342,0.768,0.598,1.238,0.73
					c0.391,0.109,1.044,0.185,1.338-0.201C539.18,285.081,539.183,284.871,539.017,284.803z"/>
				<path style="fill:#260B01;" d="M533.84,270.821c0.402-1.05,0.003-1.977-0.535-2.844c-0.587-0.946-1.625-1.424-2.764-1.207
					c-0.329,0.063-0.641,0.182-0.935,0.34c-0.344,0.067-0.682,0.183-0.997,0.347c-1.685,0.88-2.245,3.119-1.403,4.674
					c0.846,1.56,3.031,1.998,4.595,1.071C532.662,272.693,533.482,271.756,533.84,270.821z"/>
				<path style="fill:#260B01;" d="M548.163,283.775c0.402-1.05,0.003-1.977-0.535-2.844c-0.587-0.946-1.625-1.424-2.764-1.207
					c-0.329,0.063-0.641,0.182-0.935,0.34c-0.344,0.067-0.682,0.183-0.997,0.347c-1.685,0.88-2.245,3.119-1.403,4.674
					c0.846,1.56,3.031,1.998,4.595,1.071C546.985,285.647,547.805,284.71,548.163,283.775z"/>
				<path style="fill:#633B28;" d="M556.977,264.666L556.977,264.666c0.059-0.198-0.039-0.398-0.235-0.474
					c-0.203-0.079-0.427,0.006-0.521,0.199c-0.12,0.245-0.232,0.496-0.345,0.746c-0.419,0.934-0.816,1.816-1.576,2.469
					c-0.686,0.59-1.753,1.025-2.687,0.477c-0.496-0.291-0.873-0.728-1.125-1.302c0.437-0.258,0.831-0.582,1.175-0.963
					c0.992-1.1,1.559-2.51,1.517-3.773c-0.012-0.372-0.041-1.361-0.814-1.582c-0.64-0.181-1.245,0.329-1.476,0.556
					c-1.341,1.322-1.894,3.52-1.383,5.416c-0.326,0.125-0.657,0.196-0.987,0.211c-1.029,0.046-1.912-0.466-2.362-1.371
					c-1.156-2.322,0.386-5.476,2.484-6.642l0.217-0.156l-0.113-0.205c-0.073-0.133-0.234-0.179-0.366-0.108
					c-2.51,1.35-3.885,4.6-3.003,7.098c0.19,0.538,0.492,0.992,0.878,1.341c0.497,0.449,1.133,0.724,1.849,0.779
					c0.547,0.042,1.1-0.04,1.646-0.244c0.156,0.353,0.351,0.673,0.582,0.952c0.966,1.167,2.467,1.433,3.837,0.681
					C555.423,268.083,556.367,266.702,556.977,264.666z M550.251,266.045c-0.233-1.101-0.049-2.422,0.495-3.453
					c0.195-0.368,0.501-0.892,0.922-1.189c0.194-0.138,0.36-0.195,0.466-0.162c0.169,0.053,0.211,0.432,0.231,0.614
					c0.112,0.997-0.257,2.144-1.014,3.146C551.039,265.414,550.662,265.771,550.251,266.045z"/>
			</g>
			<g>
				<path style="fill:#260B01;" d="M528.762,259.986c1.703-0.351,3.441-0.566,5.138-0.985c0.849-0.21,1.69-0.451,2.521-0.724
					c0.331-0.109,0.708-0.192,1.01-0.369c0.373-0.218,0.26-0.493,0.14-0.856c-0.485-1.469-1.151-2.882-1.959-4.201
					c-0.408-0.666-0.837-1.32-1.287-1.957c-0.468-0.661-1.017-1.245-1.528-1.87c-0.25-0.305,0.124-0.672,0.429-0.429
					c1.361,1.082,2.54,2.55,3.444,4.026c0.467,0.762,0.887,1.556,1.248,2.374c0.33,0.745,0.783,1.621,0.85,2.443
					c0.068,0.839-0.509,1.315-1.227,1.593c-0.912,0.353-1.864,0.627-2.807,0.879c-0.965,0.258-1.942,0.474-2.926,0.648
					c-0.492,0.087-0.986,0.163-1.481,0.23c-0.499,0.067-0.952,0.057-1.449,0.051C528.403,260.835,528.268,260.088,528.762,259.986z"
					/>
				<path style="fill:#260B01;" d="M561.322,274.012c0.234-0.795,0.79-1.394,1.482-1.826c0.747-0.465,1.616-0.767,2.438-1.067
					c0.934-0.341,1.886-0.636,2.849-0.882c1.922-0.492,3.864-0.748,5.844-0.772c0.492-0.006,0.462,0.689,0,0.745
					c-1.744,0.211-3.494,0.541-5.196,0.975c-1.658,0.424-3.367,0.949-4.895,1.731c-0.642,0.328-1.232,0.749-1.414,1.485
					c-0.188,0.762-0.031,1.636,0.089,2.397c0.134,0.853,0.323,1.697,0.564,2.526c0.243,0.837,0.599,1.633,0.662,2.501
					c0.023,0.319-0.426,0.496-0.635,0.263c-0.635-0.704-0.904-1.643-1.167-2.546c-0.275-0.948-0.479-1.914-0.617-2.892
					C561.205,275.788,561.07,274.866,561.322,274.012z"/>
				<path style="fill:#260B01;" d="M505.514,310.358c0.357-0.02,0.708-0.104,1.066-0.103c0.411,0.001,0.827,0.052,1.234,0.1
					c0.739,0.086,1.475,0.203,2.199,0.375c1.489,0.355,2.934,0.86,4.334,1.478c2.87,1.266,5.496,2.987,8.009,4.852
					c1.441,1.07,2.855,2.156,4.134,3.416c0.294,0.29-0.088,0.808-0.447,0.58c-1.656-1.05-3.159-2.305-4.739-3.465
					c-1.58-1.159-3.21-2.252-4.911-3.227c-1.669-0.957-3.42-1.779-5.24-2.404c-0.896-0.308-1.813-0.566-2.737-0.778
					c-0.46-0.105-0.924-0.194-1.39-0.268c-0.507-0.081-1.005-0.238-1.511-0.305C505.358,310.588,505.349,310.367,505.514,310.358z"
					/>
				<path style="fill:#260B01;" d="M512.07,294.138c0.775-0.074,1.464-0.11,2.243-0.009c0.736,0.095,1.472,0.211,2.197,0.372
					c1.461,0.323,2.889,0.844,4.261,1.435c2.763,1.189,5.314,2.87,7.519,4.914c0.61,0.566,1.188,1.161,1.729,1.793
					c0.281,0.328,0.539,0.68,0.795,1.029c0.242,0.331,0.525,0.68,0.615,1.086c0.063,0.289-0.236,0.544-0.506,0.389
					c-0.578-0.332-1.008-1.023-1.468-1.5c-0.505-0.523-0.988-1.064-1.509-1.572c-1.025-1.001-2.132-1.915-3.312-2.727
					c-2.4-1.653-5.067-2.917-7.876-3.697c-0.774-0.215-1.549-0.426-2.337-0.589c-0.813-0.168-1.598-0.37-2.4-0.567
					C511.811,294.443,511.877,294.156,512.07,294.138z"/>
				<path style="fill:#260B01;" d="M486.537,336.091c1.234-1.638,2.343-3.366,3.307-5.176c0.957-1.796,1.638-3.751,2.682-5.49
					c0.072-0.12,0.304-0.081,0.286,0.077c-0.234,2.002-1.182,3.937-2.095,5.717c-0.785,1.533-1.678,3.006-2.658,4.421
					c9.811-1.76,20.308-2.141,29.518,2.218c2.389,1.131,4.368,2.703,5.78,4.958c1.327,2.12,2.222,4.54,2.652,7
					c0.433,2.477,0.422,5.01-0.062,7.479c-0.507,2.586-1.57,5.057-2.863,7.343c-1.331,2.353-2.964,4.543-4.83,6.499
					c-0.933,0.979-1.928,1.9-2.977,2.754c-1.054,0.858-2.12,1.688-3.37,2.236c-0.457,0.2-1.034-0.365-0.584-0.757
					c0.875-0.761,1.827-1.407,2.734-2.128c0.889-0.707,1.741-1.461,2.551-2.258c1.64-1.613,3.105-3.398,4.356-5.328
					c2.678-4.132,4.407-8.828,4.039-13.806c-0.176-2.385-0.812-4.758-1.873-6.902c-1.122-2.268-2.655-4.102-4.868-5.365
					c-4.276-2.442-9.379-3.533-14.249-3.881c-5.644-0.403-11.358,0.141-16.92,1.113C486.725,336.88,486.249,336.472,486.537,336.091
					z"/>
				<path style="fill:#260B01;" d="M468.126,342.035c0.966-1.315,2.023-2.562,3.016-3.856c1.103-1.437,2.161-2.92,3.036-4.508
					c0.433-0.785,0.82-1.597,1.127-2.44c0.305-0.84,0.551-1.693,0.905-2.513c0.124-0.288,0.516-0.105,0.536,0.145
					c0.125,1.531-0.511,3.056-1.146,4.42c-0.682,1.462-1.546,2.828-2.481,4.139c-0.928,1.301-1.923,2.553-2.908,3.81
					c-0.978,1.248-2.078,2.544-2.539,4.091c-0.992,3.334,1.951,6.554,4.049,8.781c2.261,2.399,4.56,4.686,6.277,7.528
					c0.958,1.586,1.754,3.271,2.378,5.015c0.304,0.849,0.565,1.713,0.783,2.588c0.232,0.93,0.347,1.852,0.46,2.801
					c0.062,0.525-0.833,0.648-0.928,0.126c-0.594-3.27-1.689-6.48-3.342-9.367c-0.83-1.45-1.792-2.823-2.883-4.089
					c-1.094-1.27-2.295-2.443-3.449-3.658c-2.156-2.271-4.825-5.219-4.715-8.573C466.356,344.823,467.168,343.338,468.126,342.035z"
					/>
				<path style="fill:#260B01;" d="M516.278,270.493c-0.444,0.454-0.647,1.141-0.893,1.719c-0.26,0.612-0.496,1.234-0.719,1.86
					c-0.48,1.349-0.889,2.718-1.225,4.11c-0.326,1.352-0.591,2.72-0.792,4.096c-0.098,0.663-0.183,1.328-0.253,1.994
					c-0.073,0.691-0.195,1.411-0.079,2.1c0.089,0.526,0.85,0.446,0.987,0c0.182-0.593,0.164-1.254,0.226-1.869
					c0.073-0.718,0.162-1.433,0.271-2.146c0.204-1.337,0.467-2.665,0.789-3.979c0.312-1.275,0.672-2.542,1.077-3.79
					c0.215-0.661,0.449-1.315,0.682-1.97c0.213-0.598,0.553-1.217,0.583-1.854C516.947,270.429,516.503,270.262,516.278,270.493z"/>
				<path style="fill:#260B01;" d="M498.018,269.893c-0.455-0.289-1.119-0.394-1.646-0.493c-0.577-0.108-1.178-0.169-1.765-0.169
					c-1.246-0.002-2.498,0.19-3.689,0.552c-1.158,0.353-2.294,0.856-3.307,1.522c-0.5,0.328-0.978,0.692-1.428,1.086
					c-0.386,0.337-0.963,0.77-0.958,1.325c0.001,0.165,0.146,0.332,0.32,0.32c0.483-0.031,0.799-0.439,1.146-0.745
					c0.43-0.38,0.886-0.726,1.368-1.037c0.976-0.631,2.02-1.14,3.13-1.488c1.076-0.338,2.198-0.547,3.325-0.595
					c0.555-0.024,1.107-0.031,1.662-0.005c0.565,0.026,1.17,0.184,1.728,0.149C498.127,270.301,498.214,270.016,498.018,269.893z"/>
				<path style="fill:#260B01;" d="M497.735,274.012c-2.209-0.201-4.344-0.326-6.533,0.162c-0.913,0.204-1.8,0.519-2.631,0.949
					c-0.768,0.397-1.79,0.966-2.185,1.771c-0.251,0.511,0.255,1.027,0.77,0.77c0.411-0.205,0.736-0.556,1.108-0.821
					c0.331-0.236,0.683-0.446,1.044-0.631c0.757-0.389,1.575-0.662,2.401-0.859c1.944-0.463,4.036-0.511,6.025-0.613
					C498.207,274.714,498.197,274.054,497.735,274.012z"/>
				<path style="fill:#260B01;" d="M487.105,312.601c-0.243-0.258-0.6,0.019-0.548,0.319c0.109,0.635,0.39,1.213,0.459,1.866
					c0.065,0.599,0.04,1.208-0.037,1.805c-0.163,1.274-0.552,2.518-0.969,3.729c-0.408,1.184-0.877,2.349-1.483,3.446
					c-0.603,1.09-1.413,2.011-2.069,3.059c-0.127,0.202,0.122,0.435,0.32,0.321c1.099-0.633,1.896-1.858,2.502-2.939
					c0.684-1.22,1.208-2.526,1.664-3.845c0.451-1.308,0.842-2.639,0.958-4.024C487.999,315.172,487.961,313.509,487.105,312.601z"/>
				<path style="fill:#260B01;" d="M490.51,313.835c-0.056-0.205-0.409-0.173-0.383,0.052c0.3,2.617,0.192,5.385-0.458,7.942
					c-0.667,2.623-2.015,4.91-3.321,7.248c-0.079,0.14,0.099,0.265,0.214,0.166c2.104-1.807,3.276-4.533,3.942-7.183
					C491.193,319.319,491.257,316.559,490.51,313.835z"/>
				<path style="fill:#260B01;" d="M505.889,304.029c-1.157-0.851-2.759-1.179-4.156-1.378c-1.486-0.211-2.982-0.205-4.468,0.005
					c-2.99,0.423-5.706,1.69-7.831,3.839c-0.27,0.273,0.124,0.63,0.409,0.409c2.171-1.679,4.899-2.819,7.616-3.193
					c1.374-0.189,2.794-0.184,4.164,0.027c1.365,0.211,2.603,0.752,3.93,1.083C506.056,304.947,506.273,304.311,505.889,304.029z"/>
				<path style="fill:#260B01;" d="M503.444,299.427c-0.555-1.138-2.066-1.517-3.222-1.669c-1.356-0.179-2.757-0.021-4.054,0.41
					c-1.376,0.458-2.633,1.205-3.786,2.074c-0.579,0.436-1.134,0.896-1.666,1.388c-0.261,0.241-0.517,0.486-0.771,0.734
					c-0.108,0.106-0.624,0.743-0.756,0.709c-0.297-0.077-0.583,0.259-0.41,0.534c0.257,0.407,0.701,0.38,1.086,0.149
					c0.586-0.352,1.1-0.914,1.632-1.344c1.172-0.946,2.374-1.856,3.732-2.519c1.233-0.601,2.569-0.966,3.947-0.953
					c0.674,0.006,1.337,0.104,1.979,0.312c0.646,0.209,1.224,0.559,1.896,0.687C503.357,299.996,503.581,299.708,503.444,299.427z"
					/>
				<path style="fill:#260B01;" d="M458.962,261.581c-0.064,0-0.064,0.1,0,0.1C459.027,261.681,459.027,261.581,458.962,261.581z"/>
			</g>
		</g>
		<g>
			<path style="fill:#FFF7F5;" d="M592.219,221.081l-21.228,58.92c0,0,3.899,7.148,11.264,9.964l15.596,38.991l-9.37,37.328
				l87.217,21.5c0,0,41.075-85.255-60.952-175.368C614.748,212.417,599.151,227.58,592.219,221.081z"/>
			<g>
				<g>
					<g>
						<g>
							<path style="fill:#FFBC8C;" d="M533.74,360.401c0,0-8.711-0.033-10.778,0.815c-2.068,0.848-18.438,5.856-31.343,4.15
								c0,0-6.832-2.772-7.008-5.841s2.624-5.071,2.624-5.071l20.704-4.657c0,0-1.3-2.452-2.765-2.731
								c-1.465-0.278-4.005-2.207-3.856-3.968c0,0,16.474,1.383,17.938,2.792c1.465,1.409,2.225,2.985,5.182,2.717
								c2.957-0.269,7.525-0.889,7.525-0.889S540.872,352.921,533.74,360.401z"/>
						</g>
					</g>
					<g>
						<g>
							<path style="fill:#EF993A;" d="M503.259,362.786c0.014,0.16-0.099,0.305-0.26,0.328c-13.019,1.831-13.135,1.771-13.248,1.713
								c-0.148-0.076-0.206-0.259-0.132-0.408c0.06-0.116,0.184-0.177,0.306-0.163c0.543-0.015,8.04-1.047,12.99-1.743
								c0.166-0.023,0.319,0.092,0.342,0.258C503.258,362.776,503.258,362.781,503.259,362.786z"/>
						</g>
					</g>
					<g>
						<g>
							<path style="fill:#EF993A;" d="M502.174,359.345c0.015,0.162-0.101,0.308-0.264,0.328c-16.521,2.093-16.54,2.07-16.687,1.888
								c-0.104-0.131-0.085-0.321,0.047-0.427c0.065-0.052,0.144-0.073,0.221-0.065c0.595-0.022,10.066-1.202,16.343-1.997
								c0.166-0.021,0.318,0.097,0.339,0.263C502.173,359.338,502.173,359.342,502.174,359.345z"/>
						</g>
					</g>
					<g>
						<g>
							<path style="fill:#EF993A;" d="M502.586,355.382c0.015,0.162-0.102,0.308-0.265,0.328l-17.372,2.13
								c-0.167,0.02-0.318-0.098-0.338-0.264c-0.019-0.167,0.098-0.317,0.264-0.338l17.372-2.13
								c0.167-0.021,0.318,0.098,0.338,0.264C502.585,355.376,502.586,355.379,502.586,355.382z"/>
						</g>
					</g>
				</g>
				<path style="fill:#FFBC8C;" d="M608.191,253.624c1.687-6.058,8.446-9.368,14.139-6.699c6.711,3.146,13.369,10.669,11.16,28.45
					c-4.151,33.404-35.711,81.277-104.987,85.1l-1.575-12.372C526.927,348.103,582.284,346.645,608.191,253.624z"/>
			</g>
			<path style="fill:#260B01;" d="M597.679,323.407c-0.192-0.265-0.573-0.077-0.562,0.22c0.028,0.792,0.237,1.553,0.284,2.344
				c0.044,0.748-0.017,1.5-0.162,2.234c-0.301,1.533-1.021,2.985-2.086,4.13c-2.239,2.407-5.99,3.26-9.067,2.169
				c-0.475-0.168-0.801,0.54-0.323,0.72c3.44,1.295,7.437,0.496,10.025-2.144c1.215-1.239,2.027-2.849,2.404-4.535
				C598.544,326.965,598.671,324.781,597.679,323.407z"/>
		</g>
	</g>
	<g>
		<g>
			<path style="fill:#1A1A1A;" d="M218.92,173.786c0.253-3.231-0.374-6.433-1.963-9.266c-1.482-2.642-3.724-4.904-6.378-6.369
				c-2.64-1.456-5.699-2.032-8.637-1.408c-0.458-4.662-3.74-8.54-7.749-10.812c-4.886-2.769-10.612-2.863-16.021-1.937
				c-3.033,0.519-5.999,1.342-8.952,2.198c-1.088-3.036-3.539-5.515-6.564-6.646c-1.57-0.587-3.174-0.656-4.829-0.765
				c-1.337-0.088-5.764,0.396-5.966,1.171c-5.743-1.415-11.852-1.369-17.512,0.388c-4.043,1.256-7.799,3.405-10.788,6.418
				c-2.837,2.86-4.968,6.41-6.222,10.234c-1.236,3.77-1.567,7.842-0.761,11.737c0.419,2.028,1.266,3.798,2.086,5.679
				c0.376,0.86,0.795,1.873,0.601,2.829c-0.223,1.1-1.274,1.559-2.248,1.842c-0.986,0.287-1.984,0.486-2.94,0.87
				c-0.902,0.362-1.772,0.812-2.58,1.353c-1.616,1.083-2.991,2.487-4.106,4.075c-2.289,3.26-3.484,7.22-3.661,11.182
				c-0.437,9.796,6.045,18.303,12.528,24.958c0.513,0.526,1.039,1.037,1.562,1.553c-5.235,0.568-9.537,5.111-10.677,10.167
				c-1.486,6.592,2.307,13.363,7.44,17.285c5.574,4.258,12.696,5.768,19.543,6.371c3.892,0.343,7.896,0.264,11.676-0.81
				c3.117-0.886,5.995-2.487,8.475-4.56c5.082-4.248,8.512-10.173,10.791-16.32c0.091-0.246,0.17-0.496,0.257-0.743
				c3.63,5.65,9.556,9.924,16.384,10.398c3.673,0.255,7.474-0.616,10.599-2.583c2.974-1.872,5.146-4.719,6.207-8.064
				c1.011-3.189,0.917-6.701-0.413-9.759c8.357,0.607,17.289-1.968,22.344-9.031c2.26-3.157,3.652-6.956,3.625-10.864
				c-0.027-3.817-1.545-7.419-4.159-10.185c-2.366-2.503-5.633-4.192-9.067-4.443C215.167,185.588,218.437,179.961,218.92,173.786z"
				/>
			<g>
				<g>
					<path style="fill:#E08C54;" d="M190.458,197.644c0,0,5.292-7.153,9.33,1.164c4.038,8.317-7.499,11.518-7.499,11.518
						L190.458,197.644z"/>
					<path style="fill:#1A1A1A;" d="M192.447,200.762c0,0-0.002,0.001-0.002,0.001c0.001-0.016,0.009-0.029,0.01-0.044
						c0.004-0.015,0.002-0.027,0.008-0.042c0.076-0.189-0.057-0.534-0.078-0.735c-0.023-0.215-0.033-0.434-0.028-0.65
						c0.01-0.418,0.08-0.848,0.24-1.235c0.316-0.764,0.963-1.312,1.775-1.481c0.896-0.187,1.836,0.072,2.592,0.562
						c0.81,0.524,1.656,1.365,2.045,2.257c0.053,0.121-0.09,0.276-0.208,0.181c-0.642-0.519-1.081-1.247-1.732-1.766
						c-0.651-0.519-1.445-0.865-2.291-0.802c-0.823,0.061-1.486,0.551-1.772,1.326c-0.125,0.34-0.176,0.701-0.182,1.062
						c-0.002,0.103-0.011,0.337,0.001,0.565c0.52-0.518,1.447-0.617,2.013-0.046c0.727,0.733,0.435,1.72-0.018,2.568
						c0.399,0.076,0.781,0.367,0.914,0.797c0.397,1.29-0.912,2.374-1.189,3.546c-0.046,0.192-0.356,0.158-0.381-0.029
						c-0.103-0.765,0.373-1.357,0.767-1.959c0.248-0.379,0.493-0.833,0.381-1.301c-0.082-0.346-0.566-0.689-0.843-0.456
						c-0.057,0.089-0.115,0.18-0.169,0.262c-0.188,0.284-0.651,0.053-0.532-0.27c0.01-0.027,0.027-0.042,0.038-0.067
						c-0.001-0.001-0.002-0.001-0.002-0.001c0.008-0.015,0.02-0.032,0.03-0.047c0.044-0.086,0.091-0.166,0.15-0.227
						c0.371-0.566,0.845-1.368,0.628-1.959c-0.112-0.306-0.467-0.527-0.796-0.496c-0.371,0.035-0.57,0.32-0.708,0.631
						C192.943,201.272,192.396,201.114,192.447,200.762z"/>
				</g>
				<g>
					<path style="fill:#E08C54;" d="M136.475,214.13c0,0-8.385-2.976-7.088,6.177c1.297,9.154,12.654,5.363,12.654,5.363
						L136.475,214.13z"/>
					<path style="fill:#1A1A1A;" d="M136.566,217.827c0,0,0.002,0,0.003-0.001c-0.01-0.012-0.023-0.019-0.033-0.031
						c-0.012-0.01-0.017-0.022-0.03-0.031c-0.169-0.114-0.251-0.475-0.346-0.653c-0.102-0.191-0.215-0.378-0.34-0.555
						c-0.242-0.341-0.54-0.658-0.889-0.89c-0.689-0.457-1.531-0.55-2.299-0.237c-0.848,0.346-1.482,1.085-1.836,1.914
						c-0.379,0.887-0.611,2.057-0.435,3.014c0.024,0.129,0.229,0.178,0.274,0.033c0.242-0.789,0.2-1.638,0.45-2.432
						c0.25-0.794,0.715-1.525,1.452-1.945c0.716-0.409,1.54-0.373,2.21,0.11c0.294,0.212,0.537,0.483,0.744,0.779
						c0.059,0.084,0.197,0.273,0.314,0.47c-0.72-0.139-1.544,0.296-1.695,1.086c-0.193,1.014,0.601,1.669,1.45,2.12
						c-0.288,0.286-0.443,0.74-0.312,1.172c0.391,1.292,2.082,1.46,2.968,2.277c0.145,0.134,0.383-0.068,0.299-0.237
						c-0.342-0.692-1.068-0.917-1.731-1.197c-0.417-0.176-0.874-0.415-1.043-0.867c-0.125-0.333,0.084-0.888,0.445-0.849
						c0.097,0.042,0.196,0.085,0.287,0.123c0.314,0.13,0.57-0.32,0.291-0.521c-0.023-0.017-0.046-0.02-0.069-0.034
						c0.001-0.001,0.001-0.002,0.002-0.003c-0.016-0.007-0.035-0.014-0.051-0.021c-0.084-0.046-0.168-0.086-0.251-0.105
						c-0.624-0.262-1.465-0.663-1.616-1.274c-0.078-0.317,0.093-0.698,0.384-0.856c0.327-0.178,0.652-0.053,0.94,0.128
						C136.44,218.527,136.805,218.09,136.566,217.827z"/>
				</g>
			</g>
			<path style="fill:#E08C54;" d="M159.551,274.68l7.51-0.658c4.034-0.353,7.045-3.942,6.692-7.976l-3.931-44.892
				c-0.353-4.034-3.942-7.045-7.976-6.692l-7.51,0.658c-4.034,0.353-7.045,3.942-6.692,7.976l3.931,44.892
				C151.928,272.022,155.517,275.033,159.551,274.68z"/>
			<path style="fill:#FFBC8C;" d="M189.811,192.233l-0.111-0.025c-0.201-1.072-0.457-2.144-0.783-3.212
				c-4.746-15.543-21.194-24.295-36.737-19.548c-15.543,4.747-24.295,21.194-19.548,36.737c0.484,1.585,1.096,3.095,1.81,4.532
				c1.332,3.254,4.913,11.438,7.715,17.567c1.259,2.181,3.347,5.423,5.679,7.541c1.22,1.108,2.744,1.837,4.366,2.131l0.018,0.003
				c0.484-0.008,21.973,1.538,22.159,1.539c4.47,0.036,8.915-0.381,11.919-3.691c5.665-6.239,8.212-12.856,8.363-15.526
				C194.886,216.288,189.811,192.233,189.811,192.233z"/>
			<g>
				<defs>
					<path id="SVGID_00000132077504659877411270000014202662005311089042_" d="M188.916,188.996
						c-4.747-15.543-21.194-24.295-36.737-19.548c-15.543,4.747-24.295,21.194-19.548,36.737c0.484,1.585,1.096,3.095,1.81,4.532
						c2.045,4.996,9.021,21.863,11.077,24.571c1.624,2.138,28.587,4.208,28.859,4.21c4.47,0.036,8.915-0.381,11.919-3.691
						c5.665-6.239,8.212-12.856,8.363-15.526c0.226-3.992-4.849-28.048-4.849-28.048l-0.111-0.025
						C189.499,191.136,189.242,190.064,188.916,188.996z"/>
				</defs>
				<clipPath id="SVGID_00000026140595822264544910000010409598818780409775_">
					<use xlink:href="#SVGID_00000132077504659877411270000014202662005311089042_"  style="overflow:visible;"/>
				</clipPath>
				<g style="clip-path:url(#SVGID_00000026140595822264544910000010409598818780409775_);">
					
						<linearGradient id="SVGID_00000111902745731764357600000001801834534881643702_" gradientUnits="userSpaceOnUse" x1="189.9264" y1="839.2799" x2="189.6301" y2="864.7562" gradientTransform="matrix(0.9564 -0.2921 0.2921 0.9564 -254.6309 -545.8759)">
						<stop  offset="7.000000e-08" style="stop-color:#FFBC8C"/>
						<stop  offset="1" style="stop-color:#D83A35"/>
					</linearGradient>
					<path style="fill:url(#SVGID_00000111902745731764357600000001801834534881643702_);" d="M171.591,200.87l1.919,20.698
						c0,0,6.46,1.883,8.321-2.879l-9.211-18.093C172.366,200.045,171.536,200.266,171.591,200.87z"/>
					
						<linearGradient id="SVGID_00000106863388692730000780000010914973856483708577_" gradientUnits="userSpaceOnUse" x1="164.1811" y1="856.8514" x2="179.2132" y2="856.8514" gradientTransform="matrix(0.9564 -0.2921 0.2921 0.9564 -254.6309 -545.8759)">
						<stop  offset="7.000000e-08" style="stop-color:#FFBC8C"/>
						<stop  offset="1" style="stop-color:#D83A35"/>
					</linearGradient>
					<path style="fill:url(#SVGID_00000106863388692730000780000010914973856483708577_);" d="M167.055,221.269
						c1.212,3.97-1.023,8.171-4.993,9.384c-3.97,1.212-8.171-1.023-9.384-4.993c-1.212-3.97,1.023-8.171,4.993-9.384
						C161.641,215.063,165.843,217.299,167.055,221.269z"/>
					
						<linearGradient id="SVGID_00000078044518975635627780000015875691285498466693_" gradientUnits="userSpaceOnUse" x1="198.5765" y1="856.8523" x2="213.6085" y2="856.8523" gradientTransform="matrix(0.9564 -0.2921 0.2921 0.9564 -254.6309 -545.8759)">
						<stop  offset="7.000000e-08" style="stop-color:#FFBC8C"/>
						<stop  offset="1" style="stop-color:#D83A35"/>
					</linearGradient>
					<path style="fill:url(#SVGID_00000078044518975635627780000015875691285498466693_);" d="M199.951,211.223
						c1.213,3.97-1.023,8.171-4.993,9.383c-3.97,1.212-8.171-1.023-9.384-4.993c-1.212-3.97,1.023-8.171,4.993-9.384
						C194.537,205.017,198.739,207.253,199.951,211.223z"/>
					<path style="fill:#FEFEFE;" d="M185.051,223.106c0,0-4.461,7.54-12.374,3.779"/>
					<path style="fill:#1A1A1A;" d="M160.613,203.2c-0.657-0.395-1.359-0.696-2.093-0.916c-1.483-0.446-3.124-0.472-4.629-0.113
						c-2.857,0.681-5.865,3.114-6.377,6.135c-0.055,0.326,0.344,0.458,0.522,0.197c0.814-1.196,1.599-2.331,2.728-3.258
						c1.115-0.916,2.402-1.543,3.801-1.882c1.369-0.331,2.838-0.309,4.213-0.017c0.707,0.15,1.415,0.369,2.063,0.691
						c0.074,0.037,0.797,0.486,0.848,0.178C161.769,203.738,160.939,203.396,160.613,203.2z"/>
					<path style="fill:#1A1A1A;" d="M180.878,197.011c0.325-0.694,0.738-1.336,1.224-1.929c0.981-1.198,2.327-2.137,3.777-2.68
						c2.75-1.031,6.604-0.694,8.716,1.526c0.228,0.24-0.029,0.572-0.323,0.455c-1.343-0.538-2.628-1.04-4.083-1.178
						c-1.436-0.136-2.855,0.062-4.204,0.563c-1.32,0.49-2.526,1.329-3.504,2.339c-0.503,0.52-0.967,1.096-1.326,1.725
						c-0.041,0.072-0.389,0.848-0.604,0.621C180.22,198.103,180.717,197.356,180.878,197.011z"/>
					<path style="fill:#1A1A1A;" d="M162.185,210.125c0.195,2.404-1.501,4.503-3.789,4.689c-2.288,0.186-4.3-1.613-4.495-4.017
						c-0.195-2.404,1.501-4.503,3.789-4.689C159.978,205.923,161.99,207.721,162.185,210.125z"/>
					<path style="fill:#1A1A1A;" d="M192.341,201.177c0.195,2.404-1.501,4.503-3.789,4.689c-2.288,0.186-4.3-1.613-4.495-4.017
						c-0.195-2.404,1.501-4.503,3.789-4.689C190.133,196.975,192.146,198.773,192.341,201.177z"/>
				</g>
			</g>
			<path style="fill:#1A1A1A;" d="M196.395,173.15c-0.588-4.021-2.727-7.552-5.997-9.954c-3.171-2.329-7.34-3.409-11.174-2.402
				c-0.671-5.43-4.201-10.331-9.042-12.874c-2.457-1.291-5.291-2.019-8.074-1.767c-2.767,0.25-5.427,1.306-7.593,3.049
				c-2.064,1.661-3.512,4.013-3.796,6.636c-5.263-1.602-11.345-1.495-16.123,1.416c-4.434,2.701-6.934,7.827-6.271,12.999
				c0.241,1.876,0.92,3.615,2.012,5.082c-3.459-0.558-7.128-0.109-10.167,1.651c-3.537,2.05-5.759,5.875-5.728,9.978
				c0.015,1.947,0.577,3.819,1.674,5.402c-3.175,2.837-2.308,8.044-0.47,11.456c2.124,3.941,5.923,6.902,10.176,8.23
				c2.456,0.767,5.05,0.945,7.585,0.514c0.168-0.029,0.281-0.105,0.371-0.197c0.601,0.154,1.243,0.181,1.862,0.085
				c2.001-0.311,3.481-1.927,4.409-3.626c2.264-4.142,2.35-9.138,1.595-13.686c-0.128-0.772-0.288-1.537-0.463-2.298
				c1.852,1.567,4.386,2.401,6.799,2.077c5.157-0.692,8.803-5.369,9.737-10.247c0.247-1.292,0.339-2.598,0.311-3.904
				c1.544,2.229,3.748,4.006,6.314,5.027c4.7,1.869,9.993,0.468,13.575-2.987c0.87-0.839,1.623-1.798,2.244-2.834
				c0.663,2.777,2.458,5.364,4.259,7.524c1.269,1.521,2.889,3.85,5.185,3.053c2.005-0.696,3.314-2.942,4.288-4.697
				C196.028,182.01,197.034,177.525,196.395,173.15z"/>
			<path style="fill:#E85625;" d="M190.113,180.182c0,0-32.63-33.41-60.888,8.118c0,0,2.452-23.406,25.76-26.853
				C177.155,158.169,190.113,180.182,190.113,180.182z"/>
		</g>
		<g>
			<g>
				<path style="fill:#CA6831;" d="M202.104,351.242l-69.163,11.596l2.071,12.839c0,0-101.88,30.233-101.052,54.668
					c0.828,24.435,29.404,20.707,29.404,20.707s64.4-21.536,94.84-19.051c30.44,2.485,60.88-21.743,89.042-43.9
					c28.162-22.157,44.728-49.698,44.728-49.698l-43.9,0.828l-42.243,20.707L202.104,351.242z"/>
				<path style="fill:none;stroke:#260B01;stroke-linecap:round;stroke-linejoin:round;stroke-miterlimit:10;" d="M205.831,359.939
					c0,0-15.333,22.445-7.645,48.363"/>
			</g>
			<g>
				<path style="fill:#F05959;" d="M194.235,458.547l-9.798,15.25c0,0-16.423,2.88-21.04,10.72c0,0,23.123,0.596,27.704,1.012
					c1.665,0.151,18.834-21.293,18.834-21.293L194.235,458.547z"/>
				<path style="fill:#FFBC8C;" d="M141.23,431.726c0,0,90.23,24.869,89.876,24.869l-3.345,15.638L63.364,451.051
					C63.364,451.051,92.903,435.067,141.23,431.726z"/>
				<path style="fill:#FFBC8C;" d="M233.178,402.376l-44.213,63.142l15.94,4.492c0,0,111.12-99.258,107.111-119.302
					c-4.009-20.044-33.406-12.026-33.406-12.026L233.178,402.376z"/>
				<path style="fill:#F05959;" d="M230.342,456.747l17.402,5.075c0,0,14.281-8.606,22.91-5.722c0,0-17.055,15.626-20.237,18.948
					c-1.156,1.207-28.185-3.702-28.185-3.702L230.342,456.747z"/>
				<path style="fill:#260B01;" d="M303.983,352.878c-0.212-1.985-0.737-3.965-1.726-5.711c-1.744-3.079-4.813-5.392-8.379-5.75
					c-0.741-0.074-0.733,1.079,0,1.156c3.248,0.341,5.971,2.635,7.475,5.445c0.874,1.633,1.345,3.457,1.521,5.294
					c0.182,1.905-0.014,3.758-0.076,5.661c-0.013,0.392,0.544,0.438,0.66,0.089C304.096,357.135,304.197,354.887,303.983,352.878z"
					/>
			</g>
		</g>
		<g>
			<path style="fill:#E85625;" d="M132.941,362.838l-24.645-61.372c0,0-3.261-37.66,42.062-49.235c0,0,9.782,7.989,23.15-3.913
				c0,0,18.748-4.565,29.998-0.652c11.249,3.913,27.389,29.672,27.389,29.672l-26.737,18.259c0,0,11.412,25.27,11.086,26.085
				c-0.326,0.815-13.042,11.412-13.042,11.412l-0.098,18.148L132.941,362.838z"/>
			<path style="fill:#FFBC8C;" d="M331.526,331.579l-17.315-4.775c0,0,1.199-2.021,2.448-2.197c1.25-0.176,3.475-1.703,3.421-3.199
				c0,0-13.983,0.502-15.279,1.634c-1.295,1.132-2.002,2.434-4.491,2.087l-60.502-12.397l-15.591-31.536l-19.76,14.401
				l22.949,43.357l67.316-4.059c2.281,0.171,5.304,0.478,6.326,0.955c1.713,0.8,15.351,5.698,26.33,4.777
				c0,0,5.889-2.067,6.162-4.654C333.812,333.385,331.526,331.579,331.526,331.579z"/>
			<g>
				<g>
					<g>
						<path style="fill:#EF993A;" d="M310.093,328.546c-0.019,0.137,0.074,0.265,0.211,0.288c2.453,0.422,4.049-1.788,4.116-1.882
							c0.081-0.115,0.055-0.276-0.061-0.358c-0.116-0.082-0.276-0.055-0.358,0.061c-0.015,0.02-1.48,2.039-3.611,1.673
							c-0.139-0.024-0.272,0.07-0.297,0.209C310.094,328.54,310.094,328.543,310.093,328.546z"/>
					</g>
				</g>
				<g>
					<g>
						<path style="fill:#EF993A;" d="M317.642,337.975c-0.019,0.134,0.071,0.262,0.206,0.287
							c10.932,2.075,11.034,2.029,11.131,1.985c0.129-0.059,0.185-0.211,0.128-0.34c-0.046-0.101-0.148-0.158-0.252-0.15
							c-0.459-0.035-6.755-1.21-10.912-1.999c-0.139-0.027-0.273,0.065-0.3,0.204C317.643,337.966,317.642,337.97,317.642,337.975z"
							/>
					</g>
				</g>
				<g>
					<g>
						<path style="fill:#EF993A;" d="M318.698,335.109c-0.019,0.136,0.073,0.264,0.21,0.288c13.883,2.439,13.9,2.42,14.031,2.272
							c0.093-0.107,0.085-0.268-0.022-0.363c-0.053-0.047-0.119-0.068-0.184-0.064c-0.502-0.043-8.461-1.424-13.736-2.351
							c-0.139-0.025-0.273,0.069-0.297,0.208C318.699,335.103,318.699,335.106,318.698,335.109z"/>
					</g>
				</g>
				<g>
					<g>
						<path style="fill:#EF993A;" d="M318.51,331.742c-0.019,0.136,0.074,0.265,0.211,0.288l14.601,2.505
							c0.14,0.024,0.272-0.07,0.297-0.21c0.023-0.14-0.07-0.272-0.21-0.296l-14.601-2.504c-0.14-0.024-0.273,0.07-0.297,0.21
							C318.511,331.736,318.511,331.739,318.51,331.742z"/>
					</g>
				</g>
				<g>
					<g>
						<path style="fill:#EF993A;" d="M314.191,337.974c-0.008,0.058,0.004,0.119,0.037,0.172c0.076,0.12,0.234,0.156,0.354,0.08
							c4.643-2.923,2.162-8.249,2.137-8.302c-0.061-0.128-0.215-0.182-0.342-0.121c-0.128,0.061-0.181,0.215-0.121,0.342
							c0.096,0.201,2.305,4.968-1.947,7.646C314.242,337.835,314.201,337.902,314.191,337.974z"/>
					</g>
				</g>
			</g>
			<g>
				<path style="fill:#260B01;" d="M99.614,404.897c0.668,2.652,1.483,5.267,2.444,7.827c0.868,2.311,1.783,4.676,3.108,6.77
					c1.283,2.03,3,3.737,5.26,4.629c2.103,0.829,4.576,0.75,6.465-0.571c1.776-1.242,2.935-3.24,3.38-5.342
					c0.574-2.709,0.084-5.493-0.524-8.151c-1.245-5.439-2.871-10.788-3.884-16.28c-1.68-9.116-1.367-19.54,4.944-26.93
					c0.045,0.113,0.093,0.224,0.138,0.337c0.157,0.394,0.523,0.68,0.97,0.551c0.376-0.108,0.712-0.572,0.551-0.971
					c-2.342-5.8-4.844-11.532-7.553-17.171c-0.123-0.257-0.425-0.386-0.693-0.398c-1.236-0.054-2.269,0.638-3.144,1.44
					c-3.349,3.069-6.039,6.982-8.073,11.022c-2.075,4.121-3.528,8.543-4.429,13.065C96.594,384.667,97.147,395.092,99.614,404.897z"
					/>
				<path style="fill:#FFF7F5;" d="M207.609,264.366c0,0,13.777-3.909,18.617,0.745c0,0,5.399-13.963,10.798-13.404
					c5.399,0.559,7.074,16.197,5.213,26.436c0,0,15.825,35.372-15.266,39.096l-1.862,6.702c0,0,27.367,8.191,23.085,18.617
					c-4.282,10.426-32.021,0-32.021,0s-5.027,21.596-21.596,33.511c0,0,14.521,8.75,1.862,17.5l-16.383,1.489
					c0,0,5.585,12.473-20.479,24.947c0,0,7.447,16.011-4.84,17.5c-12.287,1.489-8.936-0.745-8.936-0.745l-0.372-37.234l-4.096,0.372
					c0,0-9.867-16.755-16.383-20.851c-6.516-4.096-24.761-35.931,1.117-65.905c25.878-29.973,56.224-23.83,56.224-23.83
					s4.654-17.686,10.053-22.713c0,0-2.979-16.197,2.234-18.989C199.79,244.818,207.609,264.366,207.609,264.366z"/>
				<path style="fill:#E5C2BD;" d="M228.265,317.229c0,0,5.492,7.168,16.942,3.723c11.45-3.444,21.782,0.465,23.83,8.75
					c0,0-0.745,9.309-11.17,3.909c-10.426-5.399-19.734-4.096-19.734-4.096l-12.557-5.579l1.395-6.7L228.265,317.229z"/>
				<g>
					<path style="fill:#260B01;" d="M194.611,309.992c0.502,0.093,1.092,0.255,1.53,0.517c0.521,0.312,1.001,0.747,1.456,1.145
						c0.861,0.752,1.663,1.568,2.492,2.355c1.639,1.557,3.426,2.897,5.405,3.992c3.887,2.151,8.234,3.355,12.574,4.19
						c1.261,0.242,2.529,0.438,3.793,0.659c0.628,0.11,1.258,0.201,1.881,0.336c0.609,0.132,1.257,0.216,1.833,0.454
						c0.121,0.05,0.17,0.272,0,0.298c-1.065,0.165-2.251-0.003-3.319-0.118c-1.146-0.124-2.285-0.282-3.423-0.467
						c-2.239-0.366-4.467-0.82-6.651-1.436c-4.317-1.217-8.483-3.134-11.902-6.074c-1.002-0.862-1.918-1.818-2.883-2.719
						c-0.505-0.472-1.024-0.929-1.572-1.352c-0.529-0.409-0.99-0.882-1.461-1.359C194.179,310.224,194.373,309.948,194.611,309.992z
						"/>
					<path style="fill:#260B01;" d="M193.397,338.345c0.769-0.078,1.62,0.106,2.387,0.187c0.835,0.088,1.67,0.17,2.507,0.238
						c1.621,0.133,3.244,0.23,4.865,0.353c3.179,0.241,6.431,0.562,9.464,1.601c0.805,0.275,1.58,0.602,2.347,0.967
						c0.786,0.374,1.646,0.795,2.295,1.385c0.149,0.136-0.007,0.419-0.202,0.348c-0.729-0.266-1.42-0.654-2.141-0.948
						c-0.72-0.294-1.471-0.525-2.219-0.736c-1.515-0.429-3.071-0.728-4.629-0.946c-3.181-0.444-6.401-0.538-9.6-0.774
						c-0.897-0.066-1.794-0.139-2.687-0.245c-0.863-0.103-1.832-0.172-2.629-0.535C192.673,339.022,192.98,338.388,193.397,338.345z
						"/>
					<path style="fill:#260B01;" d="M237.799,334.319c0.188-0.018,0.301,0.039,0.482,0.082c0.16,0.038,0.271,0.027,0.426,0.053
						c0.302,0.052,0.633,0.231,0.909,0.364c0.603,0.29,1.176,0.634,1.726,1.014c1.058,0.733,2.018,1.611,2.85,2.593
						c0.833,0.982,1.557,2.063,2.11,3.227c0.24,0.506,0.415,1.048,0.354,1.615c-0.057,0.534-0.364,1.121-0.967,1.132
						c-0.38,0.007-0.651-0.444-0.443-0.772c0.098-0.154,0.227-0.236,0.276-0.41c0.049-0.172-0.012-0.407-0.056-0.573
						c-0.124-0.459-0.382-0.892-0.613-1.305c-0.55-0.979-1.213-1.888-1.979-2.709c-0.749-0.803-1.587-1.526-2.492-2.148
						c-0.453-0.312-0.922-0.595-1.398-0.869c-0.235-0.136-0.485-0.269-0.701-0.432c-0.199-0.15-0.475-0.291-0.645-0.479
						C237.502,334.55,237.605,334.337,237.799,334.319z"/>
					<path style="fill:#260B01;" d="M232.53,336.798c0.512-0.048,1.121,0.219,1.595,0.394c0.525,0.194,1.026,0.462,1.497,0.762
						c0.994,0.635,1.84,1.416,2.548,2.359c0.687,0.914,1.216,1.951,1.561,3.041c0.174,0.551,0.29,1.115,0.363,1.688
						c0.072,0.567,0.219,1.215-0.335,1.57c-0.106,0.068-0.274,0.072-0.38,0c-0.49-0.337-0.392-0.843-0.443-1.375
						c-0.049-0.512-0.161-1.019-0.307-1.512c-0.292-0.983-0.759-1.904-1.355-2.737c-0.588-0.823-1.324-1.6-2.137-2.205
						c-0.421-0.314-0.874-0.578-1.333-0.83c-0.448-0.246-0.997-0.358-1.413-0.642C232.158,337.152,232.257,336.824,232.53,336.798z"
						/>
					<path style="fill:#260B01;" d="M195.381,271.958c0.975-0.581,2.038-1.034,3.058-1.531c1.025-0.5,2.051-1,3.076-1.499
						c0.513-0.25,1.025-0.5,1.538-0.749c0.257-0.125,0.513-0.249,0.769-0.374c0.107-0.052,0.533-0.194,0.575-0.327
						c0.042-0.132-0.166-0.461-0.217-0.577c-0.097-0.219-0.196-0.436-0.298-0.653c-0.191-0.406-0.391-0.808-0.599-1.205
						c-0.874-1.67-1.9-3.253-3.039-4.754c-0.585-0.771-1.214-1.51-1.85-2.24c-0.598-0.686-1.305-1.337-1.807-2.098
						c-0.165-0.25,0.151-0.507,0.386-0.386c0.699,0.36,1.328,0.966,1.894,1.504c0.587,0.557,1.137,1.142,1.663,1.756
						c1.083,1.266,2.061,2.616,2.928,4.038c0.42,0.689,0.814,1.394,1.182,2.113c0.349,0.682,0.842,1.465,0.984,2.224
						c0.164,0.874-0.46,1.358-1.159,1.707c-0.86,0.43-1.722,0.857-2.584,1.285c-1.983,0.985-3.952,2.116-6.01,2.933
						C195.186,273.396,194.778,272.317,195.381,271.958z"/>
					<path style="fill:#260B01;" d="M229.003,268.379c2.809-3.091,5.258-6.538,7.335-10.16c0.319-0.556,1.13-0.067,0.852,0.498
						c-1.772,3.601-4.01,6.895-6.628,9.925c2.083,1.027,4.047,2.27,5.86,3.727c0.907,0.729,1.998,1.525,2.667,2.488
						c0.549,0.79,0.671,2.034-0.48,2.298c-0.533,0.122-0.821-0.497-0.487-0.852v0c-0.01-0.042,0.012-0.093,0.004-0.138
						c-0.028-0.165-0.111-0.336-0.201-0.476c-0.242-0.375-0.638-0.68-0.962-0.983c-0.769-0.719-1.575-1.402-2.418-2.032
						c-1.686-1.261-3.5-2.339-5.405-3.233C228.725,269.247,228.734,268.674,229.003,268.379z"/>
					<path style="fill:#260B01;" d="M146.075,332.088c1.936-0.6,4.046-0.676,6.062-0.603c2.047,0.073,4.093,0.376,6.064,0.938
						c3.875,1.105,7.386,3.261,9.839,6.491c2.757,3.631,3.876,8.18,4.427,12.628c0.621,5.018,0.65,10.13,0.205,15.164
						c-0.483,5.461-1.555,10.861-3.194,16.092c3.351,0.12,6.587-0.968,9.653-2.27c3.475-1.476,6.873-3.261,10.561-4.16
						c2.058-0.502,4.164-0.69,6.265-0.38c0.804,0.118,0.623,1.523-0.193,1.431c-7.641-0.861-14.04,4.441-21.126,6.28
						c-2.006,0.521-4.091,0.765-6.158,0.539c-0.455-0.05-0.887-0.442-0.722-0.948c3.073-9.422,4.257-19.413,3.44-29.292
						c-0.356-4.312-1.099-8.783-3.291-12.58c-1.958-3.392-5.088-5.83-8.738-7.189c-2.027-0.755-4.159-1.199-6.311-1.398
						c-2.236-0.208-4.452-0.033-6.687-0.042C145.763,332.785,145.693,332.206,146.075,332.088z"/>
					<path style="fill:#260B01;" d="M189.528,383.169c2.453-1.184,5.603-0.668,7.996,0.408c1.18,0.531,2.476,1.303,3.327,2.299
						c0.356,0.416,0.575,1.042,0.436,1.587c-0.137,0.533-0.65,0.829-1.177,0.648c-0.487-0.167-0.472-0.726-0.119-0.952
						c-0.007-0.038-0.009-0.085-0.014-0.115c-0.026-0.149-0.102-0.252-0.199-0.361c-0.331-0.372-0.76-0.693-1.166-0.979
						c-0.856-0.604-1.796-1.081-2.791-1.409c-0.974-0.321-1.974-0.514-2.998-0.576c-1.044-0.064-2.072,0.058-3.112,0.126
						C189.359,383.868,189.206,383.324,189.528,383.169z"/>
					<path style="fill:#260B01;" d="M187.375,388.523c0.954-0.467,1.915-0.786,2.988-0.798c1.104-0.013,2.185,0.251,3.194,0.687
						c2.017,0.872,3.625,2.493,4.366,4.572c0.279,0.781-0.973,1.125-1.243,0.343c-0.603-1.743-2.015-3.092-3.671-3.853
						c-1.602-0.737-3.724-0.988-5.409-0.417C187.29,389.162,187.076,388.669,187.375,388.523z"/>
					<path style="fill:#260B01;" d="M154.716,437.099c1.266-1.617,1.969-3.57,2.014-5.626c0.022-1.009-0.112-2.016-0.382-2.989
						c-0.141-0.506-0.304-1.003-0.516-1.484c-0.199-0.452-0.473-0.869-0.618-1.34c-0.07-0.228,0.209-0.456,0.414-0.319
						c0.871,0.582,1.441,1.808,1.792,2.766c0.401,1.097,0.577,2.276,0.572,3.443c-0.01,2.334-0.788,4.72-2.331,6.493
						C155.086,438.705,154.199,437.76,154.716,437.099z"/>
					<path style="fill:#260B01;" d="M148.107,438.122c0.134-0.315,0.271-0.537,0.477-0.82c0.188-0.259,0.374-0.519,0.547-0.788
						c0.331-0.515,0.623-1.055,0.877-1.613c0.514-1.13,0.852-2.364,1.023-3.593c0.168-1.208,0.151-2.449-0.007-3.657
						c-0.083-0.634-0.227-1.262-0.38-1.882c-0.126-0.511-0.415-1.16-0.331-1.682c0.025-0.154,0.226-0.209,0.345-0.14
						c0.489,0.281,0.766,1.049,0.971,1.551c0.262,0.643,0.437,1.314,0.562,1.996c0.246,1.34,0.268,2.715,0.098,4.066
						c-0.173,1.369-0.534,2.683-1.09,3.946c-0.518,1.177-1.242,2.673-2.37,3.338C148.331,439.136,147.915,438.574,148.107,438.122z"
						/>
					<path style="fill:#260B01;" d="M262.361,326.095c0.785-0.213,1.492,0.198,2.077,0.684c0.621,0.517,1.207,1.107,1.718,1.733
						c0.527,0.645,0.965,1.343,1.234,2.136c0.256,0.755,0.402,1.745,0.025,2.482c-0.255,0.5-0.989,0.234-1.007-0.273
						c-0.012-0.327,0.049-0.649,0.032-0.976c-0.016-0.313-0.087-0.623-0.18-0.921c-0.195-0.618-0.536-1.187-0.934-1.697
						c-0.411-0.526-0.892-0.987-1.354-1.466c-0.398-0.412-0.88-1.094-1.519-1.033C262.063,326.8,261.999,326.193,262.361,326.095z"
						/>
					<path style="fill:#260B01;" d="M260.214,328.574c0.738,0.22,1.403,0.535,2.003,1.019c0.593,0.478,1.098,1.07,1.472,1.734
						c0.367,0.65,0.637,1.368,0.764,2.104c0.065,0.379,0.103,0.763,0.096,1.148c-0.007,0.394,0.031,1.044-0.391,1.232
						c-0.204,0.091-0.408,0.081-0.578-0.075c-0.307-0.281-0.154-0.701-0.142-1.066c0.011-0.315-0.003-0.634-0.047-0.947
						c-0.093-0.65-0.305-1.286-0.614-1.864c-0.617-1.152-1.596-2.188-2.802-2.721C259.653,328.996,259.883,328.475,260.214,328.574z
						"/>
					<path style="fill:#260B01;" d="M179.857,394.089c-1.316-0.093-2.6-0.346-3.925-0.399c-1.24-0.05-2.481-0.085-3.721-0.123
						c-2.273-0.07-4.549-0.12-6.824-0.085c-4.477,0.069-9.005,0.475-13.314,1.753c-1.155,0.342-2.285,0.759-3.392,1.234
						c-1.157,0.497-2.372,1.031-3.37,1.807c-0.667,0.518,0.184,1.366,0.833,1.08c0.986-0.435,1.906-1.018,2.894-1.459
						c0.984-0.439,1.999-0.809,3.026-1.136c2.056-0.655,4.175-1.103,6.311-1.403c4.366-0.613,8.8-0.638,13.2-0.578
						c1.289,0.018,2.578,0.043,3.866,0.067c0.734,0.013,1.474,0.033,2.207-0.014c0.742-0.047,1.462-0.159,2.208-0.174
						C180.227,394.652,180.22,394.115,179.857,394.089z"/>
				</g>
				<g>
					
						<ellipse transform="matrix(0.9871 -0.1602 0.1602 0.9871 -59.8834 46.2891)" style="fill:#FFB3B3;" cx="257.17" cy="394.577" rx="33.586" ry="33.586"/>
					<g>
						<path style="fill:#F05959;" d="M275.522,374.909c-8.152,6.102-13.9,14.934-18.952,23.626c-0.705,1.213-1.4,2.432-2.083,3.657
							c-0.695,1.245-1.465,2.506-1.892,3.873c-0.118,0.376,0.414,0.709,0.681,0.397c0.827-0.965,1.434-2.111,2.055-3.215
							c0.608-1.081,1.219-2.161,1.836-3.238c1.261-2.201,2.555-4.383,3.911-6.527c2.661-4.206,5.566-8.277,8.919-11.963
							c1.899-2.088,3.93-4.065,6.062-5.915C276.434,375.28,275.927,374.605,275.522,374.909z"/>
						<path style="fill:#F05959;" d="M278.839,382.151c-3.925,2.886-7.37,6.406-10.487,10.141c-3.096,3.711-5.861,7.7-8.232,11.912
							c-0.678,1.203-1.323,2.425-1.935,3.663c-0.306,0.62-0.596,1.247-0.875,1.879c-0.281,0.636-0.46,1.277-0.68,1.934
							c-0.157,0.47,0.566,0.773,0.8,0.337c0.278-0.517,0.599-0.991,0.853-1.519c0.276-0.574,0.559-1.144,0.838-1.716
							c0.513-1.05,1.05-2.088,1.61-3.114c1.145-2.098,2.387-4.143,3.719-6.128c2.666-3.972,5.706-7.681,9.04-11.11
							c1.885-1.938,3.874-3.783,5.857-5.62C279.69,382.493,279.228,381.865,278.839,382.151z"/>
						<path style="fill:#F05959;" d="M283.056,388.293c-3.23,3.273-6.081,6.919-8.858,10.577c-2.757,3.631-5.381,7.363-7.876,11.178
							c-1.423,2.176-2.865,4.362-4.113,6.643c-0.332,0.606,0.546,1.111,0.921,0.539c1.266-1.931,2.444-3.919,3.699-5.858
							c1.222-1.889,2.477-3.757,3.762-5.603c2.612-3.753,5.363-7.399,8.194-10.99c1.598-2.028,3.238-4.022,4.803-6.076
							C283.825,388.393,283.32,388.025,283.056,388.293z"/>
						<path style="fill:#F05959;" d="M287.703,398.786c-1.413-0.023-2.89,0.582-4.155,1.161c-1.39,0.637-2.697,1.438-4.079,2.092
							c-1.359,0.643-2.759,1.197-4.17,1.713c-0.702,0.257-1.408,0.5-2.114,0.744c-0.566,0.196-1.542,0.389-1.855,0.943
							c-0.086,0.152-0.052,0.411,0.128,0.488c0.622,0.264,1.423-0.128,2.029-0.333c0.68-0.23,1.356-0.47,2.029-0.716
							c1.419-0.519,2.822-1.082,4.187-1.73c1.354-0.643,2.632-1.422,3.964-2.107c0.681-0.35,1.38-0.663,2.098-0.93
							c0.698-0.259,1.418-0.49,2.06-0.873C288.034,399.114,287.944,398.79,287.703,398.786z"/>
						<path style="fill:#F05959;" d="M287.507,407.578c-0.688,0-1.396,0.155-2.074,0.261c-0.69,0.108-1.379,0.221-2.068,0.336
							c-1.406,0.236-2.806,0.5-4.21,0.747c-1.372,0.242-2.746,0.473-4.119,0.708c-0.686,0.118-1.373,0.234-2.06,0.348
							c-0.374,0.062-0.748,0.127-1.122,0.195c-0.393,0.071-0.707,0.214-1.076,0.359c-0.412,0.162-0.367,0.764,0.107,0.789
							c0.373,0.02,0.719,0.058,1.091,0.003c0.345-0.051,0.689-0.103,1.033-0.162c0.686-0.116,1.372-0.235,2.058-0.354
							c1.402-0.245,2.801-0.506,4.2-0.771c1.367-0.259,2.733-0.525,4.095-0.809c0.68-0.142,1.36-0.293,2.035-0.455
							c0.727-0.175,1.502-0.311,2.192-0.601C287.881,408.049,287.877,407.578,287.507,407.578z"/>
						<path style="fill:#F05959;" d="M264.066,386.365c-0.453-1.641-1.028-3.243-1.505-4.879c-0.477-1.636-0.88-3.294-1.207-4.967
							c-0.329-1.685-0.589-3.394-0.581-5.115c0.004-0.859,0.069-1.724,0.189-2.575c0.119-0.846,0.358-1.659,0.528-2.493
							c0.09-0.441-0.564-0.793-0.778-0.328c-0.731,1.591-1.015,3.477-1.076,5.214c-0.062,1.766,0.157,3.526,0.475,5.261
							c0.318,1.737,0.72,3.459,1.201,5.158c0.495,1.748,1.048,3.474,1.874,5.095C263.435,387.23,264.21,386.885,264.066,386.365z"/>
						<path style="fill:#F05959;" d="M252.007,397.99c-0.2-0.489-0.398-0.979-0.596-1.47c-0.384-0.952-0.763-1.905-1.138-2.86
							c-0.74-1.881-1.468-3.767-2.177-5.661c-1.43-3.816-2.774-7.661-4.09-11.518c-0.744-2.181-1.451-4.373-2.258-6.532
							c-0.189-0.505-0.958-0.314-0.821,0.226c1.006,3.974,2.379,7.861,3.734,11.728c1.357,3.874,2.782,7.724,4.275,11.547
							c0.407,1.043,0.822,2.083,1.241,3.121c0.209,0.519,0.42,1.038,0.632,1.556c0.218,0.534,0.348,1.078,0.854,1.405
							c0.214,0.138,0.544,0.007,0.599-0.244C252.37,398.793,252.193,398.444,252.007,397.99z"/>
						<path style="fill:#F05959;" d="M247.145,401.466c-0.232-0.454-0.461-0.911-0.693-1.365c-0.465-0.908-0.925-1.819-1.375-2.734
							c-0.9-1.831-1.766-3.679-2.599-5.541c-1.678-3.756-3.224-7.574-4.629-11.44c-0.789-2.171-1.478-4.392-2.357-6.528
							c-0.231-0.562-1.069-0.366-0.931,0.257c0.447,2.013,1.143,3.986,1.826,5.93c0.686,1.953,1.409,3.893,2.167,5.818
							c1.516,3.849,3.187,7.638,4.99,11.361c0.497,1.026,1.004,2.047,1.522,3.063c0.272,0.535,0.552,1.065,0.837,1.593
							c0.273,0.508,0.492,1.028,1.019,1.311c0.3,0.161,0.606-0.046,0.636-0.365C247.608,402.31,247.373,401.912,247.145,401.466z"/>
						<path style="fill:#F05959;" d="M255.169,416.091c-0.148-0.348-0.462-0.575-0.733-0.829c-0.302-0.283-0.602-0.566-0.914-0.837
							c-0.65-0.563-1.304-1.122-1.961-1.677c-1.266-1.071-2.542-2.129-3.818-3.188c-2.33-1.934-4.639-3.932-7.165-5.609
							c-0.693-0.461-1.406-0.899-2.143-1.287c-0.693-0.365-1.498-0.839-2.278-0.955c-0.55-0.082-0.869,0.573-0.383,0.909
							c0.581,0.402,1.302,0.638,1.929,0.97c0.638,0.339,1.262,0.7,1.872,1.088c1.231,0.784,2.402,1.659,3.545,2.566
							c2.49,1.975,4.927,4.016,7.417,5.991c0.727,0.577,1.454,1.152,2.187,1.72c0.333,0.258,0.667,0.509,1.01,0.754
							c0.365,0.26,0.736,0.623,1.183,0.714C255.121,416.463,255.245,416.272,255.169,416.091z"/>
						<path style="fill:#F05959;" d="M249.363,418.838c-0.506-0.677-1.157-1.24-1.778-1.809c-0.631-0.578-1.275-1.143-1.924-1.703
							c-1.346-1.161-2.705-2.309-4.057-3.464c-2.657-2.269-5.332-4.518-7.999-6.775c-0.752-0.636-1.505-1.271-2.258-1.905
							c-0.653-0.55-1.433-1.441-2.324-1.528c-0.238-0.023-0.403,0.248-0.347,0.455c0.208,0.769,1.087,1.318,1.667,1.808
							c0.655,0.554,1.31,1.108,1.967,1.659c1.338,1.124,2.677,2.248,4.015,3.372c2.677,2.248,5.36,4.49,8.047,6.727
							c0.733,0.61,1.467,1.223,2.218,1.811c0.768,0.6,1.54,1.269,2.412,1.712C249.214,419.306,249.534,419.067,249.363,418.838z"/>
					</g>
					<path style="fill:#F05959;" d="M348.018,411.217c-0.108-1.201-0.408-2.316-0.675-3.483c-0.155-0.681-1.203-0.393-1.047,0.289
						c0.26,1.136,0.29,2.369,0.345,3.53c0.056,1.178,0.006,2.347-0.113,3.52c-0.236,2.331-0.855,4.634-1.75,6.797
						c-1.793,4.337-4.814,8.245-8.626,10.994c-4.254,3.067-9.196,4.383-14.414,4.28c-6.162-0.121-12.13-1.894-18.14-3.058
						c-2.991-0.579-6.025-1.033-9.076-1.083c-2.926-0.048-5.833,0.34-8.679,1.004c-5.696,1.33-11.089,3.659-16.708,5.249
						c-5.507,1.559-11.226,2.238-16.779,0.5c-5.38-1.684-10.018-5.171-13.971-9.106c-4.123-4.105-7.771-8.782-10.517-13.921
						c-2.726-5.103-4.446-10.775-4.117-16.604c0.082-1.454,0.306-2.918,0.591-4.345c0.042-0.209-0.241-0.284-0.316-0.087
						c-2.093,5.486-1.136,11.705,0.916,17.057c2.163,5.641,5.585,10.725,9.518,15.28c3.745,4.338,8.068,8.37,13.195,11.019
						c2.519,1.302,5.228,2.259,8.038,2.681c2.86,0.429,5.741,0.324,8.591-0.128c5.955-0.945,11.558-3.312,17.289-5.085
						c2.842-0.88,5.746-1.646,8.708-1.989c3.161-0.366,6.352-0.205,9.494,0.262c6.259,0.931,12.331,2.864,18.631,3.561
						c5.55,0.614,11.133,0.035,16.075-2.698C342.921,430.985,348.899,420.972,348.018,411.217z"/>
				</g>
				<g>
					<path style="fill:#260B01;" d="M214.484,283.307c-0.446-0.132-0.922-0.174-1.379-0.204c-0.47-0.031-0.951-0.044-1.415,0.005
						c-0.884,0.093-1.756,0.585-1.855,1.539c-0.052,0.501,0.176,0.901,0.525,1.182c0.016,0.02,0.027,0.041,0.045,0.06
						c0.017,0.018,0.035,0.031,0.053,0.046c0.079,0.135,0.229,0.234,0.397,0.232c0.356,0.144,0.783,0.159,1.161,0.109
						c0.77-0.041,1.548-0.3,2.224-0.578c0.413-0.17,0.903-0.362,1.237-0.658c0.382-0.339,0.513-0.872,0.074-1.265
						c-0.113-0.1-0.269-0.107-0.405-0.063C214.968,283.521,214.729,283.38,214.484,283.307z"/>
					<path style="fill:#260B01;" d="M232.17,283.906c0.46-0.056,0.935-0.017,1.389,0.03c0.467,0.048,0.941,0.116,1.389,0.243
						c0.853,0.241,1.625,0.874,1.561,1.835c-0.034,0.504-0.326,0.862-0.716,1.081c-0.019,0.017-0.033,0.036-0.054,0.052
						c-0.02,0.015-0.04,0.024-0.06,0.037c-0.1,0.12-0.264,0.193-0.429,0.163c-0.374,0.083-0.796,0.026-1.158-0.088
						c-0.75-0.171-1.47-0.557-2.086-0.946c-0.377-0.238-0.825-0.51-1.104-0.859c-0.318-0.399-0.356-0.949,0.142-1.264
						c0.127-0.08,0.282-0.061,0.408,0.006C231.658,284.035,231.917,283.937,232.17,283.906z"/>
					<path style="fill:#260B01;" d="M224.809,293.276c-0.068,0.124-0.146,0.263-0.247,0.36c-0.054,0.052-0.118,0.093-0.174,0.144
						c-0.048,0.044-0.097,0.084-0.149,0.122c-0.182,0.132-0.365,0.218-0.559,0.285c-0.169-0.31-0.359-0.606-0.585-0.874
						c-0.108-0.128-0.315-0.117-0.425-0.001c-0.121,0.127-0.109,0.321-0.001,0.449c0.244,0.29,0.456,0.6,0.635,0.939
						c0.062,0.117,0.202,0.173,0.323,0.139c0.345-0.096,0.652-0.269,0.918-0.518c0.128-0.12,0.229-0.246,0.316-0.401
						c0.087-0.154,0.183-0.292,0.253-0.457C225.203,293.25,224.926,293.063,224.809,293.276z"/>
					<path style="fill:#260B01;" d="M208.64,296.106c-1.183-0.664-2.378-1.331-3.655-1.773c-1.249-0.433-2.568-0.582-3.877-0.448
						c-2.579,0.264-4.943,1.511-6.974,3.165c-0.568,0.462-1.107,0.954-1.627,1.475c-0.546,0.547-1.028,1.12-1.515,1.722
						c-0.144,0.179,0.081,0.426,0.246,0.261c0.446-0.444,0.905-0.869,1.355-1.31c0.448-0.439,0.911-0.863,1.384-1.273
						c0.952-0.827,1.978-1.566,3.078-2.156c2.259-1.211,4.868-1.736,7.349-1.054c1.414,0.389,2.723,1.087,4.019,1.782
						C208.667,296.628,208.884,296.243,208.64,296.106z"/>
					<path style="fill:#260B01;" d="M207.825,297.158c-3.812,0.504-7.494,2.483-10.032,5.554c-0.722,0.874-1.301,1.834-1.803,2.862
						c-0.096,0.197,0.165,0.359,0.28,0.174c2.008-3.241,5.014-5.873,8.488-7.152c0.993-0.366,2.022-0.628,3.065-0.768
						C208.223,297.774,208.23,297.105,207.825,297.158z"/>
					<path style="fill:#260B01;" d="M237.117,294.811c1.055-0.874,2.12-1.752,3.304-2.424c1.158-0.658,2.432-1.049,3.742-1.16
						c2.583-0.219,5.117,0.569,7.391,1.821c0.635,0.35,1.249,0.734,1.847,1.15c0.628,0.437,1.198,0.911,1.778,1.414
						c0.171,0.149-0.009,0.434-0.199,0.303c-0.512-0.354-1.035-0.687-1.551-1.038c-0.514-0.349-1.041-0.681-1.574-0.997
						c-1.075-0.637-2.207-1.175-3.388-1.551c-2.425-0.772-5.081-0.805-7.41,0.326c-1.328,0.645-2.5,1.576-3.661,2.501
						C237.177,295.33,236.899,294.992,237.117,294.811z"/>
					<path style="fill:#260B01;" d="M238.094,295.696c3.836-0.212,7.79,1.054,10.798,3.606c0.856,0.726,1.585,1.564,2.25,2.483
						c0.127,0.176-0.103,0.384-0.247,0.223c-2.515-2.818-5.911-4.851-9.543-5.465c-1.038-0.176-2.095-0.243-3.145-0.187
						C237.805,296.376,237.686,295.718,238.094,295.696z"/>
					<path style="fill:#F05959;" d="M213.447,296.982c-0.003,1.643-1.267,2.973-2.822,2.97c-1.555-0.003-2.814-1.337-2.811-2.981
						c0.003-1.643,1.266-2.973,2.822-2.97C212.192,294.004,213.45,295.339,213.447,296.982z"/>
					<path style="fill:#F05959;" d="M238.578,297.029c-0.003,1.643-1.267,2.973-2.822,2.97c-1.556-0.003-2.814-1.337-2.811-2.981
						c0.003-1.643,1.266-2.973,2.822-2.97C237.322,294.051,238.581,295.386,238.578,297.029z"/>
					<path style="fill:#260B01;" d="M229.48,297.101c-0.334,0.121-0.536,0.473-0.858,0.639c-0.337,0.174-0.719,0.23-1.091,0.214
						c-0.898-0.04-1.699-0.611-2.387-1.175c-0.324-0.265-0.681-0.684-1.068-0.839c-0.374-0.149-0.694,0.079-0.923,0.379
						c-0.289,0.379-0.552,0.727-0.949,0.99c-0.381,0.253-0.815,0.42-1.263,0.468c-1.019,0.109-2.076-0.357-2.728-1.184
						c-0.071-0.09-0.216,0.027-0.155,0.125c0.496,0.792,1.275,1.401,2.175,1.551c0.904,0.15,1.845-0.112,2.574-0.695
						c0.178-0.142,0.342-0.298,0.489-0.476c0.128-0.155,0.272-0.474,0.452-0.559c0.164-0.077,0.475,0.313,0.601,0.43
						c0.201,0.186,0.408,0.365,0.618,0.538c0.748,0.617,1.592,1.131,2.562,1.181c0.483,0.025,0.971-0.069,1.409-0.286
						c0.363-0.18,0.899-0.561,0.86-1.045C229.786,297.198,229.647,297.04,229.48,297.101z"/>
					<path style="fill:#260B01;" d="M216.274,290.178c-0.404-1.049-1.321-1.471-2.301-1.754c-1.069-0.31-2.161,0.03-2.861,0.953
						c-0.203,0.267-0.355,0.564-0.467,0.879c-0.211,0.28-0.384,0.592-0.508,0.925c-0.663,1.781,0.419,3.82,2.086,4.411
						c1.673,0.593,3.589-0.545,4.131-2.28C216.652,292.358,216.634,291.113,216.274,290.178z"/>
					<path style="fill:#260B01;" d="M235.586,290.215c-0.404-1.049-1.321-1.471-2.301-1.754c-1.07-0.309-2.161,0.03-2.861,0.953
						c-0.203,0.267-0.355,0.564-0.467,0.879c-0.211,0.28-0.384,0.592-0.508,0.925c-0.663,1.781,0.419,3.82,2.086,4.411
						c1.673,0.593,3.589-0.545,4.131-2.28C235.964,292.394,235.946,291.149,235.586,290.215z"/>
					<path style="fill:#260B01;" d="M229.343,270.119L229.343,270.119c-0.089-0.187-0.295-0.27-0.492-0.195
						c-0.204,0.077-0.313,0.291-0.254,0.496c0.075,0.262,0.159,0.524,0.243,0.785c0.313,0.974,0.609,1.895,0.482,2.889
						c-0.115,0.898-0.616,1.935-1.677,2.153c-0.564,0.116-1.136,0.043-1.707-0.214c0.152-0.484,0.228-0.989,0.228-1.502
						c0.001-1.481-0.522-2.908-1.398-3.818c-0.258-0.268-0.941-0.984-1.664-0.63c-0.596,0.294-0.705,1.078-0.724,1.401
						c-0.111,1.88,0.949,3.883,2.598,4.949c-0.159,0.311-0.357,0.585-0.592,0.818c-0.733,0.723-1.733,0.933-2.673,0.563
						c-2.413-0.952-3.379-4.327-2.6-6.597l0.057-0.261l-0.222-0.077c-0.143-0.05-0.294,0.023-0.344,0.165
						c-0.961,2.683,0.193,6.018,2.52,7.283c0.501,0.272,1.03,0.408,1.55,0.409c0.67,0.001,1.326-0.22,1.895-0.659
						c0.434-0.335,0.79-0.766,1.059-1.284c0.352,0.158,0.711,0.265,1.07,0.318c1.499,0.221,2.792-0.587,3.306-2.062
						C230.476,273.698,230.253,272.039,229.343,270.119z M225.269,275.645c-0.91-0.662-1.657-1.767-1.943-2.897
						c-0.102-0.404-0.225-0.998-0.111-1.5c0.052-0.232,0.137-0.385,0.238-0.432c0.161-0.073,0.446,0.18,0.583,0.301
						c0.751,0.665,1.244,1.765,1.352,3.016C225.432,274.649,225.391,275.166,225.269,275.645z"/>
				</g>
			</g>
			<path style="fill:#FFBC8C;" d="M221.285,349.039c-1.955-3.021-12.254,7.927-12.254,7.927l-7.997,0.277
				c0,0,5.855-1.748,6.329-3.96c0.33-1.54-5.344-0.233-8.824,0.703c-1.622,0.436-3.095,1.282-4.294,2.459
				c-0.57,0.56-1.262,1.218-2.037,1.914c-2.002,1.799-4.66,2.686-7.34,2.438c-12.957-1.201-51.205-5.03-52.482-8.52
				c-1.54-4.204,7.306-52.499,7.306-52.499l-30.66,0.567c0,0-8.48,54.352-3.094,63.691c5.387,9.339,72.976,7.142,72.976,7.142
				s1.837,0.099,4.553,0.06c0.809,0.378,25.66-1.238,28.188-3.588C214.183,365.299,223.239,352.06,221.285,349.039z"/>
			<g>
				<g>
					<g>
						<path style="fill:#EF993A;" d="M221.783,349.082c0.067,0.103,0.089,0.234,0.051,0.361
							c-2.555,8.424-10.252,15.99-10.329,16.065c-0.171,0.167-0.446,0.163-0.613-0.008c-0.167-0.17-0.163-0.446,0.008-0.613
							c0.076-0.074,7.616-7.488,10.105-15.696c0.07-0.229,0.312-0.358,0.541-0.289C221.647,348.934,221.73,348.999,221.783,349.082z
							"/>
					</g>
				</g>
				<g>
					<g>
						<path style="fill:#EF993A;" d="M219.156,348.655c0.067,0.103,0.089,0.234,0.051,0.361c-2.559,8.438-9.509,14.467-9.578,14.527
							c-0.182,0.156-0.455,0.135-0.611-0.047c-0.15-0.185-0.135-0.455,0.046-0.611c0.068-0.058,6.829-5.93,9.313-14.12
							c0.07-0.229,0.311-0.358,0.541-0.289C219.02,348.507,219.103,348.572,219.156,348.655z"/>
					</g>
				</g>
			</g>
		</g>
		<path style="fill:#260B01;" d="M121.401,363.626c-0.619,0.128-1.186,0.377-1.82,0.472c-0.661,0.099-1.322,0.1-1.982-0.01
			c-1.326-0.221-2.597-0.81-3.639-1.658c-2.286-1.861-3.565-4.615-4.788-7.225c-0.218-0.466-0.896-0.06-0.688,0.402
			c1.301,2.883,2.711,5.991,5.331,7.923c1.167,0.86,2.566,1.453,4.009,1.624c1.267,0.15,2.989,0.02,3.883-0.999
			C121.92,363.914,121.715,363.561,121.401,363.626z"/>
	</g>
</g>
</svg>
