<?xml version="1.0" encoding="utf-8"?>
<!-- Generator: Adobe Illustrator 27.5.0, SVG Export Plug-In . SVG Version: 6.00 Build 0)  -->
<svg version="1.1" xmlns="http://www.w3.org/2000/svg" xmlns:xlink="http://www.w3.org/1999/xlink" x="0px" y="0px"
	 viewBox="0 0 750 500" style="enable-background:new 0 0 750 500;" xml:space="preserve">
<g id="BACKGROUND">
	<rect style="fill:#F3EFEC;" width="750" height="500.005"/>
</g>
<g id="OBJECTS">
	<g>
		<path style="fill:#DBCAC2;" d="M684.561,192.323c-0.03,3.26-0.11,6.51-0.25,9.77c-0.04,1.3-0.1,2.59-0.18,3.89
			c-0.07,1.36-0.14,2.71-0.23,4.07c-0.02,0.36-0.04,0.72-0.07,1.08c-0.04,0.63-0.08,1.26-0.13,1.89c-0.04,0.64-0.09,1.29-0.14,1.93
			c-0.09,1.2-0.19,2.39-0.3,3.59c-0.05,0.68-0.11,1.36-0.18,2.05c-0.05,0.51-0.1,1.02-0.15,1.53c-0.08,0.78-0.16,1.56-0.24,2.35
			c-0.08,0.69-0.15,1.37-0.23,2.06c-0.1,0.87-0.2,1.74-0.31,2.61c-0.15,1.23-0.3,2.45-0.47,3.68c-0.2,1.48-0.41,2.96-0.63,4.44
			c-0.22,1.48-0.45,2.95-0.69,4.43c-0.22,1.36-0.45,2.73-0.69,4.09c-0.06,0.34-0.12,0.67-0.19,1c-0.22,1.25-0.45,2.49-0.69,3.73
			c-0.27,1.42-0.55,2.83-0.85,4.25c-0.02,0.15-0.05,0.29-0.09,0.42c-0.21,1.04-0.44,2.08-0.67,3.12c-0.13,0.65-0.28,1.3-0.44,1.95
			c-0.24,1.14-0.51,2.28-0.79,3.42c-0.28,1.2-0.58,2.4-0.88,3.59c-0.42,1.69-0.86,3.37-1.32,5.05c-0.39,1.43-0.79,2.87-1.2,4.3
			c-1.3,4.52-2.82,9.25-4.54,14.1c-1.58,4.48-3.35,9.07-5.27,13.7c-11.42,27.62-28.4,56.71-47.75,73.22
			c-23.85,20.36-59.84,33.76-88.86,42.12c-69.61,20.06-144.25,17.53-215.13,7.71c-58.68-8.14-177.06-42.01-221.45-135.15
			c-10.62-22.29-19.02-56.97-21.23-93.01c-0.03-0.45-0.05-0.91-0.08-1.37c-0.3-5.37-0.48-10.78-0.49-16.18
			c-0.1-32.3,5.24-64.28,18.84-88.04c35.81-62.63,89.55-72.39,182.18-27.43c15.79,7.64,32.63,12.38,49.92,14.8
			c4.04,0.57,8.1,1.01,12.18,1.34c0.45,0.04,0.92,0.07,1.37,0.11c26.66,1.93,53.98-1.13,79.78-6.99c14.5-3.3,28.5-8.66,42.37-14.5
			c3.49-1.46,6.96-2.96,10.44-4.45c1.08-0.48,2.18-0.94,3.26-1.41c1.92-0.84,3.85-1.67,5.77-2.49c18.88-8.1,37.84-15.66,57.87-18.69
			c5.04-0.76,10.13-1.18,15.22-1.28c1.29-0.01,2.59-0.02,3.89,0c23.31,0.35,46.53,7.48,66.83,19.97c1.75,1.08,3.5,2.2,5.21,3.38
			c0.26,0.17,0.51,0.34,0.76,0.52c2.07,1.4,4.1,2.88,6.08,4.43c4.81,3.7,9.4,7.72,13.7,12.07c13.64,13.69,24.53,30.37,31.23,49.34
			c0.35,0.98,0.69,1.97,1.01,2.96c0.2,0.6,0.4,1.2,0.58,1.8c0.28,0.88,0.55,1.76,0.81,2.65c0.23,0.78,0.45,1.56,0.67,2.34
			c0.06,0.21,0.12,0.42,0.17,0.63c0.22,0.79,0.43,1.58,0.63,2.37c0.21,0.83,0.42,1.65,0.62,2.48c0.61,2.55,1.16,5.11,1.66,7.69
			c0.09,0.45,0.17,0.9,0.25,1.35c0.14,0.74,0.27,1.49,0.4,2.25c0.15,0.85,0.29,1.71,0.42,2.57c0.15,0.91,0.28,1.83,0.41,2.75
			c0.14,0.92,0.26,1.84,0.38,2.76c0.01,0.1,0.02,0.2,0.04,0.3c0.271,2.136,0.499,4.279,0.707,6.425
			c0.021,0.22,0.043,0.439,0.063,0.659c0.36,3.837,0.624,7.687,0.802,11.542c0.015,0.319,0.027,0.639,0.04,0.958
			c0.058,1.361,0.106,2.723,0.143,4.085c0.011,0.394,0.022,0.787,0.031,1.181c0.033,1.42,0.056,2.84,0.069,4.26
			c0.002,0.253,0.007,0.505,0.009,0.758C684.576,188.909,684.577,190.617,684.561,192.323z"/>
		<g>
			<path style="fill:#F3EFEC;" d="M330.871,82.423v115.51H68.241c0.03,0.46,0.05,0.92,0.08,1.37h263.92V82.533
				C331.791,82.493,331.321,82.463,330.871,82.423z"/>
			<path style="fill:#FFC885;" d="M318.689,81.078v100.678H67.748c-0.096-32.308,5.248-64.287,18.839-88.045
				c35.815-62.629,89.552-72.384,182.188-27.43C284.559,73.926,301.398,78.667,318.689,81.078z"/>
		</g>
		<g>
			<path style="fill:#F3EFEC;" d="M684.561,192.323c-0.03,3.26-0.11,6.51-0.25,9.77c-0.04,1.3-0.1,2.59-0.18,3.89
				c-0.07,1.36-0.14,2.71-0.23,4.07c-0.02,0.36-0.04,0.72-0.07,1.08c-0.04,0.63-0.08,1.26-0.13,1.89c-0.04,0.64-0.09,1.29-0.14,1.93
				c-0.09,1.2-0.19,2.39-0.3,3.59c-0.05,0.68-0.11,1.36-0.18,2.05c-0.05,0.51-0.1,1.02-0.15,1.53c-0.08,0.78-0.16,1.56-0.24,2.35
				c-0.08,0.69-0.15,1.37-0.23,2.06c-0.1,0.87-0.2,1.74-0.31,2.61c-0.15,1.23-0.3,2.45-0.47,3.68c-0.2,1.48-0.41,2.96-0.63,4.44
				c-0.22,1.48-0.45,2.95-0.69,4.43c-0.22,1.36-0.45,2.73-0.69,4.09c-0.06,0.34-0.12,0.67-0.19,1c-0.22,1.25-0.45,2.49-0.69,3.73
				c-0.27,1.42-0.55,2.83-0.85,4.25c-0.02,0.15-0.05,0.29-0.09,0.42c-0.21,1.04-0.44,2.08-0.67,3.12c-0.13,0.65-0.28,1.3-0.44,1.95
				c-0.24,1.14-0.51,2.28-0.79,3.42c-0.28,1.2-0.58,2.4-0.88,3.59c-0.42,1.69-0.86,3.37-1.32,5.05c-0.39,1.43-0.79,2.87-1.2,4.3
				c-1.3,4.52-2.82,9.25-4.54,14.1c-1.58,4.48-3.35,9.07-5.27,13.7h-208.35V61.043c3.49-1.46,6.96-2.96,10.44-4.45
				c1.08-0.48,2.18-0.94,3.26-1.41c1.92-0.84,3.85-1.67,5.77-2.49c18.88-8.1,37.84-15.66,57.87-18.69
				c5.04-0.76,10.13-1.18,15.22-1.28c1.29-0.01,2.59-0.02,3.89,0c23.31,0.35,46.53,7.48,66.83,19.97c1.75,1.08,3.5,2.2,5.21,3.38
				c0.26,0.17,0.51,0.34,0.76,0.52c2.07,1.4,4.1,2.88,6.08,4.43c4.81,3.7,9.4,7.72,13.7,12.07c13.64,13.69,24.53,30.37,31.23,49.34
				c0.35,0.98,0.69,1.97,1.01,2.96c0.2,0.6,0.4,1.2,0.58,1.8c0.28,0.88,0.55,1.76,0.81,2.65c0.23,0.78,0.45,1.56,0.67,2.34
				c0.06,0.21,0.12,0.42,0.17,0.63c0.22,0.79,0.43,1.58,0.63,2.37c0.21,0.83,0.42,1.65,0.62,2.48c0.61,2.55,1.16,5.11,1.66,7.69
				c0.09,0.45,0.17,0.9,0.25,1.35c0.14,0.74,0.27,1.49,0.4,2.25c0.15,0.85,0.29,1.71,0.42,2.57c0.15,0.91,0.28,1.83,0.41,2.75
				c0.14,0.92,0.26,1.84,0.38,2.76c0.01,0.1,0.02,0.2,0.04,0.3c0.271,2.136,0.499,4.279,0.707,6.425
				c0.021,0.22,0.043,0.439,0.063,0.659c0.36,3.837,0.624,7.687,0.802,11.542c0.015,0.319,0.027,0.639,0.04,0.958
				c0.058,1.361,0.106,2.723,0.143,4.085c0.011,0.394,0.022,0.787,0.031,1.181c0.033,1.42,0.056,2.84,0.069,4.26
				c0.002,0.253,0.007,0.505,0.009,0.758C684.576,188.909,684.577,190.617,684.561,192.323z"/>
			<path style="fill:#61A3C5;" d="M629.721,61.023v229.69h-161.63V55.183c1.92-0.84,3.85-1.67,5.77-2.49
				c18.88-8.1,37.84-15.66,57.87-18.69c5.04-0.76,10.13-1.18,15.22-1.28c1.29-0.01,2.59-0.02,3.89,0
				c23.31,0.35,46.53,7.48,66.83,19.97c1.75,1.08,3.5,2.2,5.21,3.38c0.26,0.17,0.51,0.34,0.76,0.52
				C625.711,57.993,627.741,59.473,629.721,61.023z"/>
			<path style="fill:#61A3C5;" d="M684.558,192.32c-0.027,3.261-0.11,6.508-0.247,9.769c-0.041,1.302-0.096,2.59-0.178,3.891
				c-0.11,2.343-0.26,4.686-0.425,7.029c-1.534,21.566-5.206,42.954-11.153,63.602c-1.302,4.521-2.822,9.249-4.549,14.099h-24.58
				V73.09c13.633,13.688,24.525,30.376,31.225,49.339c0.562,1.576,1.096,3.165,1.589,4.768c4.439,14.085,6.782,28.855,7.755,43.749
				C684.475,178.057,684.626,185.209,684.558,192.32z"/>
			<path style="opacity:0.2;fill:#FFFFFF;" d="M629.725,61.019v124.875c-1,1.274-2,2.562-3.001,3.85
				c-13.647,17.593-27.293,35.171-40.953,52.75c-12.523,16.127-25.06,32.267-37.83,48.215h-79.852v-52.435
				c20.826-24.416,45.406-46.9,64.41-72.741c18.442-25.074,31.952-53.874,53.381-76.454c11.386-12.002,24.731-21.936,37.007-33.007
				c0.26,0.178,0.507,0.343,0.754,0.521C625.71,57.991,627.738,59.471,629.725,61.019z"/>
			<path style="opacity:0.2;fill:#FFFFFF;" d="M676.241,127.197c-10.961,13.701-21.909,27.403-32.815,41.228V73.09
				c13.633,13.688,24.525,30.376,31.225,49.339C675.213,124.005,675.748,125.594,676.241,127.197z"/>
			<path style="opacity:0.2;fill:#FFFFFF;" d="M580.304,290.71c16.469-19.031,32.952-38.062,49.421-57.08v34.76
				c-7.111,7.344-14.113,14.756-20.936,22.319H580.304z"/>
			<path style="opacity:0.2;fill:#FFFFFF;" d="M684.558,192.32c-0.027,3.261-0.11,6.508-0.247,9.769
				c-0.041,1.302-0.096,2.59-0.178,3.891c-0.11,2.343-0.26,4.686-0.425,7.029c-13.126,14.03-26.772,27.663-40.282,41.378v-36.583
				c13.537-15.62,27.06-31.239,40.57-46.859C684.475,178.057,684.626,185.209,684.558,192.32z"/>
			<path style="fill:#F3EFEC;" d="M629.725,61.019c4.809,3.699,9.399,7.728,13.701,12.071v231.321h-13.701V61.019z"/>
			<path style="fill:#F3EFEC;" d="M546.954,32.726c1.288-0.014,2.59-0.027,3.891,0V290.71h-3.891V32.726z"/>
			<g>
				<path style="fill:#F3EFEC;" d="M623.641,56.593h-158.81c1.08-0.48,2.18-0.94,3.26-1.41c1.92-0.84,3.85-1.67,5.77-2.49h143.81
					c1.75,1.08,3.5,2.2,5.21,3.38C623.141,56.243,623.391,56.413,623.641,56.593z"/>
				<path style="fill:#F3EFEC;" d="M684.311,202.089c-0.041,1.302-0.096,2.59-0.178,3.891H454.388v-3.891H684.311z"/>
			</g>
		</g>
	</g>
	<g>
		<g>
			<path style="fill:#3F9896;" d="M280.15,188.066c-0.149,3.156-0.731,6.328-2.009,9.068c-0.93,2.043-2.259,3.853-4.086,5.281
				c-3.189,2.508-7.457,3.388-10.48,6.079c-5.182,4.65-4.617,12.024-4.069,19.464c0.216,2.989,0.432,5.979,0.282,8.819
				c-0.233,3.87-1.146,7.44-3.72,10.264c-6.062,6.643-18.784,5.613-22.454,13.834c-2.275,5.065,0.349,11.16-1.279,16.458
				c-1.478,4.783-6.726,10.546-11.011,13.668c-1.611,7.058-2.84,13.386-3.571,19.813c-0.947,8.171-1.046,16.558-1.146,24.663
				l-0.93,76.678c-0.017,0.714-0.598,1.296-1.312,1.296c-0.017,0-0.017,0-0.017,0c-0.731-0.017-1.312-0.615-1.295-1.329l0.93-76.679
				c0.1-8.171,0.216-16.624,1.162-24.928c0.731-6.378,1.926-12.639,3.504-19.581c-3.837-6.793-4.019-17.638-5.414-25.344
				c-0.066-0.332-0.116-0.681-0.183-1.013c-0.498-2.74-0.98-5.514-1.329-8.304c-0.797-6.195-0.997-12.406,0.565-18.402
				c2.209-8.437,7.689-15.562,13.32-22.221l0.299-0.349c3.67-4.335,7.44-8.586,11.293-12.738
				c13.203-14.233,27.519-27.453,42.732-39.527c-1.86,6.627-0.315,13.652,0.149,20.511
				C280.183,185.027,280.216,186.538,280.15,188.066z"/>
			<path style="opacity:0.2;fill:#FFFFFF;" d="M280.15,188.066c-0.149,3.156-0.731,6.328-2.009,9.068
				c-4.766,1.412-9.5,2.89-14.216,4.434c-12.921,4.235-25.709,8.952-38.314,14.084l0.299-0.349c3.67-4.335,7.44-8.586,11.293-12.738
				c7.59-3.039,15.296-5.846,23.085-8.437C266.863,191.952,273.473,189.926,280.15,188.066z"/>
			<path style="opacity:0.2;fill:#FFFFFF;" d="M259.789,236.777c-5.232,2.674-10.446,5.398-15.612,8.238
				c-10.745,5.929-21.208,12.356-31.123,19.564c-0.498-2.74-0.98-5.514-1.329-8.304c8.636-6.411,17.737-12.207,27.154-17.538
				c6.743-3.803,13.635-7.407,20.627-10.778C259.722,230.948,259.938,233.937,259.789,236.777z"/>
		</g>
		<g>
			<path style="fill:#3F9896;" d="M205.663,415.727c0.05,0.731-0.498,1.345-1.229,1.395h-0.083c-0.681,0-1.262-0.531-1.312-1.229
				l-2.059-33.398c-0.432-7.092-0.88-14.432-2.558-21.408c-3.056-12.655-10.031-23.982-16.774-34.943l-19.232-31.223
				c-3.72-0.698-8.57-4.401-12.323-8.437c-2.508-2.69-5.099-5.564-7.988-7.855c-2.092-1.628-4.318-2.973-6.759-3.687
				c-0.98-0.299-1.976-0.498-3.023-0.581c-6.51-0.498-13.868,3.504-19.149-0.349c-2.873-2.093-3.803-5.647-4.767-9.217
				c-0.83-3.072-1.71-6.145-3.87-8.287c-1.146-1.129-2.491-1.877-3.953-2.441c-3.371-1.312-7.324-1.661-10.546-3.405
				c-7.175-3.886-8.869-13.236-9.782-21.358c-1.262-11.343-2.541-22.686-3.803-34.029c7.955,3.504,15.445,7.855,22.587,12.755
				c2.74,1.893,5.431,3.836,8.072,5.863c8.453,6.427,16.475,13.486,24.38,20.61c1.578,1.428,3.156,2.84,4.717,4.268
				c0.847,0.764,1.694,1.528,2.524,2.309c4.467,4.052,8.835,8.221,12.655,12.888c6.377,7.789,15.894,21.59,16.641,32.053
				c0.382,5.165-0.747,7.789-2.674,8.669l18.534,30.077c6.842,11.127,13.934,22.637,17.073,35.707
				c1.744,7.208,2.209,14.648,2.641,21.856L205.663,415.727z"/>
			<path style="opacity:0.2;fill:#FFFFFF;" d="M108.59,250.097c0,4.899-0.05,9.799-0.183,14.698c-0.83-3.072-1.71-6.145-3.87-8.287
				c-1.146-1.129-2.491-1.877-3.953-2.441c0.017-1.86,0.017-3.72,0.017-5.58c-0.05-13.519-0.548-27.004-1.561-40.457
				c2.74,1.893,5.431,3.836,8.072,5.863C108.059,225.932,108.59,238.006,108.59,250.097z"/>
			<path style="opacity:0.2;fill:#FFFFFF;" d="M142.105,278.629c-2.092-1.628-4.318-2.973-6.759-3.687
				c-0.283-4.849-0.498-9.716-0.914-14.465c-0.781-8.702-1.744-17.355-2.939-25.975c1.578,1.428,3.156,2.84,4.717,4.268
				c0.847,0.764,1.694,1.528,2.524,2.309c0.714,5.381,1.312,10.778,1.827,16.193C141.208,264.197,141.972,271.438,142.105,278.629z"
				/>
		</g>
		<g>
			<path style="fill:#80C7A7;" d="M321.155,237.674c-1.461,1.412-2.989,2.757-4.534,4.019c-0.05,0.05-0.083,0.083-0.133,0.116
				c-8.769,7.175-18.817,13.735-23.566,23.998c-0.349,0.731-0.648,1.495-0.947,2.259c-0.382,1.013-0.731,2.043-1.046,3.072
				c-1.976,6.128-3.338,12.539-7.905,16.89c-6.726,6.411-18.551,6.361-23.467,14.233c-0.847,1.378-1.428,2.873-1.843,4.434
				c-0.266,0.93-0.465,1.893-0.631,2.857c-0.249,1.246-0.465,2.508-0.698,3.737c-1.544,7.839-8.105,28.35-15.927,32.219
				c-0.316,0.15-0.598,0.266-0.88,0.382c-2.043,8.935-3.886,18.003-5.497,27.187c-2.475,14.283-4.418,28.831-5.746,43.247
				c-0.066,0.681-0.631,1.179-1.312,1.179h-0.116c-0.731-0.066-1.262-0.698-1.196-1.428c1.345-14.482,3.305-29.097,5.796-43.446
				c1.545-8.902,3.322-17.704,5.281-26.39c-5.58-1.096-3.969-15.263-3.753-21.989c0.05-1.262,0.1-2.524,0.199-3.77
				c0.05-0.914,0.116-1.827,0.199-2.74c0.764-8.586,2.475-17.089,5.082-25.294c0.465-1.428,0.947-2.857,1.445-4.268
				c3.305-9.134,7.756-17.887,13.286-25.892c0.017-0.017,0.033-0.05,0.05-0.066c1.196-1.744,2.458-3.438,3.753-5.099
				c18.385-23.583,46.253-39.643,75.931-43.513C333.561,222.86,328.014,231.064,321.155,237.674z"/>
			<path style="opacity:0.2;fill:#FFFFFF;" d="M321.155,237.674c-1.461,1.412-2.989,2.757-4.534,4.019
				c-7.54,1.561-15.013,3.405-22.421,5.514c-14.067,4.036-27.619,9.151-40.905,15.014c1.196-1.744,2.458-3.438,3.753-5.099
				C277.492,248.203,299.166,241.776,321.155,237.674z"/>
			<path style="opacity:0.2;fill:#FFFFFF;" d="M291.975,268.066c-0.382,1.013-0.731,2.043-1.046,3.072
				c-8.935,2.259-17.787,4.899-26.39,8.204c-9.234,3.538-17.887,7.872-26.024,13.104c0.465-1.428,0.947-2.857,1.445-4.268
				c7.008-4.235,14.482-7.739,21.939-10.695c9.5-3.787,19.332-6.693,29.246-9.201C291.426,268.216,291.692,268.149,291.975,268.066z
				"/>
			<path style="opacity:0.2;fill:#FFFFFF;" d="M257.713,306.696c-0.266,0.93-0.465,1.893-0.631,2.857
				c-0.116,0.033-0.216,0.066-0.332,0.116c-8.071,3.072-15.977,6.61-23.517,10.812c0.05-0.914,0.116-1.827,0.199-2.74
				c6.46-3.587,13.203-6.693,20.095-9.433C254.923,307.759,256.318,307.228,257.713,306.696z"/>
		</g>
		<g>
			<path style="fill:#80C7A7;" d="M205.979,336.358c4.002,28.449,5.863,54.291,5.68,78.472c0,0.731-0.581,1.312-1.312,1.312
				c-0.731-0.017-1.312-0.598-1.312-1.329c0.183-24.712-1.777-51.169-5.979-80.415c-1.528-1.528-3.255-3.953-5.231-7.307
				c-1.578-2.691-2.973-5.481-4.169-8.337c-0.565-1.312-1.08-2.624-1.545-3.969v-0.016c-1.81-5.165-2.99-10.529-3.504-15.977
				c-0.332-3.621-0.399-7.357-1.926-10.662c-0.249-0.532-0.515-1.03-0.83-1.511c-0.631-1.046-1.412-1.993-2.292-2.84
				c-7.656-7.474-22.919-8.437-28.084-17.289c-0.565-0.947-1.013-1.976-1.312-3.122c-0.797-2.989-0.382-6.161-0.183-9.284
				c0.183-2.641,0.216-5.248-0.731-7.689c-2.691-6.859-11.576-8.785-16.392-14.366c-4.733-5.447-4.849-13.502-3.62-20.61
				c1.212-7.108,3.504-14.216,2.674-21.374c6.494,3.172,12.705,6.892,18.584,11.077c1.03,0.714,2.026,1.445,3.039,2.192
				c10.014,7.523,18.999,16.425,26.622,26.373c0.88,1.129,1.727,2.292,2.558,3.454c4.584,6.378,8.619,13.17,12.024,20.262
				c3.006,6.261,5.53,12.788,7.54,19.498v0.017c0.482,1.561,0.93,3.106,1.329,4.684c3.936,14.897,5.381,30.475,4.036,45.705
				C210.828,332.488,209.035,337.089,205.979,336.358z"/>
			<path style="opacity:0.2;fill:#FFFFFF;" d="M157.65,239.534c-0.365,8.769-1.063,17.538-2.093,26.257
				c-0.033,0.233-0.05,0.465-0.083,0.698c-0.565-0.947-1.013-1.976-1.312-3.122c-0.797-2.989-0.382-6.161-0.183-9.284
				c0.432-4.85,0.747-9.699,0.963-14.548c0.581-12.871,0.133-25.626-0.448-38.414c1.03,0.714,2.026,1.445,3.039,2.192
				C158.348,215.37,158.165,227.576,157.65,239.534z"/>
			<path style="opacity:0.2;fill:#FFFFFF;" d="M187.644,258.799c-0.1,8.769-0.648,17.521-1.628,26.24
				c-0.05,0.515-0.116,1.046-0.166,1.578c-0.631-1.046-1.412-1.993-2.292-2.84c0.017-0.133,0.033-0.282,0.05-0.415
				c0.864-7.922,1.378-15.877,1.561-23.849c0.232-9.965-0.116-19.913-1.013-29.828c0.88,1.129,1.727,2.292,2.558,3.454
				C187.428,241.676,187.744,250.229,187.644,258.799z"/>
			<path style="opacity:0.2;fill:#FFFFFF;" d="M207.607,277.599c-0.183,0.714-0.365,1.412-0.548,2.109
				c-2.275,8.47-4.982,16.824-8.072,25.028c-1.644,4.351-3.255,9.384-5.331,14.017c-0.565-1.312-1.08-2.624-1.545-3.969v-0.016
				c0.083-0.133,0.133-0.282,0.199-0.415c1.677-3.903,3.255-7.856,4.75-11.841c2.807-7.457,5.265-15.047,7.407-22.72
				c0.631-2.275,1.246-4.567,1.81-6.876C206.76,274.477,207.208,276.021,207.607,277.599z"/>
		</g>
		<path style="opacity:0.2;fill:#FFFFFF;" d="M116.263,327.506c-0.963-0.05-1.926-0.116-2.856-0.233
			c-0.814-4.085-1.711-8.138-2.674-12.19c-2.79-11.725-6.411-23.102-10.181-34.461c1.212,0.448,2.408,0.913,3.604,1.395
			c3.67,10.596,6.61,21.524,9.184,32.319C114.387,318.704,115.367,323.105,116.263,327.506z"/>
		<g>
			<path style="fill:#80C7A7;" d="M199.402,414.597c0.116,0.714-0.349,1.395-1.063,1.528c-0.083,0.017-0.166,0.017-0.233,0.017
				c-0.631,0-1.179-0.448-1.295-1.096c-0.033-0.233-4.351-24.663-13.768-49.276c-1.096-2.857-2.641-5.796-4.501-8.752
				c-2.358,3.604-9.682-0.116-17.538-2.757c-0.83-0.282-1.677-0.548-2.508-0.78c-0.183-0.066-0.365-0.116-0.548-0.166
				c-3.637-1.013-7.44-2.126-10.147-4.766c-4.318-4.218-4.733-11.243-8.869-15.628c-0.166-0.183-0.349-0.366-0.532-0.515
				c-0.864-0.83-1.81-1.495-2.823-2.026c-5.364-2.906-12.639-2.475-19.315-2.873c-0.963-0.05-1.926-0.116-2.856-0.233
				c-4.916-0.531-9.284-1.893-11.991-5.912c-3.737-5.564-1.81-13.502-5.281-19.232c-2.939-4.866-8.918-6.842-13.203-10.563
				c-5.148-4.484-7.706-11.775-6.46-18.501c8.171,2.043,16.226,4.551,24.081,7.557c1.212,0.448,2.408,0.913,3.604,1.395
				c8.055,3.222,15.927,6.942,23.517,11.127c0.93,0.498,1.86,1.013,2.774,1.544c5.132,2.906,10.147,6.029,15.014,9.367
				c4.202,2.873,8.304,5.912,12.057,9.3c0.88,0.797,1.727,1.594,2.541,2.425c1.329,1.295,2.574,2.657,3.77,4.069
				c6.544,7.739,12.688,18.8,14.864,28.781c0.415,1.893,0.615,3.454,0.631,4.733c2.591,3.87,4.733,7.723,6.161,11.476
				C195.001,389.686,199.352,414.348,199.402,414.597z"/>
			<path style="opacity:0.2;fill:#FFFFFF;" d="M138.402,332.405c-0.864-0.83-1.81-1.495-2.823-2.026
				c-0.282-2.076-0.598-4.152-0.93-6.211c-1.711-10.48-4.052-20.826-6.975-31.023c0.93,0.498,1.86,1.013,2.774,1.544
				c2.657,9.317,4.85,18.767,6.51,28.333C137.488,326.144,137.986,329.266,138.402,332.405z"/>
			<path style="opacity:0.2;fill:#FFFFFF;" d="M161.005,354.261c-0.83-0.282-1.677-0.548-2.508-0.78
				c0.266-5.082,0.365-10.181,0.332-15.263c-0.05-8.321-0.482-16.608-1.312-24.862c0.88,0.797,1.727,1.594,2.541,2.425
				c0.714,7.208,1.113,14.416,1.229,21.657C161.387,343.034,161.287,348.648,161.005,354.261z"/>
		</g>
	</g>
	<g>
		<rect y="410.264" style="fill:#C77965;" width="750" height="89.741"/>
		<rect y="410.264" style="opacity:0.1;fill:#FFFFFF;" width="750" height="14.307"/>
	</g>
	<g>
		<g>
			<path style="fill:#EE6A5E;" d="M373.745,266.634c0,0,25.726,64.931,77.836,79.318c80.669,22.271,139.765-115.876,139.765-115.876
				l-29.894-18.677c0,0-28.61,68.946-63.053,75.995c-34.443,7.049-58.557-44.154-58.557-44.154L373.745,266.634z"/>
			<g>
				<path style="fill:#49263E;" d="M237.591,188.835c-1.448,4.552,3.922,8.619,8.37,7.744c-6.051,1.191-11.719,6.301-12.254,12.098
					c-0.535,5.802,5.212,11.106,11.213,9.56c-1.924,4.615-3.879,9.363-3.957,14.17c-0.079,4.806,2.147,9.752,6.676,11.485
					c5.539,2.12,12.125-1.061,17.695-4.132c-3.643,7.244,0.808,16.4,8.65,17.793c7.843,1.393,16.924-5.36,17.649-13.123
					c3,3.573,7.547,7.39,12.307,5.366c4.048-1.721,5.375-6.592,5.722-10.68c1.197-14.106-2.963-27.555-7.047-40.473
					c-2.118-6.701-6.627-13.197-13.845-14.715c-10.09-2.123-21.967-3.573-32.634-2.156c-4.62,0.614-16.066,1.347-18.334,6.507
					C237.72,188.464,237.65,188.65,237.591,188.835z"/>
				<path style="fill:#49263E;" d="M411.645,154.824c2.733,3.902-0.827,9.965-5.107,10.828c5.823-1.173,12.531,1.642,14.832,7.118
					c2.303,5.479-1.208,12.902-7.097,13.708c3.182,3.779,6.432,7.677,8.012,12.357c1.58,4.68,1.127,10.389-2.407,13.84
					c-4.323,4.22-11.252,3.651-17.233,2.795c5.555,5.691,4.42,16.387-2.205,20.786c-6.626,4.399-16.923,1.293-20.012-6.035
					c-1.581,4.663-4.477,10.163-9.399,10.02c-4.186-0.121-6.91-4.381-8.505-8.255c-5.505-13.363-5.981-28.154-6.358-42.396
					c-0.196-7.387,1.825-15.498,7.849-19.779c8.42-5.984,18.661-12,28.711-14.738c4.353-1.186,14.891-4.895,18.553-0.714
					C411.412,154.511,411.534,154.666,411.645,154.824z"/>
				<path style="fill:#49263E;" d="M347.426,203.974c0,0-43.573,9.453-57.656-9.472c-14.082-18.925-27.116-49.127-9.512-76.635
					c21.356-33.371,85.387-45.508,89.011-17.97c0,0,17.421-8.136,21.32,12.518C395.453,138.172,364.855,164.171,347.426,203.974z"/>
			</g>
			<g>
				<path style="fill:#9679BC;" d="M427.18,366.53c5.487,22.085,15.837,43.789,15.837,43.789H271.772l30.306-79.876
					c0.017-0.052,0.035-0.069,0.035-0.069c-44.984,4.846-81.486-20.268-81.486-20.268s22.12-60.007,45.382-72.676
					c23.279-12.687,45.26-18.623,45.26-18.623l46.818-8.204c0,0,44.88-4.31,58.639,8.204c13.777,12.514,52.582,47.562,52.582,47.562
					c-16.269,13.777-44.43,18.779-44.43,18.779c9.398,23.781,3.756,30.272-0.277,50.037
					C422.836,343.839,424.376,355.228,427.18,366.53z"/>
				<path style="fill:#7A60AA;" d="M302.078,330.443c0.017-0.052,0.035-0.069,0.035-0.069s-0.865-25.789,0-45.486
					c0,0,30.445,97.358,125.068,81.642c5.487,22.085,15.837,43.789,15.837,43.789H271.772L302.078,330.443z"/>
				<path style="fill:none;stroke:#1C2649;stroke-linecap:round;stroke-linejoin:round;stroke-miterlimit:10;" d="M403.143,234.144
					c-3.18,3.118-3.503,8.287-2.022,12.487c1.481,4.2,18.264,20.939,23.757,38.516"/>
				<path style="fill:none;stroke:#1C2649;stroke-linecap:round;stroke-linejoin:round;stroke-miterlimit:10;" d="M338.186,343.865
					c11.273,1.772,22.951,3.525,33.959,0.518c5.013-1.369,9.731-3.693,14.77-4.96c12.318-3.097,25.829,0.277,37.703-4.23"/>
				<path style="fill:none;stroke:#1C2649;stroke-linecap:round;stroke-linejoin:round;stroke-miterlimit:10;" d="M420.294,274.533
					c0,0,27.392-8.448,37.206-18.832"/>
				<path style="fill:none;stroke:#1C2649;stroke-linecap:round;stroke-linejoin:round;stroke-miterlimit:10;" d="M227.022,294.534
					c0,0,43.641,25.893,75.093,22.802"/>
				<path style="fill:none;stroke:#1C2649;stroke-linecap:round;stroke-linejoin:round;stroke-miterlimit:10;" d="M301.615,221.818
					c0,0,22.331,50.293,64.031,37.828c34.498-10.312,26.143-48.97,26.143-48.97"/>
				
					<line style="fill:none;stroke:#1C2649;stroke-linecap:round;stroke-linejoin:round;stroke-miterlimit:10;" x1="359.575" y1="252.193" x2="365.646" y2="267.684"/>
			</g>
			<g>
				<g>
					<path style="fill:#FE9E76;" d="M358.09,210.609l0.228-39.83l-46.723-6.162l-0.331,54.192c0,0,27.25,40.255,48.312,33.379
						C366.703,249.862,358.09,210.609,358.09,210.609z"/>
					<path style="fill:#EE6A5E;" d="M318.055,177.993c0,0,9.316,34.397,40.035,32.616l0.228-39.83L318.055,177.993z"/>
					<path style="fill:#FE9E76;" d="M384.827,232.653c-1.298,3.998-3.462,7.962-6.975,11.285c-4.067,3.877-9.918,6.923-18.277,8.256
						c-34.685,5.539-48.307-33.387-48.307-33.387l48.203-8.325c0,0,4.777-0.485,10.627-0.71c2.112-0.104,4.362-0.156,6.577-0.139
						c3.115,0.017,6.144,0.156,8.654,0.519C385.329,210.152,388.41,221.593,384.827,232.653z"/>
				</g>
				<g>
					<path style="fill:#FE9E76;" d="M286.974,166.037c-0.289,6.704,4.911,12.373,11.615,12.663
						c6.704,0.289,12.374-4.911,12.663-11.615c0.289-6.704-4.911-12.374-11.615-12.663
						C292.933,154.132,287.263,159.332,286.974,166.037z"/>
					<path style="fill:none;stroke:#EE6A5E;stroke-linecap:round;stroke-linejoin:round;stroke-miterlimit:10;" d="M294.711,161.49
						c0,0,9.484,0.449,6.985,10.255"/>
					
						<line style="fill:none;stroke:#EE6A5E;stroke-linecap:round;stroke-linejoin:round;stroke-miterlimit:10;" x1="301.615" y1="165.902" x2="297.599" y2="167.861"/>
				</g>
				<g>
					<path style="fill:#FE9E76;" d="M368.904,178.412c-8.509,14.604-44.082,18.856-59.272-9.726l-8.997-24.212
						c0,0,46.791-6.809,65.95-34.564c0,0,0,11.187,5.876,13.509l-0.261,21.193l-0.063,5.03c0,0,0.369,1.015,0.757,2.778
						C373.968,157.26,375.122,167.709,368.904,178.412z"/>
					<g>
						<g>
							<g>
								<g>
									<g>
										<path style="fill:#EE6A5E;" d="M334.716,155.834c0.595,2.089-2.122,4.7-6.069,5.832c-3.947,1.131-7.629,0.355-8.224-1.735
											c-0.595-2.09,2.122-4.7,6.069-5.832C330.438,152.967,334.12,153.744,334.716,155.834z"/>
									</g>
								</g>
							</g>
						</g>
					</g>
					<g>
						<g>
							<g>
								<g>
									<g>
										<path style="fill:#EE6A5E;" d="M350.696,181.743c0.086,0.748-1.308,1.485-3.114,1.646
											c-1.806,0.161-3.34-0.315-3.426-1.063c-0.086-0.748,1.308-1.485,3.114-1.646
											C349.076,180.519,350.61,180.995,350.696,181.743z"/>
									</g>
								</g>
							</g>
						</g>
					</g>
					<g>
						<g>
							<g>
								<g>
									<g>
										<path style="fill:#EE6A5E;" d="M372.894,152.421c-3.952,0.063-7.171-1.552-7.247-3.654
											c-0.075-2.036,2.799-3.813,6.553-4.154l-0.063,5.03C372.137,149.642,372.506,150.657,372.894,152.421z"/>
									</g>
								</g>
							</g>
						</g>
					</g>
					<g>
						<g>
							<g>
								<path style="fill:#FFFFFF;" d="M336.522,164.098c0,0,8.599,1.868,24.174-2.609c0,0-1.895,16.55-13.514,16.32
									C337.329,177.614,336.522,164.098,336.522,164.098z"/>
							</g>
						</g>
					</g>
					<path style="fill:none;stroke:#EE6A5E;stroke-linecap:round;stroke-linejoin:round;stroke-miterlimit:10;" d="M347.426,141.946
						c0,0,6.249,6.388,8.728,12.506c0,0-5.126,2.657-7.233,2.807"/>
					<path style="fill:#1C2649;" d="M340.858,144.897c-2.007-2.292-3.899-4.949-6.158-6.991c-1.029-0.93-2.254-1.411-3.48-0.447
						c-1.39,1.093-1.227,3.222-1.24,4.789c-0.022,2.723,0.041,5.659,0.801,8.289c0.267,0.925,1.699,0.758,1.693-0.229
						c-0.009-1.641-0.239-3.273-0.281-4.916c-0.031-1.233-0.427-3.825,0.148-4.939c0.593-1.152,0.807-0.374,1.414,0.371
						c0.491,0.603,0.994,1.197,1.491,1.796c1.193,1.437,2.386,2.873,3.579,4.31C340,148.344,342.079,146.293,340.858,144.897z"/>
					<path style="fill:#1C2649;" d="M355.106,139.915c-0.022-3.046-0.373-6.289-0.041-9.316c0.151-1.379,0.747-2.552,2.304-2.646
						c1.765-0.107,3.058,1.593,4.108,2.756c1.825,2.021,3.728,4.257,4.907,6.728c0.415,0.869-0.766,1.695-1.418,0.954
						c-1.083-1.233-1.995-2.605-3.056-3.861c-0.796-0.942-2.221-3.143-3.391-3.594c-1.209-0.467-0.852,0.256-0.81,1.217
						c0.034,0.777,0.052,1.555,0.078,2.333c0.062,1.867,0.125,3.733,0.187,5.599C358.036,141.922,355.119,141.77,355.106,139.915z"
						/>
				</g>
			</g>
			<path style="fill:#FFFFFF;" d="M377.852,243.938c1.679-8.671-5.279-27.797-7.754-34.166c2.112-0.104,4.362-0.156,6.577-0.139
				c2.735,6.335,6.127,16.668,8.152,23.02C383.529,236.651,381.366,240.614,377.852,243.938z"/>
		</g>
		<g>
			<g>
				<path style="fill:#9E5958;" d="M531.315,377.71c-28.127-9.121-68.896,24.438-83.554,12.099c0,0-26.559-43.821-45.517-58.943
					c-3.977-3.175-7.702-5.533-10.904-6.604c-23.67-7.912-47.58-22.696-51.583-29.236c-15.039-24.462-11.919-29.582-11.919-29.582
					s16.095-8.335,28.811,14.758c6.077,11.045,36.026,13.629,55.062,14.848c6.964,0.445,28.875,23.837,41.469,35.544
					c3.432,3.201,6.178,5.518,7.733,6.278c7.272,3.543,48.293-26.035,48.293-26.035C531.827,321.066,549.512,383.611,531.315,377.71
					z"/>
				<path style="fill:#FFFFFF;" d="M453.18,330.593c-0.214,0.274-0.442,0.55-0.699,0.802c-2.77,2.763-6.972,3.39-10.861,3.667
					c-13.753,0.937-26.034-2.583-39.376-4.197c-3.977-3.175-7.702-5.533-10.904-6.604c-23.67-7.912-47.58-22.696-51.583-29.236
					c-15.039-24.462-11.919-29.582-11.919-29.582s16.095-8.335,28.811,14.758c6.077,11.045,36.026,13.629,55.062,14.848
					C418.675,295.494,440.586,318.886,453.18,330.593z"/>
				<path style="fill:#C7D3CF;" d="M335.759,266.974c-1.914-1.353-4.203-2.05-6.539-1.75c-0.914,0.117-0.741,1.358,0.132,1.386
					c2.081,0.068,4.048,0.697,5.699,1.982c1.451,1.129,2.002,2.784,3.26,4.006c0.269,0.261,0.773,0.058,0.817-0.301
					C339.387,270.214,337.328,268.084,335.759,266.974z"/>
				<path style="fill:#C7D3CF;" d="M344.147,266.395c-0.944-1.096-2.293-2.026-3.774-2.076c-0.515-0.017-0.773,0.816-0.335,1.092
					c1.027,0.648,2.048,1.123,2.847,2.08c0.664,0.796,0.882,2.146,1.76,2.704c0.182,0.116,0.464,0.153,0.607-0.058
					C346.062,268.949,344.94,267.316,344.147,266.395z"/>
			</g>
			<g>
				<path style="fill:#FFFFFF;" d="M387.303,115.747c0,0-5.217,3.068-11.143,17.627c-5.927,14.558-2.224,50.867,16.973,35.607
					C412.33,153.72,395.428,114.608,387.303,115.747z"/>
				<g>
					<path style="fill:#F95755;" d="M393.133,164.793c-1.488,0.436-4.57-0.175-8.306,1.767c-2.821,1.467,3.472,7.809,0,16.781
						c-2.218,5.731-13.982,7.193-12.697,2.051c2.596-10.386,0.538-12.95-0.97-18.318c-3.624-12.897-2.602-15.129,0.977-17.432
						c6.428-4.136,12.592-0.342,16.426,1.504C393.516,153.532,392.698,159.313,393.133,164.793z"/>
					<path style="fill:#FF6C6B;" d="M384.584,154.898c-3.275-1.278-6.997-1.326-8.064,2.674c-1.413,5.295,1.883,10.707,0.59,15.87
						c-0.208,0.83,1.074,1.185,1.283,0.354c0.756-3.018-0.146-5.777-0.534-8.783c-0.214-1.66-0.394-3.411-0.301-5.086
						c0.042-0.757,0.031-1.726,0.35-2.419c1.497-3.257,4.328-2.106,6.323-1.328C385.028,156.492,385.374,155.206,384.584,154.898z"
						/>
				</g>
				<path style="fill:#B76766;" d="M425.513,134.283c0,0,7.829,0.303,14.67-6.538c6.841-6.841,21.575-4.21,36.308,0
					c14.734,4.21,37.172,15.026,56.21,48.82c19.038,33.794,48.807,40.325,48.807,40.325s11.737,9.893,41.738,42.756
					c20.987,22.989,29.387,94.209,50.435,150.673H525.428c0,0-0.13-4.727-4.275-12.625c-4.144-7.898-23.614-25.262-23.614-70.516
					c0-45.254-12.629-99.453-54.199-137.867S425.513,134.283,425.513,134.283z"/>
				<path style="fill:#9E5958;" d="M604.28,338.075c-1.739,7.858-5.756,14.717-11.685,19.894c0.344-4.598-0.541-9.203-2.887-13.898
					c-1.148-2.297-4.591-0.279-3.446,2.014c2.548,5.1,3.083,10.177,1.878,15.26c-0.676,0.57-0.811,1.378-0.599,2.089
					c-0.342,1.036-0.746,2.073-1.227,3.111c-1.816,3.916-3.775,7.558-4.854,11.785c-2.512,9.845-1.432,20.123-0.323,30.085
					c0.281,2.524,4.275,2.553,3.99,0c-1.531-13.748-2.038-26.168,4.157-38.905c0.922-1.897,1.657-3.782,2.212-5.664
					c8.494-5.908,14.379-14.54,16.63-24.711C608.681,336.634,604.835,335.565,604.28,338.075z"/>
				<path style="fill:#1C2649;" d="M460.559,138.396c-1.073,2.239-3.312,3.398-5.001,2.589c-1.689-0.809-2.189-3.28-1.116-5.519
					c1.073-2.239,3.312-3.398,5.001-2.589C461.132,133.686,461.632,136.158,460.559,138.396z"/>
				<path style="fill:#FFFFFF;" d="M552.182,190.753c-6.236-5.153-11.818-11.597-19.481-14.188
					c-9.425,16.793-31.888,22.42-51.036,20.363c-19.147-2.056-36.447-13.062-49.698-27.036c-2.603-2.745-5.141-5.721-6.289-9.324
					c-1.148-3.604-0.593-7.992,2.265-10.471c2.622-2.274,13.467-2.633,14.03-6.059c0.844-5.132-14.677-4.87-16.46-9.756
					c-10.446-5.282-20.891-10.564-31.337-15.846c-1.752-0.886-3.646-1.798-5.59-1.521c-4.046,0.576-5.574,5.522-6.227,9.557
					c-1.576,9.734-3.132,19.856-0.362,29.32c2.77,9.464,11.215,18.041,21.063,17.55c3.16-0.157,6.362-1.211,9.428-0.43
					c3.105,0.791,5.429,3.299,7.563,5.688c8.72,9.761,17.44,19.521,26.16,29.282c5.651,6.325,11.372,12.802,16.494,19.626
					c4.715,6.506,14.342,21.788,12.698,36.189c-2.162,18.943-7.296,39.585,4.281,38.561c0,0,0.002-0.004,0.002-0.004
					c-0.62,7.831-1.149,15.672-0.76,23.456c0.995,19.914,8.187,39.475,20.327,55.292c6.16,8.026,13.396,11.212,21.901,16.693
					c-5.361-17.904-9.742-34.98-11.689-53.568c-1.562-14.915-0.779-30.341,3.834-44.528c9.232,4.152,14.048-0.492,16.025-14.451
					c2.105-14.858,9.524-25.209,26.029-38.395c10.477-8.37,21.609-17.247,26.155-29.863
					C575.926,205.749,561.788,198.691,552.182,190.753z"/>
				<g>
					<path style="fill:#49263E;" d="M405.786,138.173l-0.274-0.274c-0.596-0.596-1.611-0.596-2.207,0
						c-0.598,0.598-0.598,1.609,0,2.207c0.091,0.092,0.183,0.183,0.274,0.274c0.596,0.596,1.611,0.596,2.207,0
						C406.384,139.782,406.384,138.771,405.786,138.173z"/>
					<path style="fill:#49263E;" d="M412.641,144.303c-2.009,0-2.012,3.122,0,3.122C414.65,147.424,414.654,144.303,412.641,144.303
						z"/>
					<path style="fill:#49263E;" d="M401.802,150.44c-2.009,0-2.012,3.122,0,3.122C403.811,153.561,403.814,150.44,401.802,150.44z"
						/>
				</g>
				<path style="fill:#C7D3CF;" d="M392.716,169.164c-5.541-3.164-10.317-8.938-11.305-15.374
					c-0.547-3.563-0.307-7.269-0.132-10.856c0.177-3.632,0.983-7.47,0.689-11.08c-0.053-0.656-0.905-0.774-1.133-0.153
					c-1.4,3.817-1.32,8.52-1.411,12.542c-0.09,3.96-0.318,8.271,0.779,12.121c1.704,5.981,6.034,11.565,11.58,14.398
					C392.837,171.3,393.757,169.759,392.716,169.164z"/>
				<path style="fill:#49263E;" d="M501.325,139.838c1.721,7.634,4.511,18.376,3.724,26.161c-0.637,6.299-2.095,12.632-1.163,18.894
					c0.817,5.493,3.427,10.547,6.261,15.322c2.591,4.367,4.443,15.188,7.863,15.188c4.29-0.007,8.894-4.632,12.853-6.286
					c6.217-2.596,13.17-2.487,19.857-3.301c6.688-0.813,13.826-2.973,17.643-8.525c1.208-1.756,2.03-3.89,1.739-6.001
					c-0.691-5.018-6.622-7.073-11.385-8.795c-13.613-4.922-25.062-15.544-30.988-28.75c-1.263-2.815-2.337-5.818-4.478-8.04
					c-3.919-4.066-6.811-4.934-12.335-3.757C509.61,142.227,501.75,141.105,501.325,139.838z"/>
				<g>
					<path style="fill:#1C2649;" d="M402.445,120.059c3.611-4.315-17.576-9.967-19.38-7.5c-1.805,2.468,1.088,10.157,3.131,11.433
						C390.382,126.605,399.741,123.291,402.445,120.059z"/>
					<path style="opacity:0.2;fill:#FFFFFF;" d="M398.724,118.665c0.892-1.633-12.033-6.184-13.006-4.742
						C384.745,115.365,397.297,121.279,398.724,118.665z"/>
				</g>
			</g>
		</g>
		<g>
			<path style="fill:#FE9E76;" d="M475.409,369.974L457.5,341.934c0,0,5.08-8.793,7.988-14.68
				c1.105-2.237,13.639-9.743,19.104-9.914c6.025-0.189,3.869,6.319,3.869,6.319s11.492-7.952,16.554-4.74
				c5.062,3.212,1.6,6.409,1.6,6.409s4.137-0.925,6.956,4.209c0.781,1.423-3.628,5.072-3.628,5.072s5.39-0.698,5.864,1.866
				c0.474,2.564-2.157,5.742-2.157,5.742s2.532-0.265,4.212,2.4C519.544,347.282,503.434,375.926,475.409,369.974z"/>
			<path style="fill:#FE9E76;" d="M302.073,330.446c0,0,5.475,46.087,40.27,41.135c34.814-4.97,115.158-29.645,115.158-29.645
				l17.903,28.035c0,0-143.6,70.631-188.215,49.049c-59.725-28.891-46.473-98.484-46.473-98.484S266.012,333.417,302.073,330.446z"
				/>
			<path style="fill:none;stroke:#1C2649;stroke-linecap:round;stroke-linejoin:round;stroke-miterlimit:10;" d="M475.406,330.977
				c0,0,2.584-2.253,13.056-7.317"/>
		</g>
		<g>
			<path style="fill:#EE6A5E;" d="M582.704,177.576c0,0-7.009-2.534-11.774-7.94c-4.692-5.323-7.027-12.417-9.703-11.403
				c-5.394,2.044-2.209,21.25,2.049,24.673L582.704,177.576z"/>
			<path style="fill:#EE6A5E;" d="M592.482,227.285c0,0,11.469-10.797,8.929-22.244c-2.54-11.446-15.968-26.384-18.707-27.465
				c-2.739-1.081-35.261,2.895-37.639,6.164c-2.378,3.269,4.631,7.816,11.432,5.217c0,0-8.346,3.229-7.387,7.278
				c1.069,4.514,13.58,1.941,13.58,1.941s-14.784,3.744-13.334,7.406c1.45,3.663,13.344,3.875,13.344,3.875
				s-12.334,2.217-9.589,6.559c2.745,4.342,25.734-1.592,25.734-1.592S587.908,224.574,592.482,227.285z"/>
			<path style="fill:none;stroke:#1C2649;stroke-linecap:round;stroke-linejoin:round;stroke-miterlimit:10;" d="M558.355,218.264
				c0,0,16.454-1.762,23.861-5.078"/>
			<path style="fill:none;stroke:#1C2649;stroke-linecap:round;stroke-linejoin:round;stroke-miterlimit:10;" d="M560.937,179.277
				c-2.223,0.163,7.543-0.706,17.023-1.392"/>
		</g>
	</g>
</g>
</svg>
