<?xml version="1.0" encoding="utf-8"?>
<!-- Generator: Adobe Illustrator 27.5.0, SVG Export Plug-In . SVG Version: 6.00 Build 0)  -->
<svg version="1.1" xmlns="http://www.w3.org/2000/svg" xmlns:xlink="http://www.w3.org/1999/xlink" x="0px" y="0px"
	 viewBox="0 0 750 500" style="enable-background:new 0 0 750 500;" xml:space="preserve">
<g id="BACKGROUND">
	<rect style="fill:#FFFFFF;" width="750" height="500"/>
</g>
<g id="OBJECTS">
	<g>
		<g>
			<path style="fill:#F1C6C7;" d="M317.363,418.532H87.881c-28.08-24.265-40.243-66.377-29.966-102.037
				c9.61-33.346,36.923-62.211,35.236-96.873c-1.456-29.932-24.804-56.418-22.554-86.301c1.192-15.826,10.113-30.888,23.419-39.539
				c13.306-8.651,30.692-10.692,45.64-5.359c14.822,5.288,26.4,16.969,36.473,29.06c10.073,12.091,19.359,25.119,31.85,34.691
				c12.491,9.572,29.236,15.295,44.152,10.28c11.737-3.947,21.095-14.023,33.326-15.955c15.38-2.43,30.239,9.622,35.701,24.204
				c5.461,14.582,3.524,30.852,0.099,46.042c-3.425,15.19-8.288,30.259-8.488,45.829c-0.23,17.839,5.673,35.134,11.841,51.874
				c6.168,16.741,12.747,33.666,13.962,51.466C339.789,383.713,330.969,406.993,317.363,418.532z"/>
			<path style="fill:#F1C6C7;" d="M234.259,142.821c11.123,2.554,23.46,2.715,33.239-3.168
				c10.438-6.279,16.227-18.822,16.025-31.002c-0.202-12.18-5.801-23.849-13.813-33.024c-8.012-9.175-18.315-16.076-29.027-21.876
				c-9.184-4.972-18.891-9.257-29.196-10.956c-17.568-2.897-39.841,1.673-42.184,22.267c-1.023,8.994,0.787,18.457,4.352,26.644
				c7.058,16.208,19.094,30.205,33.946,39.769C215.76,136.73,224.792,140.648,234.259,142.821z"/>
		</g>
		<path style="fill:#422C4F;" d="M69.367,424.023L69.367,424.023c0,3.033,2.459,5.491,5.491,5.491h14.42
			c6.537,0,12.787,2.692,17.278,7.442l0.786,0.831c4.491,4.75,10.74,7.442,17.278,7.442h18.103c6.016,0,11.808,2.28,16.21,6.382l0,0
			c4.401,4.101,10.194,6.382,16.21,6.382h55.592c6.016,0,11.808-2.28,16.21-6.382l0,0c4.401-4.101,10.194-6.382,16.21-6.382h18.103
			c6.538,0,12.786-2.692,17.278-7.442l0.786-0.831c4.491-4.75,10.74-7.442,17.278-7.442h14.421c3.033,0,5.491-2.458,5.491-5.491l0,0
			c0-3.033-2.458-5.491-5.491-5.491H74.858C71.825,418.532,69.367,420.991,69.367,424.023z"/>
		<g>
			<g>
				<g>
					<path style="fill:#422C4F;" d="M178.628,165.606c-8.729,0.842-17.771-2.867-23.395-9.595
						c-5.624-6.728-7.669-16.286-5.292-24.726c-3.373-2.821-5.464-7.249-5.488-11.646c-0.024-4.397,1.974-8.764,5.315-11.621
						c-3.141-6.575-1.623-15.16,2.729-21.004c4.352-5.844,12.058-8.991,19.257-7.865c2.751-5.608,8.674-10.583,14.807-11.771
						c6.133-1.188,12.778,0.655,17.424,4.831c5.288-3.748,12.704-4.856,18.926-3.04c6.222,1.817,11.509,6.59,13.949,12.595
						c7.179-0.877,15.297,2.677,19.348,8.668c4.051,5.991,4.43,14.266,0.942,20.602c6.042,3.978,9.78,11.251,9.732,18.485
						c-0.048,7.234-3.964,14.33-10.059,18.227c2.138,7.574-1.101,16.521-7.348,21.309c-6.247,4.788-15.442,5.321-22.201,1.288
						c-3.059,4.369-8.529,6.342-13.841,5.867c-5.312-0.475-10.253-3.955-12.488-8.797c-2.392,3.164-6.669,5.234-10.629,5.006
						C186.357,172.188,180.64,169.025,178.628,165.606z"/>
					<path style="fill:#5B456B;" d="M154.637,88.892c4.681-4.993,12.202-7.119,18.804-5.314c1.727-5.881,7.174-10.101,13.15-11.461
						c5.976-1.361,12.615,0.743,16.717,5.296c4.866-2.819,11.014-4.415,16.587-3.659c5.573,0.757,13.028,3.996,16.966,8.01
						c-2.441-6.004-7.728-10.778-13.949-12.595c-6.222-1.817-13.638-0.708-18.926,3.04c-4.646-4.176-11.291-6.019-17.424-4.831
						c-6.133,1.188-12.056,6.162-14.807,11.771c-7.199-1.126-14.905,2.021-19.257,7.865c-4.352,5.844-5.871,14.429-2.729,21.004
						C147.541,101.546,149.956,93.885,154.637,88.892z"/>
					<path style="fill:#2E2138;" d="M257.151,111.034c6.126,12.185,5.154,26.403-5.825,33.822c1.595,6.415-1.144,13.682-6.575,17.45
						c-5.432,3.768-13.046,3.568-18.496-0.172c-6.384,3.608-13.947,5.087-21.22,4.15s-15.446-5.015-20.706-10.124
						c-7.606,2.141-16.162,0.589-22.531-4.087c-6.369-4.676-11.621-12.89-11.857-20.788c-2.377,8.441-0.331,17.998,5.292,24.726
						c5.624,6.728,14.666,10.437,23.395,9.595c2.012,3.418,7.73,6.582,11.69,6.81c3.96,0.228,8.238-1.842,10.629-5.006
						c2.236,4.842,7.176,8.322,12.488,8.797c5.312,0.475,10.782-1.498,13.841-5.867c6.758,4.033,15.954,3.5,22.201-1.288
						c6.247-4.788,9.486-13.734,7.348-21.308c6.095-3.897,10.011-10.993,10.059-18.227
						C266.931,122.285,263.193,115.012,257.151,111.034z"/>
				</g>
				<g>
					<path style="fill:#5B456B;" d="M247.343,114.2c-0.705-2.951-2.384-5.933-4.885-8.107c-0.596-0.517-1.232-0.978-1.894-1.39
						c0.415-2.54,0.186-5.566-0.967-8.507c-1.305-3.403-3.841-6.676-7.26-8.746c-3.421-2.068-7.497-2.795-11.117-2.371
						c-3.641,0.399-6.812,1.949-8.914,3.854c2.602-1.147,5.725-1.893,9.018-1.828c3.281,0.051,6.711,0.91,9.613,2.659
						c2.897,1.758,5.249,4.398,6.817,7.28c1.328,2.417,2.09,4.99,2.418,7.429c-2.02-1.176-4.263-1.882-6.425-2.087
						c-3.032-0.308-5.882,0.346-7.971,1.46c2.339-0.399,5.017-0.418,7.702,0.212c2.678,0.617,5.347,1.875,7.498,3.739
						c2.145,1.87,3.763,4.338,4.748,6.904c0.997,2.571,1.352,5.226,1.283,7.597C247.82,120.072,248.07,117.159,247.343,114.2z"/>
					<path style="fill:#5B456B;" d="M193.642,87.238c-2.953-0.837-6.408-0.844-9.574,0.249c-3.165,1.094-5.878,3.234-7.685,5.715
						c-1.699,2.303-2.6,4.885-2.829,7.159c-2.018,0.189-4.068,0.762-5.924,1.774c-2.793,1.525-5.006,3.949-6.323,6.553
						c-1.339,2.606-1.776,5.379-1.549,7.648c0.5-2.23,1.443-4.63,2.953-6.819c1.497-2.188,3.549-4.154,5.96-5.474
						c2.414-1.313,5.178-1.976,7.828-2.051c2.658-0.085,5.187,0.42,7.332,1.206c-1.785-1.419-4.354-2.551-7.27-2.835
						c-0.918-0.095-1.871-0.095-2.831-0.016c0.886-2.068,2.189-4.193,3.97-6.048c1.922-2.017,4.387-3.705,7.114-4.652
						c2.73-0.939,5.712-1.133,8.468-0.733c2.767,0.391,5.293,1.378,7.367,2.59C199.067,89.704,196.613,88.059,193.642,87.238z"/>
				</g>
			</g>
			<g>
				<path style="fill:#6CA8BF;" d="M291.987,342.307l-15.732-152.332h-28.676c-2.192,5.857-6.073,11.055-11.213,14.275
					c-5.706,3.574-12.958,4.538-19.163,2.043c-5.573-2.242-10.081-7.383-11.526-13.423h-18.899c-13.96,0-26.124,9.514-29.486,23.063
					l-10.918,44l24.507,11.642l-7.866,70.734H291.987z"/>
				<g>
					<g>
						<path style="fill:#495375;" d="M192.627,236.985c0,0-4.156-25.935,4.222-44.116h-7.943
							c-8.378,18.181-4.222,44.116-4.222,44.116H192.627z"/>
						<path style="fill:#495375;" d="M259.182,234.091c0,0-4.156-25.935,4.222-44.116h-7.943
							c-8.378,18.181-4.222,44.116-4.222,44.116H259.182z"/>
						<path style="fill:#422C4F;" d="M251.24,234.091h7.943c0,0-0.442-2.775-0.747-7.132c-2.612,0.469-5.224,0.938-7.836,1.406
							C250.891,231.903,251.24,234.091,251.24,234.091z"/>
						<path style="fill:#422C4F;" d="M183.961,230.203c0.304,4.157,0.723,6.782,0.723,6.782h7.943c0,0-0.383-2.401-0.682-6.241
							C189.275,230.739,186.608,230.553,183.961,230.203z"/>
					</g>
					<g>
						<path style="fill:#495375;" d="M163.016,342.307l10.792-97.048c3.884-1.674,6.749-6.158,8.173-8.827
							c0.668-1.252,2.005-1.982,3.42-1.872c20.865,1.61,56.75-0.407,73.778-3.432c1.5-0.267,2.998,0.459,3.727,1.796
							c5.67,10.402,12.931,17.955,20.01,21.547l9.071,87.837H163.016z"/>
						<g>
							<path style="fill:#468097;" d="M270.699,244.357c3.9,4.568,8.089,8.019,12.217,10.113l9.071,87.837l-13.306-128.841
								l-5.392,16.554C271.776,234.665,270.914,239.488,270.699,244.357z"/>
							<polygon style="fill:#FFFFFF;" points="167.796,299.318 167.796,299.318 163.016,342.307 							"/>
							<path style="fill:#422C4F;" d="M270.699,244.357c-0.052,1.169-0.077,2.339-0.053,3.511l0.637,30.513l-33.17-14.57
								l-26.949,11.901l-43.368,23.606l-4.781,42.989h128.971l-9.071-87.837C278.788,252.376,274.599,248.926,270.699,244.357z"/>
						</g>
						<path style="fill:#797C99;" d="M191.75,242.841l-5.887-0.376c-0.93-0.059-1.637-0.862-1.577-1.792l0,0
							c0.059-0.93,0.862-1.637,1.792-1.577l5.887,0.376c0.93,0.059,1.637,0.862,1.577,1.792l0,0
							C193.483,242.194,192.68,242.9,191.75,242.841z"/>
						<path style="fill:#797C99;" d="M252.761,239.992l5.887-0.376c0.93-0.059,1.637-0.862,1.577-1.792l0,0
							c-0.059-0.93-0.862-1.637-1.792-1.577l-5.887,0.376c-0.93,0.059-1.637,0.862-1.577,1.792l0,0
							C251.028,239.346,251.83,240.052,252.761,239.992z"/>
					</g>
				</g>
				<path style="fill:#468097;" d="M170.882,271.574l6.228-56.003l0,0c-4.026,3.317-6.773,7.93-7.77,13.05l-7.525,38.645
					L170.882,271.574z"/>
				<g>
					<g>
						<path style="fill:#468097;" d="M249.111,198.922c-2.092,3.578-5.27,7.048-9.369,9.493c-4.069,2.476-9.015,3.751-13.998,3.603
							c-4.988-0.133-9.87-1.671-13.963-4.184c-4.119-2.491-7.433-5.823-9.932-9.128c1.33,3.916,4.051,8.213,8.226,11.548
							c2.078,1.66,4.495,3.091,7.158,4.071c2.651,1.002,5.518,1.543,8.4,1.639c2.882,0.065,5.788-0.316,8.495-1.21
							c2.716-0.865,5.207-2.248,7.307-3.911C245.67,207.51,248.259,202.973,249.111,198.922z"/>
					</g>
					<g>
						<path style="fill:#468097;" d="M241.941,218.716c-2.227,0.583-4.763,1.163-7.482,1.541c-2.717,0.383-5.611,0.568-8.502,0.494
							c-2.891-0.082-5.771-0.421-8.463-0.949c-2.695-0.523-5.196-1.238-7.388-1.94c1.858,1.351,4.245,2.618,6.968,3.526
							c2.718,0.914,5.763,1.465,8.825,1.55c3.062,0.079,6.132-0.308,8.895-1.075C237.561,221.103,240.013,219.965,241.941,218.716z"
							/>
					</g>
				</g>
			</g>
			<g>
				<path style="fill:#BD6C67;" d="M217.203,206.292c6.204,2.496,13.457,1.532,19.163-2.043c5.14-3.22,9.021-8.417,11.213-14.275
					h-6.928l-12.441-35.582l-21.297,26.559l4.23,11.917h-5.466C207.123,198.909,211.63,204.051,217.203,206.292z"/>
				<path style="fill:#422C4F;" d="M219.993,185.513c4.002-2.905,6.705-7.379,8.024-12.145c1.319-4.766,1.331-9.818,0.672-14.719
					c-0.181-1.343-0.414-2.678-0.68-4.006l-21.096,26.308l2.758,7.771C213.311,188.869,217.025,187.668,219.993,185.513z"/>
			</g>
			<g>
				<g>
					<g>
						<polygon style="fill:#A64F5A;" points="327.256,292.826 318.395,268.783 285.249,277.058 						"/>
						<polygon style="fill:#422C4F;" points="318.395,268.783 319.934,272.96 301.428,283.131 285.249,277.058 						"/>
					</g>
					<g>
						<path style="fill:#6CA8BF;" d="M276.669,189.975h-0.414l-3.234,9.763c-3.118,9.411-3.4,19.531-0.812,29.101l13.04,48.219
							l40.799-10.186l-20.741-56.86C300.918,197.98,289.477,189.975,276.669,189.975z"/>
						<g>
							<path style="fill:#468097;" d="M319.486,260.042c-4.763,0.82-10.809,2.329-16.816,3.974
								c-6.004,1.654-11.973,3.444-16.487,5.172c4.826-0.227,11.041-1.288,17.096-2.956
								C309.336,264.573,315.22,262.311,319.486,260.042z"/>
						</g>
					</g>
				</g>
				<g>
					<g>
						<g>
							<path style="fill:#CC6164;" d="M208.326,207.451c-3.535-0.559-7.28,0.359-10.156,2.489l1.652,13.91l13.858-3.395
								L208.326,207.451z"/>
							<path style="fill:#A34262;" d="M206.594,217.572c-2.513,0.607-5.006-1.066-5.372-3.625l-0.766-5.363
								c-0.804,0.375-1.572,0.828-2.286,1.357l1.652,13.91l13.858-3.395l-1.567-3.806
								C210.162,216.85,208.414,217.133,206.594,217.572z"/>
						</g>
						<g>
							<path style="fill:#F4D071;" d="M225.869,236.202c0,0,14.893,24.691,22.264,50.007c1.276,4.381-1.361,8.943-5.793,10.028
								l-22.607,5.535c-4.278,1.048-8.601-1.547-9.676-5.819c-3.471-13.798-9.21-40.056-10.442-53.732
								c-3.491-1.175-5.684-5.606-5.67-9.289c0.014-3.684,2.029-7.175,4.849-9.546c2.82-2.37,6.372-3.723,9.973-4.501
								c4.236-0.915,8.932-1.013,12.614,1.273C226.023,223.041,228.413,231.366,225.869,236.202z"/>
							<path style="fill:#ECA85E;" d="M218.377,294.672c-3.471-13.798-12.117-42.453-13.349-56.129
								c-3.491-1.175-5.684-5.606-5.67-9.289c0.012-3.2,1.536-6.253,3.784-8.553c-1.561,0.707-3.036,1.582-4.349,2.686
								c-2.82,2.37-4.835,5.862-4.849,9.546c-0.014,3.684,2.178,8.114,5.67,9.289c1.232,13.676,6.97,39.934,10.442,53.732
								c1.075,4.271,5.398,6.866,9.676,5.819l4.902-1.2C221.673,300.002,219.16,297.787,218.377,294.672z"/>
						</g>
					</g>
					<g>
						<path style="fill:#BD6C67;" d="M258.594,266.249l-15.289-19.018c-3.178-3.953-8.332-5.812-13.277-4.683
							c-7.838,1.79-15.258,5.373-21.447,10.515c-1.379,1.146-2.766,2.464-2.896,4.376c-0.056,0.83,0.235,1.681,0.855,2.235
							c1.187,1.059,2.656,0.545,3.932,0.035c6.239-2.493,12.478-4.987,18.717-7.48c-6.995,3.165-14.076,6.382-20.045,11.212
							c-1.264,1.023-2.525,2.186-2.773,3.892c-0.118,0.815,0.095,1.68,0.667,2.272c1.254,1.298,3.142,0.657,4.662-0.01
							c2.559-1.124,5.117-2.247,7.676-3.371c5.059-2.222,10.117-4.443,15.176-6.665c-6.147,3.139-12.294,6.278-18.441,9.417
							c-1.359,0.694-2.748,1.411-3.781,2.534c-1.032,1.123-1.65,2.757-1.165,4.203c0.576,1.72,2.541,2.655,4.354,2.62
							c1.813-0.036,3.515-0.827,5.154-1.603c5.411-2.561,10.821-5.123,16.232-7.684c-3.735,2.154-7.47,4.308-11.204,6.462
							c-1.073,0.619-2.18,1.267-2.904,2.272c-0.724,1.005-0.961,2.474-0.216,3.464c0.604,0.803,1.706,1.101,2.706,0.996
							c1-0.104,1.929-0.546,2.836-0.98c3.715-1.781,7.431-3.563,11.146-5.345c1.451,2.096,3.553,3.426,6.045,3.965
							c2.492,0.539,5.071,0.446,7.619,0.35l44.551,33.136c7.264,5.402,17.127,5.697,24.701,0.738h0
							c4.496-2.944,7.205-7.956,7.205-13.33l0,0c0-6.907-4.45-13.027-11.021-15.157L258.594,266.249z"/>
						<path style="fill:#A64F5A;" d="M324.017,312.4c-6.719,2.256-14.104,1.255-19.98-2.708l-49.091-33.108
							c-2.472,0.486-4.999,0.974-7.494,0.629c-2.495-0.346-4.928-1.97-5.995-4.252c-4.15,2.019-8.301,4.037-12.452,6.056
							c-1.298,0.632-2.646,1.276-4.089,1.322c-0.993,0.032-2.038-0.307-2.757-0.959c-0.09,0.663,0.02,1.333,0.42,1.865
							c0.604,0.804,1.706,1.101,2.706,0.997c1-0.104,1.929-0.546,2.836-0.98c3.715-1.781,7.431-3.563,11.146-5.345
							c1.451,2.096,3.553,3.426,6.045,3.965c2.492,0.539,5.071,0.446,7.619,0.35l44.551,33.136
							c7.264,5.402,17.127,5.697,24.701,0.738c0.849-0.556,1.634-1.186,2.349-1.878L324.017,312.4z"/>
					</g>
				</g>
				<g>
					<path style="fill:#468097;" d="M283.099,195.316c-2.022,1.286-4.139,3.181-5.944,5.591c-1.81,2.402-3.301,5.301-4.242,8.376
						c-0.935,3.077-1.316,6.315-1.154,9.318c0.152,3.007,0.852,5.762,1.812,7.956c-0.224-2.392-0.326-5.098-0.101-7.937
						c0.218-2.838,0.756-5.802,1.625-8.671c0.88-2.866,2.087-5.626,3.49-8.103C279.984,199.365,281.578,197.176,283.099,195.316z"/>
				</g>
			</g>
			<g>
				<path style="fill:#BD6C67;" d="M165.42,133.421c1.322,10.565,2.692,21.308,7.033,31.031c4.34,9.722,12.17,18.449,22.447,21.234
					c9.072,2.458,19.185-0.141,26.443-6.112c7.258-5.971,11.69-15.039,12.719-24.381c2.874,1.993,7.546,1.407,10.462-0.524
					c2.916-1.931,4.665-5.355,4.983-8.839c0.252-2.762-0.373-5.668-2.083-7.851c-1.71-2.183-4.586-3.517-7.316-3.031
					c-2.747,0.489-4.948,2.686-6.156,5.202c-1.207,2.516-1.577,5.34-1.892,8.112c-3.037-2.185-5.226-6.146-4.789-9.861
					c-4.084-0.523-8.178-2.652-10.271-6.198s-2.446-8.067-0.93-11.895c-3.597,1.915-8.619,2.13-12.509,0.916
					c-3.89-1.214-7.251-4.036-9.12-7.657c-1.69,3.077-4.437,5.918-7.774,7.006c-3.337,1.089-7.085,0.859-10.263-0.63
					c0.155,3.092-0.457,6.652-2.513,8.967C171.835,131.224,168.509,133.21,165.42,133.421z"/>
				<path style="fill:#A64F5A;" d="M241.694,139.676c-2.711,1.715-4.495,4.812-4.617,8.017c-0.039,1.018,0.129,2.141,0.893,2.814
					c0.692,0.61,1.749,0.69,2.606,0.347c0.856-0.343,1.526-1.051,1.996-1.844c0.464-0.782,0.763-1.686,0.7-2.592
					c-0.063-0.907-0.526-1.809-1.309-2.271c-0.783-0.461-1.883-0.392-2.516,0.26C239.624,142.814,240.546,140.794,241.694,139.676z"
					/>
				<path style="fill:#422C4F;" d="M213.029,139.496c-5.512-0.615-11.023-1.229-16.535-1.844c0.797-1.545,2.255-3.112,3.835-3.835
					c1.581-0.723,3.405-0.9,5.095-0.493C208.491,134.062,211.008,137.075,213.029,139.496z"/>
				<path style="fill:#422C4F;" d="M169.34,143.167c2.959-1.201,5.919-2.401,8.878-3.602c-0.754-1.216-1.741-2.315-3.106-2.742
					c-1.532-0.48-3.235,0.365-4.22,1.633C169.908,139.723,169.685,141.599,169.34,143.167z"/>
				<path style="fill:#422C4F;" d="M204.163,150.942c0,1.906-1.159,3.451-2.588,3.451c-1.429,0-2.588-1.545-2.588-3.451
					c0-1.906,1.159-3.451,2.588-3.451C203.005,147.492,204.163,149.037,204.163,150.942z"/>
				<path style="fill:#422C4F;" d="M179.038,151.316c0.364,1.698-0.365,3.294-1.628,3.565c-1.263,0.271-2.582-0.886-2.946-2.584
					c-0.364-1.698,0.365-3.294,1.628-3.565C177.355,148.46,178.674,149.617,179.038,151.316z"/>
				<path style="fill:#A64F5A;" d="M194.252,160.801c-2.736,0.268-5.486,0.381-8.234,0.34c0.566,1.626,2.398,2.911,4.119,2.857
					C191.857,163.944,193.79,162.459,194.252,160.801z"/>
				<path style="fill:#FFFFFF;" d="M208.789,167.877c-6.387,2.588-13.074,4.438-19.883,5.501c2.297,1.361,4.747,2.759,7.362,3.3
					s5.487,0.295,7.714-1.177C206.375,173.921,207.837,170.582,208.789,167.877z"/>
				<path style="fill:#A64F5A;" d="M208.081,177.908c-2.822,0.733-5.645,1.466-8.467,2.199c1.321,0.738,3.389,1.059,4.857,0.695
					C205.94,180.437,207.258,179.178,208.081,177.908z"/>
				<path style="fill:#E68799;" d="M226.607,157.643c0.701,2.612-2.533,5.75-7.224,7.009c-4.691,1.258-9.061,0.161-9.762-2.452
					c-0.701-2.613,2.533-5.751,7.224-7.009C221.536,153.933,225.906,155.03,226.607,157.643z"/>
				<ellipse style="fill:#E68799;" cx="177.56" cy="163.605" rx="4.354" ry="3.683"/>
				<path style="fill:#A64F5A;" d="M177.867,123.064c2.911,1.589,6.892,2.156,9.943,0.854c3.051-1.302,5.444-4.055,6.311-7.257
					c0.147,2.62,1.914,5.237,4.104,6.682c2.19,1.445,4.903,1.973,7.521,1.797c2.618-0.176,5.154-1.019,7.531-2.129
					c-1.163,3.671-0.2,8.142,2.194,11.158c2.394,3.017,7.448,4.695,11.8,4.23c-4.084-0.523-8.178-2.652-10.271-6.198
					c-2.093-3.546-2.446-8.067-0.93-11.895c-3.597,1.915-8.619,2.13-12.509,0.916c-3.89-1.214-7.251-4.036-9.12-7.657
					c-1.69,3.077-4.437,5.917-7.774,7.006s-7.085,0.859-10.263-0.63c0.155,3.092-0.457,6.652-2.513,8.967
					c-2.056,2.315-5.382,4.301-8.47,4.511c0.12,0.96,0.242,1.921,0.365,2.883c3.386,0,7.153-1.252,9.394-3.789
					C177.421,129.976,178.437,126.402,177.867,123.064z"/>
			</g>
		</g>
		<g>
			<g>
				<g>
					<path style="fill:#57A0CF;" d="M285.711,432.78H114.378c-2.125,0-3.954-1.502-4.368-3.587l-14.375-72.525h208.818
						l-14.375,72.525C289.666,431.278,287.837,432.78,285.711,432.78z"/>
					<path style="fill:#386693;" d="M274.177,356.668H95.636l2.113,10.661h147.208c14.033,0,24.566,12.825,21.837,26.59
						l-6.991,35.273c-0.413,2.085-2.242,3.587-4.367,3.587h30.276c2.125,0,3.954-1.502,4.367-3.587l14.375-72.525H274.177z"/>
					<path style="fill:#70CDE2;" d="M116.363,387.959l4.354,21.965c0.992,5.003,5.381,8.608,10.482,8.608h6.644
						c3.224,0,5.714-2.834,5.298-6.032l-2.81-21.615c-0.692-5.324-5.227-9.308-10.597-9.308h-8.131
						C118.236,381.577,115.708,384.655,116.363,387.959z"/>
				</g>
				<g>
					<polygon style="fill:#57A0CF;" points="89.264,342.307 85.118,349.488 315.585,349.488 311.439,342.307 					"/>
					<polygon style="fill:#4883B2;" points="89.264,356.668 311.439,356.668 315.585,349.488 85.118,349.488 					"/>
				</g>
			</g>
			<g>
				<path style="fill:#E6FBFC;" d="M285.828,252.531c0-4.016-3.256-7.272-7.272-7.272c-4.016,0-7.272,3.256-7.272,7.272
					c0,2.676,1.45,5.009,3.603,6.272c-0.541,0.82-0.858,1.8-0.858,2.856c0,2.869,2.326,5.194,5.195,5.194
					c2.869,0,5.194-2.326,5.194-5.194c0-1.327-0.502-2.534-1.321-3.453C284.76,256.874,285.828,254.829,285.828,252.531z"/>
				<g>
					<path style="fill:#E6FBFC;" d="M122.147,297.466c2.222-2.133,3.611-5.127,3.611-8.451c0-5.73-4.114-10.492-9.547-11.512
						c0.225-0.524,0.351-1.101,0.351-1.708c0-0.589-0.12-1.15-0.333-1.663c4.096-0.261,7.341-3.657,7.341-7.82
						c0-4.333-3.512-7.845-7.845-7.845c-4.333,0-7.845,3.512-7.845,7.845c0,2.209,0.916,4.201,2.385,5.627
						c-1.41,0.717-2.385,2.165-2.385,3.855c0,1.034,0.376,1.97,0.979,2.715c-3.874,1.913-6.545,5.892-6.545,10.505
						c0,4.801,2.89,8.923,7.022,10.735c-0.918,1.404-1.456,3.079-1.456,4.882c0,4.937,4.002,8.939,8.939,8.939
						c4.937,0,8.939-4.002,8.939-8.939C125.758,301.694,124.335,299.096,122.147,297.466z"/>
					<g>
						<path style="fill:#FFFFFF;" d="M104.757,287.735c-0.321,3.655,1.69,7.184,5.023,8.732c1.09,0.506,2.399,0.307,3.046-0.799
							c0.563-0.963,0.297-2.537-0.799-3.046c-2.053-0.954-3.016-2.623-2.818-4.887C109.461,284.881,105.007,284.898,104.757,287.735
							L104.757,287.735z"/>
					</g>
					<g>
						<path style="fill:#FFFFFF;" d="M112.388,309.225c2.865,0,2.87-4.452,0-4.452C109.523,304.773,109.518,309.225,112.388,309.225
							L112.388,309.225z"/>
					</g>
				</g>
				<g>
					<path style="fill:#CFB59D;" d="M271.729,342.307c-1.829-6.699-4.415-17.479-4.695-24.417c-0.28-6.939,1.133-14.163,5.27-19.741
						c4.37-5.893,11.242-9.345,16.565-14.393c5.092-4.829,8.763-11.269,9.743-18.219c0.98-6.949-0.875-14.365-5.456-19.681
						c-4.582-5.316-12.091-8.693-19.006-7.494c3.899,2.803,6.697,7.098,7.686,11.797s0.159,9.757-2.28,13.894
						c-3.559,6.038-10.037,9.69-14.704,14.92c-7.549,8.461-10.517,21.527-6.256,32.035c-12.467-8.014-65.673-10.463-82.147-0.445
						l3.562-12.689c0,0,4.37-2.913,7.616-7.689c1.915-2.817,2.392-6.369,1.415-9.633c-1.994-6.663-6.571-19.827-14.596-32.1
						c0,0-0.891-13.802-3.562-22.93c-3.339,2.449-10.166,10.092-12.912,20.926c0,0-13.135-0.445-20.258,1.113
						c0,0-2.449-16.697-7.988-24.043c-25.627,34.951-16.129,74.92,1.978,118.791H271.729z"/>
					<g>
						<path style="fill:#978093;" d="M291.851,280.533c3.518-4.316,5.984-9.495,6.76-14.996c0.98-6.949-0.875-14.365-5.456-19.681
							c-4.582-5.316-12.091-8.693-19.006-7.494c3.899,2.803,6.697,7.098,7.686,11.797s0.159,9.757-2.28,13.894
							c-3.132,5.313-8.522,8.779-12.951,13.098c4.083,2.44,8.701,3.987,13.436,4.447
							C283.997,281.982,288.021,281.604,291.851,280.533z"/>
						<path style="fill:#978093;" d="M219.291,330.795c8.236,3.709,18.593,2.097,25.313-3.939
							c5.147-4.624,7.929-11.645,7.693-18.537c-13.106-4.025-38.02-5.622-56.723-3.187c2.129,2.942,4.258,5.884,6.388,8.826
							C206.741,320.561,211.858,327.447,219.291,330.795z"/>
						<path style="fill:#978093;" d="M147.887,246.496c-3.539,0.139-7.335,0.442-10.176,1.063c0,0-2.449-16.697-7.988-24.043
							c-12.793,17.448-16.832,36.146-15.418,55.956c7.847-1.849,15.201-5.798,21.026-11.376
							C141.425,262.259,145.804,254.67,147.887,246.496z"/>
						<path style="fill:#978093;" d="M173.93,272.957c4.045,1.47,8.619,1.615,12.687,0.302c-2.532-6.964-6.481-16.104-12.173-24.809
							c0,0-0.891-13.802-3.562-22.93c-3.339,2.449-10.166,10.092-12.912,20.926c0,0-0.832-0.028-2.189-0.046
							c0.733,5.163,2.186,10.242,4.773,14.756C163.572,266.423,168.225,270.884,173.93,272.957z"/>
					</g>
					<g>
						<path style="fill:#8E7564;" d="M260.236,285.793c-3.938,7.791-4.877,17.237-1.642,25.214c1.633,1.113,4.675,4.007,4.675,4.007
							C259.356,305.918,258.32,295.531,260.236,285.793z"/>
						<path style="fill:#8E7564;" d="M190.855,305.858c-5.932,1.068-10.971,2.613-14.408,4.703
							c-2.338,8.014-7.013,15.361-7.013,15.361C179.38,322.637,187.826,311.354,190.855,305.858z"/>
						<path style="fill:#8E7564;" d="M136.264,301.879c18.661,14.474,36.649,4.308,42.586,0.122l1.159-4.13
							C173.776,301.99,145.725,304.996,136.264,301.879z"/>
					</g>
					<g>
						<path style="fill:#422C4F;" d="M163.016,246.818c2.755-0.039,5.795,0.422,8.049,0.865c-0.275-6.042-1.163-12.054-2.624-17.923
							C164.68,237.464,163.016,246.818,163.016,246.818z"/>
						<path style="fill:#645B79;" d="M171.065,247.682c1.996,0.392,3.379,0.768,3.379,0.768s-0.891-13.802-3.562-22.93
							c-0.896,1.296-1.707,2.736-2.441,4.238C169.902,235.628,170.79,241.64,171.065,247.682z"/>
						<path style="fill:#422C4F;" d="M126.135,251.27c1.721-0.839,4.177-1.678,6.564-2.384c-0.527-6.781-2.057-13.48-4.534-19.815
							C126.873,234.43,125.364,242.93,126.135,251.27z"/>
						<path style="fill:#645B79;" d="M132.699,248.886c1.833-0.542,3.626-1.004,5.012-1.327c0,0-2.449-16.697-7.988-24.043
							c0,0-0.735,2.142-1.558,5.555C130.642,235.406,132.172,242.105,132.699,248.886z"/>
					</g>
					<path style="fill:#422C4F;" d="M151.95,266.66c0.236,2.972-0.764,5.476-2.235,5.593c-1.471,0.117-2.855-2.198-3.091-5.17
						c-0.236-2.972,0.764-5.476,2.235-5.593C150.33,261.374,151.714,263.688,151.95,266.66z"/>
					<path style="fill:#422C4F;" d="M172.496,266.06c-0.21,2.641,0.679,4.866,1.986,4.97c1.307,0.104,2.536-1.953,2.746-4.594
						c0.21-2.641-0.679-4.866-1.986-4.97C173.936,261.363,172.706,263.419,172.496,266.06z"/>
					<path style="fill:#422C4F;" d="M177.377,287.053c-1.657,0.296-3.482,0.131-5.037-0.618c-1.552-0.754-2.815-2.082-3.611-3.565
						c-0.302-0.556-0.518-1.133-0.694-1.714c0.054-1.095-0.081-2.133-0.37-3.02c-0.001,0.21-0.01,0.423-0.024,0.638
						c-0.005-0.164-0.023-0.332-0.019-0.492c-0.288,0.793-0.417,1.746-0.349,2.75c-0.243,0.923-0.601,1.845-1.094,2.726
						c-1.004,1.814-2.561,3.44-4.465,4.391c-1.908,0.945-4.144,1.205-6.196,0.911c-2.063-0.286-3.929-1.126-5.379-2.207
						c1.031,1.482,2.849,2.853,5.111,3.47c2.241,0.632,4.923,0.513,7.23-0.633c2.306-1.148,4.02-3.215,4.868-5.383
						c0.154-0.383,0.272-0.77,0.373-1.156c0.019,0.052,0.032,0.104,0.052,0.155c0.669,1.775,2.064,3.473,3.958,4.391
						c1.895,0.915,4.093,0.954,5.899,0.376c1.825-0.565,3.261-1.751,4.031-3.001C180.531,286.015,179.043,286.764,177.377,287.053z"
						/>
					<path style="fill:#422C4F;" d="M171.557,276.641c-3.196-0.933-6.73-0.658-9.743,0.76c1.756,1.691,3.673,2.791,6.064,3.264
						C169.395,279.92,170.675,278.082,171.557,276.641z"/>
					<g>
						<g>
							<path style="fill:#967F92;" d="M100.816,289.016c6.38-1.845,14.714-4.134,23.181-5.837c8.46-1.734,17.027-2.877,23.621-3.667
								c-6.634-0.251-15.381,0.384-23.932,2.138C115.129,283.37,106.826,286.197,100.816,289.016z"/>
						</g>
						<g>
							<path style="fill:#967F92;" d="M102.145,296.622c6.094-2.054,14.004-4.808,21.999-7.304
								c7.989-2.515,16.056-4.769,22.231-6.562c-6.378,0.805-14.641,2.588-22.683,5.12
								C115.644,290.389,107.841,293.643,102.145,296.622z"/>
						</g>
						<g>
							<path style="fill:#967F92;" d="M109.304,305.739c5.167-2.741,11.825-6.458,18.534-10.083
								c6.702-3.636,13.455-7.179,18.574-10.008c-5.498,1.994-12.495,5.147-19.229,8.8
								C120.444,298.089,113.979,302.225,109.304,305.739z"/>
						</g>
					</g>
					<g>
						<g>
							<path style="fill:#967F92;" d="M220.66,284.012c-3.632-2.139-9.333-4.331-16.037-5.587
								c-7.412-1.428-15.918-1.687-22.962-1.011c6.958,0.539,15.204,1.307,22.502,2.623
								C210.776,281.195,216.589,282.801,220.66,284.012z"/>
						</g>
						<g>
							<path style="fill:#967F92;" d="M218.377,290.623c-3.358-1.98-8.524-4.186-14.543-5.883c-6.66-1.9-14.333-3.168-20.844-3.583
								c6.265,1.517,13.697,3.226,20.299,5.024C209.263,287.789,214.589,289.48,218.377,290.623z"/>
						</g>
						<g>
							<path style="fill:#967F92;" d="M212.146,298.721c-2.745-2.203-6.975-4.898-11.919-7.383
								c-5.46-2.76-11.807-5.271-17.301-6.905c5.093,2.551,11.195,5.418,16.643,8.092
								C204.507,294.934,208.948,297.207,212.146,298.721z"/>
						</g>
					</g>
				</g>
				<g>
					<path style="fill:#E6FBFC;" d="M189.406,337.091c-0.795,0-1.57,0.082-2.324,0.225c-0.462-2.396-2.567-4.206-5.098-4.206
						c-1.563,0-2.962,0.694-3.914,1.787c-1.647-1.654-3.926-2.677-6.444-2.677c-1.502,0-2.914,0.37-4.163,1.014
						c-1.57-4.24-5.638-7.267-10.424-7.267c-1.805,0-3.503,0.439-5.01,1.202c-3.04-7.144-10.123-12.153-18.376-12.153
						c-7.062,0-13.263,3.671-16.812,9.204c-0.674-0.2-1.386-0.311-2.124-0.311c-3.806,0-6.941,2.854-7.395,6.537
						c-0.352-0.03-0.705-0.054-1.064-0.054c-6.676,0-12.1,5.298-12.333,11.917h105.612
						C197.273,339.153,193.584,337.091,189.406,337.091z"/>
					<path style="fill:#E6FBFC;" d="M297.771,333.192c-1.29,0-2.523,0.234-3.674,0.643c0.01-0.179,0.027-0.356,0.027-0.537
						c0-4.975-4.033-9.009-9.009-9.009c-3.307,0-6.189,1.787-7.756,4.443c-2.399-3.823-6.639-6.372-11.485-6.372
						c-5.84,0-10.803,3.698-12.714,8.874c-0.415-0.072-0.84-0.118-1.275-0.118c-3.35,0-6.175,2.23-7.082,5.286
						c-2.613-2.256-6.01-3.629-9.733-3.629c-6.338,0-11.738,3.959-13.899,9.534h87.41
						C307.694,337.133,303.198,333.192,297.771,333.192z"/>
					<path style="fill:#E6FBFC;" d="M247.326,302.547c-0.9,0-1.743,0.242-2.472,0.66c-0.362-3.005-2.916-5.335-6.018-5.335
						c-0.343,0-0.677,0.035-1.005,0.09c0-0.03,0.005-0.06,0.005-0.09c0-6.471-5.246-11.716-11.716-11.716
						c-5.02,0-9.29,3.163-10.958,7.6c-1.512-2.343-4.139-3.898-7.135-3.898c-4.69,0-8.492,3.802-8.492,8.492
						c0,0.544,0.056,1.075,0.154,1.59c-0.46-0.104-0.936-0.164-1.428-0.164c-3.567,0-6.458,2.892-6.458,6.458
						c0,3.567,2.891,6.458,6.458,6.458c3.567,0,6.458-2.892,6.458-6.458c0-0.021-0.003-0.042-0.003-0.063
						c0.765,0.324,1.587,0.539,2.447,0.626c-0.138,0.598-0.217,1.218-0.217,1.857c0,4.557,3.694,8.251,8.251,8.251
						c1.008,0,1.969-0.19,2.862-0.521c1.067,4.396,5.018,7.665,9.742,7.665c5.542,0,10.035-4.493,10.035-10.035
						c0-0.095-0.012-0.186-0.014-0.28c0.99,1.046,2.387,1.701,3.941,1.701c2.116,0,3.945-1.213,4.842-2.979
						c0.236,0.034,0.476,0.058,0.722,0.058c2.753,0,4.984-2.231,4.984-4.984C252.31,304.778,250.079,302.547,247.326,302.547z"/>
					<path style="fill:#E6FBFC;" d="M165.591,242.409c0.196-0.714,0.309-1.462,0.309-2.238c0-2.369-0.976-4.507-2.545-6.043
						c-1.526-1.493-3.611-2.417-5.915-2.417c-1.4,0-2.716,0.346-3.879,0.947c-1.943-3.524-5.692-5.914-10.001-5.914
						c-4.056,0-7.61,2.122-9.634,5.311c2.594,7.401,3.785,15.504,3.785,15.504c0.319-0.07,0.653-0.134,0.994-0.196
						c0.072-0.013,0.143-0.026,0.216-0.039c0.337-0.059,0.681-0.115,1.035-0.167c0.055-0.008,0.111-0.015,0.166-0.023
						c0.334-0.048,0.674-0.093,1.021-0.135c0.053-0.007,0.106-0.013,0.159-0.02c0.38-0.045,0.766-0.086,1.157-0.125
						c0.065-0.007,0.131-0.013,0.196-0.019c0.81-0.078,1.637-0.143,2.468-0.197c0.052-0.003,0.103-0.007,0.155-0.01
						c0.425-0.027,0.849-0.052,1.273-0.073c0.001,0,0.001,0,0.002,0c0.446-0.023,0.89-0.042,1.33-0.06c0.002,0,0.004,0,0.006,0
						c1.233-0.049,2.434-0.077,3.553-0.093c0.1-0.001,0.197-0.002,0.296-0.004c1.505,1.379,3.502,2.23,5.704,2.23
						c0.559,0,1.104-0.057,1.632-0.161c0.475,2.4,2.591,4.21,5.13,4.21c2.801,0,5.081-2.203,5.218-4.97
						c0.004-0.087,0.013-0.173,0.013-0.262C169.434,245.04,167.805,243.018,165.591,242.409z"/>
					<path style="fill:#E6FBFC;" d="M301.428,276.397c0-4.205-3.409-7.615-7.615-7.615c-2.791,0-5.224,1.506-6.55,3.745
						c-0.739-0.308-1.549-0.48-2.399-0.48c-3.443,0-6.235,2.791-6.235,6.235c0,1.097,0.286,2.127,0.784,3.023
						c-4.24,0.753-7.462,4.449-7.462,8.905c0,0.529,0.055,1.044,0.142,1.548c-2.217,0.593-3.852,2.609-3.852,5.013
						c0,2.869,2.326,5.194,5.194,5.194c2.141,0,3.979-1.296,4.774-3.147c0.881,0.286,1.819,0.445,2.795,0.445
						c5,0,9.053-4.053,9.053-9.053c0-0.086-0.01-0.17-0.013-0.256c0.453,0.127,0.929,0.2,1.423,0.2c2.91,0,5.269-2.359,5.269-5.269
						c0-0.481-0.07-0.944-0.191-1.387C299.4,282.399,301.428,279.639,301.428,276.397z"/>
					<g>
						<g>
							<path style="fill:#FFFFFF;" d="M137.639,235.618c1.028,0.345,1.867,0.066,2.634-0.637c1.02-0.935,2.313-1.316,3.672-1.501
								c1.201-0.164,1.832-1.688,1.555-2.739c-0.34-1.289-1.553-1.716-2.738-1.555c-1.23,0.168-2.424,0.525-3.551,1.042
								c-0.727,0.333-1.622,0.538-2.298,0.96c-1.709,1.068-1.168,3.723,0.615,4.39C137.566,235.592,137.602,235.606,137.639,235.618
								z"/>
						</g>
						<g>
							<path style="fill:#FFFFFF;" d="M161.031,238.432c2.865,0,2.87-4.452,0-4.452C158.166,233.98,158.161,238.432,161.031,238.432
								L161.031,238.432z"/>
						</g>
						<g>
							<path style="fill:#FFFFFF;" d="M166.54,249.508c2.865,0,2.87-4.452,0-4.452C163.676,245.055,163.671,249.508,166.54,249.508
								L166.54,249.508z"/>
						</g>
						<g>
							<path style="fill:#FFFFFF;" d="M121.421,334.276c0.717-6.685,6.051-11.664,12.726-12.087c2.846-0.18,2.866-4.634,0-4.452
								c-9.287,0.588-16.189,7.322-17.178,16.539C116.664,337.121,121.118,337.1,121.421,334.276L121.421,334.276z"/>
						</g>
						<g>
							<path style="fill:#FFFFFF;" d="M101.8,339.064c0.979-1.156,2.068-1.749,3.559-1.987c1.188-0.19,1.848-1.671,1.555-2.738
								c-0.348-1.265-1.547-1.745-2.738-1.555c-2.125,0.339-4.134,1.491-5.524,3.132c-0.777,0.917-0.9,2.249,0,3.148
								C99.448,339.861,101.02,339.986,101.8,339.064L101.8,339.064z"/>
						</g>
						<g>
							<path style="fill:#FFFFFF;" d="M153.303,334.103c0.014-0.024,0.17-0.263,0.163-0.272c-0.178,0.215-0.214,0.26-0.108,0.135
								c0.033-0.041,0.069-0.08,0.106-0.118c0.072-0.077,0.157-0.144,0.227-0.221c0.173-0.193-0.421,0.249-0.01,0.011
								c0.092-0.053,0.183-0.106,0.274-0.16c0.291-0.171-0.068-0.02-0.097,0.032c0.068-0.122,0.634-0.163,0.77-0.181
								c0.511-0.069,1.084-0.602,1.33-1.023c0.279-0.477,0.398-1.18,0.224-1.715c-0.412-1.273-1.497-1.724-2.739-1.555
								c-1.661,0.226-3.169,1.382-3.986,2.82c-0.575,1.013-0.273,2.479,0.799,3.046C151.313,335.46,152.688,335.185,153.303,334.103
								L153.303,334.103z"/>
						</g>
						<g>
							<path style="fill:#FFFFFF;" d="M181.122,338.76c2.865,0,2.87-4.452,0-4.452C178.257,334.307,178.252,338.76,181.122,338.76
								L181.122,338.76z"/>
						</g>
						<g>
							<path style="fill:#FFFFFF;" d="M193.901,303.796c-0.683,1.647-0.102,3.793,1.224,4.952c0.876,0.766,2.298,0.926,3.148,0
								c0.771-0.84,0.936-2.33,0-3.148c-0.079-0.065-0.154-0.135-0.223-0.21c0.183,0.256,0.207,0.284,0.073,0.083
								c-0.113-0.215-0.104-0.176,0.026,0.117c-0.035-0.096-0.065-0.194-0.088-0.294c-0.048-0.246-0.042-0.201,0.016,0.136
								c-0.005-0.102-0.003-0.204,0.006-0.306c-0.053,0.338-0.051,0.385,0.004,0.141c0.029-0.098,0.065-0.194,0.107-0.287
								c0.447-1.079-0.482-2.494-1.555-2.738C195.341,301.946,194.38,302.641,193.901,303.796L193.901,303.796z"/>
						</g>
						<g>
							<path style="fill:#FFFFFF;" d="M205.708,298.187c0.027-0.126,0.055-0.25,0.093-0.373c0.127-0.417-0.067-0.057-0.031,0.031
								c-0.023-0.056,0.156-0.293,0.183-0.338c0.026-0.044,0.053-0.088,0.082-0.13c0.092-0.135,0.052-0.089-0.12,0.141
								c0.152-0.062,0.359-0.371,0.485-0.492c0.178-0.171-0.371,0.202-0.017,0.031c0.138-0.067,0.268-0.151,0.406-0.217
								c1.053-0.505,1.413-2.092,0.799-3.046c-0.697-1.081-1.92-1.339-3.046-0.799c-1.561,0.749-2.769,2.318-3.127,4.007
								c-0.241,1.136,0.335,2.461,1.555,2.738C204.087,299.997,205.449,299.406,205.708,298.187L205.708,298.187z"/>
						</g>
						<g>
							<path style="fill:#FFFFFF;" d="M219.346,298.433c0.523-3.906,4.06-6.184,7.804-5.92c2.859,0.201,2.847-4.252,0-4.452
								c-6.431-0.453-11.425,4.168-12.257,10.372C214.515,301.263,218.971,301.236,219.346,298.433L219.346,298.433z"/>
						</g>
						<g>
							<path style="fill:#FFFFFF;" d="M258.025,336.105c0.838-2.848,2.685-5.108,5.272-6.551c2.503-1.396,0.26-5.243-2.247-3.844
								c-3.578,1.996-6.164,5.288-7.318,9.212C252.922,337.676,257.218,338.852,258.025,336.105L258.025,336.105z"/>
						</g>
						<g>
							<path style="fill:#FFFFFF;" d="M268.278,328.816c2.865,0,2.87-4.452,0-4.452
								C265.413,324.364,265.408,328.816,268.278,328.816L268.278,328.816z"/>
						</g>
						<g>
							<path style="fill:#FFFFFF;" d="M277.874,283.588c-3.057,2.213-4.436,5.675-3.505,9.382c0.698,2.777,4.993,1.601,4.293-1.184
								c-0.41-1.633,0.056-3.338,1.459-4.354c0.973-0.704,1.448-1.936,0.799-3.046C280.358,283.427,278.853,282.879,277.874,283.588
								L277.874,283.588z"/>
						</g>
						<g>
							<path style="fill:#FFFFFF;" d="M282.581,280.007c2.865,0,2.87-4.452,0-4.452
								C279.716,275.554,279.712,280.007,282.581,280.007L282.581,280.007z"/>
						</g>
						<g>
							<path style="fill:#FFFFFF;" d="M232.349,338.722c2.679-0.958,1.524-5.261-1.184-4.293c-3.993,1.427-7.029,4.175-8.891,7.879
								h5.146C228.69,340.684,230.416,339.413,232.349,338.722z"/>
						</g>
					</g>
				</g>
			</g>
		</g>
		<g>
			<g>
				<g style="opacity:0.8;">
					<circle style="fill:#E6FBFC;" cx="249.111" cy="224.289" r="6.427"/>
					<path style="fill:#FFFFFF;" d="M249.776,222.498c0,1.543-1.251,2.795-2.795,2.795c-1.543,0-2.795-1.251-2.795-2.795
						c0-1.544,1.251-2.795,2.795-2.795C248.524,219.703,249.776,220.954,249.776,222.498z"/>
				</g>
				<g style="opacity:0.8;">
					<circle style="fill:#E6FBFC;" cx="279.075" cy="201.7" r="4.578"/>
					<path style="fill:#FFFFFF;" d="M279.549,200.424c0,1.099-0.891,1.991-1.991,1.991c-1.099,0-1.991-0.891-1.991-1.991
						c0-1.1,0.891-1.991,1.991-1.991C278.657,198.433,279.549,199.324,279.549,200.424z"/>
				</g>
				<g style="opacity:0.8;">
					<path style="fill:#E6FBFC;" d="M270.762,221.207c0,1.617-1.311,2.927-2.927,2.927c-1.617,0-2.927-1.311-2.927-2.927
						c0-1.617,1.31-2.927,2.927-2.927C269.452,218.28,270.762,219.59,270.762,221.207z"/>
					<circle style="fill:#FFFFFF;" cx="266.865" cy="220.391" r="1.273"/>
				</g>
			</g>
			<g>
				<g>
					
						<ellipse transform="matrix(0.9231 -0.3846 0.3846 0.9231 -45.3323 131.9221)" style="fill:#E6FBFC;" cx="307.135" cy="179.29" rx="8.269" ry="8.269"/>
					<circle style="fill:#FFFFFF;" cx="304.395" cy="176.985" r="3.596"/>
				</g>
				<g>
					<path style="fill:#E6FBFC;" d="M320.891,200.424c0,2.93-2.375,5.306-5.306,5.306s-5.306-2.375-5.306-5.306
						c0-2.93,2.376-5.306,5.306-5.306S320.891,197.493,320.891,200.424z"/>
					<path style="fill:#FFFFFF;" d="M316.134,198.945c0,1.274-1.033,2.307-2.307,2.307s-2.307-1.033-2.307-2.307
						s1.033-2.307,2.307-2.307S316.134,197.67,316.134,198.945z"/>
				</g>
			</g>
		</g>
		<g>
			<g>
				<g>
					<circle style="fill:#E6FBFC;" cx="99.119" cy="247.648" r="7.936"/>
					<path style="fill:#FFFFFF;" d="M99.94,245.436c0,1.906-1.545,3.451-3.451,3.451c-1.906,0-3.451-1.545-3.451-3.451
						c0-1.906,1.545-3.451,3.451-3.451C98.395,241.985,99.94,243.53,99.94,245.436z"/>
				</g>
				<g>
					<path style="fill:#E6FBFC;" d="M96.489,264.4c0,2.93-2.375,5.306-5.306,5.306c-2.93,0-5.306-2.375-5.306-5.306
						s2.375-5.306,5.306-5.306C94.114,259.094,96.489,261.47,96.489,264.4z"/>
					<path style="fill:#FFFFFF;" d="M91.732,262.921c0,1.274-1.033,2.307-2.307,2.307s-2.307-1.033-2.307-2.307
						s1.033-2.307,2.307-2.307S91.732,261.647,91.732,262.921z"/>
				</g>
				<g>
					<path style="fill:#E6FBFC;" d="M89.425,285.647c0,1.274-1.033,2.307-2.307,2.307c-1.274,0-2.307-1.033-2.307-2.307
						s1.033-2.307,2.307-2.307C88.392,283.34,89.425,284.373,89.425,285.647z"/>
					<path style="fill:#FFFFFF;" d="M87.357,285.004c0,0.554-0.449,1.003-1.003,1.003c-0.554,0-1.003-0.449-1.003-1.003
						c0-0.554,0.449-1.003,1.003-1.003C86.908,284.001,87.357,284.45,87.357,285.004z"/>
				</g>
			</g>
			<g>
				<g>
					<circle style="fill:#E6FBFC;" cx="112.254" cy="198.705" r="9.652"/>
					<circle style="fill:#FFFFFF;" cx="109.055" cy="196.015" r="4.197"/>
				</g>
				<g>
					<circle style="fill:#E6FBFC;" cx="127.858" cy="169.305" r="5.306"/>
					<path style="fill:#FFFFFF;" d="M128.407,167.827c0,1.274-1.033,2.307-2.307,2.307c-1.274,0-2.307-1.033-2.307-2.307
						c0-1.274,1.033-2.307,2.307-2.307C127.374,165.519,128.407,166.552,128.407,167.827z"/>
				</g>
				<g>
					<path style="fill:#E6FBFC;" d="M141.111,192.869c0,2.323-1.883,4.206-4.206,4.206c-2.323,0-4.206-1.883-4.206-4.206
						s1.883-4.206,4.206-4.206C139.228,188.663,141.111,190.546,141.111,192.869z"/>
					<path style="fill:#FFFFFF;" d="M137.34,191.697c0,1.01-0.819,1.829-1.829,1.829c-1.01,0-1.829-0.819-1.829-1.829
						c0-1.01,0.819-1.829,1.829-1.829C136.521,189.868,137.34,190.686,137.34,191.697z"/>
				</g>
			</g>
		</g>
	</g>
	<g>
		<g>
			<path style="fill:#D1EBEB;" d="M412.103,418.716h255.523c11.182-24.367,14.627-51.828,17.72-78.459
				c2.082-17.923,0.607-39.395-14.584-49.13c-13.273-8.506-30.974-3.964-46.08-8.472c-17.891-5.339-29.865-23.111-33.563-41.412
				c-3.698-18.301-0.581-37.226,2.909-55.568c3.489-18.342,7.367-36.996,5.155-55.535c-3.311-27.76-21.146-53.375-46.03-66.115
				c-24.885-12.74-56.093-12.231-80.55,1.312c-35.203,19.495-52.16,60.734-60.556,100.089c-8.457,39.64-10.865,80.565-7.115,120.924
				C408.933,329.39,422.031,376.645,412.103,418.716z"/>
			<path style="fill:#D1EBEB;" d="M610.961,201.562c2.769-20.103,5.537-40.207,8.306-60.31c1.555-11.292,3.201-22.868,8.657-32.875
				c5.456-10.008,15.632-18.265,27.029-18.092c8.838,0.134,17.041,5.324,22.568,12.222c5.527,6.898,8.716,15.364,11.179,23.852
				c8.477,29.209,9.271,60.612,2.28,90.213c-3.854,16.32-10.677,32.954-24.162,42.923c-14.147,10.459-34.764,9.852-46.754-3.516
				C606.748,241.133,608.443,219.848,610.961,201.562z"/>
		</g>
		<path style="fill:#422C4F;" d="M692.023,424.023L692.023,424.023c0,3.033-2.459,5.491-5.491,5.491h-14.42
			c-6.537,0-12.786,2.692-17.278,7.442l-0.786,0.831c-4.491,4.75-10.74,7.442-17.278,7.442h-18.103
			c-6.016,0-11.808,2.28-16.21,6.382l0,0c-4.401,4.101-10.194,6.382-16.21,6.382h-55.592c-6.016,0-11.808-2.28-16.21-6.382l0,0
			c-4.401-4.101-10.194-6.382-16.21-6.382h-58.275c-6.538,0-12.787-2.692-17.278-7.442l-0.786-0.831
			c-4.491-4.75-10.74-7.442-17.278-7.442h-14.42c-3.033,0-5.491-2.458-5.491-5.491l0,0c0-3.033,2.458-5.491,5.491-5.491h296.333
			C689.565,418.532,692.023,420.991,692.023,424.023z"/>
		<g>
			<g>
				<g>
					<path style="fill:#DF8D6D;" d="M588.802,207.834c3.073-4.446,2.545-10.631,0.053-15.427
						c-2.492-4.796-6.635-8.492-10.751-11.994c-4.116-3.502-8.374-7.012-11.221-11.605c-5.182-8.359-4.661-19.88,1.254-27.737
						c2.947-3.915,6.998-6.868,10.116-10.648c6.418-7.78,8.304-19.051,4.768-28.497c-3.536-9.446-12.359-16.707-22.309-18.36
						c-9.95-1.653-20.647,2.365-27.047,10.16c-9.382-8.572-25.475-12.165-37.451-7.916c-11.977,4.249-21.2,15.441-23.082,28.009
						c-1.52,10.151,1.321,21.142-3.094,30.408c-6.77,14.208-27.098,17.367-34.575,31.217c-4.661,8.634-3.072,19.276-0.115,28.632
						c2.957,9.356,7.194,18.533,7.526,28.339c0.324,9.545-2.96,19.853,1.648,28.218c4.632,8.408,15.22,11.133,24.671,12.817
						c19.604,3.492,40.349,5.939,58.981-1.086c13.471-5.079,24.791-14.81,33.849-26
						C571.079,235.175,580.617,219.677,588.802,207.834z"/>
					<path style="fill:#BD6C67;" d="M435.347,204.077c-2.957-9.356-4.546-19.998,0.115-28.632c1.586-2.938,3.754-5.391,6.244-7.575
						c-4.477,9.141-4.319,20.698,1.414,29.2c4.608,6.834,12.072,11.579,15.738,18.961c3.965,7.983,2.798,17.674,6.244,25.895
						c3.92,9.353,13.716,15.571,23.819,16.442c10.104,0.871,20.264-3.137,28.029-9.66c6.872-5.774,11.967-13.322,17.651-20.268
						c5.684-6.946,12.363-13.578,20.875-16.427c4.737-1.586,9.825-1.919,14.549-3.543c4.724-1.625,9.342-5.065,10.2-9.986
						c1.269-7.282-5.776-12.939-9.887-19.081c-2.336-3.491-3.673-7.54-4.078-11.701c0.202,0.372,0.401,0.745,0.624,1.106
						c2.848,4.594,7.105,8.103,11.221,11.605c4.116,3.502,8.259,7.199,10.751,11.994c2.492,4.796,3.02,10.98-0.053,15.427
						c-8.185,11.843-17.722,27.341-26.78,38.531c-9.058,11.19-20.378,20.921-33.849,26c-18.632,7.025-39.377,4.578-58.981,1.086
						c-9.451-1.684-20.039-4.409-24.671-12.817c-4.608-8.366-1.324-18.673-1.648-28.218
						C442.541,222.609,438.304,213.432,435.347,204.077z"/>
					<path style="fill:#F9A991;" d="M558.18,89.249c-8.869-0.376-17.812,3.794-23.224,10.831c-7.637-5.53-17.206-9.088-26.593-9.987
						c-9.386-0.898-19.358,1.819-26.041,8.471c-4.4,4.38-7.167,10.184-8.812,16.171c-0.296,1.079-0.549,2.167-0.783,3.259
						c0.075-1.403,0.196-2.797,0.403-4.175c1.882-12.568,11.105-23.76,23.082-28.009c11.977-4.249,28.069-0.656,37.451,7.916
						c6.401-7.795,17.097-11.813,27.047-10.16c9.95,1.653,18.773,8.914,22.309,18.36c1.511,4.037,2.024,8.407,1.624,12.696
						c-0.391-4.466-1.818-8.841-4.241-12.614C575.606,94.538,567.049,89.626,558.18,89.249z"/>
					<g>
						<g>
							<path style="fill:#F9A991;" d="M571.925,124.471c-0.242-3.189-1.11-6.693-2.84-9.978c-1.712-3.28-4.271-6.324-7.449-8.459
								c-3.185-2.125-6.974-3.333-10.659-3.666c-3.696-0.348-7.267,0.184-10.308,1.175c2.568-1.895,6.253-3.312,10.361-3.456
								c4.088-0.171,8.579,0.93,12.298,3.419c3.717,2.49,6.447,6.223,7.846,10.068C572.606,117.428,572.699,121.375,571.925,124.471
								z"/>
						</g>
						<g>
							<path style="fill:#F9A991;" d="M560.669,116.144c-0.696-1.452-1.609-3.024-2.797-4.508c-1.183-1.485-2.637-2.877-4.278-3.998
								c-1.642-1.118-3.469-1.964-5.283-2.525c-1.815-0.566-3.611-0.842-5.218-0.961c1.56-0.391,3.48-0.506,5.484-0.157
								c2.001,0.341,4.075,1.145,5.88,2.377c1.805,1.232,3.311,2.869,4.358,4.608C559.871,112.719,560.464,114.549,560.669,116.144z
								"/>
						</g>
						<g>
							<path style="fill:#F9A991;" d="M485.885,124.758c3.086-0.597,6.518-1.472,9.992-2.817c3.474-1.335,6.983-3.129,10.241-5.309
								c3.25-2.192,6.237-4.762,8.787-7.473c2.559-2.707,4.667-5.553,6.387-8.185c-0.806,3.029-2.345,6.418-4.659,9.609
								c-2.301,3.195-5.358,6.176-8.85,8.528c-3.497,2.344-7.414,4.047-11.241,4.968
								C492.714,125.015,488.994,125.158,485.885,124.758z"/>
						</g>
						<g>
							<path style="fill:#F9A991;" d="M487.191,108.797c4.611,0.061,10.454-0.337,16.072-1.851
								c5.631-1.465,10.905-4.011,14.882-6.345c-1.535,1.717-3.596,3.472-6.056,4.96c-2.455,1.493-5.299,2.717-8.265,3.505
								c-2.967,0.783-6.044,1.127-8.916,1.044C492.034,110.034,489.375,109.529,487.191,108.797z"/>
						</g>
					</g>
				</g>
				<g>
					<g>
						<path style="fill:#F0BF6C;" d="M458.055,246.724l-8.46,28.209l-37.261-10.241l22.481-50.878
							c5.435-12.301,17.802-20.064,31.243-19.613l32.193,1.081c1.815,5.406,5.661,10.137,10.663,12.893
							c6.248,3.443,14.138,3.724,20.616,0.735c5.315-2.453,9.567-7.06,11.716-12.494l26.677-1.677
							c13.723-0.863,26.538,6.888,32.148,19.441l7.993,17.888l-23.561,25.748v97.857l-134.908,6.514
							c0-19.093,10.086-38.968,16.944-50.275c3.875-6.388,4.971-14.077,3.069-21.302L458.055,246.724z"/>
						<path style="fill:#EBA25D;" d="M458.055,246.724l2.02,1.199c5.156,3.061,9.027,7.889,10.894,13.588l2.892,8.829l-7.616,7.497
							L458.055,246.724z"/>
						<g>
							<g>
								<path style="fill:#EBA25D;" d="M497.408,208.715c3.078,2.177,6.805,4.225,11.009,5.593
									c4.191,1.377,8.836,2.073,13.425,1.792c4.589-0.291,9.112-1.558,13.099-3.445c4.001-1.879,7.445-4.374,10.229-6.916
									c-1.841,3.283-4.878,6.684-8.92,9.266c-4.018,2.594-9.018,4.352-14.185,4.675c-5.167,0.322-10.347-0.802-14.656-2.878
									C503.078,214.742,499.642,211.744,497.408,208.715z"/>
							</g>
							<g>
								<path style="fill:#EBA25D;" d="M503.664,220.382c3.801,1.376,8.785,2.608,13.873,2.711c5.086,0.15,10.126-0.833,13.99-2.018
									c-1.658,1.152-3.792,2.21-6.217,2.921c-2.421,0.717-5.124,1.084-7.821,1.02c-2.697-0.07-5.378-0.571-7.761-1.407
									C507.341,222.778,505.263,221.615,503.664,220.382z"/>
							</g>
							<g>
								<path style="fill:#EBA25D;" d="M450.268,199.016c2.493,2.252,4.997,5.335,7.007,9.036c2.019,3.692,3.538,7.983,4.314,12.413
									c0.766,4.432,0.786,8.984,0.133,13.141c-0.642,4.162-1.957,7.91-3.543,10.872c0.579-3.318,1.06-7.088,1.153-11.09
									c0.101-3.999-0.18-8.221-0.895-12.375c-0.729-4.151-1.891-8.22-3.338-11.95C453.66,205.329,451.933,201.943,450.268,199.016
									z"/>
							</g>
							<g>
								<path style="fill:#EBA25D;" d="M418.955,258.839c8.419,0.977,21.478,4.658,29.168,8.221
									C439.704,266.082,426.645,262.402,418.955,258.839z"/>
							</g>
						</g>
					</g>
					<g>
						<polygon style="fill:#A64F5A;" points="554.527,195.582 561.722,239.314 555.34,239.314 549.916,195.872 						"/>
						<polygon style="fill:#A64F5A;" points="491.891,195.069 495.233,240.106 488.331,240.106 486.884,194.901 						"/>
						<polygon style="fill:#70303D;" points="561.722,239.314 555.34,239.314 554.795,234.952 560.996,234.901 						"/>
						<polygon style="fill:#70303D;" points="494.887,235.441 495.233,240.106 488.331,240.106 488.184,235.496 						"/>
					</g>
					<g>
						<path style="fill:#A64F5A;" d="M584.503,257.076c-8.998-3.153-14.731-11.785-16.442-16.703c-0.376-1.08-1.4-1.79-2.543-1.778
							l-79.188,0.851c-1.165,0.012-2.182,0.776-2.52,1.89c-4.549,15.013-19.521,32.856-19.521,32.856l3.81,13.784
							c2.22,8.031,0.932,16.656-3.639,23.622c-14.565,22.197-17.09,43.195-17.09,49.92l2.226-0.071l134.908-6.514V257.076z"/>
						<g>
							<g>
								<path style="fill:#70303D;" d="M485.649,317.142c5.67-0.632,12.065-1.493,18.733-2.908
									c6.667-1.403,13.599-3.351,20.34-5.835c6.735-2.502,13.266-5.534,19.24-8.809c5.983-3.265,11.399-6.774,16.114-9.984
									c-3.466,4.518-8.194,9.236-13.932,13.415c-5.725,4.189-12.441,7.828-19.542,10.462c-7.105,2.621-14.573,4.23-21.646,4.776
									C497.881,318.821,491.221,318.316,485.649,317.142z"/>
							</g>
							<g>
								<path style="fill:#70303D;" d="M490.563,304.606c7.36-0.655,16.738-1.516,25.986-3.248
									c9.258-1.681,18.326-4.222,25.435-6.235c-3.068,2.053-6.854,4.065-11.095,5.751c-4.237,1.691-8.924,3.054-13.703,3.938
									c-4.78,0.879-9.645,1.277-14.207,1.209C498.417,305.958,494.162,305.429,490.563,304.606z"/>
							</g>
						</g>
						<path style="fill:#F0BF6C;" d="M558.212,248.033h2.304c1.322,0,2.393-1.071,2.393-2.393v0c0-1.322-1.071-2.393-2.393-2.393
							h-2.304c-1.322,0-2.393,1.071-2.393,2.393v0C555.819,246.962,556.891,248.033,558.212,248.033z"/>
						<path style="fill:#F0BF6C;" d="M490.556,248.033h2.304c1.322,0,2.393-1.071,2.393-2.393v0c0-1.322-1.071-2.393-2.393-2.393
							h-2.304c-1.322,0-2.393,1.071-2.393,2.393v0C488.163,246.962,489.235,248.033,490.556,248.033z"/>
						<path style="fill:#70303D;" d="M509.603,324.392c9.723-0.435,19.545,0.227,29.134-1.446c0.638-0.111,1.283-0.236,1.93-0.373
							c13.279-2.811,22.601-15.013,21.62-28.55c-1.201-16.572,1.662-33.437,8.248-48.691c2.823,4.481,7.563,9.5,13.969,11.744
							v97.857l-134.908,6.514l-2.226,0.071c0-3.438,0.665-10.612,3.256-19.764C468.533,331.39,488.928,325.316,509.603,324.392z"/>
					</g>
				</g>
				<g>
					<path style="fill:#F2C9AD;" d="M529.53,208.911c-6.477,2.989-14.368,2.708-20.616-0.735
						c-5.002-2.757-8.848-7.488-10.663-12.893l5.218,0.175l0.223-21.743h31.538l0.975,23.018l5.041-0.317
						C539.097,201.851,534.845,206.458,529.53,208.911z"/>
					<path style="fill:#422C4F;" d="M504.493,179.244c-0.3-0.557-0.579-1.095-0.841-1.614l0.04-3.915h31.538l0.453,10.689
						C522.17,201.58,509.302,188.187,504.493,179.244z"/>
				</g>
				<g>
					<g>
						<path style="fill:#EBA58E;" d="M555.66,154.211c1.078-1.767,2.5-3.371,4.315-4.365c1.815-0.994,4.057-1.319,5.987-0.572
							c2.85,1.104,4.441,4.285,4.641,7.335c0.309,4.702-2.275,9.477-6.38,11.79c-4.106,2.313-9.528,2.049-13.39-0.652
							C552.36,163.324,553.223,158.205,555.66,154.211z"/>
						<path style="fill:#E78882;" d="M565.408,152.309c-3.713,2.849-6.343,7.076-7.258,11.665c-0.212,1.066-0.21,2.418,0.738,2.949
							c0.793,0.444,1.796,0.02,2.51-0.542c2.484-1.954,3.36-5.695,2-8.548C563.869,155.932,564.243,153.88,565.408,152.309z"/>
					</g>
					<g>
						<path style="fill:#F2C9AD;" d="M558.404,134.038c0.177,8.219-0.063,16.537-2.288,24.451
							c-2.225,7.914-6.346,15.431-12.54,20.837c-6.194,5.406-14.572,8.526-22.731,7.52c-6.649-0.82-12.772-4.273-17.715-8.795
							c-4.943-4.522-8.816-10.082-12.363-15.765c-0.632,3.729-4.795,6.508-8.568,6.784c-3.773,0.276-7.504-1.758-9.768-4.788
							c-2.264-3.03-3.168-6.929-3.043-10.709c0.096-2.918,0.933-6.066,3.289-7.79c2.822-2.064,6.972-1.325,9.738,0.814
							c2.766,2.138,4.444,5.361,5.936,8.523c1.783-4.726,2.57-10.077,1.931-15.087c17.359-4.12,32.053-18.96,35.257-36.511
							C547.994,107.523,558.294,128.941,558.404,134.038z"/>
						<path style="fill:#EBA58E;" d="M477.141,149.609c3.54,2.108,6.098,5.796,6.832,9.85c0.197,1.084,0.213,2.349-0.576,3.118
							c-0.718,0.7-1.877,0.729-2.831,0.418c-1.87-0.61-3.284-2.422-3.421-4.383s1.011-3.953,2.778-4.817
							C479.007,152.535,478.059,150.869,477.141,149.609z"/>
					</g>
					<path style="fill:#EBA58E;" d="M530.01,110.254c-5.524,14.986-19.824,29.778-39.728,29.778
						c17.359-4.12,32.053-18.96,35.257-36.511c22.455,4.002,32.755,25.419,32.866,30.517
						C552.714,122.57,542.284,113.894,530.01,110.254z"/>
					<g>
						<path style="fill:#DF8D6D;" d="M500.513,134.386c5.78-0.939,11.56-1.879,17.34-2.818c-2.397-2.257-5.937-3.464-9.199-3.015
							C505.393,129.001,502.212,131.566,500.513,134.386z"/>
						<path style="fill:#DF8D6D;" d="M554.923,137.317c-4.978-1.262-9.956-2.525-14.934-3.788c1.669-2.768,5.144-4.189,8.306-3.515
							C551.457,130.688,554.527,134.109,554.923,137.317z"/>
						<path style="fill:#422C4F;" d="M506.957,147.112c0,1.783,1.445,3.228,3.228,3.228c1.783,0,3.228-1.445,3.228-3.228
							c0-1.783-1.445-3.228-3.228-3.228C508.402,143.884,506.957,145.329,506.957,147.112z"/>
						<circle style="fill:#422C4F;" cx="544.228" cy="148.04" r="3.228"/>
						<path style="fill:#EBA58E;" d="M522.543,157.189c3.6-0.432,7.255-0.405,10.848,0.081c-1.344,1.586-2.962,2.906-5.041,2.915
							C526.271,160.193,523.9,158.764,522.543,157.189z"/>
						<path style="fill:#FFFFFF;" d="M512.896,165.443c8.263-0.389,16.568,0.129,24.718,1.543
							c-2.344,4.472-7.638,7.566-12.679,7.281C519.893,173.982,514.721,170.151,512.896,165.443z"/>
						<path style="fill:#EBA58E;" d="M518.377,177.693c3.705,0.642,7.51,0.701,11.234,0.174c-1.451,1.469-3.285,2.638-5.349,2.605
							C522.198,180.439,519.78,179.208,518.377,177.693z"/>
					</g>
					<path style="fill:#E68799;" d="M511.186,158.582c-0.672,2.62-5.03,3.766-9.735,2.559s-7.973-4.309-7.301-6.929
						c0.672-2.62,5.03-3.766,9.735-2.559C508.589,152.86,511.858,155.962,511.186,158.582z"/>
					<path style="fill:#E68799;" d="M543.21,158.949c0.672,2.62,4.052,4.017,7.549,3.12c3.497-0.897,5.787-3.748,5.115-6.368
						c-0.672-2.62-4.052-4.017-7.549-3.12C544.828,153.477,542.538,156.329,543.21,158.949z"/>
				</g>
				<path style="fill:#797C99;" d="M517.375,261.537c-2.542,0.215-2.609,4.6-2.119,10.389c0.49,5.789,1.352,10.789,3.894,10.574
					c0.481-0.041,0.93-0.249,1.34-0.598c-1.449-1.463-2.059-5.478-2.44-9.984c-0.4-4.73-0.427-8.52,0.963-9.866
					C518.483,261.681,517.932,261.49,517.375,261.537z"/>
				<g>
					<g>
						<path style="fill:#99A3B0;" d="M511.242,254.448l42.288-35.425c-7.531,21.206-25.932,27.516-33.431,30.902l-7.28,6.829
							L511.242,254.448z"/>
						<path style="fill:#797C99;" d="M513.154,256.504c1.545,2.03-1.663,5.02-6.287,8.538c-4.623,3.518-8.911,6.231-10.456,4.201
							c-0.292-0.384-0.439-0.857-0.455-1.395c2.057,0.094,5.445-2.146,9.043-4.883c3.778-2.874,6.607-5.396,6.674-7.33
							C512.305,255.779,512.816,256.06,513.154,256.504z"/>
					</g>
					<path style="fill:#EBA58E;" d="M519.781,273.24c1.173-0.092,2.383-0.179,3.499,0.214c1.116,0.392,2.125,1.391,2.192,2.625
						c0.078,1.439-1.138,2.649-2.449,3.073c-1.31,0.424-2.715,0.278-4.086,0.299c-5.41,0.08-10.455,2.784-15.783,3.776
						c-4.718,0.879-9.661,0.379-14.132-1.43c-1.927-0.779-3.833-1.854-5.059-3.599c-1.227-1.746-1.604-4.292-0.441-6.085
						c1.222-1.885,3.634-2.384,5.799-2.536c5.267-0.371,10.601,0.381,15.595,2.176c2.143,0.77,4.064,2.265,6.335,2.153
						C514.095,273.765,516.941,273.461,519.781,273.24z"/>
					<g>
						<path style="fill:#F2C9AD;" d="M437.129,280.276l39.404-3.785l8.819-10.857c2.598-3.199,6.487-5.075,10.608-5.102
							c6.093-0.04,12.969,0.301,17.641,2.171c0.84,0.336,1.689,0.706,2.352,1.322c0.663,0.616,1.116,1.528,0.959,2.419
							c-0.213,1.214-1.487,2.001-2.714,2.106c-1.228,0.106-2.433-0.302-3.618-0.639c-6.047-1.719-12.583-1.673-18.605,0.129
							c6.54,0.859,12.967,2.888,18.944,5.676c1.673,0.78,3.401,1.709,4.128,3.508c0.235,0.581,0.3,1.233,0.164,1.845
							c-0.43,1.944-2.166,2.328-3.617,2.006c-0.915-0.203-1.752-0.653-2.596-1.062c-6.104-2.954-13.173-3.869-19.827-2.566
							c6.547,1.472,13.043,5.211,17.969,9.767c0.799,0.739,1.584,1.538,2.013,2.538c0.429,1,0.433,2.25-0.253,3.095
							c-0.634,0.78-1.728,1.064-2.729,0.967c-1.001-0.097-1.938-0.517-2.854-0.931c-4.387-1.984-8.774-3.969-13.161-5.953
							c3.724,3.645,7.59,7.228,12.234,9.591c1.05,0.534,2.244,1.173,2.207,2.529c-0.02,0.743-0.487,1.411-1.129,1.786
							c-1.385,0.809-2.951,0.424-4.368-0.062c-3.85-1.32-7.437-3.401-10.494-6.087c-3.844,1.632-7.99,2.123-11.961,0.832
							l-51.829,18.744c-5.328,1.927-11.28,0.856-15.602-2.808l0,0c-5.144-4.36-6.957-11.503-4.515-17.789l10.907-28.076
							l25.141,6.909L437.129,280.276z"/>
						<polygon style="fill:#422C4F;" points="415.606,265.592 440.747,272.502 438.502,277.326 415.061,266.995 						"/>
						<path style="fill:#EBA58E;" d="M416.964,282.213l20.164-1.937l0.61-1.311C424.217,275.156,416.964,282.213,416.964,282.213z"
							/>
					</g>
					<g>
						<g>
							<path style="fill:#99A3B0;" d="M520.183,261.577l-2.072-55.126c-10.683,19.806-3.027,37.688-0.511,45.523l-0.185,9.98
								L520.183,261.577z"/>
						</g>
						<path style="fill:#99A3B0;" d="M520.168,261.529l-2.793,0.008c0.557-0.047,1.108,0.144,1.637,0.515
							c1.886,1.321,3.471,5.056,3.854,9.577c0.397,4.693-0.622,8.78-2.376,10.273c-0.409,0.349-0.859,0.557-1.34,0.598l2.793-0.008
							c2.542-0.215,4.206-5.082,3.716-10.871C525.168,265.832,522.71,261.314,520.168,261.529z"/>
					</g>
					<path style="fill:#99A3B0;" d="M511.287,254.427l1.867,2.077c-0.338-0.445-0.85-0.725-1.479-0.869
						c-2.245-0.513-6.078,0.815-9.689,3.562c-3.748,2.852-6.097,6.348-6.029,8.651c0.016,0.538,0.163,1.01,0.455,1.395l-1.867-2.077
						c-1.545-2.03,0.951-6.528,5.574-10.046C504.742,253.602,509.742,252.397,511.287,254.427z"/>
				</g>
			</g>
			<g>
				<path style="fill:#495375;" d="M661.927,427.433l-67.624,0.185l10.704-19.471l46.262-0.126
					c7.099-0.019,13.529,4.185,16.358,10.696l0,0C669.413,422.826,666.408,427.421,661.927,427.433z"/>
				<g>
					<g>
						<path style="fill:#797C99;" d="M388.616,366.203c-2.904,2.396-5.335,5.283-7.27,8.48c-0.129-0.647-0.25-1.296-0.353-1.944
							c-1.368-8.553-0.801-17.397,1.564-25.727c1.57-1.038,3.301-1.833,5.12-2.317c-1.399-0.417-2.833-0.593-4.251-0.501
							c0.737-2.177,1.597-4.312,2.584-6.388c2.26-4.753,5.142-9.056,8.543-12.896c3.133-3.537,8.845-0.496,7.659,4.078
							c-1.058,4.082-1.551,8.29-1.338,12.51c0.519,10.261,5.582,20.493,14.23,26.04c8.648,5.547,20.85,5.621,28.84-0.837
							c0.02,9.229-3.149,21.678-5.509,30.601c-5.763,1.621-11.588,3.213-17.506,4.002c-0.448-4.02-0.416-8.093,0.126-12.101
							c-2.278,3.837-3.943,8.122-4.933,12.531c-0.454,0.023-0.907,0.061-1.363,0.072c-3.18,0.074-6.408-0.191-9.533-0.851
							c-0.436-6.831,0.537-13.753,2.879-20.185c-4.209,5.404-7.086,11.822-8.377,18.547c-1.825-0.723-3.575-1.614-5.21-2.693
							c-0.03-6.034,1.161-12.074,3.516-17.63c-3.836,3.792-6.47,8.85-7.689,14.181c-2.931-2.986-5.115-6.628-6.684-10.565
							C384.178,376.879,385.855,371.252,388.616,366.203z"/>
					</g>
					<g>
						<path style="fill:#495375;" d="M432.11,371.461c4.307-0.472,8.45-2.023,11.835-4.759c0.02,9.229-3.149,21.678-5.509,30.601
							c-5.763,1.621-11.588,3.213-17.506,4.002c-0.373-3.347-0.392-6.73-0.083-10.083c1.68,0.029,3.365-0.048,5.044-0.25
							C426.768,384.166,428.895,377.524,432.11,371.461z"/>
						<path style="fill:#495375;" d="M399.728,399.317c-1.825-0.723-3.575-1.614-5.21-2.693c-0.024-4.847,0.753-9.693,2.275-14.293
							c2.233,1.841,4.677,3.414,7.263,4.713C402.017,390.891,400.549,395.041,399.728,399.317z"/>
						<path style="fill:#495375;" d="M416.123,401.735c-0.454,0.023-0.907,0.061-1.363,0.072c-3.18,0.074-6.408-0.191-9.533-0.851
							c-0.276-4.332,0.018-8.701,0.865-12.958c4.374,1.893,9.087,2.997,13.87,3.191
							C418.242,394.496,416.946,398.071,416.123,401.735z"/>
						<path style="fill:#495375;" d="M395.832,381.502c-2.645,3.391-4.518,7.441-5.486,11.674
							c-2.931-2.986-5.115-6.628-6.684-10.565c0.398-4.42,1.493-8.775,3.237-12.854c0.764,1.517,1.609,2.997,2.546,4.426
							C391.239,376.919,393.406,379.362,395.832,381.502z"/>
						<path style="fill:#495375;" d="M381.689,350.493c0.488,6.206,1.969,12.295,4.563,17.892c-1.878,1.9-3.524,4.015-4.905,6.298
							c-0.129-0.647-0.25-1.296-0.353-1.944C379.814,365.368,380.08,357.782,381.689,350.493z"/>
					</g>
				</g>
				<path style="fill:#797C99;" d="M670.885,237.587l-26.273-10.927c-2.433-1.012-4.326-2.948-5.439-5.336
					c-4.615-9.896-15.029-17.468-25.786-19.002c-12.047-1.718-24.848,4.094-31.484,14.294c-9.149,14.063-4.074,34.905-4.203,51.681
					c-0.129,16.776-2.77,34.759-14.16,47.077c-11.578,12.522-29.644,16.465-46.63,18.001c-16.985,1.536-34.606,1.435-50.223,8.288
					c-15.308,6.717-27.539,20.121-32.829,35.979c-5.29,15.858-3.558,33.921,4.651,48.483c2.602,4.656,14.62,3.398,14.62,3.398
					l122.107-0.334c26.937-0.074,78.01-47.743,64.832-90.747c-10.555-34.443-11.945-59.771-10.418-74.443
					c0.53-5.099,4.872-8.951,9.999-8.965l9.56-0.026c4.869-0.013,9.471-2.227,12.521-6.024L670.885,237.587z"/>
				<path style="fill:#422C4F;" d="M673.056,234.693c0.56,0.322,1.111,0.692,1.493,1.212c0.383,0.521,0.572,1.221,0.348,1.827
					c-0.255,0.691-0.963,1.099-1.647,1.373c-2.311,0.926-4.968,0.955-7.299,0.079c-1.731-0.65-5.184-2.516-4.28-4.86
					c0.911-2.364,4.873-1.707,6.767-1.34C670.058,233.297,671.627,233.871,673.056,234.693z"/>
				<g>
					<path style="fill:#422C4F;" d="M614.115,222.112c0.687-1.036,1.934-1.983,3.494-2.428c1.549-0.456,3.405-0.407,5.063,0.289
						c1.659,0.695,2.996,1.983,3.757,3.407c0.777,1.424,0.977,2.977,0.719,4.193c-1.197-2.172-3.13-4.195-5.489-5.184
						C619.301,221.401,616.503,221.442,614.115,222.112z"/>
				</g>
				<path style="fill:#495375;" d="M576.501,339.625c-4.077,11.881-7.028,24.149-8.803,36.584c-0.145,1.015-1.602,1.025-1.761,0.012
					c-1.681-10.665,0.093-21.851,5.152-31.403c-5.173,5.592-9.76,11.718-13.702,18.236c-0.521,0.861-1.845,0.342-1.635-0.643
					c1.34-6.276,4.591-12.166,9.253-16.564c2.812-2.653,6.679-5.148,10.203-7.279C575.922,338.137,576.772,338.837,576.501,339.625z
					"/>
				<path style="fill:#495375;" d="M609.718,258.583c-0.123-1.077,1.426-1.395,1.741-0.358l2.236,7.363
					c0.986,3.247,1.978,6.521,2.293,9.9c0.229,2.446,0.08,4.974-0.651,7.305c-0.274,0.876-1.524,0.828-1.728-0.067
					C611.816,274.873,610.645,266.684,609.718,258.583z"/>
				<g>
					<path style="fill:#5C5F77;" d="M605.255,262.612c3.051,9.618,6.124,19.344,6.862,29.407
						c0.739,10.063-1.409,23.193-7.342,31.354c-2.75,3.783-6.795,7.144-11.472,7.12c-4.939-0.025-9.013-3.733-12.325-7.396
						c-4.337-4.796-8.291-9.935-11.833-15.344c6.699-11.515,8.451-25.879,8.555-39.455c0.1-13.027-2.934-28.504-0.013-41.356
						l17.481-1.033C598.967,237.884,601.456,250.637,605.255,262.612z"/>
					<path style="fill:#495375;" d="M531.484,407.823c-0.313-9.482,0.963-19.113,3.5-28.312c0.275-0.996,1.76-0.791,1.751,0.243
						c-0.07,7.781,0.859,15.644,2.685,23.255c0.704,2.933,4.97,2.625,5.255-0.378c0.918-9.673,2.657-19.265,5.038-28.704
						c0.258-1.021,1.755-0.831,1.755,0.223c0,10.629,1.323,21.304,3.387,31.774c0.525,2.662,4.206,2.963,5.135,0.414
						c3.163-8.675,8.076-21.398,11.586-26.957c5.579-8.837,31.444-20.65,38.576-17.701c7.132,2.949,9.837,15.111,6.535,33.224
						c4.288-5.714,7.87-11.862,9.92-18.681c3.53-11.743,2.838-25.447-3.074-36.187c-0.424-0.771,0.427-1.615,1.206-1.205
						c2.144,1.131,4.167,2.376,5.915,3.92c1.251,1.105,3.182,0.088,2.961-1.566c-2.039-15.271-6.815-30.518-14.433-43.857
						c-0.486-0.851,0.563-1.743,1.327-1.129c0.879,0.706,1.762,1.405,2.639,2.114c1.276,1.032,3.133-0.046,2.878-1.667
						c-1.85-11.737-1.965-23.645-1.462-35.553c0.221-5.23,4.529-9.357,9.764-9.371l11.434-0.031
						c6.402-0.018,12.665-1.863,18.054-5.318l0.031-0.02l-2.116,2.635c-3.049,3.796-7.651,6.011-12.521,6.024l-9.56,0.026
						c-5.127,0.014-9.468,3.865-9.999,8.965c-1.526,14.672-0.136,40,10.418,74.443c13.178,43.004-37.895,90.673-64.832,90.747
						l-122.107,0.334c0,0-5.863,0.611-10.285-0.606C469.838,414.156,501.1,405.803,531.484,407.823z"/>
				</g>
				<g>
					<path style="fill:#797C99;" d="M583.985,216.648c5.956-2.104,11.907,2.985,11.183,9.261
						c-1.182,10.242,1.518,20.883,4.728,30.84c3.901,12.103,8.614,24.355,8.053,37.059c-0.44,9.962-4.328,19.705-10.705,27.357
						c-3.255,3.907-9.17,4.235-12.865,0.741c-6.255-5.913-12.296-12.337-15.421-20.048c-3.737-9.222-3.719-19.533-3.004-29.428
						c0.99-13.71,3.418-27.29,7.348-40.462c1.508-5.054,3.475-10.211,7.513-13.562C581.722,217.653,582.807,217.064,583.985,216.648
						z"/>
					<path style="fill:#495375;" d="M571.637,299.422c1.141,1.934,4.035,1.437,4.484-0.763c0.594-2.911,1.374-5.778,2.336-8.623
						c-0.052,5.057-0.095,10.188,1.209,15.075c0.761,2.852,2,5.475,3.784,7.645c1.511,1.838,4.503,0.647,4.366-1.728
						c-0.365-6.316-0.782-12.753-1.104-18.966c1.745,5.857,3.711,11.772,5.574,17.66c0.872,2.755,4.761,2.751,5.631-0.004
						c0.875-2.77,1.176-5.763,1.022-8.668c-0.285-5.418-1.45-11.023-3.137-16.18c2.278,3.06,4.172,6.712,5.471,10.467
						c0.346,1,1.816,0.781,1.844-0.276c0.276-10.535-2.956-21.061-5.666-31.362c-2.73-10.378-4.905-21.512-2.555-31.812
						c0.156,8.354,2.41,16.831,4.999,24.863c3.901,12.103,8.614,24.355,8.053,37.059c-0.44,9.962-4.328,19.705-10.705,27.357
						c-3.255,3.907-9.17,4.235-12.865,0.741c-6.255-5.913-12.296-12.336-15.421-20.048c-1.995-4.922-2.913-10.154-3.233-15.468
						C567.215,290.919,569.197,295.286,571.637,299.422z"/>
				</g>
				<path style="fill:#495375;" d="M456.265,395.789l-3.836,33.793c-2.596,0.183-11.696,0.524-13.92-3.456
					c-1.345-2.386-2.498-4.873-3.493-7.422C438.708,411.746,447.697,399.28,456.265,395.789z"/>
				<g>
					<path style="fill:#797C99;" d="M567.794,394.002l-4.933,22.316c-1.831,8.28,4.485,16.123,12.965,16.1l66.542-0.182
						c3.917-0.011,6.413-4.189,4.565-7.643l-1.914-3.577c-2.004-3.745-5.912-6.079-10.159-6.067l-37.992,0.104
						c18.417-22.22,25.441-58.749,4.65-63.442C580.725,346.918,572.634,372.11,567.794,394.002z"/>
					<g>
						<path style="fill:#495375;" d="M641.635,423.437c-0.778-1.525-1.868-2.784-3.004-3.723c1.372,0.532,2.834,1.617,3.906,3.18
							c1.077,1.549,1.759,3.569,1.71,5.632c-0.031,1.301-0.352,2.571-0.873,3.708l-1.363,0.004c0.494-1.174,0.801-2.454,0.834-3.745
							C642.883,426.727,642.416,424.954,641.635,423.437z"/>
						<path style="fill:#495375;" d="M636.106,429.457c0.308-1.543,0.162-3.175-0.306-4.624c-0.464-1.456-1.249-2.717-2.125-3.701
							c1.138,0.655,2.28,1.818,2.998,3.353c0.725,1.522,1.025,3.407,0.662,5.215c-0.177,0.913-0.509,1.768-0.93,2.552l-1.319,0.004
							C635.542,431.366,635.919,430.432,636.106,429.457z"/>
					</g>
				</g>
				<g>
					<path style="fill:#797C99;" d="M471.327,358.454c15.295-6.044,34.148-1.533,45.05,10.78
						c10.902,12.313,13.098,31.573,5.247,46.024l15.956-0.044c3.826-0.01,7.203,2.498,8.298,6.163l1.806,6.045
						c0.756,2.53-1.134,5.075-3.775,5.082l-90.869,0.248c-8.054,0.022-13.761-8.019-10.907-15.551
						c4.769-12.587,14.132-21.413,14.132-21.413C451.767,378.882,456.677,364.833,471.327,358.454z"/>
					<path style="fill:#495375;" d="M483.755,355.839c12.118-0.555,24.55,4.278,32.622,13.395
						c10.902,12.313,13.098,31.573,5.247,46.024l-10.763,0.029C521.938,395.61,520.498,364.172,483.755,355.839z"/>
					<g>
						<path style="fill:#495375;" d="M541.703,429.258c-0.355-2.078-1.052-4.097-1.956-5.897c-0.901-1.805-2.008-3.383-3.096-4.701
							c1.444,0.908,2.942,2.294,4.147,4.083c1.21,1.781,2.119,3.958,2.508,6.243c0.199,1.171,0.255,2.359,0.193,3.52l-1.517,0.004
							C541.972,431.429,541.885,430.336,541.703,429.258z"/>
						<path style="fill:#495375;" d="M533.759,430.517c-0.264-3.576-1.39-7.023-2.606-9.605c0.971,1.044,1.914,2.442,2.621,4.083
							c0.712,1.638,1.186,3.512,1.338,5.415c0.055,0.708,0.051,1.416,0.019,2.118l-1.301,0.004
							C533.832,431.864,533.815,431.191,533.759,430.517z"/>
					</g>
				</g>
			</g>
		</g>
	</g>
</g>
</svg>
